<svg xmlns="http://www.w3.org/2000/svg" viewBox="0 0 900 420" preserveAspectRatio="xMidYMid meet">
  <defs>
    <filter id="shadow" x="-4%" y="-4%" width="112%" height="112%">
      <feDropShadow dx="0" dy="2" stdDeviation="4" flood-color="rgba(0,0,0,0.08)"/>
    </filter>
    <filter id="shadowMd" x="-6%" y="-6%" width="116%" height="116%">
      <feDropShadow dx="0" dy="4" stdDeviation="8" flood-color="rgba(0,0,0,0.10)"/>
    </filter>
    <filter id="shadowLg" x="-8%" y="-8%" width="120%" height="120%">
      <feDropShadow dx="0" dy="6" stdDeviation="12" flood-color="rgba(0,0,0,0.12)"/>
    </filter>
    <linearGradient id="funnelGrad" x1="0" y1="0" x2="0" y2="1">
      <stop offset="0%" stop-color="#C2410C" stop-opacity="0.9"/>
      <stop offset="100%" stop-color="#9A3412"/>
    </linearGradient>
    <linearGradient id="funnelInner" x1="0" y1="0" x2="0" y2="1">
      <stop offset="0%" stop-color="#EA580C" stop-opacity="0.3"/>
      <stop offset="100%" stop-color="#C2410C" stop-opacity="0.1"/>
    </linearGradient>
    <linearGradient id="greenBar" x1="0" y1="0" x2="1" y2="0">
      <stop offset="0%" stop-color="#059669"/>
      <stop offset="100%" stop-color="#10B981"/>
    </linearGradient>
    <linearGradient id="blueBar" x1="0" y1="0" x2="1" y2="0">
      <stop offset="0%" stop-color="#2563EB"/>
      <stop offset="100%" stop-color="#3B82F6"/>
    </linearGradient>
    <linearGradient id="amberBar" x1="0" y1="0" x2="1" y2="0">
      <stop offset="0%" stop-color="#B45309"/>
      <stop offset="100%" stop-color="#D97706"/>
    </linearGradient>
    <clipPath id="funnelClip">
      <polygon points="330,80 580,80 530,340 380,340"/>
    </clipPath>
  </defs>

  <!-- LEFT SECTION: Resume Stack (~x=30-280) -->
  <g>
    <!-- Resume card 10 (bottom of stack) -->
    <g transform="translate(95, 195) rotate(-6)">
      <rect x="0" y="0" width="150" height="190" rx="6" fill="#FFFFFF" stroke="rgba(0,0,0,0.08)" stroke-width="1" filter="url(#shadow)"/>
      <rect x="15" y="18" width="50" height="6" rx="3" fill="#D4D4D8"/>
      <rect x="15" y="30" width="80" height="4" rx="2" fill="#E4E4E7"/>
      <rect x="15" y="42" width="120" height="3" rx="1.5" fill="#F4F4F5"/>
      <rect x="15" y="50" width="110" height="3" rx="1.5" fill="#F4F4F5"/>
      <rect x="15" y="58" width="100" height="3" rx="1.5" fill="#F4F4F5"/>
    </g>

    <!-- Resume card 9 -->
    <g transform="translate(100, 185) rotate(4)">
      <rect x="0" y="0" width="150" height="190" rx="6" fill="#FFFFFF" stroke="rgba(0,0,0,0.08)" stroke-width="1" filter="url(#shadow)"/>
      <rect x="15" y="18" width="55" height="6" rx="3" fill="#D4D4D8"/>
      <rect x="15" y="30" width="75" height="4" rx="2" fill="#E4E4E7"/>
      <rect x="15" y="42" width="120" height="3" rx="1.5" fill="#F4F4F5"/>
      <rect x="15" y="50" width="105" height="3" rx="1.5" fill="#F4F4F5"/>
    </g>

    <!-- Resume card 8 -->
    <g transform="translate(88, 175) rotate(-3)">
      <rect x="0" y="0" width="150" height="190" rx="6" fill="#FFFFFF" stroke="rgba(0,0,0,0.08)" stroke-width="1" filter="url(#shadow)"/>
      <rect x="15" y="18" width="60" height="6" rx="3" fill="#D4D4D8"/>
      <rect x="15" y="30" width="85" height="4" rx="2" fill="#E4E4E7"/>
      <rect x="15" y="42" width="115" height="3" rx="1.5" fill="#F4F4F5"/>
      <rect x="15" y="50" width="100" height="3" rx="1.5" fill="#F4F4F5"/>
      <rect x="15" y="58" width="90" height="3" rx="1.5" fill="#F4F4F5"/>
      <!-- Red X -->
      <g transform="translate(122, 14)">
        <circle cx="0" cy="0" r="9" fill="#FEE2E2"/>
        <line x1="-4" y1="-4" x2="4" y2="4" stroke="#DC2626" stroke-width="2" stroke-linecap="round"/>
        <line x1="4" y1="-4" x2="-4" y2="4" stroke="#DC2626" stroke-width="2" stroke-linecap="round"/>
      </g>
    </g>

    <!-- Resume card 7 -->
    <g transform="translate(92, 165) rotate(2)">
      <rect x="0" y="0" width="150" height="190" rx="6" fill="#FFFFFF" stroke="rgba(0,0,0,0.08)" stroke-width="1" filter="url(#shadow)"/>
      <rect x="15" y="18" width="48" height="6" rx="3" fill="#D4D4D8"/>
      <rect x="15" y="30" width="90" height="4" rx="2" fill="#E4E4E7"/>
      <rect x="15" y="42" width="118" height="3" rx="1.5" fill="#F4F4F5"/>
      <rect x="15" y="50" width="95" height="3" rx="1.5" fill="#F4F4F5"/>
    </g>

    <!-- Resume card 6 -->
    <g transform="translate(85, 155) rotate(-5)">
      <rect x="0" y="0" width="150" height="190" rx="6" fill="#FFFFFF" stroke="rgba(0,0,0,0.08)" stroke-width="1" filter="url(#shadow)"/>
      <rect x="15" y="18" width="65" height="6" rx="3" fill="#D4D4D8"/>
      <rect x="15" y="30" width="78" height="4" rx="2" fill="#E4E4E7"/>
      <rect x="15" y="42" width="110" height="3" rx="1.5" fill="#F4F4F5"/>
      <rect x="15" y="50" width="120" height="3" rx="1.5" fill="#F4F4F5"/>
      <rect x="15" y="58" width="85" height="3" rx="1.5" fill="#F4F4F5"/>
    </g>

    <!-- Resume card 5 -->
    <g transform="translate(90, 145) rotate(3)">
      <rect x="0" y="0" width="150" height="190" rx="6" fill="#FFFFFF" stroke="rgba(0,0,0,0.08)" stroke-width="1" filter="url(#shadow)"/>
      <rect x="15" y="18" width="58" height="6" rx="3" fill="#D4D4D8"/>
      <rect x="15" y="30" width="82" height="4" rx="2" fill="#E4E4E7"/>
      <rect x="15" y="42" width="112" height="3" rx="1.5" fill="#F4F4F5"/>
      <rect x="15" y="50" width="98" height="3" rx="1.5" fill="#F4F4F5"/>
      <!-- Red X -->
      <g transform="translate(122, 14)">
        <circle cx="0" cy="0" r="9" fill="#FEE2E2"/>
        <line x1="-4" y1="-4" x2="4" y2="4" stroke="#DC2626" stroke-width="2" stroke-linecap="round"/>
        <line x1="4" y1="-4" x2="-4" y2="4" stroke="#DC2626" stroke-width="2" stroke-linecap="round"/>
      </g>
    </g>

    <!-- Resume card 4 -->
    <g transform="translate(82, 135) rotate(-2)">
      <rect x="0" y="0" width="150" height="190" rx="6" fill="#FFFFFF" stroke="rgba(0,0,0,0.08)" stroke-width="1" filter="url(#shadow)"/>
      <rect x="15" y="18" width="52" height="6" rx="3" fill="#D4D4D8"/>
      <rect x="15" y="30" width="88" height="4" rx="2" fill="#E4E4E7"/>
      <rect x="15" y="42" width="116" height="3" rx="1.5" fill="#F4F4F5"/>
      <rect x="15" y="50" width="102" height="3" rx="1.5" fill="#F4F4F5"/>
      <rect x="15" y="58" width="80" height="3" rx="1.5" fill="#F4F4F5"/>
    </g>

    <!-- Resume card 3 -->
    <g transform="translate(86, 125) rotate(1)">
      <rect x="0" y="0" width="150" height="190" rx="6" fill="#FFFFFF" stroke="rgba(0,0,0,0.08)" stroke-width="1" filter="url(#shadow)"/>
      <rect x="15" y="18" width="62" height="6" rx="3" fill="#D4D4D8"/>
      <rect x="15" y="30" width="76" height="4" rx="2" fill="#E4E4E7"/>
      <rect x="15" y="42" width="122" height="3" rx="1.5" fill="#F4F4F5"/>
      <rect x="15" y="50" width="108" height="3" rx="1.5" fill="#F4F4F5"/>
    </g>

    <!-- Resume card 2 (near top) -->
    <g transform="translate(80, 115) rotate(-1.5)">
      <rect x="0" y="0" width="150" height="190" rx="6" fill="#FFFFFF" stroke="rgba(0,0,0,0.08)" stroke-width="1" filter="url(#shadow)"/>
      <circle cx="35" cy="30" r="14" fill="#F4F4F5"/>
      <rect x="58" y="22" width="60" height="6" rx="3" fill="#D4D4D8"/>
      <rect x="58" y="34" width="45" height="4" rx="2" fill="#E4E4E7"/>
      <rect x="15" y="55" width="120" height="3" rx="1.5" fill="#F4F4F5"/>
      <rect x="15" y="63" width="110" height="3" rx="1.5" fill="#F4F4F5"/>
      <rect x="15" y="71" width="95" height="3" rx="1.5" fill="#F4F4F5"/>
      <rect x="15" y="85" width="50" height="5" rx="2.5" fill="#E4E4E7"/>
      <rect x="70" y="85" width="40" height="5" rx="2.5" fill="#E4E4E7"/>
      <rect x="15" y="100" width="120" height="3" rx="1.5" fill="#F4F4F5"/>
      <rect x="15" y="108" width="105" height="3" rx="1.5" fill="#F4F4F5"/>
      <rect x="15" y="116" width="115" height="3" rx="1.5" fill="#F4F4F5"/>
    </g>

    <!-- Resume card 1 (top of stack, most visible) -->
    <g transform="translate(75, 105) rotate(0.5)">
      <rect x="0" y="0" width="150" height="190" rx="6" fill="#FFFFFF" stroke="rgba(0,0,0,0.08)" stroke-width="1" filter="url(#shadowMd)"/>
      <circle cx="35" cy="30" r="14" fill="#F0F0F0"/>
      <rect x="14" y="20" width="6" height="6" rx="3" fill="#D4D4D8" transform="translate(44, 0)"/>
      <rect x="58" y="22" width="65" height="6" rx="3" fill="#D4D4D8"/>
      <rect x="58" y="34" width="50" height="4" rx="2" fill="#E4E4E7"/>
      <line x1="15" y1="50" x2="135" y2="50" stroke="rgba(0,0,0,0.06)" stroke-width="1"/>
      <rect x="15" y="58" width="120" height="3" rx="1.5" fill="#F4F4F5"/>
      <rect x="15" y="66" width="108" height="3" rx="1.5" fill="#F4F4F5"/>
      <rect x="15" y="74" width="115" height="3" rx="1.5" fill="#F4F4F5"/>
      <rect x="15" y="88" width="45" height="5" rx="2.5" fill="#DBEAFE"/>
      <rect x="64" y="88" width="38" height="5" rx="2.5" fill="#D1FAE5"/>
      <rect x="106" y="88" width="30" height="5" rx="2.5" fill="#FEF3C7"/>
      <rect x="15" y="102" width="120" height="3" rx="1.5" fill="#F4F4F5"/>
      <rect x="15" y="110" width="100" height="3" rx="1.5" fill="#F4F4F5"/>
      <rect x="15" y="118" width="112" height="3" rx="1.5" fill="#F4F4F5"/>
      <rect x="15" y="132" width="120" height="3" rx="1.5" fill="#F4F4F5"/>
      <rect x="15" y="140" width="90" height="3" rx="1.5" fill="#F4F4F5"/>
    </g>

    <!-- "73 applicants" badge -->
    <g transform="translate(185, 85)">
      <rect x="0" y="0" width="100" height="30" rx="15" fill="#C2410C" filter="url(#shadowMd)"/>
      <text x="50" y="20" text-anchor="middle" fill="#FFFFFF" font-size="12" font-weight="600" font-family="system-ui, -apple-system, sans-serif">73 applicants</text>
    </g>

    <!-- Subtle label -->
    <text x="155" y="380" text-anchor="middle" fill="#64748B" font-size="11" font-family="system-ui, -apple-system, sans-serif" font-weight="500">Incoming Resumes</text>
  </g>

  <!-- CENTER SECTION: AI Filter Funnel (~x=310-580) -->
  <g>
    <!-- Funnel body -->
    <polygon points="325,95 585,95 540,290 370,290" fill="url(#funnelGrad)" filter="url(#shadowLg)" opacity="0.95"/>
    <!-- Funnel spout -->
    <rect x="410" y="290" width="90" height="50" rx="4" fill="url(#funnelGrad)"/>
    <!-- Inner funnel highlight -->
    <polygon points="340,105 570,105 532,280 378,280" fill="url(#funnelInner)"/>

    <!-- Funnel decoration: scanning lines -->
    <line x1="360" y1="135" x2="550" y2="135" stroke="rgba(255,255,255,0.2)" stroke-width="1" stroke-dasharray="4,6"/>
    <line x1="370" y1="165" x2="540" y2="165" stroke="rgba(255,255,255,0.2)" stroke-width="1" stroke-dasharray="4,6"/>
    <line x1="380" y1="195" x2="530" y2="195" stroke="rgba(255,255,255,0.15)" stroke-width="1" stroke-dasharray="4,6"/>
    <line x1="390" y1="225" x2="520" y2="225" stroke="rgba(255,255,255,0.12)" stroke-width="1" stroke-dasharray="4,6"/>
    <line x1="398" y1="255" x2="512" y2="255" stroke="rgba(255,255,255,0.1)" stroke-width="1" stroke-dasharray="4,6"/>

    <!-- AI icon in funnel center -->
    <g transform="translate(455, 175)">
      <circle cx="0" cy="0" r="28" fill="rgba(255,255,255,0.15)"/>
      <circle cx="0" cy="0" r="20" fill="rgba(255,255,255,0.2)"/>
      <!-- Brain/AI symbol -->
      <circle cx="0" cy="-4" r="8" fill="none" stroke="#FFFFFF" stroke-width="1.5"/>
      <path d="M-6,0 Q-6,8 0,10 Q6,8 6,0" fill="none" stroke="#FFFFFF" stroke-width="1.5"/>
      <circle cx="-3" cy="-5" r="1.5" fill="#FFFFFF"/>
      <circle cx="3" cy="-5" r="1.5" fill="#FFFFFF"/>
      <line x1="0" y1="10" x2="0" y2="14" stroke="#FFFFFF" stroke-width="1.5" stroke-linecap="round"/>
      <line x1="-4" y1="12" x2="4" y2="12" stroke="#FFFFFF" stroke-width="1.5" stroke-linecap="round"/>
    </g>

    <!-- "AI Filter" label -->
    <text x="455" y="245" text-anchor="middle" fill="rgba(255,255,255,0.85)" font-size="13" font-weight="600" font-family="system-ui, -apple-system, sans-serif" letter-spacing="1.5">AI FILTER</text>

    <!-- Flow arrows entering funnel (left side) -->
    <g opacity="0.4">
      <line x1="270" y1="160" x2="320" y2="130" stroke="#C2410C" stroke-width="2" stroke-linecap="round"/>
      <polygon points="320,130 312,128 316,136" fill="#C2410C"/>
      <line x1="270" y1="210" x2="330" y2="170" stroke="#C2410C" stroke-width="2" stroke-linecap="round"/>
      <polygon points="330,170 322,168 326,176" fill="#C2410C"/>
      <line x1="270" y1="260" x2="340" y2="210" stroke="#C2410C" stroke-width="2" stroke-linecap="round"/>
      <polygon points="340,210 332,208 336,216" fill="#C2410C"/>
    </g>

    <!-- Flow arrow exiting funnel (right) -->
    <g opacity="0.5">
      <line x1="500" y1="315" x2="600" y2="315" stroke="#059669" stroke-width="2.5" stroke-dasharray="6,4"/>
      <polygon points="600,315 592,310 592,320" fill="#059669"/>
    </g>

    <!-- Label -->
    <text x="455" y="380" text-anchor="middle" fill="#64748B" font-size="11" font-family="system-ui, -apple-system, sans-serif" font-weight="500">Score &amp; Rank</text>
  </g>

  <!-- RIGHT SECTION: Shortlist Panel (~x=610-870) -->
  <g>
    <!-- Panel background -->
    <rect x="615" y="65" width="255" height="300" rx="12" fill="#FFFFFF" stroke="rgba(0,0,0,0.08)" stroke-width="1" filter="url(#shadowLg)"/>

    <!-- Panel header -->
    <text x="640" y="95" fill="#1C1C1E" font-size="14" font-weight="700" font-family="system-ui, -apple-system, sans-serif">Top Candidates</text>
    <rect x="790" y="80" width="60" height="22" rx="11" fill="#D1FAE5"/>
    <text x="820" y="95" text-anchor="middle" fill="#059669" font-size="10" font-weight="600" font-family="system-ui, -apple-system, sans-serif">3 of 73</text>

    <line x1="635" y1="108" x2="850" y2="108" stroke="rgba(0,0,0,0.06)" stroke-width="1"/>

    <!-- Candidate 1: #1 — 94% match -->
    <g transform="translate(635, 120)">
      <!-- Rank badge -->
      <rect x="0" y="8" width="22" height="22" rx="6" fill="#059669"/>
      <text x="11" y="24" text-anchor="middle" fill="#FFFFFF" font-size="11" font-weight="700" font-family="system-ui, -apple-system, sans-serif">#1</text>

      <!-- Avatar -->
      <circle cx="48" cy="19" r="16" fill="#D1FAE5"/>
      <text x="48" y="24" text-anchor="middle" fill="#059669" font-size="11" font-weight="700" font-family="system-ui, -apple-system, sans-serif">JM</text>

      <!-- Name and role -->
      <rect x="72" y="8" width="80" height="7" rx="3.5" fill="#1C1C1E" opacity="0.8"/>
      <rect x="72" y="20" width="60" height="5" rx="2.5" fill="#64748B" opacity="0.4"/>

      <!-- Score -->
      <text x="208" y="15" text-anchor="end" fill="#059669" font-size="18" font-weight="700" font-family="system-ui, -apple-system, sans-serif">94%</text>

      <!-- Score bar background -->
      <rect x="72" y="32" width="140" height="6" rx="3" fill="#F0FDF4"/>
      <!-- Score bar fill -->
      <rect x="72" y="32" width="132" height="6" rx="3" fill="url(#greenBar)"/>

      <!-- Skills tags -->
      <rect x="72" y="44" width="35" height="14" rx="7" fill="#DBEAFE"/>
      <text x="89.5" y="54" text-anchor="middle" fill="#2563EB" font-size="7" font-weight="500" font-family="system-ui, -apple-system, sans-serif">Python</text>
      <rect x="111" y="44" width="28" height="14" rx="7" fill="#D1FAE5"/>
      <text x="125" y="54" text-anchor="middle" fill="#059669" font-size="7" font-weight="500" font-family="system-ui, -apple-system, sans-serif">ML</text>
      <rect x="143" y="44" width="30" height="14" rx="7" fill="#FEF3C7"/>
      <text x="158" y="54" text-anchor="middle" fill="#B45309" font-size="7" font-weight="500" font-family="system-ui, -apple-system, sans-serif">AWS</text>
    </g>

    <line x1="635" y1="190" x2="850" y2="190" stroke="rgba(0,0,0,0.04)" stroke-width="1"/>

    <!-- Candidate 2: #2 — 87% match -->
    <g transform="translate(635, 198)">
      <!-- Rank badge -->
      <rect x="0" y="8" width="22" height="22" rx="6" fill="#2563EB"/>
      <text x="11" y="24" text-anchor="middle" fill="#FFFFFF" font-size="11" font-weight="700" font-family="system-ui, -apple-system, sans-serif">#2</text>

      <!-- Avatar -->
      <circle cx="48" cy="19" r="16" fill="#DBEAFE"/>
      <text x="48" y="24" text-anchor="middle" fill="#2563EB" font-size="11" font-weight="700" font-family="system-ui, -apple-system, sans-serif">SK</text>

      <!-- Name and role -->
      <rect x="72" y="8" width="72" height="7" rx="3.5" fill="#1C1C1E" opacity="0.8"/>
      <rect x="72" y="20" width="55" height="5" rx="2.5" fill="#64748B" opacity="0.4"/>

      <!-- Score -->
      <text x="208" y="15" text-anchor="end" fill="#2563EB" font-size="18" font-weight="700" font-family="system-ui, -apple-system, sans-serif">87%</text>

      <!-- Score bar background -->
      <rect x="72" y="32" width="140" height="6" rx="3" fill="#EFF6FF"/>
      <!-- Score bar fill -->
      <rect x="72" y="32" width="122" height="6" rx="3" fill="url(#blueBar)"/>

      <!-- Skills tags -->
      <rect x="72" y="44" width="30" height="14" rx="7" fill="#DBEAFE"/>
      <text x="87" y="54" text-anchor="middle" fill="#2563EB" font-size="7" font-weight="500" font-family="system-ui, -apple-system, sans-serif">Java</text>
      <rect x="106" y="44" width="38" height="14" rx="7" fill="#D1FAE5"/>
      <text x="125" y="54" text-anchor="middle" fill="#059669" font-size="7" font-weight="500" font-family="system-ui, -apple-system, sans-serif">React</text>
      <rect x="148" y="44" width="28" height="14" rx="7" fill="#FEF3C7"/>
      <text x="162" y="54" text-anchor="middle" fill="#B45309" font-size="7" font-weight="500" font-family="system-ui, -apple-system, sans-serif">SQL</text>
    </g>

    <line x1="635" y1="268" x2="850" y2="268" stroke="rgba(0,0,0,0.04)" stroke-width="1"/>

    <!-- Candidate 3: #3 — 79% match -->
    <g transform="translate(635, 276)">
      <!-- Rank badge -->
      <rect x="0" y="8" width="22" height="22" rx="6" fill="#B45309"/>
      <text x="11" y="24" text-anchor="middle" fill="#FFFFFF" font-size="11" font-weight="700" font-family="system-ui, -apple-system, sans-serif">#3</text>

      <!-- Avatar -->
      <circle cx="48" cy="19" r="16" fill="#FEF3C7"/>
      <text x="48" y="24" text-anchor="middle" fill="#B45309" font-size="11" font-weight="700" font-family="system-ui, -apple-system, sans-serif">AL</text>

      <!-- Name and role -->
      <rect x="72" y="8" width="68" height="7" rx="3.5" fill="#1C1C1E" opacity="0.8"/>
      <rect x="72" y="20" width="50" height="5" rx="2.5" fill="#64748B" opacity="0.4"/>

      <!-- Score -->
      <text x="208" y="15" text-anchor="end" fill="#B45309" font-size="18" font-weight="700" font-family="system-ui, -apple-system, sans-serif">79%</text>

      <!-- Score bar background -->
      <rect x="72" y="32" width="140" height="6" rx="3" fill="#FFFBEB"/>
      <!-- Score bar fill -->
      <rect x="72" y="32" width="110" height="6" rx="3" fill="url(#amberBar)"/>

      <!-- Skills tags -->
      <rect x="72" y="44" width="28" height="14" rx="7" fill="#DBEAFE"/>
      <text x="86" y="54" text-anchor="middle" fill="#2563EB" font-size="7" font-weight="500" font-family="system-ui, -apple-system, sans-serif">Go</text>
      <rect x="104" y="44" width="42" height="14" rx="7" fill="#D1FAE5"/>
      <text x="125" y="54" text-anchor="middle" fill="#059669" font-size="7" font-weight="500" font-family="system-ui, -apple-system, sans-serif">Docker</text>
      <rect x="150" y="44" width="26" height="14" rx="7" fill="#FEF3C7"/>
      <text x="163" y="54" text-anchor="middle" fill="#B45309" font-size="7" font-weight="500" font-family="system-ui, -apple-system, sans-serif">K8s</text>
    </g>

    <!-- Shortlist label -->
    <text x="742" y="395" text-anchor="middle" fill="#64748B" font-size="11" font-family="system-ui, -apple-system, sans-serif" font-weight="500">Ranked Shortlist</text>
  </g>

  <!-- "10+ hrs saved" badge -->
  <g transform="translate(615, 30)">
    <rect x="0" y="0" width="110" height="28" rx="14" fill="#FFF7ED" stroke="#C2410C" stroke-width="1" filter="url(#shadow)"/>
    <!-- Clock icon -->
    <circle cx="20" cy="14" r="7" fill="none" stroke="#C2410C" stroke-width="1.5"/>
    <line x1="20" y1="10" x2="20" y2="14" stroke="#C2410C" stroke-width="1.5" stroke-linecap="round"/>
    <line x1="20" y1="14" x2="23" y2="14" stroke="#C2410C" stroke-width="1.5" stroke-linecap="round"/>
    <text x="66" y="19" text-anchor="middle" fill="#C2410C" font-size="11" font-weight="600" font-family="system-ui, -apple-system, sans-serif">10+ hrs saved</text>
  </g>
</svg>