<svg viewBox="0 0 900 420" xmlns="http://www.w3.org/2000/svg" preserveAspectRatio="xMidYMid meet">
  <defs>
    <filter id="shadow" x="-4%" y="-4%" width="108%" height="116%">
      <feDropShadow dx="0" dy="2" stdDeviation="4" flood-color="#000000" flood-opacity="0.07"/>
    </filter>
    <filter id="shadowLg" x="-6%" y="-6%" width="112%" height="120%">
      <feDropShadow dx="0" dy="4" stdDeviation="8" flood-color="#000000" flood-opacity="0.10"/>
    </filter>
    <filter id="glow" x="-20%" y="-20%" width="140%" height="140%">
      <feGaussianBlur stdDeviation="6" result="blur"/>
      <feMerge>
        <feMergeNode in="blur"/>
        <feMergeNode in="SourceGraphic"/>
      </feMerge>
    </filter>
    <linearGradient id="gradBrain" x1="0" y1="0" x2="1" y2="1">
      <stop offset="0%" stop-color="#C2410C" stop-opacity="0.12"/>
      <stop offset="100%" stop-color="#C2410C" stop-opacity="0.04"/>
    </linearGradient>
    <linearGradient id="gradOptimized" x1="0" y1="0" x2="1" y2="1">
      <stop offset="0%" stop-color="#059669" stop-opacity="0.08"/>
      <stop offset="100%" stop-color="#059669" stop-opacity="0.02"/>
    </linearGradient>
    <linearGradient id="trendGrad" x1="0" y1="1" x2="1" y2="0">
      <stop offset="0%" stop-color="#059669" stop-opacity="0.6"/>
      <stop offset="100%" stop-color="#059669"/>
    </linearGradient>
    <marker id="arrowOrange" markerWidth="8" markerHeight="6" refX="8" refY="3" orient="auto">
      <path d="M0,0 L8,3 L0,6 Z" fill="#C2410C"/>
    </marker>
    <marker id="arrowGray" markerWidth="6" markerHeight="5" refX="6" refY="2.5" orient="auto">
      <path d="M0,0 L6,2.5 L0,5 Z" fill="#94A3B8"/>
    </marker>
    <marker id="arrowGreen" markerWidth="6" markerHeight="5" refX="6" refY="2.5" orient="auto">
      <path d="M0,0 L6,2.5 L0,5 Z" fill="#059669"/>
    </marker>
  </defs>

  <!-- ============================================ -->
  <!-- PANEL 1: Current-State Process Flow (Left)   -->
  <!-- ============================================ -->
  <g id="panel-current">
    <!-- Panel label -->
    <text x="155" y="38" text-anchor="middle" font-family="system-ui, -apple-system, Segoe UI, Helvetica, Arial, sans-serif" font-size="11" font-weight="600" fill="#64748B" letter-spacing="1.2">CURRENT STATE</text>
    <line x1="80" y1="46" x2="230" y2="46" stroke="rgba(0,0,0,0.08)" stroke-width="1"/>

    <!-- Consultant figures -->
    <!-- Figure 1 -->
    <circle cx="52" cy="90" r="8" fill="#FFFFFF" stroke="#1C1C1E" stroke-width="1.5"/>
    <rect x="44" y="102" width="16" height="20" rx="3" fill="#FFFFFF" stroke="#1C1C1E" stroke-width="1.5"/>
    <!-- Clipboard in hand -->
    <rect x="62" y="100" width="10" height="13" rx="1.5" fill="#FFFFFF" stroke="#64748B" stroke-width="1"/>
    <line x1="64" y1="104" x2="70" y2="104" stroke="#64748B" stroke-width="0.8"/>
    <line x1="64" y1="107" x2="70" y2="107" stroke="#64748B" stroke-width="0.8"/>
    <line x1="64" y1="110" x2="68" y2="110" stroke="#64748B" stroke-width="0.8"/>

    <!-- Figure 2 -->
    <circle cx="52" cy="160" r="8" fill="#FFFFFF" stroke="#1C1C1E" stroke-width="1.5"/>
    <rect x="44" y="172" width="16" height="20" rx="3" fill="#FFFFFF" stroke="#1C1C1E" stroke-width="1.5"/>

    <!-- Process flow boxes -->
    <!-- Box 1: Start -->
    <rect x="90" y="65" width="90" height="36" rx="6" fill="#FFFFFF" stroke="rgba(0,0,0,0.08)" stroke-width="1" filter="url(#shadow)"/>
    <text x="135" y="87" text-anchor="middle" font-family="system-ui, -apple-system, Segoe UI, Helvetica, Arial, sans-serif" font-size="10" font-weight="500" fill="#1C1C1E">Intake Request</text>

    <!-- Arrow down -->
    <line x1="135" y1="101" x2="135" y2="118" stroke="#94A3B8" stroke-width="1.2" marker-end="url(#arrowGray)"/>

    <!-- Box 2 -->
    <rect x="90" y="120" width="90" height="36" rx="6" fill="#FFFFFF" stroke="rgba(0,0,0,0.08)" stroke-width="1" filter="url(#shadow)"/>
    <text x="135" y="142" text-anchor="middle" font-family="system-ui, -apple-system, Segoe UI, Helvetica, Arial, sans-serif" font-size="10" font-weight="500" fill="#1C1C1E">Manual Review</text>

    <!-- Arrow down -->
    <line x1="135" y1="156" x2="135" y2="173" stroke="#94A3B8" stroke-width="1.2" marker-end="url(#arrowGray)"/>

    <!-- Box 3: Pain point (red highlight) -->
    <rect x="90" y="175" width="90" height="36" rx="6" fill="#FEF2F2" stroke="#DC2626" stroke-width="1.5" filter="url(#shadow)"/>
    <text x="135" y="197" text-anchor="middle" font-family="system-ui, -apple-system, Segoe UI, Helvetica, Arial, sans-serif" font-size="10" font-weight="500" fill="#DC2626">Data Entry</text>
    <!-- Warning icon -->
    <circle cx="170" cy="182" r="6" fill="#DC2626" opacity="0.15"/>
    <text x="170" y="186" text-anchor="middle" font-family="system-ui, -apple-system, Segoe UI, Helvetica, Arial, sans-serif" font-size="9" font-weight="700" fill="#DC2626">!</text>

    <!-- Branch arrows -->
    <line x1="135" y1="211" x2="135" y2="228" stroke="#94A3B8" stroke-width="1.2" marker-end="url(#arrowGray)"/>

    <!-- Box 4 -->
    <rect x="90" y="230" width="90" height="36" rx="6" fill="#FFFFFF" stroke="rgba(0,0,0,0.08)" stroke-width="1" filter="url(#shadow)"/>
    <text x="135" y="252" text-anchor="middle" font-family="system-ui, -apple-system, Segoe UI, Helvetica, Arial, sans-serif" font-size="10" font-weight="500" fill="#1C1C1E">Approval Queue</text>

    <!-- Arrow to side branch -->
    <line x1="180" y1="248" x2="205" y2="248" stroke="#94A3B8" stroke-width="1.2" marker-end="url(#arrowGray)"/>

    <!-- Box 5: Side branch pain point -->
    <rect x="210" y="230" width="80" height="36" rx="6" fill="#FEF2F2" stroke="#DC2626" stroke-width="1.5" filter="url(#shadow)"/>
    <text x="250" y="247" text-anchor="middle" font-family="system-ui, -apple-system, Segoe UI, Helvetica, Arial, sans-serif" font-size="9" font-weight="500" fill="#DC2626">Email</text>
    <text x="250" y="258" text-anchor="middle" font-family="system-ui, -apple-system, Segoe UI, Helvetica, Arial, sans-serif" font-size="9" font-weight="500" fill="#DC2626">Follow-ups</text>
    <!-- Warning icon -->
    <circle cx="280" cy="237" r="6" fill="#DC2626" opacity="0.15"/>
    <text x="280" y="241" text-anchor="middle" font-family="system-ui, -apple-system, Segoe UI, Helvetica, Arial, sans-serif" font-size="9" font-weight="700" fill="#DC2626">!</text>

    <!-- Arrow down from approval -->
    <line x1="135" y1="266" x2="135" y2="283" stroke="#94A3B8" stroke-width="1.2" marker-end="url(#arrowGray)"/>

    <!-- Box 6 -->
    <rect x="90" y="285" width="90" height="36" rx="6" fill="#FFFFFF" stroke="rgba(0,0,0,0.08)" stroke-width="1" filter="url(#shadow)"/>
    <text x="135" y="307" text-anchor="middle" font-family="system-ui, -apple-system, Segoe UI, Helvetica, Arial, sans-serif" font-size="10" font-weight="500" fill="#1C1C1E">Fulfillment</text>

    <!-- Arrow down -->
    <line x1="135" y1="321" x2="135" y2="338" stroke="#94A3B8" stroke-width="1.2" marker-end="url(#arrowGray)"/>

    <!-- Box 7: Pain point -->
    <rect x="90" y="340" width="90" height="36" rx="6" fill="#FEF2F2" stroke="#DC2626" stroke-width="1.5" filter="url(#shadow)"/>
    <text x="135" y="357" text-anchor="middle" font-family="system-ui, -apple-system, Segoe UI, Helvetica, Arial, sans-serif" font-size="9" font-weight="500" fill="#DC2626">Manual</text>
    <text x="135" y="369" text-anchor="middle" font-family="system-ui, -apple-system, Segoe UI, Helvetica, Arial, sans-serif" font-size="9" font-weight="500" fill="#DC2626">Reporting</text>

    <!-- Time indicator -->
    <g opacity="0.7">
      <rect x="195" y="340" width="70" height="24" rx="12" fill="#FEF2F2" stroke="#DC2626" stroke-width="0.8"/>
      <text x="230" y="356" text-anchor="middle" font-family="system-ui, -apple-system, Segoe UI, Helvetica, Arial, sans-serif" font-size="9" font-weight="600" fill="#DC2626">~5 days</text>
    </g>
  </g>

  <!-- ============================================ -->
  <!-- CONNECTING ARROW: Panel 1 → Panel 2          -->
  <!-- ============================================ -->
  <g id="arrow-1-2">
    <line x1="296" y1="210" x2="330" y2="210" stroke="#C2410C" stroke-width="2" marker-end="url(#arrowOrange)" stroke-dasharray="6,3"/>
    <text x="313" y="200" text-anchor="middle" font-family="system-ui, -apple-system, Segoe UI, Helvetica, Arial, sans-serif" font-size="8" font-weight="500" fill="#C2410C">ANALYZE</text>
  </g>

  <!-- ============================================ -->
  <!-- PANEL 2: AI Analysis Brain (Center)          -->
  <!-- ============================================ -->
  <g id="panel-analysis">
    <!-- Panel label -->
    <text x="450" y="38" text-anchor="middle" font-family="system-ui, -apple-system, Segoe UI, Helvetica, Arial, sans-serif" font-size="11" font-weight="600" fill="#64748B" letter-spacing="1.2">AI ANALYSIS</text>
    <line x1="380" y1="46" x2="520" y2="46" stroke="rgba(0,0,0,0.08)" stroke-width="1"/>

    <!-- Outer glow ring -->
    <circle cx="450" cy="200" r="110" fill="url(#gradBrain)" stroke="none"/>

    <!-- Circuit lines radiating outward -->
    <!-- Top -->
    <line x1="450" y1="140" x2="450" y2="90" stroke="#C2410C" stroke-width="1" opacity="0.25"/>
    <circle cx="450" cy="88" r="3" fill="#C2410C" opacity="0.3"/>
    <line x1="450" y1="90" x2="420" y2="70" stroke="#C2410C" stroke-width="1" opacity="0.2"/>
    <circle cx="418" cy="68" r="2" fill="#C2410C" opacity="0.25"/>
    <line x1="450" y1="90" x2="480" y2="70" stroke="#C2410C" stroke-width="1" opacity="0.2"/>
    <circle cx="482" cy="68" r="2" fill="#C2410C" opacity="0.25"/>

    <!-- Bottom -->
    <line x1="450" y1="260" x2="450" y2="310" stroke="#C2410C" stroke-width="1" opacity="0.25"/>
    <circle cx="450" cy="312" r="3" fill="#C2410C" opacity="0.3"/>
    <line x1="450" y1="310" x2="420" y2="335" stroke="#C2410C" stroke-width="1" opacity="0.2"/>
    <circle cx="418" cy="337" r="2" fill="#C2410C" opacity="0.25"/>
    <line x1="450" y1="310" x2="480" y2="335" stroke="#C2410C" stroke-width="1" opacity="0.2"/>
    <circle cx="482" cy="337" r="2" fill="#C2410C" opacity="0.25"/>

    <!-- Left circuits -->
    <line x1="390" y1="200" x2="350" y2="200" stroke="#C2410C" stroke-width="1" opacity="0.25"/>
    <circle cx="348" cy="200" r="3" fill="#C2410C" opacity="0.3"/>
    <line x1="395" y1="175" x2="360" y2="150" stroke="#C2410C" stroke-width="1" opacity="0.2"/>
    <circle cx="358" cy="148" r="2" fill="#C2410C" opacity="0.25"/>
    <line x1="395" y1="225" x2="360" y2="250" stroke="#C2410C" stroke-width="1" opacity="0.2"/>
    <circle cx="358" cy="252" r="2" fill="#C2410C" opacity="0.25"/>

    <!-- Right circuits -->
    <line x1="510" y1="200" x2="550" y2="200" stroke="#C2410C" stroke-width="1" opacity="0.25"/>
    <circle cx="552" cy="200" r="3" fill="#C2410C" opacity="0.3"/>
    <line x1="505" y1="175" x2="540" y2="150" stroke="#C2410C" stroke-width="1" opacity="0.2"/>
    <circle cx="542" cy="148" r="2" fill="#C2410C" opacity="0.25"/>
    <line x1="505" y1="225" x2="540" y2="250" stroke="#C2410C" stroke-width="1" opacity="0.2"/>
    <circle cx="542" cy="252" r="2" fill="#C2410C" opacity="0.25"/>

    <!-- Main hexagonal brain shape -->
    <polygon points="450,140 510,170 510,230 450,260 390,230 390,170" fill="#FFFFFF" stroke="#C2410C" stroke-width="2" filter="url(#shadowLg)"/>

    <!-- Inner hexagon -->
    <polygon points="450,158 495,178 495,222 450,242 405,222 405,178" fill="none" stroke="#C2410C" stroke-width="0.8" opacity="0.3"/>

    <!-- Brain/AI icon inside — abstract neural network -->
    <!-- Central node -->
    <circle cx="450" cy="200" r="8" fill="#C2410C" opacity="0.15"/>
    <circle cx="450" cy="200" r="4" fill="#C2410C"/>

    <!-- Connected nodes -->
    <circle cx="430" cy="178" r="3" fill="#C2410C" opacity="0.7"/>
    <line x1="433" y1="180" x2="447" y2="197" stroke="#C2410C" stroke-width="1" opacity="0.5"/>

    <circle cx="470" cy="178" r="3" fill="#C2410C" opacity="0.7"/>
    <line x1="467" y1="180" x2="453" y2="197" stroke="#C2410C" stroke-width="1" opacity="0.5"/>

    <circle cx="425" cy="200" r="2.5" fill="#C2410C" opacity="0.6"/>
    <line x1="428" y1="200" x2="446" y2="200" stroke="#C2410C" stroke-width="1" opacity="0.4"/>

    <circle cx="475" cy="200" r="2.5" fill="#C2410C" opacity="0.6"/>
    <line x1="472" y1="200" x2="454" y2="200" stroke="#C2410C" stroke-width="1" opacity="0.4"/>

    <circle cx="430" cy="222" r="3" fill="#C2410C" opacity="0.7"/>
    <line x1="433" y1="220" x2="447" y2="203" stroke="#C2410C" stroke-width="1" opacity="0.5"/>

    <circle cx="470" cy="222" r="3" fill="#C2410C" opacity="0.7"/>
    <line x1="467" y1="220" x2="453" y2="203" stroke="#C2410C" stroke-width="1" opacity="0.5"/>

    <!-- Cross connections -->
    <line x1="432" y1="180" x2="468" y2="220" stroke="#C2410C" stroke-width="0.6" opacity="0.25"/>
    <line x1="468" y1="180" x2="432" y2="220" stroke="#C2410C" stroke-width="0.6" opacity="0.25"/>

    <!-- Magnifying glass scanning effect -->
    <g opacity="0.8">
      <!-- Glass circle -->
      <circle cx="500" cy="155" r="18" fill="none" stroke="#2563EB" stroke-width="2"/>
      <circle cx="500" cy="155" r="14" fill="#2563EB" opacity="0.06"/>
      <!-- Handle -->
      <line x1="513" y1="168" x2="524" y2="179" stroke="#2563EB" stroke-width="2.5" stroke-linecap="round"/>
      <!-- Scan lines inside glass -->
      <line x1="490" y1="150" x2="510" y2="150" stroke="#2563EB" stroke-width="0.8" opacity="0.4"/>
      <line x1="492" y1="155" x2="508" y2="155" stroke="#2563EB" stroke-width="0.8" opacity="0.4"/>
      <line x1="490" y1="160" x2="510" y2="160" stroke="#2563EB" stroke-width="0.8" opacity="0.4"/>
    </g>

    <!-- Analysis data cards -->
    <!-- Card: Pattern detected -->
    <rect x="355" y="280" width="88" height="32" rx="6" fill="#FFFFFF" stroke="rgba(0,0,0,0.08)" stroke-width="1" filter="url(#shadow)"/>
    <circle cx="370" cy="296" r="5" fill="#2563EB" opacity="0.15"/>
    <text x="370" y="299" text-anchor="middle" font-family="system-ui, -apple-system, Segoe UI, Helvetica, Arial, sans-serif" font-size="7" font-weight="700" fill="#2563EB">3</text>
    <text x="410" y="299" text-anchor="middle" font-family="system-ui, -apple-system, Segoe UI, Helvetica, Arial, sans-serif" font-size="9" font-weight="500" fill="#1C1C1E">Bottlenecks</text>

    <!-- Card: Automatable -->
    <rect x="455" y="280" width="95" height="32" rx="6" fill="#FFFFFF" stroke="rgba(0,0,0,0.08)" stroke-width="1" filter="url(#shadow)"/>
    <circle cx="470" cy="296" r="5" fill="#B45309" opacity="0.15"/>
    <text x="470" y="299" text-anchor="middle" font-family="system-ui, -apple-system, Segoe UI, Helvetica, Arial, sans-serif" font-size="7" font-weight="700" fill="#B45309">5</text>
    <text x="510" y="299" text-anchor="middle" font-family="system-ui, -apple-system, Segoe UI, Helvetica, Arial, sans-serif" font-size="9" font-weight="500" fill="#1C1C1E">Automatable</text>
  </g>

  <!-- ============================================ -->
  <!-- CONNECTING ARROW: Panel 2 → Panel 3          -->
  <!-- ============================================ -->
  <g id="arrow-2-3">
    <line x1="565" y1="210" x2="600" y2="210" stroke="#C2410C" stroke-width="2" marker-end="url(#arrowOrange)" stroke-dasharray="6,3"/>
    <text x="583" y="200" text-anchor="middle" font-family="system-ui, -apple-system, Segoe UI, Helvetica, Arial, sans-serif" font-size="8" font-weight="500" fill="#C2410C">OPTIMIZE</text>
  </g>

  <!-- ============================================ -->
  <!-- PANEL 3: Optimized Process Flow (Right)      -->
  <!-- ============================================ -->
  <g id="panel-optimized">
    <!-- Panel label -->
    <text x="745" y="38" text-anchor="middle" font-family="system-ui, -apple-system, Segoe UI, Helvetica, Arial, sans-serif" font-size="11" font-weight="600" fill="#64748B" letter-spacing="1.2">OPTIMIZED STATE</text>
    <line x1="670" y1="46" x2="820" y2="46" stroke="rgba(0,0,0,0.08)" stroke-width="1"/>

    <!-- Background subtle glow -->
    <rect x="635" y="55" width="230" height="320" rx="12" fill="url(#gradOptimized)"/>

    <!-- Box 1: Smart Intake -->
    <rect x="680" y="70" width="130" height="38" rx="6" fill="#FFFFFF" stroke="rgba(0,0,0,0.08)" stroke-width="1" filter="url(#shadow)"/>
    <text x="745" y="93" text-anchor="middle" font-family="system-ui, -apple-system, Segoe UI, Helvetica, Arial, sans-serif" font-size="10" font-weight="500" fill="#1C1C1E">Smart Intake</text>
    <!-- Green checkmark -->
    <g transform="translate(800,77)">
      <circle cx="0" cy="0" r="7" fill="#059669" opacity="0.12"/>
      <path d="M-3,0 L-1,2.5 L3,-2" stroke="#059669" stroke-width="1.8" fill="none" stroke-linecap="round" stroke-linejoin="round"/>
    </g>

    <!-- Arrow down -->
    <line x1="745" y1="108" x2="745" y2="128" stroke="#059669" stroke-width="1.2" marker-end="url(#arrowGreen)"/>

    <!-- Box 2: Auto-Process -->
    <rect x="680" y="130" width="130" height="38" rx="6" fill="#FFFFFF" stroke="rgba(0,0,0,0.08)" stroke-width="1" filter="url(#shadow)"/>
    <text x="745" y="153" text-anchor="middle" font-family="system-ui, -apple-system, Segoe UI, Helvetica, Arial, sans-serif" font-size="10" font-weight="500" fill="#1C1C1E">Auto-Process</text>
    <!-- Green checkmark -->
    <g transform="translate(800,137)">
      <circle cx="0" cy="0" r="7" fill="#059669" opacity="0.12"/>
      <path d="M-3,0 L-1,2.5 L3,-2" stroke="#059669" stroke-width="1.8" fill="none" stroke-linecap="round" stroke-linejoin="round"/>
    </g>
    <!-- AI badge -->
    <rect x="680" y="137" width="24" height="14" rx="3" fill="#C2410C" opacity="0.1"/>
    <text x="692" y="147" text-anchor="middle" font-family="system-ui, -apple-system, Segoe UI, Helvetica, Arial, sans-serif" font-size="7" font-weight="700" fill="#C2410C">AI</text>

    <!-- Arrow down -->
    <line x1="745" y1="168" x2="745" y2="188" stroke="#059669" stroke-width="1.2" marker-end="url(#arrowGreen)"/>

    <!-- Box 3: Quick Approve -->
    <rect x="680" y="190" width="130" height="38" rx="6" fill="#FFFFFF" stroke="rgba(0,0,0,0.08)" stroke-width="1" filter="url(#shadow)"/>
    <text x="745" y="213" text-anchor="middle" font-family="system-ui, -apple-system, Segoe UI, Helvetica, Arial, sans-serif" font-size="10" font-weight="500" fill="#1C1C1E">Quick Approve</text>
    <!-- Green checkmark -->
    <g transform="translate(800,197)">
      <circle cx="0" cy="0" r="7" fill="#059669" opacity="0.12"/>
      <path d="M-3,0 L-1,2.5 L3,-2" stroke="#059669" stroke-width="1.8" fill="none" stroke-linecap="round" stroke-linejoin="round"/>
    </g>

    <!-- Arrow down -->
    <line x1="745" y1="228" x2="745" y2="248" stroke="#059669" stroke-width="1.2" marker-end="url(#arrowGreen)"/>

    <!-- Box 4: Auto-Deliver -->
    <rect x="680" y="250" width="130" height="38" rx="6" fill="#FFFFFF" stroke="rgba(0,0,0,0.08)" stroke-width="1" filter="url(#shadow)"/>
    <text x="745" y="273" text-anchor="middle" font-family="system-ui, -apple-system, Segoe UI, Helvetica, Arial, sans-serif" font-size="10" font-weight="500" fill="#1C1C1E">Auto-Deliver</text>
    <!-- Green checkmark -->
    <g transform="translate(800,257)">
      <circle cx="0" cy="0" r="7" fill="#059669" opacity="0.12"/>
      <path d="M-3,0 L-1,2.5 L3,-2" stroke="#059669" stroke-width="1.8" fill="none" stroke-linecap="round" stroke-linejoin="round"/>
    </g>
    <!-- AI badge -->
    <rect x="680" y="257" width="24" height="14" rx="3" fill="#C2410C" opacity="0.1"/>
    <text x="692" y="267" text-anchor="middle" font-family="system-ui, -apple-system, Segoe UI, Helvetica, Arial, sans-serif" font-size="7" font-weight="700" fill="#C2410C">AI</text>

    <!-- Upward trend chart -->
    <g transform="translate(640, 310)">
      <!-- Chart background -->
      <rect x="0" y="0" width="110" height="60" rx="8" fill="#FFFFFF" stroke="rgba(0,0,0,0.08)" stroke-width="1" filter="url(#shadow)"/>
      <!-- Grid lines -->
      <line x1="15" y1="15" x2="15" y2="50" stroke="rgba(0,0,0,0.06)" stroke-width="0.5"/>
      <line x1="15" y1="50" x2="95" y2="50" stroke="rgba(0,0,0,0.06)" stroke-width="0.5"/>
      <line x1="15" y1="38" x2="95" y2="38" stroke="rgba(0,0,0,0.04)" stroke-width="0.5" stroke-dasharray="2,2"/>
      <line x1="15" y1="26" x2="95" y2="26" stroke="rgba(0,0,0,0.04)" stroke-width="0.5" stroke-dasharray="2,2"/>
      <!-- Trend line going up -->
      <polyline points="20,46 35,42 50,36 65,28 80,22 92,16" fill="none" stroke="url(#trendGrad)" stroke-width="2" stroke-linecap="round" stroke-linejoin="round"/>
      <!-- Dots on trend -->
      <circle cx="50" cy="36" r="2" fill="#059669"/>
      <circle cx="80" cy="22" r="2" fill="#059669"/>
      <circle cx="92" cy="16" r="2.5" fill="#059669"/>
      <!-- Area under curve -->
      <polygon points="20,46 35,42 50,36 65,28 80,22 92,16 92,50 20,50" fill="#059669" opacity="0.06"/>
    </g>

    <!-- 40% faster badge -->
    <g transform="translate(758, 310)">
      <rect x="0" y="0" width="100" height="60" rx="8" fill="#FFFFFF" stroke="#059669" stroke-width="1.5" filter="url(#shadowLg)"/>
      <!-- Up arrow -->
      <path d="M50,42 L50,18" stroke="#059669" stroke-width="2" stroke-linecap="round"/>
      <path d="M43,25 L50,16 L57,25" stroke="#059669" stroke-width="2" fill="none" stroke-linecap="round" stroke-linejoin="round"/>
      <!-- Text -->
      <text x="50" y="52" text-anchor="middle" font-family="system-ui, -apple-system, Segoe UI, Helvetica, Arial, sans-serif" font-size="13" font-weight="700" fill="#059669">40% faster</text>
    </g>

    <!-- Time indicator -->
    <g opacity="0.7">
      <rect x="680" y="295" width="56" height="20" rx="10" fill="#F0FDF4" stroke="#059669" stroke-width="0.8"/>
      <text x="708" y="309" text-anchor="middle" font-family="system-ui, -apple-system, Segoe UI, Helvetica, Arial, sans-serif" font-size="9" font-weight="600" fill="#059669">~3 days</text>
    </g>
  </g>

  <!-- ============================================ -->
  <!-- Bottom tagline                                -->
  <!-- ============================================ -->
  <text x="450" y="405" text-anchor="middle" font-family="system-ui, -apple-system, Segoe UI, Helvetica, Arial, sans-serif" font-size="11" font-weight="400" fill="#64748B">Map processes. Find inefficiencies. Build automation roadmaps.</text>
</svg>