<?xml version="1.0" encoding="UTF-8"?>
<!-- Generator: visioncortex VTracer 0.6.12 -->
<svg version="1.1" xmlns="http://www.w3.org/2000/svg" viewBox="0 0 1240 447" role="img" aria-label="YongAI">
<path d="M0 0 C1.148 -0.002 2.295 -0.004 3.478 -0.005 C7.244 -0.01 11.009 -0.007 14.775 -0.003 C17.407 -0.004 20.039 -0.005 22.672 -0.006 C28.176 -0.008 33.681 -0.006 39.186 -0.001 C45.53 0.004 51.874 0.003 58.218 -0.003 C64.348 -0.008 70.479 -0.007 76.61 -0.004 C79.206 -0.004 81.803 -0.005 84.4 -0.007 C88.032 -0.009 91.664 -0.006 95.297 0 C96.362 -0.002 97.426 -0.004 98.523 -0.006 C104.458 0.011 110.197 0.36 116.084 1.129 C116.084 2.119 116.084 3.109 116.084 4.129 C115.238 4.288 114.392 4.447 113.521 4.61 C100.255 7.339 100.255 7.339 95.084 12.129 C92.797 15.939 92.581 18.678 93.084 23.129 C96.105 31.824 102.229 39.359 107.471 46.823 C110.31 50.883 113.104 54.974 115.896 59.067 C116.509 59.965 117.123 60.862 117.754 61.787 C124.153 71.183 130.431 80.657 136.722 90.125 C142.356 98.6 148.035 107.026 153.96 115.302 C159.594 123.192 164.908 131.295 170.26 139.377 C173.274 143.926 176.305 148.465 179.334 153.004 C180.654 154.985 181.974 156.965 183.295 158.946 C184.035 160.057 184.776 161.167 185.516 162.278 C216.381 208.576 216.381 208.576 216.311 216.732 C216.311 217.61 216.311 218.488 216.312 219.393 C216.31 222.299 216.295 225.204 216.279 228.11 C216.275 230.123 216.272 232.137 216.27 234.15 C216.263 239.452 216.243 244.754 216.221 250.056 C216.201 255.465 216.191 260.874 216.181 266.284 C216.16 276.899 216.126 287.514 216.084 298.129 C215.424 298.459 214.764 298.789 214.084 299.129 C213.619 298.429 213.154 297.729 212.674 297.008 C207.29 288.915 201.852 280.861 196.396 272.817 C195.014 270.779 193.633 268.741 192.251 266.703 C191.301 265.3 190.35 263.898 189.399 262.496 C186.074 257.592 182.752 252.685 179.431 247.778 C162.535 222.809 162.535 222.809 154.276 210.857 C153.03 209.052 151.789 207.243 150.549 205.434 C139.979 190.019 129.319 174.664 118.519 159.409 C115.304 154.866 112.111 150.308 108.927 145.744 C103.235 137.587 97.476 129.485 91.634 121.435 C87.762 116.092 83.986 110.692 80.248 105.254 C77.545 101.351 74.785 97.49 72.018 93.631 C69.25 89.769 66.503 85.892 63.768 82.006 C54.076 68.233 44.28 54.535 34.084 41.129 C33.675 40.589 33.267 40.049 32.846 39.493 C29.958 35.678 27.037 31.893 24.084 28.129 C23.478 27.353 22.872 26.577 22.248 25.778 C11.067 12.183 -5.067 6.817 -21.916 4.129 C-21.916 3.139 -21.916 2.149 -21.916 1.129 C-14.589 0.242 -7.376 -0.014 0 0 Z " fill="#000000" transform="translate(58.916259765625,36.87060546875)"/>
<path d="M0 0 C1.881 0.002 3.763 0.003 5.644 0.004 C10.535 0.008 15.426 0.018 20.316 0.029 C25.331 0.039 30.346 0.044 35.361 0.049 C45.156 0.059 54.951 0.076 64.746 0.098 C64.746 1.088 64.746 2.078 64.746 3.098 C62.682 4.909 60.637 6.536 58.434 8.16 C53.605 11.83 48.915 15.57 44.434 19.66 C43.551 20.466 42.668 21.271 41.758 22.102 C39.746 24.098 39.746 24.098 38.746 26.098 C38.086 26.098 37.426 26.098 36.746 26.098 C36.49 26.684 36.233 27.271 35.969 27.875 C34.634 30.301 33.201 31.773 31.184 33.66 C27.087 37.646 23.532 41.933 19.957 46.387 C17.991 48.798 15.965 51.111 13.871 53.41 C10.098 57.608 6.617 62.011 3.156 66.466 C0.189 70.278 -2.83 74.039 -5.898 77.77 C-12.118 85.334 -18.034 93.085 -23.871 100.947 C-28.016 106.508 -32.317 111.848 -36.809 117.133 C-39.673 120.606 -42.377 124.176 -45.066 127.785 C-45.56 128.447 -46.054 129.108 -46.563 129.79 C-48.717 132.679 -50.866 135.572 -53.006 138.471 C-54.767 140.853 -56.541 143.226 -58.316 145.598 C-58.865 146.346 -59.413 147.095 -59.978 147.866 C-60.493 148.551 -61.008 149.236 -61.539 149.941 C-61.992 150.552 -62.444 151.162 -62.91 151.791 C-64.254 153.098 -64.254 153.098 -67.254 153.098 C-68.895 151.27 -68.895 151.27 -70.504 148.848 C-71.045 148.059 -71.587 147.27 -72.145 146.457 C-73.254 144.098 -73.254 144.098 -73.195 142.188 C-71.827 139.15 -69.917 136.571 -67.941 133.91 C-67.023 132.649 -66.105 131.387 -65.188 130.125 C-64.705 129.465 -64.223 128.805 -63.726 128.125 C-61.285 124.764 -58.895 121.368 -56.504 117.973 C-56.254 117.618 -56.254 117.618 -54.99 115.826 C-49.353 107.829 -43.741 99.814 -38.14 91.792 C-36.175 88.985 -34.203 86.184 -32.23 83.383 C-25.842 74.29 -19.528 65.166 -13.566 55.785 C-13.332 55.418 -13.332 55.418 -12.146 53.562 C-6.425 44.434 -0.768 35.301 -2.254 24.098 C-4.777 16.541 -9.134 13.038 -16.129 9.535 C-22.938 6.517 -29.942 5.311 -37.254 4.098 C-37.254 3.108 -37.254 2.118 -37.254 1.098 C-24.821 0.207 -12.462 -0.037 0 0 Z " fill="#000000" transform="translate(351.25390625,36.90234375)"/>
<path d="M0 0 C7.749 5.576 12.109 13.048 14.25 22.312 C15.443 33.441 13.546 43.153 6.965 52.277 C0.451 60.008 -8.299 63.606 -18.246 64.695 C-28.706 65.039 -37.764 62.749 -45.969 56.074 C-49.211 52.867 -51.549 49.289 -53.75 45.312 C-54.092 44.709 -54.433 44.106 -54.785 43.484 C-58.368 35.818 -57.982 25.42 -55.625 17.438 C-51.719 7.79 -45.574 0.821 -36.062 -3.5 C-23.984 -7.83 -10.928 -6.684 0 0 Z M-41.75 11.312 C-46.939 20.045 -48.151 29.551 -45.688 39.375 C-43.171 47.007 -37.677 52.464 -30.75 56.312 C-23.477 58.583 -15.606 58.149 -8.82 54.707 C-2.913 50.728 1.179 45.102 3.25 38.312 C4.961 28.996 4.592 20.568 -0.562 12.438 C-4.9 6.501 -9.612 3.084 -16.75 1.312 C-26.913 -0.002 -35.074 3.615 -41.75 11.312 Z " fill="#000000" transform="translate(710.75,233.6875)"/>
<path d="M0 0 C2.817 2.116 3.817 3.5 4.375 7 C-0.375 11 -0.375 11 -2.625 11 C-4.292 9.333 -5.958 7.667 -7.625 6 C-14.26 1.469 -20.757 1.415 -28.625 2 C-31.548 2.726 -33.866 3.719 -36.625 5 C-37.409 5.309 -38.192 5.619 -39 5.938 C-41.116 7.321 -41.554 8.724 -42.625 11 C-42.967 11.66 -43.308 12.32 -43.66 13 C-43.999 13.66 -44.338 14.32 -44.688 15 C-45.029 15.66 -45.371 16.32 -45.723 17 C-48.785 23.788 -48.304 30.675 -46 37.625 C-43.154 44.692 -39.925 49.255 -32.875 52.438 C-24.539 55.32 -17.886 54.583 -9.852 51.168 C-5.405 48.836 -5.405 48.836 -3.625 47 C-3.016 43.645 -3.016 43.645 -2.875 39.812 C-2.793 37.564 -2.71 35.316 -2.625 33 C-9.225 33 -15.825 33 -22.625 33 C-22.625 30.36 -22.625 27.72 -22.625 25 C-13.055 25 -3.485 25 6.375 25 C6.447 27.083 6.447 27.083 6.812 37.625 C6.876 38.928 6.94 40.231 7.006 41.573 C7.145 49.887 7.145 49.887 4.924 53.096 C3.14 54.655 1.441 55.845 -0.625 57 C-1.309 57.399 -1.994 57.799 -2.698 58.21 C-12.982 63.946 -24.151 64.496 -35.375 61.375 C-45.997 57.712 -51.471 51.951 -56.625 42 C-60.236 33.511 -59.632 22.944 -56.652 14.375 C-52.614 5.04 -46.487 -0.829 -37.25 -5.098 C-24.47 -9.617 -11.02 -7.698 0 0 Z " fill="#000000" transform="translate(986.625,235)"/>
<path d="M0 0 C3.857 -0.702 7.162 -0.89 11 0 C14.471 3.155 16.622 6.988 19 11 C20.408 13.11 21.824 15.215 23.25 17.312 C24.501 19.207 25.751 21.103 27 23 C28.331 25.002 29.665 27.001 31 29 C37.409 21.309 42.818 12.828 48.301 4.469 C50 2 50 2 52 0 C54.383 -0.195 54.383 -0.195 57.125 -0.125 C58.035 -0.107 58.945 -0.089 59.883 -0.07 C60.581 -0.047 61.28 -0.024 62 0 C60.628 3.807 58.878 6.864 56.551 10.168 C55.867 11.144 55.183 12.121 54.479 13.127 C53.764 14.137 53.049 15.147 52.312 16.188 C51.617 17.178 50.922 18.169 50.205 19.189 C49.86 19.681 49.86 19.681 48.113 22.168 C47.43 23.155 46.746 24.143 46.042 25.16 C44 28 44 28 41.952 30.418 C36.061 37.635 35.985 44.695 36.062 53.625 C36.049 55.025 36.033 56.425 36.014 57.824 C35.979 61.217 35.975 64.607 36 68 C34.521 68.027 33.042 68.046 31.562 68.062 C31.151 68.068 31.151 68.068 29.066 68.098 C27 68 27 68 26 67 C26.013 65.014 26.083 63.027 26.176 61.043 C26.608 43.711 24.636 32.756 12.879 19.233 C9.841 15.623 7.252 11.727 4.625 7.812 C4.155 7.134 3.686 6.455 3.202 5.756 C0 1.127 0 1.127 0 0 Z " fill="#000000" transform="translate(527,229)"/>
<path d="M0 0 C10 0 10 0 12.41 1.547 C12.955 2.274 13.501 3.001 14.062 3.75 C14.707 4.576 15.352 5.403 16.016 6.254 C16.67 7.16 17.325 8.066 18 9 C18.348 9.458 18.348 9.458 20.109 11.777 C21.616 13.768 23.111 15.769 24.594 17.777 C27.098 21.157 29.7 24.454 32.312 27.75 C38.357 35.389 44.185 43.186 50 51 C51 50 51 50 51.114 48.026 C51.108 47.161 51.103 46.296 51.098 45.404 C51.094 44.427 51.091 43.449 51.088 42.442 C51.079 41.378 51.071 40.314 51.062 39.219 C51.059 38.135 51.055 37.051 51.051 35.934 C51.039 32.456 51.02 28.978 51 25.5 C50.974 20.927 50.953 16.354 50.938 11.781 C50.929 10.718 50.921 9.654 50.912 8.558 C50.909 7.581 50.906 6.603 50.902 5.596 C50.897 4.73 50.892 3.865 50.886 2.974 C51 1 51 1 52 0 C54.97 0 57.94 0 61 0 C61 22.44 61 44.88 61 68 C51 68 51 68 47.531 64.957 C46.489 63.599 45.48 62.216 44.5 60.812 C43.951 60.082 43.402 59.352 42.836 58.599 C41.721 57.113 40.62 55.617 39.531 54.111 C37.423 51.205 35.211 48.391 33 45.562 C31.791 43.978 30.581 42.393 29.375 40.806 C27.786 38.719 26.192 36.637 24.598 34.555 C18.404 26.466 18.404 26.466 16.305 23.707 C15.258 22.337 14.192 20.981 13.121 19.629 C12 18 12 18 12 16 C11.34 16.33 10.68 16.66 10 17 C10.002 17.624 10.004 18.248 10.007 18.891 C10.029 25.363 10.044 31.835 10.055 38.307 C10.06 40.726 10.067 43.144 10.075 45.562 C10.088 49.03 10.093 52.497 10.098 55.965 C10.103 57.053 10.108 58.142 10.113 59.263 C10.113 60.264 10.113 61.265 10.114 62.297 C10.116 63.183 10.118 64.069 10.12 64.982 C10 67 10 67 9 68 C6.03 68 3.06 68 0 68 C0 45.56 0 23.12 0 0 Z " fill="#000000" transform="translate(796,229)"/>
<path d="M0 0 C3.3 0 6.6 0 10 0 C16.037 14.547 22.059 29.101 28 43.688 C28.444 44.777 28.888 45.867 29.345 46.99 C30.176 49.032 31.005 51.075 31.832 53.119 C32.616 55.053 33.405 56.986 34.199 58.917 C34.567 59.817 34.934 60.717 35.312 61.645 C35.639 62.438 35.965 63.232 36.301 64.05 C37 66 37 66 37 68 C33.7 68 30.4 68 27 68 C22.481 58.444 18.623 48.663 14.787 38.818 C13.678 35.976 12.561 33.139 11.443 30.301 C10.736 28.492 10.03 26.684 9.324 24.875 C9.157 24.452 9.157 24.452 8.311 22.309 C8.007 21.524 7.703 20.739 7.389 19.93 C7.12 19.241 6.851 18.553 6.574 17.843 C6 16 6 16 6 13 C5.34 13 4.68 13 4 13 C3.826 13.614 3.652 14.228 3.473 14.861 C1.74 20.83 -0.304 26.559 -2.688 32.297 C-3.031 33.134 -3.375 33.971 -3.729 34.834 C-4.45 36.586 -5.173 38.337 -5.897 40.087 C-7.002 42.755 -8.099 45.426 -9.195 48.098 C-9.901 49.81 -10.606 51.522 -11.312 53.234 C-11.475 53.63 -11.475 53.63 -12.298 55.631 C-14.045 59.843 -15.901 63.946 -18 68 C-21.3 68 -24.6 68 -28 68 C-25.883 61.394 -23.445 55.015 -20.75 48.625 C-20.541 48.127 -20.541 48.127 -19.485 45.605 C-13.079 30.366 -6.532 15.186 0 0 Z " fill="#000000" transform="translate(1087,229)"/>
<path d="M0 0 C2.97 0 5.94 0 9 0 C9 22.44 9 44.88 9 68 C6.03 68 3.06 68 0 68 C0 45.56 0 23.12 0 0 Z " fill="#000000" transform="translate(1193,229)"/>
<path d="M0 0 C3.523 1.174 3.908 1.947 5.876 4.978 C6.43 5.823 6.985 6.669 7.556 7.54 C8.15 8.462 8.744 9.385 9.355 10.336 C9.976 11.285 10.596 12.234 11.236 13.212 C13.227 16.261 15.208 19.318 17.188 22.375 C19.781 26.365 22.379 30.351 24.98 34.336 C25.605 35.294 26.229 36.252 26.873 37.239 C30.545 42.851 34.323 48.321 38.331 53.699 C40.656 56.904 42.724 60.252 44.825 63.607 C47.694 68.129 50.712 72.552 53.711 76.988 C54.327 77.9 54.944 78.812 55.579 79.752 C58.156 83.561 60.736 87.369 63.315 91.177 C65.219 93.988 67.122 96.8 69.023 99.613 C69.634 100.517 70.245 101.42 70.875 102.351 C75.057 108.553 79.128 114.814 83.094 121.157 C90.132 131.655 97.848 138.611 110 142 C110 143.32 110 144.64 110 146 C65.45 146 20.9 146 -25 146 C-25.33 145.34 -25.66 144.68 -26 144 C-24.207 140.413 -19.679 139.789 -16.078 138.414 C-8.075 134.738 -4.951 128.781 -1.75 120.938 C0.106 113.669 0.14 106.447 0.114 98.994 C0.114 97.92 0.114 96.846 0.114 95.739 C0.113 92.212 0.106 88.684 0.098 85.156 C0.096 82.701 0.094 80.247 0.093 77.792 C0.09 71.348 0.08 64.903 0.069 58.459 C0.058 51.876 0.054 45.294 0.049 38.711 C0.038 25.807 0.021 12.904 0 0 Z " fill="#000000" transform="translate(194,264)"/>
</svg>
