<?xml version="1.0" encoding="UTF-8"?>
<!-- Generator: visioncortex VTracer 0.6.12 -->
<svg version="1.1" xmlns="http://www.w3.org/2000/svg" width="2609" height="2559">
<path d="M0 0 C1.254 -0.003 2.508 -0.007 3.8 -0.01 C5.213 -0.009 6.625 -0.007 8.038 -0.005 C9.528 -0.007 11.019 -0.01 12.509 -0.013 C16.643 -0.019 20.777 -0.019 24.911 -0.018 C29.394 -0.018 33.876 -0.024 38.359 -0.03 C47.268 -0.039 56.176 -0.043 65.084 -0.045 C75.747 -0.048 86.411 -0.057 97.074 -0.065 C122.85 -0.086 148.627 -0.097 174.404 -0.106 C186.59 -0.11 198.775 -0.115 210.961 -0.12 C252.647 -0.138 294.332 -0.153 336.018 -0.161 C338.636 -0.161 341.254 -0.162 343.873 -0.162 C345.171 -0.162 346.47 -0.162 347.807 -0.163 C354.387 -0.164 360.966 -0.165 367.545 -0.166 C368.851 -0.167 370.156 -0.167 371.502 -0.167 C413.858 -0.175 456.214 -0.198 498.57 -0.231 C543.315 -0.265 588.06 -0.285 632.806 -0.288 C637.713 -0.289 642.621 -0.289 647.529 -0.29 C648.737 -0.29 649.946 -0.29 651.191 -0.29 C670.676 -0.292 690.162 -0.308 709.648 -0.328 C729.217 -0.349 748.785 -0.354 768.354 -0.345 C779.993 -0.339 791.632 -0.345 803.271 -0.367 C811.035 -0.381 818.798 -0.38 826.562 -0.367 C830.992 -0.36 835.423 -0.359 839.854 -0.376 C843.879 -0.392 847.904 -0.389 851.929 -0.371 C853.382 -0.368 854.834 -0.371 856.287 -0.382 C858.25 -0.396 860.213 -0.384 862.177 -0.369 C862.721 -0.369 862.721 -0.369 865.479 -0.37 C868.972 0.253 870.15 1.334 872.276 4.129 C872.843 7.406 872.843 7.406 872.839 11.066 C872.861 12.272 872.883 13.477 872.905 14.719 C872.094 19.118 870.732 20.338 867.276 23.129 C864.592 23.836 862.365 24.248 859.643 24.5 C858.902 24.587 858.161 24.675 857.397 24.765 C855.808 24.952 854.219 25.129 852.628 25.299 C848.434 25.752 844.25 26.283 840.065 26.816 C839.647 26.869 839.647 26.869 837.529 27.137 C819.993 29.411 802.662 33.426 786.276 40.129 C785.917 40.272 785.917 40.272 784.097 40.995 C760.706 50.372 734.766 66.185 724.276 90.129 C721.054 98.547 718.495 107.064 718.276 116.129 C718.238 116.876 718.199 117.624 718.159 118.394 C717.217 150.021 733.132 177.557 750.183 202.969 C751.998 205.709 753.774 208.47 755.535 211.246 C759.401 217.335 763.449 223.243 767.682 229.083 C770.828 233.444 773.721 237.926 776.569 242.488 C778.98 246.217 781.619 249.762 784.257 253.332 C786.264 256.112 788.152 258.945 790.026 261.816 C793.775 267.51 797.822 272.943 801.976 278.346 C804.932 282.219 807.618 286.165 810.162 290.321 C811.558 292.586 813.054 294.767 814.589 296.941 C815.182 297.782 815.775 298.622 816.386 299.488 C818.957 303.079 821.564 306.642 824.186 310.195 C826.977 314.112 829.622 318.119 832.276 322.129 C833.252 323.594 834.229 325.059 835.206 326.523 C835.687 327.245 836.168 327.967 836.664 328.711 C837.686 330.243 838.708 331.776 839.73 333.308 C842.019 336.74 844.306 340.171 846.585 343.609 C850.151 348.983 853.781 354.3 857.499 359.57 C859.447 362.375 861.332 365.216 863.214 368.066 C866.525 373.061 869.994 377.915 873.538 382.746 C876.777 387.185 879.707 391.804 882.651 396.441 C886.804 402.979 891.063 409.424 895.526 415.754 C898.5 419.975 901.366 424.26 904.214 428.566 C907.788 433.965 911.497 439.232 915.339 444.445 C918.8 449.239 922.027 454.19 925.276 459.129 C928.914 464.634 932.629 470.07 936.429 475.465 C938.399 478.306 940.309 481.181 942.214 484.066 C945.481 488.995 948.907 493.78 952.405 498.547 C956.408 504.07 960.074 509.8 963.714 515.566 C966.553 520.051 969.524 524.417 972.601 528.742 C975.923 533.474 979.028 538.311 982.026 543.254 C989.262 555.093 997.145 566.497 1005.339 577.691 C1008.79 582.418 1012.073 587.232 1015.276 592.129 C1018.311 596.729 1021.453 601.245 1024.62 605.754 C1026.548 608.518 1028.407 611.325 1030.276 614.129 C1031.379 615.692 1032.483 617.255 1033.589 618.816 C1044.276 634.061 1044.276 634.061 1044.276 637.129 C1044.936 637.129 1045.596 637.129 1046.276 637.129 C1046.807 638.081 1047.338 639.034 1047.886 640.016 C1048.599 641.283 1049.313 642.549 1050.026 643.816 C1050.374 644.442 1050.722 645.068 1051.081 645.713 C1053.209 649.477 1055.531 652.773 1058.276 656.129 C1060.066 658.86 1061.778 661.632 1063.495 664.41 C1065.277 667.13 1067.245 669.593 1069.276 672.129 C1070.384 673.822 1071.467 675.531 1072.526 677.254 C1075.651 682.234 1079.018 686.978 1082.503 691.711 C1085.084 695.231 1087.474 698.846 1089.788 702.547 C1093.44 708.366 1097.281 713.963 1101.358 719.492 C1104.122 723.291 1106.703 727.2 1109.276 731.129 C1109.936 732.119 1110.596 733.109 1111.276 734.129 C1112.943 736.629 1114.61 739.129 1116.276 741.629 C1116.788 742.395 1117.3 743.16 1117.827 743.949 C1118.707 745.272 1119.581 746.599 1120.444 747.933 C1121.792 750.009 1123.084 751.937 1124.839 753.691 C1127.208 756.06 1128.647 758.981 1130.249 761.902 C1133.004 766.868 1133.004 766.868 1134.667 768.461 C1136.912 770.787 1138.373 773.417 1140.026 776.191 C1143.539 782.018 1147.328 787.587 1151.276 793.129 C1152.619 795.123 1153.953 797.122 1155.276 799.129 C1158.36 803.8 1161.48 808.435 1164.714 813.004 C1167.168 816.489 1169.505 820.022 1171.776 823.629 C1175.11 828.92 1178.653 834.034 1182.276 839.129 C1185.9 844.224 1189.443 849.338 1192.776 854.629 C1196.968 861.278 1201.402 867.725 1206.214 873.941 C1209.673 878.479 1212.533 883.376 1215.444 888.273 C1216.948 890.617 1218.291 892.239 1220.276 894.129 C1222.3 897.48 1224.11 900.775 1225.776 904.316 C1227.276 907.129 1227.276 907.129 1229.214 909.066 C1231.39 911.242 1232.681 913.511 1234.14 916.203 C1235.397 918.334 1236.824 920.236 1238.339 922.191 C1240.779 925.362 1242.485 928.547 1244.276 932.129 C1246.184 934.867 1248.227 937.496 1250.276 940.129 C1253.808 944.667 1256.742 948.944 1259.276 954.129 C1260.609 955.796 1261.942 957.463 1263.276 959.129 C1264.384 960.822 1265.467 962.531 1266.526 964.254 C1269.646 969.226 1273.006 973.963 1276.487 978.687 C1279.13 982.293 1281.59 985.949 1283.839 989.816 C1285.276 992.129 1285.276 992.129 1286.651 993.437 C1288.725 995.596 1290.146 997.956 1291.714 1000.504 C1293.457 1003.335 1295.182 1006.012 1297.265 1008.605 C1299.439 1011.333 1301.221 1014.145 1303.026 1017.129 C1303.728 1018.282 1304.43 1019.436 1305.132 1020.59 C1305.487 1021.176 1305.842 1021.762 1306.207 1022.366 C1313.08 1033.7 1319.994 1044.98 1327.659 1055.797 C1329.1 1057.874 1330.455 1059.974 1331.776 1062.129 C1335.505 1068.187 1339.694 1073.929 1343.843 1079.703 C1344.287 1080.322 1344.73 1080.94 1345.188 1081.578 C1346.061 1082.793 1346.935 1084.007 1347.812 1085.219 C1350.13 1088.443 1352.252 1091.716 1354.276 1095.129 C1355.407 1096.785 1356.554 1098.431 1357.714 1100.066 C1360.291 1103.719 1362.796 1107.409 1365.276 1111.129 C1366.379 1112.692 1367.483 1114.255 1368.589 1115.816 C1372.806 1121.822 1376.737 1128 1380.581 1134.25 C1383.421 1138.863 1386.475 1143.287 1389.601 1147.711 C1390.992 1149.718 1392.312 1151.736 1393.589 1153.816 C1397.201 1159.695 1401.097 1165.392 1404.937 1171.123 C1406.253 1173.094 1407.561 1175.069 1408.866 1177.047 C1413.234 1183.654 1417.703 1190.135 1422.405 1196.512 C1424.964 1200.091 1427.299 1203.793 1429.636 1207.519 C1433.72 1214.016 1438.085 1220.32 1442.463 1226.622 C1446.543 1232.498 1450.575 1238.407 1454.607 1244.316 C1457.4 1248.404 1460.215 1252.472 1463.089 1256.504 C1466.387 1261.179 1469.321 1266.058 1472.292 1270.945 C1474.611 1274.666 1477.083 1278.249 1479.636 1281.812 C1481.573 1284.548 1483.425 1287.334 1485.276 1290.129 C1486.879 1292.546 1488.483 1294.963 1490.089 1297.379 C1490.523 1298.033 1490.957 1298.687 1491.405 1299.36 C1494.516 1304.029 1497.712 1308.628 1500.999 1313.176 C1502.974 1316.195 1503.401 1318.702 1503.4 1322.22 C1503.403 1323.058 1503.405 1323.897 1503.407 1324.76 C1503.405 1325.683 1503.402 1326.605 1503.399 1327.556 C1503.4 1328.539 1503.402 1329.521 1503.403 1330.534 C1503.406 1333.859 1503.401 1337.184 1503.397 1340.509 C1503.397 1342.904 1503.398 1345.299 1503.399 1347.694 C1503.401 1352.917 1503.4 1358.141 1503.395 1363.364 C1503.389 1371.131 1503.389 1378.899 1503.39 1386.666 C1503.391 1399.731 1503.388 1412.795 1503.382 1425.86 C1503.376 1438.799 1503.372 1451.739 1503.371 1464.679 C1503.371 1465.483 1503.371 1466.287 1503.371 1467.115 C1503.371 1471.197 1503.37 1475.28 1503.37 1479.362 C1503.368 1508.294 1503.361 1537.226 1503.352 1566.158 C1503.343 1594.269 1503.335 1622.38 1503.331 1650.491 C1503.331 1651.357 1503.331 1652.223 1503.331 1653.116 C1503.33 1661.814 1503.328 1670.512 1503.327 1679.21 C1503.324 1696.93 1503.322 1714.65 1503.319 1732.37 C1503.318 1733.184 1503.318 1733.999 1503.318 1734.839 C1503.309 1789.269 1503.293 1843.699 1503.276 1898.129 C1501.956 1898.459 1500.636 1898.789 1499.276 1899.129 C1495.229 1894.65 1491.537 1890.224 1488.276 1885.129 C1484.681 1879.893 1480.991 1874.735 1477.214 1869.629 C1472.976 1863.831 1469.344 1857.762 1465.796 1851.527 C1464.419 1849.354 1463.079 1847.927 1461.276 1846.129 C1459.933 1844.192 1458.623 1842.231 1457.339 1840.254 C1455.39 1837.258 1453.459 1834.357 1451.226 1831.566 C1449.281 1829.134 1447.656 1826.655 1446.026 1824.004 C1442.918 1819.046 1439.572 1814.325 1436.073 1809.637 C1434.325 1807.197 1432.799 1804.714 1431.276 1802.129 C1426.423 1794.375 1421.421 1786.804 1415.979 1779.445 C1413.984 1776.732 1412.131 1773.94 1410.276 1771.129 C1409.113 1769.46 1407.946 1767.793 1406.776 1766.129 C1403.061 1760.832 1399.488 1755.469 1396.026 1750.004 C1392.205 1743.981 1388.248 1738.053 1384.276 1732.129 C1383.255 1730.587 1382.234 1729.046 1381.214 1727.504 C1378.544 1723.495 1375.781 1719.555 1373.007 1715.617 C1371.33 1713.206 1369.703 1710.769 1368.089 1708.316 C1365.968 1705.11 1363.699 1702.117 1361.276 1699.129 C1359.943 1697.129 1358.61 1695.129 1357.276 1693.129 C1356.261 1691.792 1355.239 1690.458 1354.214 1689.129 C1351.788 1685.931 1350.073 1682.723 1348.276 1679.129 C1346.617 1676.668 1344.894 1674.256 1343.171 1671.84 C1340.647 1668.228 1338.31 1664.511 1335.96 1660.785 C1331.84 1654.285 1327.486 1647.953 1323.058 1641.66 C1321.31 1639.176 1319.574 1636.684 1317.839 1634.191 C1315.34 1630.617 1312.791 1627.084 1310.214 1623.566 C1307.295 1619.569 1304.496 1615.52 1301.78 1611.383 C1300.116 1608.889 1298.387 1606.448 1296.651 1604.004 C1294.724 1601.269 1292.887 1598.561 1291.276 1595.629 C1289.194 1591.843 1286.698 1588.387 1284.198 1584.867 C1282.175 1581.985 1280.221 1579.064 1278.276 1576.129 C1275.183 1571.465 1272.012 1566.866 1268.792 1562.289 C1265.698 1557.879 1262.786 1553.364 1259.901 1548.816 C1254.926 1540.989 1249.768 1533.374 1244.288 1525.891 C1239.632 1519.499 1235.159 1512.991 1230.8 1506.394 C1229.207 1504.026 1227.558 1501.703 1225.901 1499.379 C1223.259 1495.632 1220.832 1491.805 1218.464 1487.879 C1214.779 1481.809 1210.751 1476.058 1206.573 1470.32 C1204.399 1467.3 1202.322 1464.237 1200.276 1461.129 C1192.716 1449.718 1192.716 1449.718 1188.901 1444.316 C1185.967 1440.159 1183.145 1435.935 1180.339 1431.691 C1176.724 1426.231 1172.978 1420.898 1169.089 1415.629 C1166.821 1412.501 1164.705 1409.287 1162.585 1406.058 C1160.945 1403.64 1159.108 1401.403 1157.276 1399.129 C1156.263 1397.47 1155.265 1395.802 1154.276 1394.129 C1151.248 1389.457 1148.106 1384.868 1144.901 1380.316 C1141.602 1375.629 1138.428 1370.866 1135.261 1366.09 C1132.823 1362.453 1130.314 1358.871 1127.792 1355.293 C1125.907 1352.602 1124.099 1349.862 1122.276 1347.129 C1121.695 1346.322 1121.114 1345.515 1120.515 1344.683 C1120.197 1344.241 1120.197 1344.241 1118.589 1342.004 C1118.288 1341.59 1118.288 1341.59 1116.765 1339.496 C1115.276 1337.129 1115.276 1337.129 1114.757 1334.887 C1114.598 1334.307 1114.44 1333.726 1114.276 1333.129 C1113.286 1332.799 1112.296 1332.469 1111.276 1332.129 C1110.136 1330.668 1110.136 1330.668 1109.026 1328.754 C1108.81 1328.392 1108.81 1328.392 1107.718 1326.562 C1107.242 1325.759 1106.766 1324.956 1106.276 1324.129 C1102.248 1317.599 1098.004 1311.32 1093.448 1305.148 C1090.495 1301.042 1087.712 1296.831 1084.922 1292.613 C1082.018 1288.225 1079.038 1283.901 1075.999 1279.605 C1073.316 1275.749 1070.746 1271.819 1068.171 1267.891 C1066.319 1265.192 1064.335 1262.672 1062.276 1260.129 C1057.641 1253.787 1053.324 1247.223 1048.982 1240.678 C1046.003 1236.196 1042.961 1231.765 1039.847 1227.375 C1037.945 1224.655 1036.116 1221.891 1034.276 1219.129 C1032.535 1216.56 1030.782 1214 1029.026 1211.441 C1028.543 1210.737 1028.06 1210.033 1027.562 1209.308 C1024.778 1205.264 1021.942 1201.268 1019.026 1197.316 C1015.823 1192.961 1012.927 1188.469 1010.061 1183.887 C1007.584 1180.06 1004.885 1176.413 1002.179 1172.746 C1000.48 1170.409 998.862 1168.044 997.276 1165.629 C995.103 1162.32 992.819 1159.123 990.464 1155.941 C987.397 1151.765 984.546 1147.503 981.776 1143.129 C977.852 1136.939 973.653 1131.008 969.276 1125.129 C964.235 1118.329 959.408 1111.427 954.777 1104.343 C952.436 1100.781 949.946 1097.455 947.276 1094.129 C946.169 1092.436 945.086 1090.727 944.026 1089.004 C940.902 1084.025 937.537 1079.281 934.05 1074.551 C932.035 1071.799 930.154 1068.975 928.276 1066.129 C927.196 1064.585 926.112 1063.044 925.026 1061.504 C922.402 1057.772 919.853 1053.999 917.339 1050.191 C911.985 1042.134 906.272 1034.392 900.339 1026.754 C893.149 1017.482 886.664 1007.742 880.179 997.969 C877.279 993.64 874.282 989.383 871.276 985.129 C867.556 979.863 863.893 974.571 860.339 969.191 C857.722 965.241 855.027 961.379 852.214 957.566 C849.587 953.998 847.126 950.385 844.776 946.629 C839.899 938.841 834.357 931.545 828.831 924.211 C826.304 920.827 823.829 917.407 821.351 913.988 C819.981 912.101 818.609 910.215 817.233 908.332 C811.934 901.075 806.751 893.747 801.675 886.332 C795.688 877.589 789.579 868.961 783.288 860.433 C779.856 855.755 776.527 851.04 773.339 846.191 C769.952 841.061 766.34 836.152 762.628 831.254 C756.77 823.469 751.133 815.576 745.964 807.316 C741.064 799.52 735.427 792.317 729.776 785.057 C723.246 776.664 717.13 768.07 711.157 759.278 C707.794 754.332 704.39 749.424 700.901 744.566 C700.493 743.997 700.084 743.428 699.663 742.842 C698.534 741.271 697.405 739.7 696.276 738.129 C692.185 732.388 688.231 726.568 684.339 720.691 C678.807 712.351 672.923 704.31 666.901 696.316 C662.733 690.778 658.697 685.154 654.683 679.504 C652.551 676.506 650.387 673.533 648.214 670.566 C640.098 659.429 632.433 647.983 624.87 636.465 C619.603 628.468 614.101 620.734 608.276 613.129 C601.789 604.567 595.48 595.897 589.276 587.129 C588.782 586.43 588.287 585.731 587.777 585.011 C582.488 577.536 577.21 570.054 571.966 562.547 C570.313 560.181 568.658 557.817 567.003 555.453 C564.627 552.06 562.253 548.665 559.882 545.269 C553.457 536.073 547.004 526.9 540.462 517.787 C539.233 516.068 538.011 514.343 536.792 512.617 C532.852 507.05 528.863 501.559 524.651 496.191 C517.081 486.498 510.256 476.249 503.276 466.129 C500.426 462.001 497.571 457.877 494.714 453.754 C494.072 452.822 493.43 451.89 492.768 450.93 C489.28 445.897 485.675 441.002 481.886 436.192 C479.594 433.254 477.427 430.235 475.276 427.191 C475.062 426.89 475.062 426.89 473.979 425.365 C472.742 423.621 471.509 421.875 470.276 420.129 C469.679 419.284 469.083 418.44 468.468 417.57 C465.857 413.858 463.273 410.129 460.718 406.379 C455.74 399.083 450.681 391.903 445.335 384.871 C442.828 381.531 440.44 378.119 438.077 374.676 C436.573 372.549 435.035 370.463 433.468 368.383 C430.219 364.07 427.055 359.699 423.901 355.316 C422.753 353.724 421.605 352.131 420.456 350.539 C419.908 349.779 419.36 349.018 418.795 348.235 C414.278 341.971 409.74 335.731 405.089 329.566 C401.313 324.551 397.628 319.476 393.964 314.379 C388.329 306.547 382.582 298.809 376.769 291.11 C375.245 289.087 373.726 287.06 372.21 285.031 C367.067 278.152 361.893 271.301 356.645 264.501 C354.009 261.086 351.397 257.654 348.819 254.195 C347.64 252.616 346.454 251.041 345.265 249.469 C341.174 244.051 337.151 238.596 333.214 233.066 C332.792 232.474 332.37 231.881 331.935 231.271 C331.104 230.104 330.274 228.936 329.443 227.769 C320.976 215.869 312.278 204.252 302.393 193.488 C298.138 188.746 294.272 183.683 290.351 178.664 C286.039 173.195 281.494 168.031 276.776 162.91 C274.371 160.234 272.094 157.494 269.839 154.691 C265.736 149.611 261.399 144.808 256.952 140.031 C254.564 137.441 252.264 134.796 249.964 132.129 C240.975 122.129 230.072 114.055 219.276 106.129 C217.264 104.618 215.255 103.101 213.247 101.584 C191.738 85.362 168.605 71.723 144.276 60.129 C143.344 59.684 142.412 59.239 141.452 58.781 C97.965 38.565 52.441 28.704 5.086 22.877 C3.148 22.636 1.212 22.383 -0.724 22.129 C-1.837 22.005 -2.951 21.881 -4.098 21.753 C-6.724 21.129 -6.724 21.129 -8.724 18.129 C-9.35 12.264 -9.157 6.569 -6.724 1.129 C-4.953 -0.642 -2.399 0.002 0 0 Z " fill="#000000" transform="translate(105.72370940446854,93.87119883298874)"/>
<path d="M0 0 C1.097 -0.007 2.194 -0.014 3.325 -0.021 C7.028 -0.038 10.73 -0.02 14.432 -0.002 C17.103 -0.007 19.774 -0.014 22.445 -0.023 C28.266 -0.04 34.086 -0.038 39.906 -0.023 C48.561 -0.002 57.216 -0.01 65.871 -0.023 C81.326 -0.045 96.781 -0.039 112.237 -0.021 C125.761 -0.006 139.284 0 152.808 -0.004 C153.256 -0.004 153.256 -0.004 155.524 -0.004 C159.161 -0.005 162.799 -0.006 166.437 -0.008 C200.576 -0.018 234.715 0.001 268.855 0.032 C299.206 0.06 329.557 0.065 359.909 0.05 C367.681 0.046 375.454 0.042 383.226 0.039 C384.183 0.038 385.14 0.038 386.126 0.037 C411.466 0.026 436.806 0.034 462.145 0.047 C464.871 0.048 467.596 0.049 470.322 0.051 C472.13 0.052 473.938 0.053 475.746 0.054 C489.265 0.06 502.784 0.058 516.303 0.051 C531.668 0.043 547.033 0.049 562.398 0.075 C571.004 0.089 579.611 0.092 588.217 0.079 C593.958 0.071 599.698 0.078 605.439 0.097 C608.715 0.108 611.991 0.11 615.268 0.098 C618.788 0.087 622.308 0.101 625.829 0.12 C626.858 0.111 627.886 0.102 628.946 0.093 C629.413 0.098 629.413 0.098 631.773 0.124 C632.579 0.124 633.385 0.125 634.215 0.125 C636.289 0.626 636.289 0.626 638.071 2.474 C639.289 4.626 639.289 4.626 639.289 7.564 C636.721 15.428 627.218 20.305 620.664 24.814 C615.228 28.593 610.063 32.68 604.879 36.79 C601.459 39.501 598.004 42.163 594.539 44.814 C589.87 48.392 585.248 52.022 580.668 55.712 C579.098 56.975 577.523 58.231 575.941 59.478 C570.352 63.895 564.927 68.476 559.536 73.131 C555.96 76.214 552.342 79.227 548.664 82.189 C543.656 86.255 538.914 90.558 534.187 94.943 C531.596 97.342 528.982 99.71 526.351 102.064 C522.435 105.583 518.54 109.125 514.664 112.689 C514.111 113.197 513.558 113.705 512.989 114.229 C509.126 117.801 505.4 121.481 501.777 125.298 C500.289 126.626 500.289 126.626 498.289 126.626 C498.03 127.223 497.772 127.819 497.505 128.433 C496.186 130.812 494.922 132.012 492.824 133.724 C487.509 138.225 482.638 143.131 477.726 148.064 C476.819 148.967 475.912 149.87 474.978 150.8 C470.454 155.331 466.087 159.92 461.918 164.779 C459.188 167.875 456.237 170.74 453.289 173.626 C448.957 177.908 444.72 182.198 440.816 186.88 C438.005 190.094 434.899 193.025 431.859 196.021 C426.138 201.678 420.716 207.471 415.597 213.677 C415.062 214.32 414.527 214.964 413.976 215.626 C413.506 216.204 413.035 216.781 412.55 217.376 C411.289 218.626 411.289 218.626 409.289 218.626 C409.015 219.218 408.741 219.809 408.459 220.419 C407.33 222.549 406.15 224.141 404.566 225.947 C404.032 226.559 403.498 227.172 402.948 227.803 C402.38 228.446 401.812 229.089 401.226 229.751 C400.641 230.42 400.056 231.089 399.454 231.778 C396.183 235.509 392.875 239.204 389.539 242.876 C385.656 247.158 381.995 251.595 378.355 256.083 C374.205 261.191 369.943 265.972 365.289 270.626 C354.555 281.952 344.401 293.738 334.566 305.849 C332.007 308.97 329.403 312.051 326.789 315.126 C322.665 319.98 318.612 324.885 314.593 329.826 C312.068 332.894 309.494 335.917 306.914 338.939 C303.08 343.431 299.398 348.015 295.789 352.689 C292.286 357.218 288.647 361.518 284.726 365.689 C280.55 370.131 276.788 374.753 273.13 379.628 C269.986 383.793 266.655 387.755 263.226 391.689 C258.748 396.835 254.603 402.134 250.562 407.634 C248.097 410.878 245.505 413.974 242.851 417.064 C238.787 421.8 234.909 426.636 231.133 431.604 C225.977 438.378 220.624 444.994 215.289 451.626 C210.775 457.246 206.295 462.889 201.851 468.564 C198.541 472.789 195.2 476.982 191.789 481.126 C185.028 489.351 178.372 497.662 172.164 506.314 C167.307 513.061 162.022 519.432 156.625 525.751 C150.264 533.201 144.186 540.805 138.289 548.626 C137.747 549.343 137.206 550.06 136.648 550.798 C134.51 553.641 132.387 556.493 130.277 559.357 C125.624 565.634 120.81 571.696 115.746 577.642 C113.89 579.897 112.123 582.16 110.382 584.501 C107.365 588.561 104.191 592.472 100.976 596.376 C96.349 602.033 91.878 607.759 87.531 613.634 C85.003 617.008 82.404 620.32 79.789 623.626 C75.62 628.902 71.55 634.242 67.531 639.634 C63.919 644.454 60.235 649.218 56.555 653.985 C54.88 656.156 53.208 658.33 51.537 660.503 C50.703 661.587 49.869 662.67 49.035 663.753 C46.964 666.44 44.902 669.133 42.859 671.841 C38.029 678.219 32.999 684.352 27.755 690.394 C23.11 695.77 18.784 701.352 14.506 707.022 C13.281 708.636 12.042 710.238 10.797 711.837 C6.459 717.412 2.24 723.045 -1.836 728.814 C-5.923 734.595 -10.226 740.147 -14.711 745.626 C-20.394 752.661 -25.945 759.791 -31.442 766.971 C-33.465 769.609 -35.495 772.242 -37.524 774.876 C-41.366 779.869 -45.197 784.871 -49.024 789.876 C-49.572 790.594 -50.12 791.311 -50.685 792.05 C-53.438 795.65 -56.189 799.253 -58.938 802.857 C-65.166 811.019 -71.44 819.143 -77.755 827.238 C-81.013 831.421 -84.232 835.625 -87.399 839.876 C-93.67 848.293 -100.198 856.509 -106.774 864.689 C-115.397 875.437 -123.67 886.46 -131.81 897.577 C-136.678 904.221 -141.578 910.797 -146.789 917.177 C-149.204 920.254 -151.456 923.432 -153.711 926.626 C-157.208 931.579 -160.828 936.375 -164.657 941.08 C-168.326 945.628 -171.855 950.287 -175.407 954.927 C-176.732 956.654 -178.063 958.377 -179.395 960.099 C-179.832 960.666 -180.27 961.232 -180.721 961.816 C-181.58 962.927 -182.44 964.037 -183.301 965.146 C-185.498 967.988 -187.56 970.87 -189.524 973.876 C-191.711 976.626 -191.711 976.626 -194.524 977.564 C-194.885 977.574 -194.885 977.574 -196.711 977.626 C-197.632 976.589 -198.548 975.546 -199.461 974.501 C-199.972 973.921 -200.482 973.341 -201.008 972.744 C-204.679 968.18 -207.688 963.12 -210.836 958.189 C-214.482 952.494 -218.208 946.858 -221.975 941.243 C-224.821 936.99 -227.593 932.696 -230.336 928.376 C-233.726 923.049 -237.319 917.904 -241.082 912.833 C-244.711 907.917 -244.711 907.917 -244.711 904.376 C-243.609 900.242 -242.293 898.604 -239.45 895.564 C-236.148 891.884 -233.5 887.699 -230.711 883.626 C-226.44 877.472 -222.089 871.384 -217.672 865.333 C-215.277 862.026 -212.94 858.68 -210.606 855.33 C-208.431 852.227 -206.23 849.144 -204.024 846.064 C-199.665 839.976 -195.347 833.861 -191.037 827.738 C-188.258 823.796 -185.448 819.884 -182.586 816.001 C-179.041 811.162 -175.732 806.185 -172.426 801.182 C-168.685 795.54 -164.738 790.068 -160.711 784.626 C-156.027 778.219 -151.386 771.783 -146.781 765.32 C-143.217 760.323 -139.622 755.349 -136.024 750.376 C-129.021 740.692 -122.184 730.927 -115.605 720.949 C-110.866 713.767 -106.07 706.671 -100.957 699.748 C-98.044 695.699 -95.259 691.568 -92.461 687.439 C-87.88 680.694 -83.149 674.101 -78.225 667.603 C-67.466 653.402 -57.344 638.788 -47.352 624.041 C-44.552 619.921 -41.711 615.83 -38.868 611.74 C-37.297 609.472 -35.734 607.199 -34.18 604.919 C-28.776 597.002 -23.258 589.181 -17.63 581.422 C-9.837 570.676 -2.151 559.871 5.16 548.79 C9.307 542.626 13.64 536.59 17.939 530.531 C20.741 526.576 23.513 522.6 26.289 518.626 C27.455 516.96 28.622 515.293 29.789 513.626 C30.366 512.8 30.944 511.974 31.539 511.123 C32.7 509.465 33.867 507.812 35.039 506.162 C38.009 501.964 40.875 497.737 43.601 493.376 C46.742 488.379 50.133 483.607 53.59 478.828 C56.783 474.391 59.746 469.844 62.644 465.208 C65.38 460.912 68.34 456.778 71.289 452.626 C75.938 446.025 80.529 439.384 85.096 432.726 C87.28 429.543 89.467 426.364 91.679 423.201 C95.939 417.102 100.051 410.938 104.044 404.663 C106.812 400.328 109.697 396.095 112.683 391.908 C116.374 386.664 119.787 381.262 123.164 375.814 C125.857 371.483 128.555 367.164 131.414 362.939 C133.7 359.558 135.85 356.11 137.976 352.626 C142.529 345.178 147.286 337.869 152.042 330.549 C156.942 322.993 161.705 315.358 166.394 307.669 C167.643 305.664 168.937 303.685 170.277 301.74 C172.17 298.81 173.717 295.892 175.239 292.764 C177.105 288.964 179.118 285.241 181.101 281.501 C190.496 263.706 199.491 245.857 205.613 226.626 C206.289 224.626 206.289 224.626 207.312 222.255 C208.742 218.407 209.102 214.521 209.629 210.466 C210.289 206.626 210.289 206.626 211.01 204.115 C213.345 195.986 213.752 188.24 213.68 179.854 C213.664 177.629 213.68 175.406 213.699 173.181 C213.711 164.596 212.722 156.891 210.289 148.626 C209.989 147.278 209.705 145.925 209.445 144.568 C209.228 143.453 209.012 142.338 208.789 141.189 C208.572 140.056 208.356 138.923 208.132 137.755 C207.266 134.542 206.023 132.445 204.289 129.626 C203.796 128.356 203.328 127.076 202.879 125.79 C194.736 103.286 174.425 84.462 154.289 72.626 C153.903 72.383 153.903 72.383 151.949 71.154 C144.354 66.415 136.332 62.529 128.289 58.626 C127.507 58.245 126.725 57.864 125.92 57.471 C116.192 52.74 106.484 48.274 96.289 44.626 C94.94 44.129 93.591 43.632 92.242 43.134 C83.736 40.027 75.214 37.257 66.401 35.137 C64.945 34.785 63.491 34.423 62.04 34.053 C39.412 28.326 15.603 25.494 -7.677 23.913 C-11.001 23.445 -13.372 21.965 -15.711 19.626 C-15.917 17.382 -16.026 15.129 -16.086 12.876 C-16.135 11.644 -16.184 10.412 -16.235 9.142 C-15.711 5.626 -15.711 5.626 -13.848 2.946 C-9.301 -0.416 -5.522 -0.065 0 0 Z " fill="#000000" transform="translate(1873.7112979888916,93.3735876083374)"/>
<path d="M0 0 C1.73 0.098 1.73 0.098 4 1 C5.601 3.128 6.961 5.161 8.312 7.438 C9.102 8.718 9.894 9.998 10.688 11.277 C11.077 11.91 11.466 12.543 11.867 13.195 C13.953 16.519 16.244 19.697 18.512 22.898 C21.266 26.788 23.862 30.764 26.375 34.812 C28.641 38.46 31.011 42.027 33.406 45.59 C35.105 48.159 36.741 50.764 38.375 53.375 C41.421 58.189 44.702 62.78 48.082 67.363 C50.845 71.162 53.427 75.071 56 79 C56.33 79.495 56.33 79.495 58 82 C58.33 82.495 58.33 82.495 60 85 C60.44 85.654 60.879 86.307 61.332 86.98 C65.932 93.838 70.362 100.8 74.754 107.793 C80.018 116.142 85.532 124.259 91.641 132.016 C93 134 93 134 94.422 136.887 C96.029 140.057 97.868 142.724 100 145.562 C102.542 148.956 104.838 152.356 107 156 C108.131 157.656 109.277 159.302 110.438 160.938 C113.015 164.591 115.52 168.28 118 172 C119.103 173.564 120.207 175.126 121.312 176.688 C124.435 181.129 127.352 185.675 130.242 190.27 C132.519 193.807 134.945 197.227 137.375 200.66 C140.142 204.644 142.647 208.782 145.172 212.922 C148.061 217.612 151.151 222.123 154.352 226.605 C156.011 229.015 157.496 231.491 159 234 C160.131 235.656 161.277 237.302 162.438 238.938 C166.167 244.202 169.731 249.556 173.196 254.998 C176.82 260.687 180.543 266.272 184.453 271.77 C185.881 273.829 187.203 275.919 188.5 278.062 C190.336 281.068 192.37 283.806 194.562 286.562 C197.475 290.226 199.751 293.903 202 298 C202.289 298.382 202.289 298.382 203.75 300.312 C205 302 205 302 205 304 C205.66 304 206.32 304 207 304 C208.043 305.398 208.043 305.398 209.188 307.375 C211.132 310.62 213.181 313.73 215.375 316.812 C218.485 321.208 221.376 325.713 224.242 330.27 C226.521 333.81 228.949 337.233 231.383 340.668 C232.824 342.746 234.179 344.845 235.5 347 C237.964 351.017 240.663 354.85 243.379 358.699 C246.5 363.129 249.423 367.668 252.312 372.25 C255.193 376.793 258.208 381.213 261.316 385.602 C262.915 387.879 264.465 390.18 266 392.5 C268.733 396.629 271.565 400.681 274.414 404.73 C276.32 407.458 278.154 410.231 280 413 C281.766 415.516 283.538 418.028 285.316 420.535 C286.981 422.972 288.482 425.47 290 428 C291.131 429.656 292.277 431.302 293.438 432.938 C296.015 436.591 298.52 440.28 301 444 C302.766 446.516 304.538 449.028 306.316 451.535 C307.981 453.972 309.491 456.465 311 459 C311.949 460.444 312.907 461.881 313.875 463.312 C317.272 468.378 320.483 473.548 323.691 478.734 C328.862 486.998 328.862 486.998 331.75 490.312 C334.073 493.087 335.471 495.734 337 499 C337.557 499.908 338.114 500.815 338.688 501.75 C340 504 340 504 340 506 C340.599 506.222 341.199 506.443 341.816 506.672 C344.693 508.421 345.457 510.248 346.938 513.25 C348.604 516.474 350.133 519.421 352.562 522.125 C354.624 524.556 355.955 526.599 357.438 529.375 C359.46 533.155 361.764 536.446 364.391 539.824 C366.898 543.214 369.078 546.8 371.289 550.387 C373.612 553.935 376.272 557.135 379 560.375 C380.861 562.818 382.329 565.313 383.812 567.996 C385.735 571.24 387.965 574.261 390.148 577.332 C391.993 579.99 393.724 582.694 395.438 585.438 C398.499 590.306 401.809 594.941 405.219 599.57 C408.11 603.515 410.748 607.589 413.312 611.75 C415.834 615.817 418.571 619.712 421.352 623.605 C423.011 626.016 424.504 628.486 426 631 C426.949 632.444 427.907 633.881 428.875 635.312 C430.73 638.08 432.557 640.856 434.312 643.688 C436.703 647.538 439.125 651.367 441.562 655.188 C441.939 655.782 442.315 656.376 442.702 656.989 C444.952 660.505 447.387 663.751 450 667 C451.107 668.693 452.19 670.402 453.25 672.125 C455.7 676.031 458.259 679.792 461 683.5 C464.317 687.993 467.339 692.607 470.301 697.34 C471.886 699.822 473.541 702.226 475.25 704.625 C481.807 713.885 487.817 723.535 493.875 733.125 C495.687 735.992 497.538 738.779 499.562 741.5 C502.292 745.218 504.357 749.261 506.473 753.352 C508.086 756.149 509.98 758.485 512 761 C513.138 762.876 514.241 764.773 515.312 766.688 C518.027 771.419 520.937 775.873 524.117 780.301 C526.345 783.495 528.419 786.771 530.5 790.062 C535.965 798.64 542.223 806.332 548.812 814.061 C551.761 817.52 554.648 821.021 557.5 824.562 C568.417 837.951 580.411 850.313 594 861 C594.381 861.303 594.381 861.303 596.309 862.836 C604.916 869.617 613.776 876.083 623 882 C623.744 882.481 624.488 882.962 625.254 883.457 C643.422 894.801 664.662 902.41 685.891 905.234 C689.488 906.12 691.341 907.458 694 910 C695.63 913.259 695.31 916.797 695.375 920.375 C695.412 921.143 695.45 921.912 695.488 922.703 C695.5 923.448 695.511 924.193 695.523 924.961 C695.543 925.639 695.563 926.318 695.583 927.017 C694.658 930.163 692.671 931.209 690 933 C687.132 933.501 687.132 933.501 683.908 933.501 C682.673 933.511 681.439 933.521 680.167 933.532 C678.798 933.523 677.428 933.513 676.059 933.503 C674.598 933.508 673.137 933.513 671.676 933.521 C667.642 933.537 663.609 933.527 659.575 933.514 C655.194 933.504 650.813 933.517 646.432 933.527 C638.748 933.541 631.064 933.541 623.379 933.531 C611.952 933.516 600.526 933.523 589.099 933.535 C568.694 933.557 548.29 933.555 527.885 933.543 C510.029 933.533 492.174 933.53 474.318 933.535 C473.135 933.536 471.952 933.536 470.733 933.536 C465.931 933.537 461.129 933.539 456.327 933.54 C411.256 933.552 366.184 933.541 321.112 933.52 C281.04 933.501 240.967 933.502 200.895 933.521 C155.906 933.543 110.917 933.551 65.927 933.539 C61.134 933.538 56.341 933.537 51.548 933.535 C50.368 933.535 49.188 933.535 47.972 933.534 C30.124 933.53 12.276 933.535 -5.573 933.545 C-25.859 933.557 -46.146 933.554 -66.433 933.532 C-77.796 933.52 -89.16 933.52 -100.523 933.535 C-108.103 933.544 -115.683 933.538 -123.262 933.521 C-127.588 933.511 -131.914 933.508 -136.239 933.522 C-140.169 933.535 -144.099 933.53 -148.029 933.51 C-149.447 933.505 -150.865 933.508 -152.283 933.518 C-154.199 933.531 -156.116 933.517 -158.033 933.501 C-159.097 933.501 -160.161 933.501 -161.257 933.501 C-164.699 932.872 -165.885 931.738 -168 929 C-168.962 923.149 -168.734 916.331 -166 911 C-163.033 908.339 -160.441 907.395 -156.582 906.527 C-155.505 906.273 -154.428 906.018 -153.318 905.756 C-152.161 905.486 -151.004 905.216 -149.812 904.938 C-125.337 898.887 -103.085 889.299 -83 874 C-81.085 872.622 -79.169 871.247 -77.25 869.875 C-70.745 865.126 -65.095 860.34 -59.879 854.191 C-57.83 851.801 -55.699 849.5 -53.562 847.188 C-47.636 840.622 -42.528 833.589 -38 826 C-34.202 820.179 -34.202 820.179 -32.316 817.348 C-29.713 813.359 -27.789 809.414 -26 805 C-25.505 804.031 -25.01 803.061 -24.5 802.062 C-23.021 799.044 -21.833 796.026 -20.688 792.871 C-20.146 791.398 -19.551 789.944 -18.938 788.5 C-17.902 785.738 -17.242 782.94 -16.559 780.074 C-16 778 -16 778 -14.625 774.5 C-10.132 762.738 -8.258 750.258 -6.395 737.869 C-5.727 733.441 -5.057 729.086 -3.945 724.746 C-0.538 709.599 -1.863 693.014 -1.89 677.611 C-1.895 674.018 -1.895 670.426 -1.895 666.833 C-1.896 660.55 -1.901 654.267 -1.908 647.984 C-1.918 638.641 -1.923 629.298 -1.927 619.955 C-1.932 604.235 -1.943 588.514 -1.955 572.793 C-1.973 550.344 -1.983 527.894 -1.99 505.445 C-1.993 496.431 -1.997 487.418 -2 478.404 C-2.001 477.403 -2.001 476.402 -2.001 475.37 C-2.01 451.56 -2.022 427.75 -2.034 403.94 C-2.035 402.899 -2.036 401.858 -2.036 400.785 C-2.049 376.468 -2.063 352.152 -2.079 327.835 C-2.079 327.312 -2.079 327.312 -2.081 324.662 C-2.085 319.381 -2.088 314.1 -2.092 308.819 C-2.092 307.775 -2.093 306.732 -2.094 305.656 C-2.095 303.549 -2.097 301.443 -2.098 299.336 C-2.121 264.558 -2.138 229.781 -2.147 195.003 C-2.148 190.097 -2.149 185.19 -2.151 180.284 C-2.151 179.318 -2.151 178.353 -2.152 177.358 C-2.156 161.798 -2.169 146.238 -2.184 130.678 C-2.199 115.06 -2.207 99.441 -2.207 83.823 C-2.208 74.537 -2.214 65.25 -2.229 55.964 C-2.238 49.77 -2.239 43.575 -2.235 37.38 C-2.233 33.846 -2.234 30.312 -2.244 26.777 C-2.255 22.978 -2.25 19.179 -2.243 15.38 C-2.249 14.272 -2.254 13.164 -2.26 12.022 C-2.256 11.014 -2.252 10.006 -2.247 8.967 C-2.248 8.098 -2.248 7.228 -2.249 6.333 C-1.98 3.812 -1.268 2.176 0 0 Z " fill="#000000" transform="translate(1102,1530)"/>
</svg>
