<?xml version="1.0" encoding="UTF-8"?>
<!-- Generator: visioncortex VTracer 0.6.12 -->
<svg version="1.1" xmlns="http://www.w3.org/2000/svg" width="3494" height="3691">
<path d="M0 0 C0.337 -0.003 0.337 -0.003 2.04 -0.017 C4.311 -0.03 6.581 -0.015 8.852 -0 C10.497 -0.004 12.143 -0.01 13.788 -0.017 C18.339 -0.032 22.888 -0.022 27.439 -0.007 C32.378 0.004 37.318 -0.009 42.257 -0.018 C50.923 -0.031 59.59 -0.029 68.256 -0.017 C81.143 0 94.03 -0.005 106.917 -0.015 C129.261 -0.032 151.605 -0.028 173.949 -0.013 C194.756 0 215.563 0.007 236.37 0.004 C237.718 0.004 239.065 0.004 240.413 0.003 C245.828 0.003 251.243 0.002 256.658 0.001 C271.795 -0.001 286.933 -0.002 302.071 -0.001 C302.76 -0.001 303.45 -0.001 304.16 -0.001 C326.134 -0.001 348.108 0.006 370.082 0.016 C370.439 0.016 370.439 0.016 372.243 0.017 C383.821 0.023 395.399 0.029 406.977 0.035 C452.898 0.058 498.818 0.065 544.739 0.054 C547.64 0.054 550.542 0.053 553.444 0.052 C554.161 0.052 554.878 0.052 555.618 0.052 C563.562 0.05 571.507 0.048 579.452 0.047 C580.164 0.046 580.877 0.046 581.611 0.046 C619.378 0.038 657.145 0.044 694.913 0.055 C700.323 0.056 705.734 0.058 711.144 0.059 C713.162 0.06 715.18 0.06 717.198 0.061 C731.966 0.065 746.733 0.067 761.501 0.064 C762.167 0.064 762.833 0.064 763.519 0.064 C766.872 0.063 770.225 0.062 773.578 0.062 C797.794 0.056 822.01 0.06 846.226 0.082 C859.043 0.093 871.859 0.095 884.676 0.086 C893.225 0.081 901.774 0.087 910.324 0.101 C915.202 0.109 920.081 0.113 924.96 0.103 C929.393 0.094 933.825 0.099 938.258 0.115 C939.857 0.118 941.456 0.116 943.055 0.109 C945.218 0.1 947.38 0.109 949.543 0.123 C950.743 0.123 951.943 0.124 953.179 0.124 C956.686 0.542 958.533 1.382 961.334 3.5 C963.756 7.132 963.663 9.052 963.709 13.375 C963.738 14.59 963.766 15.804 963.795 17.055 C963.238 21.218 962.483 22.729 959.334 25.5 C954.038 27.047 948.779 27.955 943.303 28.614 C941.766 28.808 940.228 29.004 938.691 29.2 C937.898 29.299 937.104 29.399 936.287 29.502 C924.363 31.013 912.483 32.616 900.709 35.063 C899.801 35.248 898.893 35.434 897.957 35.625 C892.403 36.836 887.167 38.541 881.858 40.571 C879.393 41.478 876.925 42.231 874.397 42.938 C863.741 46.081 853.933 50.966 844.334 56.5 C843.71 56.857 843.086 57.214 842.443 57.582 C818.596 71.371 802.105 88.691 794.334 115.5 C792.949 121.302 793.111 127.099 793.094 133.036 C793.084 135.032 793.053 137.029 793.022 139.026 C792.989 147.334 793.922 154.56 796.334 162.5 C796.704 163.87 797.073 165.239 797.44 166.61 C800.178 175.824 803.835 184.137 808.346 192.617 C809.396 194.618 810.403 196.638 811.404 198.664 C814.63 205.141 818.384 211.235 822.584 217.125 C825.687 221.477 828.526 225.956 831.334 230.5 C834.577 235.742 837.906 240.868 841.494 245.883 C843.82 249.192 846.043 252.564 848.272 255.938 C851.934 261.47 855.73 266.876 859.666 272.219 C861.644 274.924 863.489 277.703 865.334 280.5 C866.373 281.981 867.415 283.46 868.459 284.938 C872.001 289.971 875.407 295.088 878.782 300.234 C881.143 303.81 883.645 307.16 886.334 310.5 C887.604 312.362 888.853 314.238 890.084 316.125 C893.392 321.134 896.841 326.006 900.393 330.844 C906.083 338.629 911.476 346.612 916.76 354.676 C919.494 358.826 922.322 362.875 925.272 366.875 C928.591 371.4 931.632 376.041 934.608 380.797 C936.853 384.313 939.241 387.715 941.658 391.114 C944.013 394.467 946.267 397.884 948.524 401.303 C949.793 403.224 951.063 405.143 952.334 407.063 C952.547 407.386 952.547 407.386 953.623 409.022 C956.04 412.665 958.589 416.093 961.334 419.5 C962.625 421.382 963.895 423.279 965.147 425.188 C967.718 429.083 970.325 432.941 973.022 436.75 C975.502 440.269 977.838 443.84 980.092 447.508 C981.93 450.456 983.867 453.335 985.803 456.219 C987.302 458.452 988.787 460.695 990.272 462.938 C993.033 467.083 995.885 471.162 998.752 475.235 C999.951 476.951 1001.119 478.69 1002.272 480.438 C1004.23 483.345 1006.266 486.171 1008.334 489 C1011.095 492.779 1013.777 496.579 1016.334 500.5 C1017.291 501.939 1018.25 503.376 1019.209 504.813 C1021.251 507.875 1023.293 510.938 1025.334 514 C1025.582 514.372 1025.582 514.372 1026.838 516.254 C1027.827 517.74 1028.814 519.226 1029.799 520.715 C1033.042 525.609 1036.372 530.434 1039.752 535.235 C1040.951 536.951 1042.119 538.69 1043.272 540.438 C1045.856 544.275 1048.593 547.992 1051.334 551.719 C1054.923 556.71 1058.223 561.877 1061.522 567.063 C1064.614 571.903 1067.793 576.668 1071.084 581.375 C1073.874 585.366 1076.553 589.378 1079.084 593.535 C1080.627 595.96 1082.29 598.285 1083.959 600.625 C1086.453 604.147 1088.404 607.64 1090.334 611.5 C1092.061 614.041 1093.843 616.537 1095.631 619.035 C1097.064 621.109 1098.323 623.163 1099.522 625.375 C1101.226 628.313 1102.919 630.163 1105.334 632.5 C1106.372 634.144 1107.37 635.813 1108.334 637.5 C1108.695 638.026 1108.695 638.026 1110.522 640.688 C1112.334 643.5 1112.334 643.5 1112.334 645.5 C1113.324 645.83 1114.314 646.16 1115.334 646.5 C1116.51 648.031 1116.51 648.031 1117.647 650 C1121.374 656.253 1125.438 662.249 1129.647 668.188 C1132.966 672.893 1136.077 677.715 1139.138 682.591 C1141.348 686.081 1143.749 689.283 1146.334 692.5 C1148.124 695.232 1149.836 698.004 1151.553 700.781 C1153.333 703.499 1155.304 705.968 1157.334 708.5 C1157.551 708.944 1157.551 708.944 1158.647 711.188 C1160.623 715.068 1163.046 718.446 1165.572 721.985 C1167.097 724.161 1168.517 726.356 1169.897 728.625 C1172.002 732.058 1174.351 735.23 1176.791 738.43 C1180.352 743.207 1183.635 748.162 1186.522 753.375 C1188.334 756.5 1188.334 756.5 1189.666 757.758 C1192.66 760.885 1194.741 764.74 1197.018 768.406 C1198.908 771.41 1200.717 774.096 1203.334 776.5 C1204.356 778.154 1205.35 779.824 1206.334 781.5 C1208.307 784.518 1210.324 787.507 1212.334 790.5 C1213.335 792 1214.335 793.5 1215.334 795 C1215.829 795.743 1216.324 796.485 1216.834 797.25 C1221.334 804 1221.334 804 1222.826 806.242 C1223.848 807.772 1224.874 809.298 1225.904 810.821 C1228.224 814.259 1230.471 817.671 1232.459 821.313 C1234.334 824.5 1234.334 824.5 1236.209 826.375 C1239.506 829.672 1241.805 833.599 1244.334 837.5 C1248.698 844.104 1253.121 850.656 1257.678 857.129 C1261.642 862.804 1265.41 868.59 1269.057 874.473 C1270.916 877.423 1272.855 880.317 1274.799 883.211 C1275.819 884.732 1276.832 886.258 1277.838 887.789 C1280.258 891.466 1282.725 895.064 1285.397 898.563 C1287.822 901.75 1289.971 905.028 1292.061 908.442 C1296.038 914.871 1300.4 921.049 1304.748 927.231 C1306.654 929.958 1308.488 932.731 1310.334 935.5 C1311.478 937.127 1312.624 938.751 1313.772 940.375 C1315.878 943.372 1317.919 946.378 1319.834 949.5 C1323.632 955.676 1327.832 961.583 1332.272 967.313 C1334.902 970.766 1337.158 974.411 1339.397 978.125 C1343.516 984.935 1343.516 984.935 1346.084 987.875 C1348.197 990.34 1349.755 992.821 1351.315 995.66 C1354.704 1001.776 1358.684 1007.487 1362.709 1013.196 C1365.693 1017.427 1368.469 1021.721 1371.084 1026.188 C1373.891 1030.911 1377.046 1035.287 1380.319 1039.696 C1382.338 1042.506 1384.191 1045.376 1386.022 1048.313 C1388.548 1052.354 1391.231 1055.894 1394.334 1059.5 C1396.106 1062.047 1397.798 1064.62 1399.412 1067.27 C1402.499 1072.322 1405.909 1077.066 1409.42 1081.832 C1411.472 1084.692 1413.315 1087.628 1415.143 1090.633 C1416.35 1092.525 1417.652 1094.285 1419.022 1096.063 C1422.429 1100.515 1425.49 1105.18 1428.58 1109.854 C1431.05 1113.588 1433.56 1117.283 1436.147 1120.938 C1439.566 1125.787 1442.717 1130.756 1445.729 1135.867 C1448.34 1140.291 1451.038 1144.567 1454.022 1148.75 C1456.501 1152.229 1458.423 1155.678 1460.334 1159.5 C1462.041 1162.03 1463.807 1164.512 1465.58 1166.996 C1467.06 1169.108 1468.436 1171.234 1469.772 1173.438 C1472.41 1177.774 1475.478 1181.764 1478.565 1185.789 C1480.334 1188.5 1480.334 1188.5 1481.385 1191.774 C1481.698 1192.673 1482.011 1193.573 1482.334 1194.5 C1483.324 1194.83 1484.314 1195.16 1485.334 1195.5 C1487.166 1198.16 1487.166 1198.16 1489.147 1201.563 C1491.847 1206.117 1494.669 1210.44 1497.912 1214.625 C1500.567 1218.126 1502.924 1221.83 1505.334 1225.5 C1509.127 1231.232 1512.925 1236.953 1516.897 1242.563 C1519.961 1246.908 1522.833 1251.356 1525.658 1255.86 C1527.506 1258.771 1529.421 1261.632 1531.334 1264.5 C1532.755 1266.706 1534.172 1268.914 1535.584 1271.125 C1539.757 1277.636 1544.025 1284.079 1548.334 1290.5 C1549.293 1291.937 1550.251 1293.375 1551.209 1294.813 C1551.446 1295.167 1551.446 1295.167 1552.643 1296.957 C1553.996 1298.992 1555.341 1301.032 1556.682 1303.074 C1560.816 1309.351 1564.993 1315.462 1569.69 1321.336 C1572.872 1325.523 1575.569 1330.032 1578.334 1334.5 C1582.496 1341.213 1586.866 1347.698 1591.497 1354.091 C1594.459 1358.206 1597.25 1362.402 1599.959 1366.688 C1603.28 1371.939 1606.803 1376.99 1610.498 1381.985 C1612.707 1385.011 1614.774 1388.115 1616.83 1391.246 C1618.494 1393.74 1620.223 1396.181 1621.959 1398.625 C1624.258 1401.888 1626.323 1405.157 1628.24 1408.653 C1630.192 1411.95 1632.458 1415.033 1634.674 1418.156 C1636.618 1420.901 1638.482 1423.692 1640.334 1426.5 C1641.292 1427.938 1642.25 1429.376 1643.209 1430.813 C1661.496 1458.243 1661.496 1458.243 1661.463 1474.273 C1661.464 1474.813 1661.464 1474.813 1661.468 1477.545 C1661.473 1481.175 1661.47 1484.805 1661.468 1488.436 C1661.47 1491.059 1661.472 1493.683 1661.475 1496.307 C1661.48 1502.019 1661.481 1507.73 1661.48 1513.441 C1661.479 1521.934 1661.483 1530.426 1661.488 1538.919 C1661.498 1554.967 1661.501 1571.014 1661.501 1587.062 C1661.502 1599.448 1661.504 1611.835 1661.507 1624.222 C1661.508 1627.786 1661.509 1631.35 1661.51 1634.913 C1661.51 1635.799 1661.51 1636.685 1661.51 1637.598 C1661.516 1662.516 1661.52 1687.434 1661.52 1712.353 C1661.52 1713.292 1661.52 1714.232 1661.52 1715.2 C1661.52 1719.962 1661.52 1724.724 1661.52 1729.486 C1661.52 1729.958 1661.52 1729.958 1661.52 1732.352 C1661.519 1734.264 1661.519 1736.177 1661.519 1738.089 C1661.519 1767.87 1661.526 1797.652 1661.54 1827.433 C1661.555 1860.875 1661.564 1894.318 1661.563 1927.761 C1661.563 1931.323 1661.563 1934.885 1661.563 1938.447 C1661.563 1939.325 1661.563 1940.202 1661.563 1941.105 C1661.563 1955.248 1661.569 1969.391 1661.578 1983.534 C1661.586 1997.732 1661.587 2011.93 1661.581 2026.128 C1661.577 2034.572 1661.579 2043.017 1661.589 2051.462 C1661.595 2057.751 1661.592 2064.04 1661.584 2070.33 C1661.582 2072.886 1661.584 2075.443 1661.59 2077.999 C1661.597 2081.452 1661.591 2084.904 1661.583 2088.357 C1661.588 2089.368 1661.593 2090.38 1661.598 2091.422 C1661.593 2092.335 1661.589 2093.248 1661.584 2094.188 C1661.584 2094.979 1661.584 2095.769 1661.584 2096.584 C1661.334 2098.5 1661.334 2098.5 1659.334 2100.5 C1657.018 2100.535 1657.018 2100.535 1654.334 2099.5 C1652.477 2097.331 1650.949 2095.306 1649.397 2092.938 C1648.518 2091.651 1647.64 2090.364 1646.76 2089.078 C1646.551 2088.768 1646.551 2088.768 1645.493 2087.198 C1644.089 2085.141 1642.603 2083.16 1641.084 2081.188 C1638.544 2077.837 1636.216 2074.373 1633.908 2070.86 C1632.221 2068.331 1630.47 2065.854 1628.709 2063.375 C1626.753 2060.601 1624.902 2057.853 1623.272 2054.875 C1621.831 2052.366 1620.456 2050.268 1618.709 2048 C1615.206 2043.451 1612.078 2038.67 1608.937 2033.867 C1606.562 2030.256 1604.061 2026.861 1601.334 2023.5 C1600.399 2022.138 1599.481 2020.763 1598.584 2019.375 C1596.256 2015.827 1593.804 2012.406 1591.272 2009 C1588.381 2005.066 1585.958 2001.123 1583.678 1996.817 C1581.489 1993.044 1578.84 1989.618 1576.24 1986.121 C1574.665 1983.955 1573.22 1981.79 1571.834 1979.5 C1569.199 1975.159 1566.184 1971.117 1563.178 1967.028 C1561.143 1964.238 1559.235 1961.382 1557.334 1958.5 C1555.603 1956.015 1553.861 1953.538 1552.115 1951.063 C1548.634 1946.055 1545.314 1940.946 1542.022 1935.813 C1541.826 1935.508 1541.826 1935.508 1540.835 1933.966 C1538.441 1930.239 1536.071 1926.498 1533.709 1922.75 C1531.017 1918.512 1528.188 1914.398 1525.287 1910.301 C1522.9 1906.878 1520.583 1903.412 1518.272 1899.938 C1517.843 1899.293 1517.413 1898.649 1516.971 1897.985 C1515.127 1895.211 1513.29 1892.433 1511.467 1889.645 C1510.949 1888.855 1510.431 1888.064 1509.897 1887.25 C1509.465 1886.585 1509.033 1885.92 1508.588 1885.235 C1507.307 1883.462 1505.89 1882.031 1504.334 1880.5 C1502.965 1878.517 1501.643 1876.523 1500.334 1874.5 C1499.378 1873.061 1498.419 1871.624 1497.459 1870.188 C1479.334 1843 1479.334 1843 1477.822 1840.731 C1476.864 1839.294 1475.903 1837.859 1474.94 1836.426 C1472.622 1832.972 1470.331 1829.505 1468.096 1825.996 C1467.702 1825.378 1467.308 1824.761 1466.902 1824.124 C1466.126 1822.904 1465.352 1821.683 1464.581 1820.46 C1462.353 1816.96 1459.962 1813.709 1457.334 1810.5 C1455.99 1808.507 1454.659 1806.506 1453.334 1804.5 C1449.576 1799.033 1445.749 1793.638 1441.694 1788.387 C1440.096 1786.169 1438.738 1783.845 1437.334 1781.5 C1436.223 1779.886 1435.098 1778.282 1433.959 1776.688 C1431.447 1773.124 1429.054 1769.528 1426.768 1765.817 C1421.517 1757.333 1416.108 1749.045 1410.174 1741.02 C1407.431 1737.264 1404.883 1733.389 1402.334 1729.5 C1399.184 1724.729 1395.995 1719.992 1392.709 1715.313 C1389.121 1710.202 1385.67 1705.082 1382.522 1699.688 C1379.986 1695.422 1377.149 1691.582 1374.053 1687.711 C1371.824 1684.844 1369.847 1681.847 1367.862 1678.809 C1366.254 1676.379 1364.583 1674.002 1362.897 1671.625 C1359.8 1667.226 1356.899 1662.725 1354.029 1658.176 C1347.678 1648.151 1347.678 1648.151 1344.147 1643.813 C1342.096 1641.197 1340.818 1638.468 1339.334 1635.5 C1338.033 1633.808 1336.697 1632.143 1335.334 1630.5 C1334.47 1629.341 1333.616 1628.174 1332.772 1627 C1332.379 1626.454 1331.985 1625.907 1331.58 1625.344 C1330.65 1623.967 1329.774 1622.552 1328.928 1621.121 C1327.221 1618.314 1325.349 1615.704 1323.397 1613.063 C1320.612 1609.264 1317.908 1605.446 1315.334 1601.5 C1314.377 1600.062 1313.419 1598.624 1312.459 1597.188 C1310.923 1594.885 1309.388 1592.582 1307.862 1590.274 C1304.621 1585.383 1301.293 1580.563 1297.916 1575.766 C1296.717 1574.049 1295.55 1572.311 1294.397 1570.563 C1292.439 1567.656 1290.402 1564.83 1288.334 1562 C1285.574 1558.221 1282.891 1554.421 1280.334 1550.5 C1279.377 1549.062 1278.419 1547.624 1277.459 1546.188 C1275.923 1543.885 1274.388 1541.582 1272.862 1539.274 C1269.714 1534.524 1266.48 1529.845 1263.197 1525.188 C1260.473 1521.258 1257.85 1517.261 1255.229 1513.262 C1253.378 1510.564 1251.395 1508.04 1249.334 1505.5 C1247.575 1502.946 1245.868 1500.374 1244.252 1497.727 C1241.147 1492.638 1237.72 1487.846 1234.19 1483.043 C1232.147 1480.244 1230.225 1477.403 1228.334 1474.5 C1227.592 1473.428 1226.849 1472.355 1226.084 1471.25 C1224.334 1468.5 1224.334 1468.5 1224.334 1466.5 C1223.674 1466.5 1223.014 1466.5 1222.334 1466.5 C1221.256 1465.067 1221.256 1465.067 1220.084 1463.063 C1214.648 1454.018 1208.529 1445.434 1202.44 1436.821 C1201.827 1435.952 1201.215 1435.083 1200.584 1434.188 C1200.032 1433.408 1199.481 1432.628 1198.912 1431.824 C1197.289 1429.434 1195.821 1426.978 1194.334 1424.5 C1193.266 1422.927 1192.182 1421.365 1191.084 1419.813 C1190.474 1418.948 1189.865 1418.083 1189.237 1417.192 C1188.609 1416.303 1187.981 1415.415 1187.334 1414.5 C1180.843 1405.271 1180.843 1405.271 1178.397 1401.563 C1176.439 1398.656 1174.402 1395.83 1172.334 1393 C1169.573 1389.222 1166.911 1385.408 1164.334 1381.5 C1163.171 1379.831 1162.004 1378.165 1160.834 1376.5 C1158.283 1372.865 1155.779 1369.208 1153.334 1365.5 C1152.376 1364.062 1151.418 1362.625 1150.459 1361.188 C1148.923 1358.885 1147.388 1356.582 1145.862 1354.274 C1142.685 1349.48 1139.433 1344.746 1136.123 1340.043 C1134.926 1338.341 1133.733 1336.635 1132.545 1334.926 C1129.873 1331.083 1127.185 1327.275 1124.334 1323.563 C1121.368 1319.655 1118.803 1315.536 1116.201 1311.379 C1113.667 1307.471 1110.916 1303.74 1108.131 1300.008 C1103.334 1293.313 1103.334 1293.313 1103.334 1290.5 C1102.674 1290.5 1102.014 1290.5 1101.334 1290.5 C1099.854 1288.446 1099.854 1288.446 1098.147 1285.625 C1095.821 1281.862 1093.455 1278.172 1090.897 1274.563 C1088.372 1270.999 1085.926 1267.396 1083.522 1263.75 C1077.65 1254.903 1071.402 1246.328 1065.147 1237.75 C1061.475 1232.713 1057.889 1227.621 1054.334 1222.5 C1053.623 1221.479 1052.911 1220.458 1052.178 1219.406 C1048.487 1214.098 1044.836 1208.77 1041.272 1203.375 C1038.044 1198.505 1034.669 1193.767 1031.194 1189.071 C1029.161 1186.261 1027.243 1183.394 1025.334 1180.5 C1024.557 1179.328 1023.78 1178.156 1023.002 1176.985 C1022.6 1176.378 1022.197 1175.772 1021.783 1175.148 C1017.388 1168.535 1012.95 1161.962 1008.334 1155.5 C1008.028 1155.072 1008.028 1155.072 1006.479 1152.903 C1003.314 1148.513 1000.098 1144.177 996.768 1139.911 C991.048 1132.578 985.773 1124.986 980.553 1117.291 C978.917 1114.888 977.254 1112.505 975.584 1110.125 C975.04 1109.349 974.496 1108.573 973.936 1107.774 C972.851 1106.234 971.763 1104.698 970.67 1103.164 C967.278 1098.378 964.042 1093.515 960.897 1088.563 C957.649 1083.458 954.234 1078.54 950.631 1073.676 C947.616 1069.507 944.727 1065.255 941.834 1061 C938.282 1055.776 934.712 1050.582 930.959 1045.5 C928.405 1042.042 926.048 1038.523 923.772 1034.875 C921.119 1030.638 918.258 1026.707 915.143 1022.801 C912.471 1019.402 909.965 1015.889 907.436 1012.383 C905.271 1009.414 903.057 1006.488 900.834 1003.563 C897.118 998.629 893.671 993.567 890.279 988.406 C888.465 985.696 886.583 983.062 884.647 980.438 C880.935 975.397 877.412 970.241 873.897 965.063 C869.517 958.618 865.03 952.312 860.307 946.114 C857.854 942.864 855.529 939.537 853.209 936.192 C850.961 932.965 848.683 929.762 846.397 926.563 C845.972 925.968 845.547 925.373 845.109 924.76 C842.413 920.992 839.693 917.242 836.959 913.5 C834.326 909.887 831.777 906.246 829.334 902.5 C826.044 897.471 822.671 892.567 819.026 887.789 C816.929 884.952 814.948 882.039 812.959 879.125 C809.598 874.217 806.033 869.54 802.279 864.926 C795.755 856.79 789.982 848.096 784.119 839.48 C781.193 835.186 778.233 830.932 775.147 826.75 C771.61 821.955 768.325 817.015 765.042 812.044 C761.973 807.414 758.761 802.913 755.463 798.442 C752.855 794.838 750.343 791.173 747.834 787.5 C742.072 779.078 736.101 770.837 729.959 762.688 C722.53 752.808 715.434 742.697 708.42 732.52 C706.552 729.815 704.666 727.124 702.772 724.438 C700.238 720.827 697.774 717.176 695.334 713.5 C691.751 708.105 688.07 702.791 684.334 697.5 C683.439 696.221 682.545 694.941 681.651 693.66 C676.132 685.778 670.507 677.997 664.704 670.321 C660.583 664.862 656.594 659.318 652.639 653.739 C650.522 650.764 648.372 647.817 646.209 644.875 C642.749 640.134 639.489 635.279 636.252 630.383 C633.358 626.033 630.35 621.767 627.334 617.5 C626.416 616.197 625.498 614.894 624.58 613.59 C619.385 606.217 614.171 598.859 608.913 591.531 C606.171 587.699 603.494 583.827 600.834 579.938 C597.334 574.852 593.65 569.958 589.854 565.094 C587.029 561.458 584.456 557.732 581.955 553.871 C579.885 550.844 577.648 547.956 575.397 545.063 C569.365 537.298 563.828 529.256 558.397 521.063 C554.852 515.716 551.203 510.474 547.397 505.309 C545.012 502.061 542.671 498.783 540.334 495.5 C534.654 487.535 528.937 479.605 523.022 471.813 C518.973 466.438 515.151 460.929 511.362 455.368 C508.095 450.582 504.739 445.875 501.283 441.223 C499.643 438.932 498.08 436.617 496.529 434.266 C493.342 429.46 489.96 424.817 486.522 420.188 C485.909 419.36 485.297 418.531 484.666 417.678 C481.264 413.082 477.839 408.504 474.397 403.938 C471.825 400.524 469.324 397.08 466.897 393.563 C464.248 389.733 461.451 386.042 458.584 382.375 C454.282 376.861 450.304 371.165 446.375 365.382 C442.213 359.273 437.818 353.377 433.334 347.5 C424.838 336.277 424.838 336.277 420.959 330.625 C417.648 325.84 414.068 321.298 410.452 316.743 C407.661 313.218 404.955 309.655 402.334 306 C399.277 301.74 396.09 297.608 392.834 293.5 C388.916 288.551 385.115 283.542 381.432 278.414 C379.379 275.562 377.301 272.73 375.217 269.901 C371.724 265.157 368.244 260.412 364.897 255.563 C360.341 248.998 355.502 242.642 350.678 236.274 C349.592 234.84 348.509 233.403 347.428 231.965 C342.512 225.519 337.175 219.431 331.881 213.297 C329.456 210.48 327.049 207.649 324.647 204.813 C324.193 204.278 323.74 203.743 323.273 203.191 C320.378 199.764 317.534 196.299 314.709 192.813 C311.134 188.417 307.393 184.21 303.576 180.024 C301.289 177.449 299.119 174.807 296.959 172.125 C292.833 167.028 288.477 162.202 284.014 157.403 C281.616 154.805 279.285 152.162 276.959 149.5 C268.631 140.234 259.183 132.102 249.334 124.5 C248.587 123.907 247.839 123.314 247.069 122.703 C242.408 119.021 237.627 115.569 232.744 112.188 C228.566 109.262 224.487 106.199 220.483 103.039 C215.6 99.242 210.45 96.154 205.08 93.09 C203.101 91.944 201.169 90.715 199.272 89.438 C194.791 86.483 190.07 84.021 185.334 81.5 C184.635 81.126 183.937 80.751 183.216 80.365 C172.726 74.745 162.176 69.411 151.334 64.5 C150.338 64.039 149.341 63.577 148.315 63.102 C142.392 60.368 136.411 57.869 130.334 55.5 C129.464 55.144 128.594 54.789 127.697 54.422 C90.006 39.325 50.58 32.305 10.584 26.735 C9.8 26.624 9.015 26.514 8.207 26.401 C3.274 25.722 -1.641 25.224 -6.608 24.871 C-8.666 24.5 -8.666 24.5 -10.666 22.5 C-11.136 19.564 -11.036 16.595 -11.041 13.625 C-11.065 12.809 -11.09 11.993 -11.115 11.153 C-11.119 10.362 -11.123 9.572 -11.127 8.758 C-11.135 8.038 -11.143 7.317 -11.152 6.575 C-9.767 0.663 -5.371 0 0 0 Z " fill="#000000" transform="translate(439.6658248305321,94.49975401163101)"/>
<path d="M0 0 C3.578 -0 7.156 -0.006 10.733 -0.011 C17.804 -0.02 24.875 -0.024 31.947 -0.027 C40.425 -0.03 48.904 -0.038 57.383 -0.047 C77.854 -0.068 98.326 -0.078 118.797 -0.087 C128.482 -0.092 138.167 -0.097 147.851 -0.102 C181.012 -0.12 214.174 -0.135 247.335 -0.142 C249.413 -0.143 251.491 -0.143 253.569 -0.144 C254.084 -0.144 254.084 -0.144 256.692 -0.144 C261.912 -0.146 267.133 -0.147 272.353 -0.148 C273.389 -0.148 274.425 -0.149 275.493 -0.149 C309.144 -0.157 342.794 -0.18 376.445 -0.213 C412.04 -0.247 447.635 -0.267 483.23 -0.27 C487.133 -0.27 491.036 -0.271 494.939 -0.271 C495.419 -0.271 495.419 -0.271 497.851 -0.272 C513.335 -0.274 528.82 -0.29 544.304 -0.31 C559.845 -0.33 575.386 -0.336 590.926 -0.326 C600.166 -0.321 609.405 -0.327 618.645 -0.349 C624.809 -0.362 630.972 -0.361 637.135 -0.349 C640.652 -0.342 644.168 -0.341 647.685 -0.358 C651.465 -0.373 655.245 -0.364 659.025 -0.348 C660.127 -0.358 661.229 -0.368 662.365 -0.379 C663.368 -0.37 664.371 -0.36 665.405 -0.351 C665.837 -0.351 665.837 -0.351 668.026 -0.352 C671.169 0.323 672.37 1.663 674.349 4.147 C675.037 7.46 675.037 7.46 674.349 11.147 C670.156 17.19 663.353 21.117 657.349 25.147 C655.575 26.372 653.804 27.601 652.037 28.835 C651.215 29.407 650.394 29.979 649.548 30.569 C647.769 31.846 646.049 33.204 644.349 34.585 C642.349 36.147 642.349 36.147 640.349 36.147 C640.349 36.807 640.349 37.467 640.349 38.147 C638.88 39.444 638.88 39.444 636.849 40.897 C636.113 41.432 635.377 41.967 634.619 42.518 C633.87 43.056 633.121 43.593 632.349 44.147 C627.823 47.461 623.424 50.886 619.099 54.46 C615.299 57.595 611.439 60.598 607.474 63.522 C600.848 68.449 594.599 73.758 588.349 79.147 C585.975 81.19 583.6 83.231 581.224 85.272 C580.93 85.525 580.93 85.525 579.442 86.806 C575.937 89.815 572.387 92.752 568.787 95.647 C562.93 100.403 557.443 105.522 551.934 110.671 C546.363 115.859 540.724 120.972 534.974 125.96 C531.969 128.573 529.129 131.292 526.349 134.147 C522.807 137.784 519.1 141.13 515.267 144.452 C512.854 146.585 510.595 148.84 508.349 151.147 C505.592 153.914 502.822 156.67 500.044 159.417 C493.413 165.988 486.94 172.571 481.001 179.784 C478.273 183.096 475.421 186.152 472.349 189.147 C470.682 190.813 469.015 192.48 467.349 194.147 C465.849 195.641 464.347 197.133 462.846 198.625 C460.502 200.955 458.161 203.288 455.821 205.62 C454.594 206.842 453.367 208.063 452.138 209.283 C445.648 215.728 439.277 222.173 433.349 229.147 C431.627 231.028 429.898 232.904 428.162 234.772 C421.514 241.977 415.182 249.445 408.845 256.922 C402.921 263.907 396.905 270.759 390.651 277.451 C385.972 282.488 381.658 287.792 377.349 293.147 C376.273 294.445 375.19 295.737 374.099 297.022 C373.681 297.514 373.264 298.007 372.833 298.514 C370.751 300.805 368.54 302.96 366.349 305.147 C358.95 312.758 351.86 320.509 345.4 328.937 C342.118 333.21 338.69 337.325 335.162 341.397 C331.037 346.156 327.041 350.987 323.134 355.928 C320.92 358.68 318.596 361.32 316.255 363.963 C310.678 370.353 305.324 376.942 299.974 383.522 C296.58 387.684 293.109 391.77 289.599 395.835 C284.669 401.548 279.886 407.369 275.146 413.242 C271.664 417.55 268.129 421.806 264.537 426.022 C258.984 432.552 253.584 439.173 248.423 446.018 C242.434 453.951 236.304 461.648 229.738 469.112 C226.638 472.64 223.681 476.195 220.927 480.003 C218.676 483.062 216.324 486.038 213.974 489.022 C213.734 489.328 213.734 489.328 212.517 490.874 C209.175 495.113 205.806 499.331 202.427 503.542 C199.967 506.626 197.533 509.729 195.099 512.835 C187.782 522.164 180.418 531.458 172.849 540.585 C169.26 544.951 165.851 549.429 162.474 553.96 C154.573 564.557 146.484 574.908 137.83 584.902 C129.078 595.05 121.083 605.786 113.068 616.518 C108.651 622.425 104.101 628.216 99.474 633.96 C96.591 637.544 93.825 641.192 91.099 644.897 C87.716 649.451 84.148 653.755 80.412 658.022 C75.909 663.174 71.839 668.491 67.93 674.103 C64.691 678.734 61.192 683.087 57.572 687.428 C54.409 691.297 51.443 695.305 48.462 699.315 C46.093 702.49 43.669 705.617 41.228 708.737 C38.921 711.696 36.635 714.671 34.349 717.647 C31.445 721.428 28.533 725.202 25.599 728.96 C21.775 733.868 18.041 738.841 14.361 743.858 C9.751 750.098 4.964 756.09 -0.109 761.958 C-3.556 765.957 -3.556 765.957 -4.651 768.147 C-5.311 768.147 -5.971 768.147 -6.651 768.147 C-6.893 768.873 -7.136 769.599 -7.385 770.346 C-8.814 773.508 -10.516 775.449 -12.901 777.96 C-18.133 783.618 -22.568 789.58 -26.963 795.897 C-35.403 808.012 -44.515 819.694 -53.889 831.1 C-59.526 837.96 -64.969 844.85 -70.049 852.133 C-73.531 857.085 -77.351 861.657 -81.272 866.272 C-84.29 869.92 -87.044 873.722 -89.795 877.573 C-92.034 880.678 -94.374 883.691 -96.737 886.702 C-99.06 889.67 -101.356 892.658 -103.651 895.647 C-106.428 899.263 -109.213 902.872 -112.026 906.46 C-115.21 910.541 -118.304 914.687 -121.401 918.835 C-125.737 924.64 -130.146 930.378 -134.642 936.061 C-137.723 939.958 -140.76 943.886 -143.776 947.835 C-147.624 952.867 -151.603 957.778 -155.631 962.667 C-159.058 966.876 -162.265 971.23 -165.444 975.628 C-169.519 981.264 -173.681 986.815 -177.941 992.312 C-180.554 995.693 -183.096 999.113 -185.588 1002.585 C-189.118 1007.483 -192.828 1012.217 -196.578 1016.947 C-200.098 1021.402 -203.448 1025.961 -206.76 1030.573 C-209.268 1033.988 -211.928 1037.268 -214.592 1040.561 C-217.58 1044.314 -220.433 1048.164 -223.299 1052.01 C-226.133 1055.79 -229.009 1059.536 -231.909 1063.265 C-234.034 1066.005 -236.108 1068.767 -238.108 1071.6 C-238.306 1071.877 -238.306 1071.877 -239.309 1073.278 C-240.398 1074.805 -241.472 1076.343 -242.545 1077.881 C-244.651 1080.147 -244.651 1080.147 -247.26 1081.092 C-249.651 1081.147 -249.651 1081.147 -252.088 1079.272 C-257.89 1072.678 -262.152 1064.732 -266.713 1057.276 C-269.26 1053.163 -271.941 1049.154 -274.651 1045.147 C-275.964 1043.168 -277.276 1041.189 -278.588 1039.21 C-281.662 1034.596 -284.808 1030.041 -288.002 1025.51 C-290.088 1022.52 -292.102 1019.487 -294.096 1016.436 C-295.211 1014.794 -296.38 1013.188 -297.581 1011.608 C-300.395 1007.867 -302.447 1005.072 -303.463 1000.46 C-302.517 996.602 -301.17 995.029 -298.483 992.21 C-296.319 989.774 -294.613 987.191 -292.838 984.46 C-289.377 979.172 -285.693 974.117 -281.874 969.085 C-279.075 965.386 -276.351 961.638 -273.631 957.881 C-272.263 955.993 -270.891 954.108 -269.514 952.225 C-268.817 951.271 -268.119 950.317 -267.401 949.335 C-266.777 948.483 -266.153 947.63 -265.51 946.753 C-264.236 944.967 -262.993 943.16 -261.776 941.335 C-259.216 937.495 -256.565 933.727 -253.901 929.96 C-253.37 929.208 -252.839 928.456 -252.292 927.681 C-249.363 923.54 -246.405 919.423 -243.401 915.335 C-240.006 910.698 -236.831 905.936 -233.667 901.139 C-231.008 897.193 -228.203 893.363 -225.385 889.53 C-224.1 887.764 -222.862 885.964 -221.651 884.147 C-219.182 880.444 -216.554 876.87 -213.928 873.276 C-211.464 869.891 -209.022 866.491 -206.588 863.085 C-206.16 862.485 -205.732 861.886 -205.291 861.268 C-202.91 857.93 -200.552 854.577 -198.213 851.21 C-194.862 846.402 -191.391 841.686 -187.918 836.967 C-178.152 823.684 -168.621 810.234 -159.545 796.47 C-154.618 789.003 -149.625 781.627 -144.315 774.424 C-143.051 772.695 -141.839 770.929 -140.651 769.147 C-138.181 765.442 -135.552 761.867 -132.924 758.272 C-130.479 754.911 -128.062 751.532 -125.651 748.147 C-122.671 743.966 -119.677 739.796 -116.651 735.647 C-109.829 726.281 -103.101 716.889 -96.717 707.217 C-93.192 701.98 -89.484 696.874 -85.8 691.749 C-81.658 685.975 -77.632 680.137 -73.713 674.21 C-70.444 669.276 -67.031 664.474 -63.51 659.717 C-61.479 656.909 -59.573 654.031 -57.651 651.147 C-56.065 648.884 -54.452 646.64 -52.838 644.397 C-49.877 640.268 -46.929 636.131 -44.026 631.96 C-41.62 628.503 -39.15 625.1 -36.651 621.71 C-34.009 618.098 -31.525 614.44 -29.151 610.647 C-26.227 605.981 -23.089 601.532 -19.823 597.1 C-16.086 592.02 -12.436 586.878 -8.782 581.738 C-7.817 580.38 -6.849 579.023 -5.881 577.667 C-1.501 571.474 2.676 565.15 6.865 558.827 C10.299 553.665 13.87 548.633 17.556 543.647 C20.045 540.177 22.303 536.58 24.572 532.963 C28.96 526.011 33.535 519.203 38.412 512.585 C40.948 509.136 43.336 505.656 45.599 502.022 C49.141 496.357 52.989 490.936 56.862 485.496 C60.56 480.294 64.119 475.021 67.63 469.69 C69.095 467.523 70.615 465.457 72.224 463.397 C75.685 458.893 78.563 454.034 81.536 449.203 C83.998 445.229 86.548 441.395 89.349 437.647 C93.112 432.607 96.406 427.343 99.7 421.992 C102.568 417.348 105.603 412.868 108.775 408.424 C110.921 405.32 112.835 402.1 114.751 398.85 C119.251 391.237 123.9 383.723 128.849 376.393 C134.396 368.088 139.605 359.554 144.884 351.077 C145.727 349.725 146.569 348.374 147.412 347.022 C147.832 346.345 148.253 345.669 148.687 344.971 C150.58 341.937 152.493 338.933 154.486 335.963 C156.164 333.427 157.661 330.887 159.099 328.21 C159.612 327.256 160.125 326.302 160.654 325.319 C161.213 324.272 161.773 323.226 162.349 322.147 C162.97 320.997 163.592 319.847 164.232 318.663 C170.305 307.396 176.34 296.047 181.419 284.292 C182.928 280.811 184.524 277.37 186.103 273.921 C188.649 268.253 190.93 262.622 192.849 256.71 C194.132 252.762 195.428 248.851 197.037 245.022 C198.736 240.647 199.177 236.083 199.814 231.456 C200.452 227.513 201.48 223.784 202.666 219.975 C206.959 202.213 205.699 180.885 200.064 163.616 C199.286 160.929 198.841 158.285 198.412 155.522 C197.68 151.192 196.463 147.803 194.349 143.971 C193.349 142.147 193.349 142.147 191.912 138.71 C188.33 130.544 183.608 123.326 178.349 116.147 C177.804 115.394 177.259 114.641 176.697 113.866 C166.569 100.33 153.677 89.928 139.349 81.147 C137.599 80.002 135.849 78.856 134.099 77.71 C90.137 49.957 38.102 34.95 -13.211 29.436 C-15.582 29.181 -17.953 28.922 -20.324 28.663 C-23.451 28.321 -26.579 27.996 -29.708 27.68 C-31.167 27.524 -32.626 27.367 -34.084 27.21 C-35.374 27.077 -36.664 26.944 -37.992 26.807 C-41.93 26.097 -46.714 25.084 -49.651 22.147 C-49.778 19.53 -49.836 16.952 -49.838 14.335 C-49.851 13.609 -49.863 12.884 -49.875 12.137 C-49.894 5.272 -49.894 5.272 -47.651 2.147 C-44.55 0.597 -41.232 0.763 -37.821 0.594 C-37.403 0.573 -37.403 0.573 -35.286 0.466 C-23.53 -0.062 -11.765 -0.003 0 0 Z " fill="#000000" transform="translate(2425.6508795944974,94.85292836185545)"/>
<path d="M0 0 C4.474 1.468 5.938 4.887 8 8.812 C10.369 13.241 12.818 17.087 16 21 C18.09 24.314 20.091 27.674 22.098 31.039 C23.632 33.427 24.976 35.08 27 37 C27.96 38.656 28.917 40.314 29.844 41.988 C33.551 48.438 38.001 54.473 42.289 60.543 C45.352 64.942 48.278 69.419 51.146 73.947 C54.391 79.062 57.71 84.063 61.312 88.938 C69 99.341 69 99.341 69 103 C69.66 103 70.32 103 71 103 C72.383 105.018 73.643 107.018 74.875 109.125 C75.559 110.274 76.244 111.423 76.93 112.57 C77.101 112.857 77.101 112.857 77.966 114.305 C80.601 118.623 83.511 122.752 86.438 126.875 C88.981 130.493 91.372 134.161 93.684 137.93 C95.802 141.262 98.098 144.467 100.375 147.691 C102.301 150.428 104.157 153.206 106 156 C106.231 156.344 106.231 156.344 107.398 158.082 C109.789 161.644 112.145 165.21 114.375 168.875 C117.073 173.24 120.115 177.336 123.152 181.469 C125.19 184.26 127.113 187.106 129 190 C129.957 191.438 130.916 192.876 131.875 194.312 C132.392 195.089 132.909 195.865 133.441 196.664 C134.426 198.14 135.413 199.614 136.402 201.086 C138.717 204.536 141.006 208 143.238 211.504 C143.632 212.122 144.026 212.74 144.432 213.376 C145.209 214.596 145.982 215.817 146.753 217.04 C148.982 220.542 151.393 223.775 154 227 C154.969 228.679 155.936 230.359 156.875 232.055 C159.056 235.826 161.558 239.394 164 243 C166.861 247.252 169.709 251.497 172.375 255.875 C175.057 260.22 178.087 264.292 181.133 268.387 C182.901 270.861 184.457 273.381 186 276 C186.927 277.423 187.865 278.84 188.812 280.25 C190.864 283.306 192.906 286.368 194.938 289.438 C197.097 292.682 199.314 295.879 201.562 299.062 C203.614 301.974 205.587 304.895 207.438 307.938 C210.088 312.27 213.103 316.314 216.133 320.387 C217.9 322.86 219.458 325.382 221 328 C221.722 329.052 222.444 330.104 223.188 331.188 C225 334 225 334 225 336 C225.99 336.33 226.98 336.66 228 337 C229.176 338.531 229.176 338.531 230.312 340.5 C234.117 346.882 238.278 352.994 242.562 359.062 C245.065 362.616 247.41 366.221 249.68 369.926 C251.786 373.235 254.073 376.414 256.352 379.605 C258.011 382.015 259.495 384.492 261 387 C262.111 388.614 263.236 390.218 264.375 391.812 C266.505 394.829 268.571 397.851 270.5 401 C272.391 404.085 274.411 407.046 276.5 410 C278.589 412.954 280.609 415.915 282.5 419 C284.963 423.016 287.661 426.849 290.379 430.695 C292.303 433.431 294.145 436.217 296 439 C297.166 440.647 298.332 442.292 299.5 443.938 C301.569 446.873 303.517 449.791 305.25 452.938 C307 456 307 456 308.422 457.418 C310.255 459.256 311.578 461.205 313 463.375 C313.495 464.125 313.99 464.875 314.5 465.648 C315.511 467.233 316.492 468.837 317.445 470.457 C319.12 473.196 320.96 475.737 322.875 478.312 C325.664 482.112 328.276 485.932 330.711 489.965 C332.271 492.428 333.978 494.764 335.688 497.125 C338.187 500.646 339.992 503.742 341 508 C341.66 508 342.32 508 343 508 C344.454 510.058 345.771 512.093 347.062 514.25 C347.427 514.837 347.791 515.423 348.166 516.027 C349.634 518.442 350.904 520.595 351.559 523.359 C351.704 523.901 351.85 524.442 352 525 C352.99 525.33 353.98 525.66 355 526 C356.4 528.211 357.657 530.38 358.875 532.688 C361.503 537.626 364.366 541.702 368 546 C369.32 548.053 370.593 550.136 371.812 552.25 C372.417 553.286 373.022 554.323 373.645 555.391 C375 558 375 558 375 560 C375.577 560.189 376.155 560.379 376.75 560.574 C379.96 562.608 381.28 565.537 383 568.812 C385.369 573.241 387.819 577.086 391 581 C393.057 584.282 395.027 587.608 397 590.941 C398.809 593.707 400.636 595.724 403 598 C404.762 600.918 406.392 603.865 408 606.867 C409.445 609.497 410.784 611.787 412.93 613.902 C415.093 616.094 416.533 618.244 418.125 620.875 C421.387 626.128 424.897 631.145 428.536 636.14 C430.861 639.346 432.984 642.594 435 646 C436.09 647.593 437.194 649.177 438.312 650.75 C441.095 654.694 443.798 658.679 446.457 662.707 C448.697 666.036 451.04 669.289 453.387 672.543 C455 675 455 675 456.465 677.965 C458.023 681.045 459.8 683.622 461.875 686.375 C464.674 690.153 467.281 693.946 469.715 697.965 C471.264 700.418 472.939 702.764 474.625 705.125 C477.119 708.647 479.07 712.14 481 716 C482.68 718.509 484.423 720.967 486.176 723.426 C487.828 725.758 489.425 728.115 491 730.5 C493.734 734.63 496.567 738.685 499.418 742.734 C500.617 744.451 501.785 746.19 502.938 747.938 C504.788 750.685 506.718 753.337 508.688 756 C514.117 763.428 518.979 771.202 523.879 778.984 C527.231 784.294 530.684 789.496 534.324 794.613 C537.69 799.406 540.833 804.309 543.875 809.312 C546.182 813.089 548.52 816.834 551 820.5 C554.861 826.212 558.404 832.119 562 838 C565.399 843.495 568.87 848.944 572.352 854.387 C573.428 856.093 574.482 857.812 575.512 859.547 C576.979 861.965 578.547 864.259 580.188 866.562 C583.622 871.426 586.925 876.367 590.203 881.336 C591.327 883.003 592.499 884.64 593.734 886.227 C595 888 595 888 595 890 C595.99 890.33 596.98 890.66 598 891 C599.014 892.658 600.011 894.327 601 896 C601.722 896.722 602.444 897.444 603.188 898.188 C605.603 900.603 607.645 903.009 609.75 905.688 C613.288 910.172 617.012 914.428 620.863 918.645 C622.701 920.67 624.48 922.728 626.25 924.812 C634.688 934.462 643.941 943.067 654 951 C655.835 952.519 657.668 954.04 659.5 955.562 C669.188 963.469 679.424 970.362 690 977 C690.853 977.547 691.707 978.093 692.586 978.656 C712.261 990.945 736.501 999.471 759.527 1002.18 C763.144 1003.38 764.7 1004.972 767 1008 C767.79 1010.813 767.924 1013.526 768 1016.438 C768.025 1016.806 768.025 1016.806 768.152 1018.674 C768.368 1023.526 767.777 1026.841 765 1031 C761.481 1032.173 758.285 1032.175 754.621 1032.204 C753.864 1032.213 753.107 1032.223 752.326 1032.233 C749.784 1032.265 747.242 1032.289 744.7 1032.313 C742.887 1032.333 741.074 1032.354 739.262 1032.375 C734.328 1032.431 729.395 1032.48 724.462 1032.526 C721.342 1032.556 718.222 1032.588 715.103 1032.62 C673.465 1033.043 631.829 1033.138 590.189 1033.107 C579.9 1033.099 569.61 1033.098 559.321 1033.097 C534.57 1033.093 509.82 1033.079 485.069 1033.062 C476.877 1033.056 468.684 1033.051 460.492 1033.046 C416.661 1033.019 372.83 1032.99 328.999 1032.95 C318.945 1032.941 308.892 1032.932 298.838 1032.923 C297.59 1032.922 296.341 1032.921 295.055 1032.919 C254.326 1032.883 213.596 1032.866 172.867 1032.859 C130.808 1032.852 88.749 1032.829 46.689 1032.784 C40.762 1032.778 34.835 1032.772 28.908 1032.766 C27.742 1032.764 26.576 1032.763 25.375 1032.762 C6.617 1032.743 -12.142 1032.741 -30.9 1032.745 C-49.681 1032.749 -68.463 1032.734 -87.244 1032.701 C-98.402 1032.682 -109.559 1032.676 -120.716 1032.691 C-128.155 1032.699 -135.594 1032.689 -143.034 1032.665 C-147.278 1032.651 -151.521 1032.646 -155.765 1032.662 C-159.62 1032.677 -163.474 1032.669 -167.329 1032.642 C-168.719 1032.637 -170.11 1032.639 -171.501 1032.652 C-173.38 1032.667 -175.26 1032.649 -177.14 1032.629 C-178.183 1032.628 -179.226 1032.627 -180.301 1032.626 C-183.966 1031.776 -185.009 1030.103 -187 1027 C-187.615 1024.147 -187.29 1021.4 -187.062 1018.5 C-187.039 1017.754 -187.015 1017.007 -186.99 1016.238 C-186.738 1012.327 -186.268 1010.371 -183.922 1007.129 C-180.505 1004.64 -177.223 1003.472 -173.188 1002.438 C-172.438 1002.23 -171.689 1002.022 -170.917 1001.808 C-167.306 1000.819 -163.681 999.913 -160.031 999.078 C-141.073 994.685 -121.369 986.973 -105.398 975.684 C-103.447 974.314 -101.481 973.01 -99.477 971.723 C-91.686 966.696 -84.751 961.39 -78 955 C-76.692 953.891 -75.379 952.787 -74.062 951.688 C-61.86 941.008 -51.627 927.663 -43 914 C-42.363 913.004 -41.726 912.007 -41.07 910.98 C-37.078 904.631 -33.472 898.224 -30.227 891.461 C-29 889 -29 889 -27 886 C-26.477 884.41 -26.002 882.803 -25.562 881.188 C-24.707 878.198 -23.858 875.722 -22.438 872.938 C-20.885 869.766 -20.284 866.923 -19.598 863.484 C-18.937 860.739 -18.009 858.199 -17 855.562 C-15.41 851.331 -14.349 847.283 -13.562 842.84 C-12.999 839.996 -12.284 837.212 -11.539 834.411 C-9.741 827.619 -8.473 820.972 -7.721 813.988 C-7.215 809.379 -6.4 804.917 -5.438 800.375 C-4.29 794.378 -3.666 788.558 -3.416 782.461 C-3.376 781.517 -3.336 780.573 -3.295 779.601 C-2.801 766.583 -2.872 753.556 -2.896 740.53 C-2.903 736.592 -2.903 732.653 -2.904 728.715 C-2.906 721.833 -2.912 714.952 -2.921 708.071 C-2.934 697.839 -2.941 687.607 -2.947 677.375 C-2.956 661.21 -2.968 645.045 -2.983 628.88 C-3.007 603.241 -3.021 577.603 -3.032 551.964 C-3.037 542.09 -3.041 532.215 -3.046 522.341 C-3.046 521.244 -3.047 520.147 -3.047 519.017 C-3.059 492.947 -3.074 466.877 -3.089 440.807 C-3.09 439.667 -3.091 438.528 -3.091 437.353 C-3.107 410.727 -3.125 384.101 -3.148 357.476 C-3.149 356.329 -3.15 355.181 -3.151 354 C-3.158 344.751 -3.166 335.503 -3.174 326.254 C-3.207 288.16 -3.23 250.066 -3.241 211.971 C-3.242 206.598 -3.244 201.225 -3.246 195.852 C-3.246 194.794 -3.246 193.737 -3.247 192.647 C-3.253 175.605 -3.27 158.563 -3.291 141.521 C-3.311 124.42 -3.322 107.32 -3.321 90.219 C-3.321 80.05 -3.329 69.882 -3.35 59.713 C-3.362 52.932 -3.364 46.151 -3.357 39.37 C-3.353 35.499 -3.355 31.629 -3.369 27.759 C-3.384 23.601 -3.377 19.444 -3.366 15.286 C-3.375 14.07 -3.383 12.853 -3.391 11.6 C-3.388 11.05 -3.388 11.05 -3.371 8.265 C-3.372 7.314 -3.373 6.362 -3.374 5.381 C-2.937 2.6 -2.171 1.721 0 0 Z " fill="#000000" transform="translate(1541,1683)"/>
<path d="M0 0 C4.396 0.861 8.799 1.291 13.254 1.723 C18.95 2.311 23.843 3.441 29.055 5.848 C31.354 6.828 33.488 7.325 35.941 7.785 C40.38 8.667 43.397 10.428 47.254 12.785 C48.929 13.512 50.605 14.239 52.293 14.938 C62.129 19.189 62.129 19.189 66.34 22.352 C68.254 23.785 68.254 23.785 71.691 25.223 C75.173 26.75 77.338 28.392 80.254 30.785 C82.059 32.107 83.872 33.42 85.691 34.723 C91.942 39.266 97.381 43.715 102.402 49.621 C104.306 51.847 106.277 54 108.254 56.16 C112.35 60.762 115.837 65.667 119.254 70.785 C119.477 71.104 119.477 71.104 120.606 72.717 C124.573 78.471 127.765 84.411 130.754 90.723 C131.231 91.728 131.708 92.734 132.199 93.77 C137.618 105.418 141.518 117.259 144.566 129.723 C144.726 130.372 144.886 131.022 145.051 131.691 C154.713 174.006 147.043 226.593 124.254 263.285 C106.197 291.417 81.951 313.358 51.254 326.785 C50.43 327.146 49.606 327.507 48.758 327.879 C31.921 334.92 14.345 338.576 -3.684 340.973 C-4.305 341.061 -4.305 341.061 -7.447 341.51 C-18.721 343.025 -30.008 343.583 -41.309 341.973 C-42.635 341.786 -43.962 341.6 -45.289 341.414 C-45.641 341.363 -45.641 341.363 -47.419 341.106 C-50.042 340.744 -52.668 340.433 -55.297 340.125 C-57.238 339.887 -59.18 339.649 -61.121 339.41 C-62.024 339.309 -62.927 339.207 -63.858 339.102 C-69.516 338.378 -74.305 336.947 -79.544 334.699 C-82.115 333.632 -84.644 333.012 -87.371 332.473 C-94.643 330.765 -101.209 327.708 -107.965 324.596 C-110.268 323.548 -112.601 322.577 -114.934 321.598 C-118.318 320.095 -120.928 318.211 -123.746 315.785 C-125.41 314.781 -127.077 313.781 -128.746 312.785 C-132.114 310.5 -135.424 308.135 -138.746 305.785 C-139.415 305.326 -140.084 304.867 -140.773 304.395 C-144.492 301.823 -147.635 299.06 -150.746 295.785 C-151.128 295.424 -151.128 295.424 -153.059 293.598 C-159.438 286.922 -164.749 279.526 -169.746 271.785 C-170.785 270.221 -171.827 268.659 -172.871 267.098 C-173.369 266.346 -173.866 265.595 -174.379 264.82 C-175.467 263.201 -176.599 261.612 -177.746 260.035 C-181.731 253.56 -184.821 246.484 -187.434 239.348 C-188.746 235.785 -188.746 235.785 -190.309 232.91 C-191.9 229.45 -192.528 226.285 -193.121 222.543 C-193.746 219.785 -193.746 219.785 -195.203 216.246 C-197.317 210.754 -197.828 205.106 -198.434 199.285 C-198.559 198.094 -198.684 196.903 -198.813 195.675 C-201.898 164.046 -200.399 129.945 -186.746 100.785 C-186.091 99.346 -185.436 97.908 -184.781 96.469 C-177.961 81.713 -177.961 81.713 -173.746 75.785 C-173.443 75.357 -173.443 75.357 -171.91 73.188 C-169.883 70.365 -167.825 67.57 -165.746 64.785 C-165.457 64.397 -165.457 64.397 -163.992 62.434 C-155.275 50.986 -145.548 40.092 -133.746 31.785 C-133.337 31.491 -133.337 31.491 -131.266 30 C-124.128 24.914 -116.858 20.775 -108.98 16.934 C-106.746 15.785 -106.746 15.785 -103.746 13.785 C-102.322 13.267 -100.883 12.791 -99.434 12.348 C-96.669 11.466 -94.336 10.571 -91.746 9.223 C-88.518 7.676 -85.595 7.02 -82.09 6.41 C-79.746 5.785 -79.746 5.785 -76.98 4.285 C-73.161 2.514 -69.632 2.112 -65.496 1.785 C-60.023 1.281 -54.669 0.636 -49.274 -0.423 C-32.914 -3.588 -16.313 -3.212 0 0 Z M-67.621 40.777 C-70.527 42.155 -73.529 43.059 -76.605 43.977 C-79.218 44.963 -81.382 46.295 -83.746 47.785 C-84.291 48.124 -84.291 48.124 -87.051 49.836 C-95.468 55.143 -102.778 60.634 -109.746 67.785 C-110.509 68.507 -111.272 69.229 -112.059 69.973 C-118.81 77.039 -124.125 84.724 -129.082 93.098 C-130.746 95.785 -130.746 95.785 -132.746 97.785 C-133.562 99.997 -134.205 102.234 -134.867 104.496 C-135.746 106.785 -135.746 106.785 -137.215 108.68 C-139.164 111.36 -139.887 113.921 -140.809 117.098 C-141.148 118.26 -141.487 119.423 -141.836 120.621 C-142.136 121.665 -142.437 122.709 -142.746 123.785 C-143.117 124.92 -143.489 126.054 -143.871 127.223 C-145.018 131.894 -145.603 136.595 -146.242 141.359 C-146.648 144.12 -147.15 146.765 -147.809 149.473 C-150.981 163.011 -150.021 176.875 -148.067 190.505 C-147.72 192.968 -147.403 195.435 -147.086 197.902 C-144.998 213.569 -144.998 213.569 -141.699 220.66 C-140.699 222.889 -140.103 225.046 -139.496 227.41 C-137.318 234.975 -133.435 241.869 -129.746 248.785 C-129.546 249.167 -129.546 249.167 -128.535 251.098 C-122.645 261.372 -113.226 271.316 -104.184 278.848 C-102.292 280.439 -100.564 281.979 -98.871 283.785 C-95.51 286.949 -91.628 289.307 -87.746 291.785 C-86.921 292.321 -86.096 292.858 -85.246 293.41 C-82.37 294.992 -79.427 296.318 -76.418 297.625 C-74.869 298.298 -73.325 298.985 -71.799 299.708 C-48.563 310.541 -18.046 311.637 6.254 303.785 C7.182 303.535 8.11 303.285 9.066 303.027 C25.725 298.498 39.376 290.051 52.254 278.785 C52.985 278.188 53.716 277.591 54.469 276.977 C81.082 255.001 93.529 217.965 97.254 184.785 C100.277 147.01 91.151 106.821 66.827 77.038 C56.979 65.556 45.979 54.806 32.566 47.66 C29.689 46.124 26.971 44.596 24.254 42.785 C22.706 42.26 21.141 41.785 19.566 41.348 C16.505 40.493 13.7 39.548 10.77 38.293 C4.952 36.082 -1.158 35.708 -7.309 35.098 C-8.502 34.968 -9.695 34.839 -10.924 34.705 C-28.372 32.872 -51.62 32.836 -67.621 40.777 Z " fill="#000000" transform="translate(915.74609375,3248.21484375)"/>
<path d="M0 0 C3.205 0.552 6.429 0.919 9.657 1.309 C14.99 2.048 19.644 3.444 24.634 5.434 C27.044 6.33 29.323 6.89 31.845 7.372 C35.711 8.144 38.788 9.565 42.243 11.43 C44.157 12.372 44.157 12.372 47.907 13.434 C51.164 14.373 52.523 15.357 55.157 17.372 C57.362 18.413 59.591 19.37 61.841 20.309 C66.342 22.373 70.32 25.135 74.345 27.997 C78.944 31.265 78.944 31.265 81.157 32.372 C81.157 33.032 81.157 33.692 81.157 34.372 C81.447 34.502 81.447 34.502 82.911 35.165 C90.577 39.284 96.936 46.811 102.47 53.372 C103.167 54.197 103.864 55.022 104.583 55.872 C106.157 58.372 106.157 58.372 106.786 60.825 C105.803 64.804 102.871 66.688 99.782 69.122 C98.495 70.176 97.208 71.232 95.923 72.29 C95.284 72.808 94.645 73.327 93.987 73.861 C90.63 76.632 87.452 79.592 84.243 82.532 C83.899 82.835 83.899 82.835 82.157 84.372 C81.531 84.989 80.904 85.607 80.259 86.243 C78.157 87.372 78.157 87.372 75.185 86.883 C71.647 85.117 70.087 83.333 67.72 80.184 C61.935 72.789 56.3 67.256 48.505 62 C46.554 60.647 44.801 59.26 43.032 57.684 C38.238 53.828 32.762 51.539 27.091 49.215 C25.684 48.601 24.303 47.926 22.942 47.215 C14.785 43.093 6.364 41.481 -2.548 39.83 C-4.028 39.534 -5.501 39.201 -6.961 38.823 C-13.707 37.085 -20.279 37.075 -27.218 37.122 C-27.795 37.118 -27.795 37.118 -30.718 37.098 C-40.759 37.121 -49.81 38.608 -59.354 41.653 C-62.732 42.628 -66.146 43.204 -69.616 43.747 C-72.225 44.479 -73.708 45.73 -75.843 47.372 C-78.062 48.215 -78.062 48.215 -80.343 48.872 C-83.751 49.939 -86.073 51.08 -88.843 53.372 C-89.709 53.784 -90.575 54.197 -91.468 54.622 C-108.644 63.528 -123.08 78.906 -132.843 95.372 C-133.342 96.175 -133.841 96.978 -134.354 97.805 C-136.019 100.676 -137.405 103.602 -138.78 106.622 C-139.264 107.679 -139.747 108.736 -140.245 109.825 C-140.772 110.995 -141.3 112.166 -141.843 113.372 C-142.169 114.038 -142.495 114.704 -142.831 115.391 C-145.706 121.434 -147.206 127.455 -148.53 133.997 C-148.636 134.495 -148.636 134.495 -149.173 137.02 C-156.544 172.18 -152.1 211.54 -132.843 242.372 C-130.608 245.783 -128.266 249.092 -125.843 252.372 C-125.559 252.764 -125.559 252.764 -124.124 254.75 C-120.808 259.204 -117.349 262.93 -113.085 266.481 C-109.459 269.539 -106.025 272.808 -102.554 276.04 C-95.376 282.214 -86.884 286.642 -78.213 290.343 C-76.727 290.988 -75.249 291.65 -73.784 292.339 C-58.614 299.426 -42.558 300.855 -26.03 300.872 C-25.3 300.876 -24.569 300.88 -23.816 300.885 C-16.243 300.904 -9.199 300.649 -1.991 298.116 C2.444 296.579 7.126 296.018 11.739 295.215 C15.114 294.382 17.254 293.218 20.157 291.372 C21.682 290.88 23.226 290.442 24.782 290.059 C31.357 288.199 37.598 285.089 43.04 280.934 C45.157 279.372 45.157 279.372 48.458 277.555 C52.49 275.291 55.872 272.468 59.345 269.434 C59.947 268.922 60.55 268.409 61.171 267.881 C66.842 262.982 70.231 259.796 70.977 251.99 C71.3 247.3 71.361 242.614 71.396 237.915 C71.404 236.849 71.412 235.784 71.42 234.686 C71.434 232.45 71.444 230.214 71.452 227.977 C71.464 225.689 71.485 223.402 71.514 221.114 C71.556 217.797 71.573 214.481 71.583 211.165 C71.592 210.653 71.592 210.653 71.636 208.065 C71.633 207.113 71.63 206.161 71.627 205.181 C71.633 204.346 71.639 203.512 71.645 202.652 C70.939 199.351 69.943 198.286 67.157 196.372 C64.151 196.013 61.521 195.895 58.521 195.965 C57.65 195.969 56.78 195.974 55.883 195.978 C53.995 195.99 52.107 196.011 50.219 196.04 C47.231 196.087 44.243 196.109 41.255 196.125 C34.909 196.164 28.565 196.236 22.22 196.309 C14.871 196.389 7.522 196.456 0.172 196.5 C-2.771 196.524 -5.714 196.566 -8.657 196.609 C-10.464 196.623 -12.27 196.636 -14.077 196.649 C-14.894 196.666 -15.712 196.683 -16.554 196.7 C-21.147 196.71 -24.107 196.353 -27.843 193.372 C-29.977 189.103 -29.029 183.418 -29.028 178.678 C-29.03 176.578 -29.048 174.478 -29.067 172.377 C-29.07 171.036 -29.072 169.694 -29.073 168.352 C-29.077 167.134 -29.081 165.916 -29.086 164.661 C-28.841 161.348 -28.499 159.244 -26.843 156.372 C-23.216 153.744 -20.674 152.994 -16.226 152.977 C-15.667 152.971 -15.667 152.971 -12.836 152.943 C-11.618 152.946 -10.4 152.949 -9.146 152.952 C-7.856 152.943 -6.566 152.935 -5.237 152.926 C-1.706 152.904 1.825 152.901 5.356 152.903 C8.306 152.903 11.256 152.894 14.206 152.886 C21.165 152.867 28.124 152.864 35.083 152.871 C42.26 152.877 49.435 152.854 56.612 152.817 C62.777 152.787 68.943 152.775 75.109 152.779 C78.789 152.781 82.47 152.776 86.15 152.751 C90.254 152.725 94.356 152.739 98.46 152.756 C99.678 152.743 100.896 152.73 102.15 152.716 C106.939 152.764 110.196 152.83 114.409 155.205 C117.041 159.973 116.863 164.278 116.82 169.644 C116.83 170.783 116.841 171.922 116.851 173.095 C116.879 176.861 116.869 180.625 116.856 184.391 C116.862 187.01 116.87 189.63 116.878 192.249 C116.892 197.741 116.884 203.232 116.864 208.724 C116.842 215.059 116.859 221.392 116.897 227.727 C116.932 233.835 116.933 239.942 116.921 246.05 C116.92 248.642 116.927 251.234 116.944 253.825 C116.964 257.455 116.946 261.082 116.918 264.711 C116.931 265.777 116.945 266.844 116.959 267.943 C116.847 275.17 115.14 279.153 110.157 284.372 C109.312 285.279 108.466 286.187 107.595 287.122 C105.199 289.333 102.702 291.336 100.157 293.372 C99.332 294.197 98.507 295.022 97.657 295.872 C93.101 300.428 87.925 303.977 82.646 307.637 C80.567 309.086 78.515 310.563 76.47 312.059 C70.824 316.09 64.711 319.15 58.505 322.211 C56.67 323.118 54.848 324.052 53.032 324.997 C50.135 326.382 47.229 327.529 44.212 328.622 C42.897 329.102 41.589 329.6 40.29 330.122 C35.323 332.1 30.289 333.404 25.087 334.625 C22.157 335.372 22.157 335.372 19.389 336.351 C-9.976 345.622 -52.117 345.366 -80.467 334.281 C-84.259 332.829 -88.159 332.039 -92.116 331.18 C-95.064 330.306 -97.238 328.984 -99.843 327.372 C-101.326 326.823 -102.827 326.32 -104.343 325.872 C-107.871 324.754 -110.704 323.354 -113.843 321.372 C-114.389 321.145 -114.389 321.145 -117.155 319.997 C-128.852 315.092 -138.975 306.162 -148.843 298.372 C-149.75 297.67 -150.658 296.969 -151.593 296.247 C-168.756 281.944 -181.997 260.537 -189.815 239.766 C-190.843 237.372 -190.843 237.372 -192.37 234.93 C-193.971 232.148 -194.648 229.748 -195.343 226.622 C-196.132 223.106 -197.054 219.776 -198.3 216.403 C-200.474 209.984 -201.202 203.322 -202.03 196.622 C-202.116 195.936 -202.203 195.25 -202.292 194.544 C-204.802 174.297 -203.805 155.53 -200.843 135.372 C-200.76 134.757 -200.76 134.757 -200.339 131.645 C-197.068 109.312 -186.434 87.859 -173.843 69.372 C-173.131 68.303 -172.42 67.234 -171.687 66.133 C-164.263 55.197 -155.505 45.251 -144.612 37.637 C-142.115 35.851 -139.86 33.819 -137.581 31.766 C-135.454 30.06 -133.199 28.743 -130.843 27.372 C-130.064 26.888 -129.286 26.405 -128.483 25.907 C-123.747 22.989 -119.051 20.471 -113.929 18.305 C-111.95 17.419 -110.138 16.423 -108.28 15.309 C-105.117 13.526 -102.138 12.286 -98.733 11.09 C-96.843 10.372 -96.843 10.372 -94.03 8.809 C-90.253 7.105 -86.71 6.56 -82.624 5.997 C-79.843 5.372 -79.843 5.372 -76.94 3.872 C-73.432 2.173 -70.652 1.762 -66.78 1.372 C-65.357 1.221 -63.934 1.067 -62.511 0.911 C-61.756 0.828 -61.001 0.746 -60.223 0.662 C-57.747 0.36 -55.293 -0.017 -52.831 -0.417 C-34.7 -3.347 -18.059 -3.309 0 0 Z " fill="#000000" transform="translate(2259.8427734375,3248.62841796875)"/>
<path d="M0 0 C0.442 -0.008 0.442 -0.008 2.68 -0.049 C6.703 -0.093 10.725 -0.134 14.748 -0.157 C16.869 -0.174 18.99 -0.201 21.111 -0.239 C24.175 -0.294 27.238 -0.316 30.303 -0.331 C31.249 -0.353 32.195 -0.376 33.17 -0.399 C37.756 -0.385 39.801 -0.351 43.509 2.555 C45.545 5.26 47.481 7.966 49.307 10.818 C52.64 15.934 56.139 20.882 59.752 25.802 C61.752 28.547 63.639 31.348 65.494 34.193 C66.451 35.631 67.41 37.069 68.369 38.505 C72.328 44.443 76.286 50.38 80.244 56.318 C80.732 57.047 81.219 57.777 81.721 58.529 C83.137 60.656 84.547 62.787 85.955 64.919 C86.843 66.261 87.731 67.602 88.619 68.943 C89.039 69.581 89.459 70.219 89.892 70.877 C92.271 74.464 94.774 77.852 97.494 81.193 C98.508 82.851 99.506 84.52 100.494 86.193 C101.943 88.406 103.414 90.603 104.889 92.798 C105.935 94.359 106.975 95.924 108.006 97.494 C110.318 101.006 112.656 104.44 115.244 107.755 C118.236 111.671 120.79 115.814 123.369 120.005 C126.953 125.828 130.714 131.426 134.803 136.912 C136.804 139.611 138.648 142.387 140.494 145.193 C141.494 146.193 141.494 146.193 144.057 146.255 C144.459 146.245 144.459 146.245 146.494 146.193 C146.701 145.657 146.701 145.657 147.744 142.943 C148.681 140.507 149.506 139.181 151.389 137.326 C153.823 134.86 155.262 132.349 156.932 129.318 C159.469 124.856 162.157 121.1 165.494 117.193 C167.492 114.274 169.429 111.319 171.369 108.361 C174.029 104.396 176.859 100.575 179.733 96.763 C181.494 94.193 181.494 94.193 182.975 91.185 C184.524 88.134 186.34 85.84 188.494 83.193 C190.585 79.879 192.586 76.519 194.592 73.154 C196.13 70.761 197.496 69.14 199.494 67.193 C200.451 65.431 200.451 65.431 201.307 63.505 C202.715 60.572 204.241 58.068 206.244 55.505 C208.943 52.05 211.226 48.445 213.494 44.693 C216.212 40.203 219.047 35.963 222.26 31.818 C223.862 29.709 225.175 27.488 226.494 25.193 C227.32 23.813 228.154 22.439 228.994 21.068 C229.397 20.405 229.799 19.743 230.213 19.06 C231.494 17.193 231.494 17.193 232.998 15.693 C234.658 14.028 235.734 12.337 236.932 10.318 C242.078 1.901 242.078 1.901 245.494 0.193 C246.99 0.088 248.489 0.044 249.988 0.032 C250.919 0.022 251.851 0.013 252.81 0.003 C253.818 -0.002 254.827 -0.006 255.865 -0.01 C256.899 -0.016 257.932 -0.022 258.997 -0.028 C261.185 -0.037 263.373 -0.044 265.561 -0.047 C268.915 -0.057 272.268 -0.088 275.621 -0.12 C277.744 -0.126 279.867 -0.131 281.99 -0.135 C282.494 -0.141 282.494 -0.141 285.04 -0.173 C285.507 -0.171 285.507 -0.171 287.871 -0.164 C288.693 -0.167 289.516 -0.171 290.363 -0.175 C292.966 0.274 293.847 1.183 295.494 3.193 C294.216 7.649 292.554 10.83 289.744 14.505 C286.693 18.575 283.793 22.687 280.998 26.935 C278.751 30.308 276.409 33.613 274.076 36.927 C272.878 38.644 271.71 40.382 270.557 42.13 C267.931 46.03 265.144 49.804 262.369 53.599 C261.041 55.437 259.753 57.306 258.494 59.193 C256.565 62.086 254.547 64.886 252.494 67.693 C249.734 71.472 247.051 75.272 244.494 79.193 C243.537 80.631 242.579 82.069 241.619 83.505 C241.108 84.274 240.596 85.042 240.069 85.833 C239.032 87.387 237.993 88.939 236.951 90.49 C234.61 93.981 232.306 97.478 230.119 101.068 C227.421 105.434 224.377 109.532 221.338 113.666 C219.303 116.455 217.395 119.311 215.494 122.193 C214.331 123.862 213.164 125.528 211.994 127.193 C209.443 130.828 206.94 134.485 204.494 138.193 C203.019 140.407 201.542 142.621 200.065 144.833 C199.034 146.382 198.008 147.934 196.987 149.49 C194.126 153.832 191.145 158.026 187.994 162.162 C186.419 164.295 184.951 166.477 183.494 168.693 C180.158 173.759 176.523 178.564 172.819 183.365 C172.278 184.071 171.738 184.778 171.182 185.505 C170.691 186.141 170.2 186.776 169.694 187.431 C167.383 190.826 167.365 193.823 167.35 197.804 C167.343 198.972 167.336 200.14 167.329 201.343 C167.326 202.626 167.323 203.908 167.321 205.23 C167.314 206.593 167.308 207.957 167.301 209.32 C167.286 212.257 167.274 215.193 167.265 218.13 C167.249 222.773 167.225 227.416 167.2 232.059 C167.128 245.262 167.069 258.465 167.018 271.669 C166.989 278.96 166.954 286.252 166.911 293.543 C166.884 298.159 166.866 302.775 166.855 307.391 C166.846 310.263 166.828 313.134 166.809 316.006 C166.798 317.973 166.796 319.94 166.796 321.907 C166.791 322.493 166.791 322.493 166.766 325.455 C166.762 326.473 166.758 327.49 166.753 328.538 C166.487 331.269 165.983 332.904 164.494 335.193 C161.084 336.898 157.189 336.378 153.436 336.396 C152.536 336.402 151.636 336.407 150.708 336.413 C148.803 336.423 146.897 336.429 144.991 336.433 C142.072 336.443 139.154 336.474 136.235 336.505 C134.385 336.512 132.535 336.517 130.686 336.521 C130.248 336.527 130.248 336.527 128.034 336.558 C127.22 336.555 126.406 336.552 125.567 336.549 C124.851 336.553 124.136 336.557 123.398 336.56 C120.83 336.065 120.082 335.264 118.494 333.193 C118.129 330.652 118.129 330.652 118.143 327.553 C118.14 326.379 118.138 325.204 118.135 323.994 C118.148 322.703 118.16 321.413 118.173 320.083 C118.176 318.712 118.177 317.34 118.176 315.968 C118.178 313.012 118.189 310.056 118.206 307.099 C118.232 302.416 118.231 297.734 118.225 293.051 C118.211 279.734 118.229 266.417 118.285 253.1 C118.316 245.746 118.321 238.393 118.3 231.039 C118.288 226.393 118.307 221.748 118.349 217.102 C118.367 214.196 118.356 211.291 118.338 208.385 C118.333 206.415 118.364 204.446 118.395 202.476 C118.293 193.548 115.958 188.194 110.494 181.193 C108.688 178.839 107.202 176.671 105.744 174.068 C103.581 170.206 101.042 166.665 98.479 163.06 C96.252 159.843 94.151 156.56 92.057 153.255 C88.667 147.919 85.099 142.765 81.319 137.693 C79.29 134.913 77.394 132.062 75.494 129.193 C70.57 121.983 65.553 114.856 60.397 107.81 C57.956 104.452 55.574 101.055 53.205 97.646 C52.074 96.025 50.934 94.41 49.783 92.802 C45.707 87.084 41.992 81.198 38.389 75.173 C36.585 72.335 34.602 69.809 32.494 67.193 C31.41 65.499 30.348 63.79 29.307 62.068 C26.812 58.084 24.156 54.468 21.119 50.88 C17.158 46.174 13.818 41.271 10.589 36.051 C8.423 32.561 6.067 29.389 3.494 26.193 C2.346 24.416 1.222 22.624 0.119 20.818 C-2.015 17.396 -4.163 14.297 -6.881 11.318 C-9.207 8.724 -10.506 6.821 -10.506 3.193 C-7.395 0.083 -4.261 0.071 0 0 Z " fill="#000000" transform="translate(106.505615234375,3249.80712890625)"/>
<path d="M0 0 C0.784 -0.009 1.569 -0.019 2.377 -0.029 C3.216 -0.023 4.054 -0.017 4.918 -0.01 C5.789 -0.013 6.659 -0.016 7.556 -0.019 C9.394 -0.021 11.232 -0.015 13.07 -0.003 C15.878 0.013 18.683 -0.003 21.49 -0.022 C23.279 -0.02 25.067 -0.016 26.856 -0.01 C27.692 -0.016 28.529 -0.022 29.391 -0.029 C35.533 0.045 38.843 1.319 43.313 5.701 C51.869 15.319 59.892 25.219 67.573 35.544 C70.385 39.319 73.239 43.043 76.203 46.701 C80.859 52.45 85.192 58.433 89.426 64.498 C91.094 66.885 92.705 69.145 94.789 71.189 C97.385 73.826 99.6 76.693 101.828 79.638 C102.273 80.22 102.717 80.801 103.174 81.4 C105.443 84.375 107.679 87.371 109.891 90.388 C112.592 94.021 115.516 97.447 118.453 100.888 C128.089 112.181 128.089 112.181 131.516 118.076 C132.953 120.388 132.953 120.388 135.258 122.662 C137.968 125.403 140.225 128.229 142.516 131.326 C143.26 132.325 144.003 133.324 144.77 134.353 C146.223 136.373 147.628 138.429 148.981 140.517 C150.801 143.166 152.668 145.151 154.953 147.388 C156.523 149.346 158.062 151.327 159.578 153.326 C160.462 154.486 161.347 155.646 162.231 156.806 C162.68 157.398 163.13 157.99 163.594 158.601 C165.765 161.455 167.953 164.296 170.141 167.138 C170.561 167.685 170.982 168.231 171.415 168.794 C174.912 173.338 178.422 177.871 181.953 182.388 C182.155 182.647 182.155 182.647 183.176 183.954 C187.916 190.025 192.671 196.076 197.578 202.013 C201.463 206.728 205.128 211.582 208.77 216.486 C210.784 219.163 212.848 221.783 214.953 224.388 C221.683 232.733 228.001 241.387 234.227 250.111 C237.171 253.994 237.171 253.994 238.953 255.388 C240.273 255.388 241.593 255.388 242.953 255.388 C242.952 254.115 242.95 252.841 242.948 251.529 C242.904 221.307 242.871 191.085 242.851 160.862 C242.849 157.143 242.846 153.425 242.844 149.706 C242.843 148.965 242.842 148.225 242.842 147.462 C242.833 135.47 242.817 123.478 242.799 111.486 C242.78 99.184 242.769 86.881 242.765 74.579 C242.762 66.986 242.754 59.393 242.738 51.8 C242.726 45.98 242.724 40.161 242.727 34.341 C242.727 31.952 242.723 29.563 242.715 27.173 C242.705 23.917 242.707 20.661 242.713 17.404 C242.707 16.454 242.701 15.504 242.695 14.525 C242.733 6.271 242.733 6.271 244.953 2.388 C248.987 -0.057 253.327 0.051 257.922 0.017 C258.68 0.008 259.438 -0.001 260.219 -0.01 C261.816 -0.025 263.413 -0.034 265.01 -0.037 C267.446 -0.049 269.88 -0.099 272.317 -0.149 C273.873 -0.158 275.429 -0.166 276.985 -0.17 C277.347 -0.18 277.347 -0.18 279.179 -0.23 C282.695 -0.198 284.731 0.235 287.645 2.234 C291.035 6.866 290.649 10.843 290.593 16.451 C290.597 17.016 290.597 17.016 290.618 19.876 C290.64 23.673 290.626 27.47 290.613 31.268 C290.618 33.989 290.632 36.709 290.645 39.43 C290.668 45.301 290.674 51.172 290.667 57.044 C290.657 65.578 290.675 74.112 290.7 82.647 C290.739 96.554 290.755 110.461 290.758 124.369 C290.76 137.774 290.773 151.179 290.801 164.584 C290.802 165.404 290.804 166.224 290.806 167.069 C290.814 171.19 290.823 175.312 290.832 179.433 C290.875 199.825 290.912 220.218 290.929 240.61 C290.93 241.334 290.93 242.058 290.931 242.804 C290.938 250.491 290.942 258.177 290.939 265.863 C290.936 276.732 290.934 287.601 291.033 298.47 C291.069 302.466 291.095 306.462 291.121 310.458 C291.143 313.096 291.181 315.733 291.219 318.371 C291.23 319.923 291.239 321.475 291.248 323.027 C291.263 324.341 291.279 325.656 291.295 327.01 C290.898 330.939 289.762 333.579 286.953 336.388 C280.899 336.681 274.842 336.702 268.781 336.738 C266.736 336.755 264.692 336.782 262.647 336.82 C259.702 336.875 256.758 336.897 253.813 336.912 C253.357 336.923 253.357 336.923 251.05 336.98 C246.53 336.965 244.606 336.908 240.966 334.01 C240.302 333.145 239.638 332.28 238.953 331.388 C238.273 330.572 237.592 329.756 236.891 328.916 C234.875 326.286 232.911 323.624 230.953 320.951 C227.422 316.214 223.712 311.714 219.828 307.263 C215.776 302.614 212.061 297.909 208.621 292.779 C206.099 289.164 203.279 285.803 200.457 282.419 C198.953 280.388 198.953 280.388 198.953 278.388 C197.963 278.058 196.973 277.728 195.953 277.388 C194.275 275.252 192.728 273.129 191.203 270.888 C190.306 269.599 189.408 268.312 188.508 267.025 C188.071 266.398 187.633 265.77 187.183 265.124 C185.11 262.197 182.881 259.399 180.656 256.587 C178.734 254.105 176.907 251.565 175.078 249.013 C170.931 243.276 166.481 237.828 161.953 232.388 C157.534 227.079 153.187 221.784 149.203 216.138 C145.865 211.456 142.202 207.183 138.391 202.888 C133.873 197.79 130.014 192.683 126.504 186.822 C124.499 183.674 122.155 180.977 119.629 178.24 C116.056 174.292 113.071 170.117 110.203 165.638 C107.65 161.759 105.049 158.229 101.891 154.826 C99.054 151.763 96.805 148.708 94.641 145.138 C91.53 140.041 87.914 135.702 83.999 131.225 C81.156 127.933 78.747 124.641 76.516 120.888 C73.422 115.774 69.686 111.733 65.578 107.444 C60.924 102.518 57.064 97.208 53.223 91.638 C50.672 87.985 47.949 84.512 45.133 81.06 C43.953 79.388 43.953 79.388 43.953 77.388 C43.293 77.553 43.293 77.553 39.953 78.388 C39.952 79.694 39.95 80.999 39.949 82.344 C39.913 113.315 39.857 144.287 39.775 175.258 C39.765 179.068 39.756 182.879 39.746 186.689 C39.744 187.448 39.742 188.206 39.74 188.988 C39.709 201.278 39.692 213.568 39.68 225.858 C39.668 238.465 39.64 251.071 39.599 263.677 C39.574 271.459 39.56 279.241 39.562 287.023 C39.562 292.985 39.541 298.947 39.512 304.91 C39.504 307.359 39.502 309.809 39.508 312.258 C39.514 315.594 39.496 318.929 39.472 322.264 C39.48 323.241 39.488 324.218 39.496 325.224 C39.412 331.763 39.412 331.763 37.045 334.99 C34.747 336.526 33.612 336.889 30.875 336.89 C30.48 336.895 30.48 336.895 28.479 336.918 C28.056 336.913 28.056 336.913 25.918 336.884 C25.043 336.886 24.168 336.887 23.266 336.889 C21.42 336.887 19.573 336.875 17.727 336.855 C14.897 336.826 12.07 336.834 9.24 336.847 C7.446 336.841 5.651 336.833 3.856 336.822 C3.009 336.825 2.162 336.828 1.289 336.831 C-4.538 336.737 -4.538 336.737 -6.77 335.208 C-8.539 332.687 -8.424 330.942 -8.427 327.874 C-8.435 326.72 -8.444 325.566 -8.453 324.378 C-8.447 323.105 -8.441 321.831 -8.434 320.52 C-8.438 319.158 -8.444 317.796 -8.451 316.435 C-8.465 312.685 -8.461 308.935 -8.453 305.185 C-8.449 301.144 -8.461 297.103 -8.471 293.062 C-8.489 285.142 -8.49 277.223 -8.484 269.304 C-8.48 262.869 -8.482 256.435 -8.487 250 C-8.487 249.543 -8.487 249.543 -8.489 247.229 C-8.491 245.371 -8.492 243.513 -8.494 241.655 C-8.508 224.221 -8.502 206.787 -8.491 189.352 C-8.481 173.389 -8.494 157.425 -8.518 141.461 C-8.542 125.084 -8.552 108.707 -8.545 92.329 C-8.541 83.129 -8.544 73.929 -8.561 64.728 C-8.576 56.897 -8.577 49.066 -8.559 41.234 C-8.551 37.236 -8.549 33.238 -8.564 29.239 C-8.578 25.583 -8.573 21.927 -8.554 18.27 C-8.548 16.313 -8.562 14.356 -8.577 12.399 C-8.567 11.245 -8.557 10.091 -8.547 8.903 C-8.547 8.403 -8.547 8.403 -8.547 5.873 C-8.047 3.388 -8.047 3.388 -6.138 1.567 C-3.862 0.284 -2.59 0.009 0 0 Z " fill="#000000" transform="translate(1419.046630859375,3249.61181640625)"/>
<path d="M0 0 C0.391 -0.003 0.391 -0.003 2.367 -0.02 C4.009 -0.03 5.651 -0.035 7.293 -0.035 C9.804 -0.039 12.314 -0.075 14.824 -0.113 C16.424 -0.119 18.025 -0.123 19.625 -0.125 C20.373 -0.139 21.121 -0.154 21.892 -0.169 C25.381 -0.138 27.298 0.04 30.093 2.208 C33.96 7.395 36.04 13.566 38.484 19.508 C39.354 21.565 40.306 23.588 41.305 25.586 C42.735 28.448 43.834 31.327 44.93 34.328 C46.499 38.53 48.359 42.614 50.18 46.711 C51.28 49.371 52.199 51.914 53.055 54.648 C54.454 58.979 56.395 62.883 58.484 66.918 C59.57 69.115 60.471 71.284 61.305 73.586 C62.68 77.336 62.68 77.336 64.242 80.398 C65.68 83.336 65.68 83.336 66.68 86.898 C67.68 90.336 67.68 90.336 69.117 92.648 C70.636 95.26 71.364 97.445 72.18 100.336 C73.25 104.122 74.615 106.98 76.68 110.336 C77.207 111.827 77.704 113.328 78.18 114.836 C79.006 117.452 79.759 119.469 81.18 121.836 C82.975 124.829 83.881 127.829 84.93 131.145 C85.68 133.336 85.68 133.336 87.18 136.336 C88.779 139.535 89.839 142.712 90.93 146.109 C91.993 149.267 93.348 152.283 94.68 155.336 C95.188 156.666 95.687 158 96.18 159.336 C97.952 164.126 99.998 168.787 102.055 173.461 C103.994 177.962 105.68 182.563 107.398 187.152 C108.67 190.311 110.148 193.297 111.68 196.336 C112.205 197.681 112.709 199.034 113.18 200.398 C114.047 202.802 114.875 204.649 116.242 206.836 C117.878 209.682 118.438 212.262 119.152 215.438 C119.68 217.336 119.68 217.336 121.117 219.711 C122.632 222.256 123.324 224.316 124.117 227.148 C125.266 231.224 126.79 234.734 128.773 238.461 C130.143 241.294 130.825 244.315 131.68 247.336 C132.154 248.12 132.628 248.903 133.117 249.711 C134.559 252.134 135.339 254.167 136.18 256.836 C137.006 259.452 137.759 261.469 139.18 263.836 C140.975 266.829 141.881 269.829 142.93 273.145 C143.68 275.336 143.68 275.336 145.18 278.336 C146.779 281.534 147.839 284.709 148.926 288.105 C149.598 290.094 150.411 292.033 151.242 293.961 C152.68 297.336 152.68 297.336 153.68 300.961 C154.68 304.336 154.68 304.336 156.117 306.648 C158.017 309.915 158.841 313.157 159.852 316.781 C160.644 319.226 161.627 321.28 162.867 323.523 C164.823 327.218 165.185 330.126 164.68 334.336 C162.309 336.707 161.808 336.596 158.585 336.642 C158.162 336.65 158.162 336.65 156.025 336.691 C155.568 336.693 155.568 336.693 153.254 336.707 C152.314 336.716 151.374 336.725 150.406 336.734 C148.415 336.749 146.423 336.758 144.432 336.761 C141.389 336.773 138.349 336.822 135.307 336.873 C133.372 336.883 131.438 336.89 129.504 336.895 C128.595 336.914 127.687 336.934 126.751 336.954 C122.236 336.922 120.316 336.839 116.671 333.956 C113.547 329.845 111.389 325.957 109.68 321.086 C109.509 320.604 109.509 320.604 108.645 318.164 C107.814 315.729 107.022 313.287 106.242 310.836 C104.782 306.359 102.804 302.177 100.809 297.918 C99.855 295.736 99.141 293.698 98.555 291.398 C97.68 288.336 97.68 288.336 96.219 286.484 C94.422 283.976 93.877 281.892 93.18 278.898 C92.15 274.834 90.877 271.906 88.68 268.336 C87.862 265.824 87.149 263.291 86.43 260.75 C85.5 257.759 84.103 255.123 82.68 252.336 C82.159 250.843 81.661 249.342 81.18 247.836 C80.325 245.164 79.442 242.86 78.18 240.336 C76.907 237.791 76.033 235.471 75.18 232.773 C74.059 229.271 72.611 226.474 70.68 223.336 C69.874 221.368 69.151 219.38 68.434 217.379 C67.734 215.482 66.929 213.625 66.117 211.773 C64.68 208.336 64.68 208.336 63.68 204.711 C62.68 201.336 62.68 201.336 61.242 199.023 C59.321 195.719 58.467 192.412 57.43 188.75 C56.5 185.759 55.103 183.123 53.68 180.336 C52.884 178.09 52.157 175.827 51.43 173.559 C50.774 171.616 49.987 169.72 49.18 167.836 C48.025 165.143 47.071 162.553 46.18 159.773 C45.312 157.085 44.41 154.808 43.117 152.273 C41.907 149.8 41.276 147.914 40.68 145.273 C40.103 142.745 39.607 141.216 38.242 138.961 C36.701 136.372 35.992 134.22 35.18 131.336 C34.381 128.508 33.698 126.367 32.18 123.836 C30.661 121.305 29.978 119.164 29.18 116.336 C28.109 112.55 26.745 109.691 24.68 106.336 C23.864 104.107 23.147 101.856 22.43 99.594 C21.68 97.336 21.68 97.336 20.18 93.836 C18.7 90.384 17.535 86.935 16.426 83.352 C15.68 81.336 15.68 81.336 13.68 78.336 C13.239 76.454 12.869 74.555 12.555 72.648 C12.387 71.655 12.22 70.661 12.047 69.637 C11.926 68.877 11.805 68.118 11.68 67.336 C10.03 67.336 8.38 67.336 6.68 67.336 C4.107 72.216 2.057 76.928 0.395 82.184 C-0.646 85.317 -2.02 88.302 -3.32 91.336 C-3.833 92.832 -4.333 94.332 -4.82 95.836 C-6.103 99.779 -7.635 103.544 -9.32 107.336 C-11.2 111.643 -12.946 115.964 -14.57 120.371 C-15.266 122.194 -16.04 123.986 -16.82 125.773 C-17.933 128.416 -18.845 130.926 -19.695 133.648 C-21.086 137.96 -23.034 141.824 -25.121 145.836 C-26.63 148.982 -27.671 152.178 -28.645 155.523 C-29.32 157.336 -29.32 157.336 -31.32 159.336 C-31.856 160.922 -32.328 162.53 -32.758 164.148 C-33.854 168.008 -35.257 170.898 -37.32 174.336 C-38.114 176.853 -38.815 179.379 -39.477 181.934 C-40.389 184.53 -41.66 186.161 -43.32 188.336 C-44.164 190.484 -44.164 190.484 -44.82 192.711 C-45.998 196.478 -47.553 199.802 -49.32 203.336 C-50.114 205.58 -50.841 207.839 -51.566 210.105 C-52.239 212.094 -53.052 214.033 -53.883 215.961 C-55.32 219.336 -55.32 219.336 -56.32 223.023 C-57.32 226.336 -57.32 226.336 -58.793 228.215 C-60.559 230.667 -61.083 232.652 -61.758 235.586 C-62.853 239.897 -64.242 243.581 -66.344 247.488 C-67.323 249.342 -68.145 251.212 -68.945 253.148 C-70.32 256.336 -70.32 256.336 -72.32 259.336 C-72.838 260.76 -73.315 262.199 -73.758 263.648 C-74.965 267.423 -76.547 270.789 -78.32 274.336 C-78.63 275.45 -78.939 276.563 -79.258 277.711 C-80.285 281.215 -81.634 284.078 -83.312 287.293 C-84.623 289.95 -85.603 292.684 -86.605 295.469 C-87.646 298.188 -89.019 300.733 -90.32 303.336 C-91.106 305.381 -91.852 307.435 -92.574 309.504 C-93.32 311.336 -93.32 311.336 -95.32 314.336 C-95.803 316.011 -96.235 317.701 -96.633 319.398 C-98.116 325.083 -100.204 330.337 -103.32 335.336 C-105.631 336.491 -106.968 336.468 -109.539 336.481 C-109.974 336.484 -109.974 336.484 -112.178 336.501 C-113.121 336.502 -114.064 336.503 -115.035 336.504 C-115.518 336.506 -115.518 336.506 -117.964 336.514 C-120.011 336.519 -122.058 336.521 -124.105 336.521 C-127.242 336.523 -130.377 336.542 -133.514 336.561 C-135.5 336.563 -137.486 336.565 -139.473 336.566 C-139.943 336.57 -139.943 336.57 -142.323 336.588 C-143.197 336.585 -144.072 336.582 -144.972 336.579 C-145.357 336.58 -145.357 336.58 -147.303 336.583 C-149.32 336.336 -149.32 336.336 -152.32 334.336 C-153.093 329.83 -151.206 326.309 -149.32 322.336 C-144.359 311.595 -144.359 311.595 -142.695 307.023 C-141.32 303.336 -141.32 303.336 -139.82 300.398 C-138.24 297.173 -137.165 293.965 -136.062 290.555 C-134.423 285.652 -132.2 281.098 -129.82 276.523 C-127.657 272.275 -126.267 268.091 -125 263.508 C-124.163 260.832 -122.786 258.718 -121.32 256.336 C-120.793 254.845 -120.296 253.344 -119.82 251.836 C-118.703 248.299 -117.231 245.52 -115.32 242.336 C-114.512 240.084 -113.793 237.812 -113.07 235.531 C-112.087 232.654 -110.702 230.042 -109.32 227.336 C-108.533 225.291 -107.789 223.237 -107.066 221.168 C-106.32 219.336 -106.32 219.336 -104.32 216.336 C-103.799 214.724 -103.323 213.097 -102.883 211.461 C-101.785 207.638 -100.407 204.726 -98.32 201.336 C-97.793 199.845 -97.296 198.344 -96.82 196.836 C-95.703 193.303 -94.266 190.498 -92.32 187.336 C-91.52 185.343 -90.796 183.33 -90.07 181.309 C-89.022 178.55 -87.639 175.974 -86.32 173.336 C-85.806 172.008 -85.307 170.674 -84.82 169.336 C-83.557 165.861 -81.975 162.645 -80.32 159.336 C-79.534 157.291 -78.789 155.237 -78.066 153.168 C-77.32 151.336 -77.32 151.336 -75.32 148.336 C-74.518 145.585 -73.863 142.815 -73.199 140.027 C-72.288 137.237 -71.103 135.631 -69.32 133.336 C-68.477 131.188 -68.477 131.188 -67.82 128.961 C-66.641 125.195 -65.118 121.856 -63.32 118.336 C-62.805 117.008 -62.306 115.674 -61.82 114.336 C-60.557 110.861 -58.975 107.645 -57.32 104.336 C-56.806 103.008 -56.307 101.674 -55.82 100.336 C-54.554 96.861 -53.003 93.632 -51.32 90.336 C-50.825 89.181 -50.33 88.026 -49.82 86.836 C-48.433 83.598 -46.895 80.486 -45.32 77.336 C-42.83 71.79 -40.714 66.122 -38.602 60.422 C-37.32 57.336 -37.32 57.336 -35.758 54.746 C-34.293 52.29 -33.551 50.152 -32.82 47.398 C-31.695 43.426 -30.201 40.019 -28.32 36.336 C-27.8 34.843 -27.301 33.342 -26.82 31.836 C-25.63 28.128 -24.125 24.795 -22.32 21.336 C-20.856 18.008 -19.457 14.717 -18.23 11.293 C-18.029 10.753 -18.029 10.753 -17.008 8.023 C-16.64 6.996 -16.273 5.969 -15.895 4.91 C-12.545 -0.566 -5.845 0.017 0 0 Z " fill="#000000" transform="translate(2849.3203125,3249.6640625)"/>
<path d="M0 0 C0.412 -0.001 0.412 -0.001 2.499 -0.009 C4.237 -0.011 5.975 -0.005 7.713 0.007 C10.366 0.023 13.018 0.007 15.672 -0.012 C17.365 -0.01 19.057 -0.006 20.75 0 C21.145 -0.003 21.145 -0.003 23.143 -0.018 C27.781 0.041 30.725 0.497 34.375 3.398 C34.999 5.884 34.999 5.884 34.999 8.913 C35.01 10.067 35.022 11.22 35.034 12.409 C35.022 13.682 35.009 14.955 34.996 16.267 C35.001 17.629 35.007 18.99 35.016 20.352 C35.033 24.102 35.019 27.852 34.999 31.602 C34.984 35.643 34.997 39.684 35.007 43.725 C35.022 51.644 35.009 59.564 34.988 67.483 C34.964 76.699 34.966 85.915 34.968 95.131 C34.972 111.571 34.951 128.011 34.917 144.451 C34.884 160.416 34.87 176.381 34.876 192.346 C34.883 209.716 34.88 227.087 34.861 244.457 C34.86 245.375 34.859 246.293 34.857 247.239 C34.855 249.083 34.853 250.927 34.851 252.771 C34.844 259.2 34.844 265.629 34.845 272.058 C34.846 279.89 34.837 287.721 34.813 295.553 C34.801 299.551 34.794 303.549 34.8 307.547 C34.805 311.204 34.796 314.86 34.777 318.517 C34.77 320.474 34.777 322.431 34.786 324.388 C34.776 325.542 34.767 326.695 34.758 327.884 C34.757 328.884 34.755 329.883 34.753 330.913 C34.375 333.398 34.375 333.398 33.098 335.22 C29.974 337.357 26.13 336.801 22.473 336.762 C21.599 336.762 20.724 336.763 19.824 336.763 C17.975 336.761 16.127 336.751 14.279 336.735 C11.452 336.711 8.626 336.714 5.799 336.721 C4.003 336.715 2.206 336.708 0.41 336.699 C-0.012 336.7 -0.012 336.7 -2.15 336.702 C-2.941 336.692 -3.732 336.683 -4.547 336.673 C-5.239 336.668 -5.932 336.664 -6.646 336.659 C-9.195 336.323 -10.554 335.971 -12.625 334.398 C-15.235 327.843 -14.897 321.247 -14.861 314.277 C-14.862 312.936 -14.863 311.596 -14.865 310.256 C-14.868 306.583 -14.858 302.911 -14.846 299.238 C-14.835 295.274 -14.836 291.309 -14.835 287.344 C-14.831 278.684 -14.812 270.023 -14.791 261.362 C-14.777 255.956 -14.767 250.55 -14.757 245.144 C-14.731 230.178 -14.701 215.212 -14.657 200.246 C-14.654 199.289 -14.652 198.332 -14.649 197.346 C-14.643 195.406 -14.637 193.466 -14.632 191.526 C-14.629 190.563 -14.626 189.6 -14.623 188.607 C-14.62 187.643 -14.618 186.679 -14.615 185.686 C-14.57 170.039 -14.548 154.393 -14.537 138.746 C-14.526 122.685 -14.495 106.624 -14.446 90.563 C-14.418 81.543 -14.399 72.524 -14.4 63.505 C-14.401 55.831 -14.384 48.157 -14.345 40.483 C-14.326 36.566 -14.315 32.649 -14.325 28.731 C-14.335 25.149 -14.321 21.567 -14.289 17.985 C-14.278 16.067 -14.292 14.15 -14.306 12.233 C-14.299 11.668 -14.299 11.668 -14.261 8.808 C-14.259 7.829 -14.257 6.849 -14.255 5.84 C-13.625 3.398 -13.625 3.398 -11.334 1.585 C-7.579 -0.06 -4.026 -0.031 0 0 Z " fill="#000000" transform="translate(3363.625,3249.6015625)"/>
</svg>
