<?xml version="1.0" encoding="UTF-8"?>
<svg xmlns="http://www.w3.org/2000/svg" width="2400px" height="600px" viewBox="0 0 2400 600" role="img" aria-labelledby="title">
<title>YongAI logo</title>
<rect width="2400" height="600" fill="#0B0C0E"/>
<path d="M 774 327 L 774 440 L 771 452 L 765 461 L 754 468 L 748 469 L 748 474 L 883 474 L 884 473 L 883 469 L 873 466 L 857 450 L 851 439 L 821 394 L 819 393 L 780 333 Z
M 1265 299 L 1273 299 L 1280 301 L 1288 308 L 1292 315 L 1294 325 L 1292 338 L 1288 345 L 1283 350 L 1273 354 L 1264 354 L 1256 351 L 1248 343 L 1244 329 L 1245 318 L 1249 309 L 1255 303 Z
M 1772 292 L 1771 294 L 1772 296 L 1772 327 L 1771 328 L 1772 329 L 1771 330 L 1771 337 L 1772 338 L 1771 355 L 1772 358 L 1771 359 L 1772 361 L 1779 361 L 1780 362 L 1783 360 L 1783 293 L 1782 292 Z
M 1666 292 L 1662 304 L 1639 356 L 1638 361 L 1646 361 L 1647 362 L 1649 361 L 1671 307 L 1673 309 L 1675 317 L 1677 319 L 1692 359 L 1694 361 L 1704 361 L 1703 356 L 1676 292 Z
M 1375 292 L 1375 361 L 1385 361 L 1386 360 L 1386 311 L 1387 310 L 1423 357 L 1427 361 L 1434 362 L 1437 360 L 1437 292 L 1427 292 L 1426 294 L 1426 341 L 1425 342 L 1386 292 Z
M 1106 292 L 1132 331 L 1132 360 L 1133 361 L 1143 361 L 1143 331 L 1169 295 L 1169 292 L 1158 292 L 1138 322 L 1118 292 Z
M 1529 293 L 1523 296 L 1514 304 L 1508 316 L 1507 333 L 1512 346 L 1519 354 L 1527 359 L 1536 362 L 1550 362 L 1564 357 L 1574 347 L 1573 346 L 1573 338 L 1574 337 L 1574 325 L 1573 323 L 1571 322 L 1543 323 L 1543 332 L 1545 333 L 1560 333 L 1562 332 L 1563 333 L 1563 345 L 1558 349 L 1547 353 L 1536 352 L 1528 348 L 1524 344 L 1520 337 L 1518 324 L 1522 311 L 1532 302 L 1539 300 L 1548 300 L 1555 302 L 1564 310 L 1566 310 L 1571 305 L 1571 303 L 1563 296 L 1554 292 L 1538 291 Z
M 1258 292 L 1246 298 L 1238 307 L 1233 319 L 1234 338 L 1239 348 L 1247 356 L 1252 359 L 1261 362 L 1276 362 L 1283 360 L 1293 354 L 1298 349 L 1303 340 L 1305 332 L 1305 320 L 1303 313 L 1298 304 L 1292 298 L 1283 293 L 1275 291 Z
M 996 101 L 893 101 L 894 105 L 908 107 L 921 113 L 926 118 L 928 122 L 929 132 L 927 139 L 915 160 L 857 242 L 857 245 L 859 246 L 865 255 L 919 185 L 950 147 L 969 126 L 983 113 L 996 103 Z
M 616 101 L 617 105 L 632 107 L 650 116 L 665 131 L 762 266 L 763 269 L 771 279 L 772 282 L 780 292 L 783 298 L 789 305 L 828 364 L 842 383 L 845 389 L 852 399 L 854 400 L 855 399 L 854 398 L 854 307 L 745 145 L 739 138 L 731 124 L 731 116 L 736 110 L 742 107 L 755 105 L 755 101 Z" fill="#FFFFFF" fill-rule="evenodd"/>
</svg>
