<?xml version="1.0" encoding="UTF-8"?>
<svg xmlns="http://www.w3.org/2000/svg" width="3000px" height="2969px" viewBox="0 0 3000 2969" role="img" aria-labelledby="title">
<title>YongAI logo</title>
<path d="M 1131 2679 L 1133 2681 L 1986 2681 L 1989 2680 L 1986 2678 L 1919 2678 L 1918 2679 L 1911 2678 L 1772 2678 L 1771 2679 L 1766 2678 L 1760 2679 L 1755 2678 L 1223 2678 L 1222 2679 L 1213 2679 L 1212 2678 L 1206 2679 L 1201 2678 L 1145 2678 L 1144 2679 L 1135 2679 L 1134 2678 Z
M 2004 2652 L 2003 2655 L 2005 2658 L 2006 2653 Z
M 1142 2629 L 1155 2627 L 1159 2625 L 1158 2624 L 1145 2624 L 1142 2625 Z
M 1965 2624 L 1968 2627 L 1978 2629 L 1978 2624 L 1970 2624 L 1969 2623 Z
M 1171 2620 L 1173 2621 L 1175 2619 Z
M 1932 2613 L 1933 2615 L 1936 2616 L 1941 2615 L 1939 2613 Z
M 1206 2604 L 1201 2603 L 1199 2604 L 1198 2607 L 1191 2608 L 1187 2612 L 1183 2613 L 1181 2615 L 1182 2616 L 1190 2615 L 1195 2610 L 1197 2610 L 1200 2606 Z
M 1913 2599 L 1914 2603 L 1921 2606 L 1921 2604 L 1916 2599 Z
M 1888 2583 L 1896 2589 L 1899 2589 L 1901 2594 L 1905 2594 L 1892 2582 Z
M 1869 2561 L 1868 2563 L 1874 2571 L 1881 2578 L 1885 2580 L 1886 2577 L 1883 2577 L 1881 2575 L 1881 2573 L 1877 2571 L 1874 2566 L 1871 2566 Z
M 1253 2547 L 1250 2548 L 1250 2555 L 1255 2551 Z
M 1267 2517 L 1265 2517 L 1266 2523 Z
M 1830 2510 L 1830 2512 L 1833 2513 L 1833 2511 Z
M 1810 2479 L 1811 2482 L 1817 2486 L 1812 2481 L 1812 2479 Z
M 1277 2464 L 1276 2465 L 1276 2474 L 1280 2474 L 1280 2465 Z
M 1788 2447 L 1789 2450 L 1792 2452 L 1792 2448 L 1790 2446 Z
M 1761 2406 L 1762 2408 L 1764 2409 L 1765 2408 L 1764 2405 Z
M 1736 2369 L 1739 2372 L 1739 2369 L 1738 2368 Z
M 1716 2333 L 1715 2336 L 1718 2339 L 1718 2334 Z
M 1685 2290 L 1684 2292 L 1687 2295 L 1688 2294 L 1687 2291 Z
M 1777 2180 L 1776 2183 L 1777 2187 L 1784 2194 L 1784 2189 L 1780 2187 L 1779 2182 Z
M 1607 2175 L 1608 2180 L 1612 2177 L 1610 2175 Z
M 1772 2173 L 1771 2177 L 1773 2179 L 1774 2175 Z
M 1767 2165 L 1766 2171 L 1769 2172 L 1769 2167 Z
M 1762 2157 L 1761 2162 L 1763 2163 L 1763 2157 Z
M 1751 2142 L 1751 2150 L 1758 2157 L 1758 2153 L 1753 2148 L 1753 2145 Z
M 1741 2126 L 1740 2131 L 1742 2132 Z
M 1734 2120 L 1735 2125 L 1737 2126 L 1737 2121 Z
M 1726 2105 L 1724 2110 L 1728 2116 L 1732 2119 L 1732 2113 L 1730 2110 L 1729 2111 L 1727 2109 Z
M 1715 2090 L 1714 2093 L 1716 2094 L 1716 2090 Z
M 1699 2065 L 1698 2071 L 1699 2073 L 1701 2073 L 1703 2075 L 1704 2079 L 1705 2079 L 1706 2074 L 1701 2071 L 1701 2068 Z
M 1694 2058 L 1693 2062 L 1695 2063 Z
M 1688 2050 L 1688 2056 L 1690 2057 L 1690 2051 Z
M 1673 2027 L 1672 2033 L 1676 2037 L 1677 2040 L 1682 2043 L 1683 2048 L 1685 2048 L 1685 2043 L 1680 2041 L 1680 2035 L 1678 2032 L 1675 2031 L 1674 2027 Z
M 1498 2013 L 1497 2014 L 1498 2017 L 1499 2016 Z
M 1661 2011 L 1663 2017 L 1664 2011 Z
M 1493 2007 L 1492 2011 L 1494 2012 Z
M 1647 1990 L 1646 1995 L 1649 2000 L 1655 2005 L 1655 2007 L 1659 2010 L 1659 2004 L 1654 2000 L 1653 1995 L 1650 1995 L 1648 1993 L 1648 1990 Z
M 1643 1980 L 1641 1981 L 1642 1986 Z
M 1621 1954 L 1621 1957 L 1625 1960 L 1625 1962 L 1627 1964 L 1627 1959 L 1625 1957 L 1623 1957 Z
M 1610 1933 L 1609 1937 L 1611 1938 L 1611 1933 Z
M 1599 1918 L 1599 1924 L 1603 1927 L 1606 1932 L 1607 1926 L 1603 1925 L 1601 1918 Z
M 1424 1904 L 1425 1908 L 1426 1905 Z
M 1590 1902 L 1588 1903 L 1588 1908 L 1590 1911 L 1590 1914 L 1585 1916 L 1585 1926 L 1590 1922 L 1592 1918 L 1596 1917 L 1596 1912 L 1591 1910 Z
M 1585 1896 L 1583 1898 L 1584 1902 L 1586 1900 Z
M 1415 1891 L 1413 1893 L 1415 1896 L 1417 1895 L 1420 1903 L 1421 1896 Z
M 1579 1886 L 1578 1891 L 1580 1892 Z
M 1573 1881 L 1573 1886 L 1575 1886 L 1575 1881 Z
M 1392 1856 L 1392 1860 L 1394 1862 L 1395 1858 L 1394 1856 Z
M 1547 1841 L 1546 1845 L 1548 1848 L 1549 1842 Z
M 1361 1810 L 1362 1815 L 1366 1817 L 1366 1821 L 1368 1824 L 1369 1818 L 1363 1812 L 1363 1810 Z
M 1357 1803 L 1356 1804 L 1357 1809 L 1358 1808 Z
M 1521 1802 L 1520 1806 L 1522 1808 L 1523 1805 Z
M 1351 1793 L 1350 1795 L 1352 1799 L 1353 1795 Z
M 1505 1779 L 1505 1786 L 1509 1793 L 1517 1801 L 1518 1795 L 1513 1793 L 1512 1787 L 1511 1786 L 1509 1787 L 1507 1785 L 1508 1781 L 1507 1779 Z
M 1339 1778 L 1341 1786 L 1345 1788 L 1346 1793 L 1347 1793 L 1348 1787 L 1344 1783 L 1343 1780 L 1341 1778 Z
M 1336 1772 L 1335 1776 L 1337 1777 Z
M 1500 1771 L 1499 1775 L 1501 1777 L 1502 1772 Z
M 1490 1756 L 1489 1760 L 1491 1761 Z
M 1326 1756 L 1325 1756 L 1325 1762 L 1327 1760 Z
M 1485 1750 L 1484 1754 L 1486 1755 L 1486 1750 Z
M 1315 1740 L 1314 1744 L 1316 1746 Z
M 1295 1731 L 1293 1735 L 1293 2433 L 1289 2453 L 1288 2475 L 1283 2489 L 1282 2501 L 1278 2508 L 1277 2518 L 1272 2526 L 1272 2532 L 1269 2535 L 1267 2543 L 1264 2545 L 1262 2552 L 1258 2556 L 1256 2561 L 1254 2562 L 1247 2574 L 1227 2595 L 1220 2601 L 1217 2602 L 1214 2606 L 1210 2607 L 1206 2611 L 1203 2612 L 1198 2617 L 1195 2617 L 1189 2622 L 1185 2622 L 1178 2627 L 1170 2628 L 1164 2632 L 1154 2633 L 1142 2638 L 1134 2638 L 1130 2640 L 1126 2645 L 1125 2652 L 1126 2669 L 1128 2671 L 1132 2672 L 1986 2672 L 1993 2670 L 1995 2668 L 1996 2664 L 1996 2653 L 1992 2639 L 1978 2637 L 1969 2633 L 1959 2632 L 1953 2628 L 1945 2627 L 1939 2623 L 1923 2616 L 1919 2612 L 1914 2611 L 1910 2606 L 1908 2606 L 1903 2601 L 1901 2601 L 1896 2596 L 1894 2596 L 1890 2591 L 1875 2579 L 1836 2534 L 1834 2529 L 1832 2528 L 1829 2522 L 1825 2518 L 1825 2516 L 1822 2513 L 1820 2508 L 1811 2496 L 1810 2492 L 1806 2488 L 1805 2483 L 1801 2480 L 1799 2475 L 1796 2472 L 1795 2468 L 1790 2463 L 1788 2458 L 1785 2455 L 1784 2451 L 1781 2449 L 1763 2420 L 1753 2408 L 1752 2404 L 1747 2399 L 1747 2397 L 1743 2393 L 1742 2389 L 1737 2385 L 1731 2372 L 1727 2369 L 1725 2364 L 1722 2361 L 1721 2357 L 1716 2352 L 1714 2347 L 1711 2344 L 1711 2342 L 1706 2337 L 1706 2333 L 1701 2329 L 1700 2326 L 1695 2321 L 1694 2317 L 1691 2314 L 1689 2309 L 1685 2306 L 1684 2302 L 1680 2298 L 1680 2295 L 1674 2290 L 1670 2284 L 1668 2278 L 1664 2275 L 1663 2272 L 1658 2267 L 1657 2263 L 1654 2261 L 1653 2257 L 1649 2253 L 1648 2248 L 1643 2244 L 1641 2239 L 1638 2237 L 1637 2232 L 1632 2228 L 1632 2226 L 1627 2220 L 1626 2216 L 1622 2213 L 1621 2208 L 1617 2204 L 1616 2200 L 1611 2196 L 1606 2185 L 1602 2182 L 1600 2177 L 1596 2173 L 1596 2170 L 1591 2166 L 1590 2162 L 1586 2158 L 1585 2154 L 1581 2151 L 1573 2137 L 1570 2135 L 1569 2131 L 1564 2126 L 1563 2122 L 1559 2119 L 1557 2114 L 1554 2112 L 1552 2105 L 1549 2104 L 1547 2099 L 1543 2095 L 1542 2090 L 1538 2088 L 1538 2086 L 1533 2080 L 1531 2074 L 1527 2071 L 1527 2069 L 1523 2065 L 1521 2059 L 1517 2056 L 1516 2052 L 1513 2050 L 1512 2044 L 1507 2041 L 1506 2038 L 1501 2033 L 1501 2030 L 1487 2012 L 1485 2006 L 1481 2004 L 1480 1999 L 1475 1994 L 1474 1990 L 1470 1988 L 1469 1982 L 1465 1979 L 1464 1975 L 1460 1973 L 1459 1968 L 1454 1963 L 1453 1959 L 1449 1956 L 1449 1954 L 1444 1948 L 1443 1944 L 1439 1941 L 1438 1935 L 1433 1931 L 1432 1927 L 1428 1924 L 1428 1920 L 1423 1915 L 1422 1912 L 1418 1909 L 1417 1904 L 1412 1900 L 1411 1896 L 1408 1894 L 1406 1889 L 1402 1885 L 1401 1881 L 1397 1878 L 1396 1873 L 1392 1870 L 1391 1866 L 1386 1862 L 1385 1858 L 1381 1854 L 1381 1851 L 1376 1847 L 1375 1842 L 1371 1838 L 1370 1834 L 1365 1830 L 1365 1826 L 1360 1822 L 1359 1818 L 1355 1815 L 1354 1810 L 1349 1805 L 1349 1803 L 1345 1800 L 1344 1796 L 1339 1791 L 1338 1787 L 1334 1784 L 1334 1782 L 1328 1772 L 1324 1769 L 1323 1764 L 1318 1759 L 1317 1755 L 1313 1752 L 1312 1747 L 1308 1744 L 1307 1740 L 1303 1737 L 1302 1731 L 1301 1730 Z
M 1460 1711 L 1458 1711 L 1455 1716 L 1456 1718 L 1460 1717 Z
M 1431 1672 L 1429 1675 L 1434 1680 L 1434 1674 L 1433 1672 Z
M 1407 1635 L 1406 1642 L 1410 1646 L 1413 1646 L 1412 1641 L 1408 1640 Z
M 1817 1616 L 1815 1618 L 1815 2183 L 1816 2184 L 1816 2193 L 1818 2191 L 1817 2188 L 1818 2183 L 1818 1618 Z
M 1758 1528 L 1761 1536 L 1765 1541 L 1765 1534 Z
M 1753 1523 L 1754 1527 L 1756 1527 L 1755 1523 Z
M 1314 1507 L 1319 1513 L 1318 1508 Z
M 1732 1491 L 1733 1495 L 1737 1499 L 1739 1499 L 1739 1496 L 1737 1496 Z
M 1287 1470 L 1293 1477 L 1291 1471 Z
M 1683 1417 L 1682 1419 L 1686 1421 L 1687 1420 L 1686 1417 L 1684 1418 Z
M 1225 1382 L 1229 1385 L 1230 1388 L 1233 1389 L 1233 1386 L 1231 1387 L 1227 1382 Z
M 1198 1340 L 1197 1344 L 1200 1346 L 1202 1344 L 1202 1341 Z
M 1607 1302 L 1606 1304 L 1608 1308 L 1613 1310 Z
M 1162 1293 L 1166 1296 L 1166 1298 L 1173 1305 L 1172 1300 L 1167 1297 L 1164 1293 Z
M 1854 1268 L 1857 1274 L 1857 1269 Z
M 1851 1259 L 1850 1266 L 1852 1267 L 1852 1260 Z
M 1910 1251 L 1908 1249 L 1906 1249 L 1901 1258 L 1906 1257 Z
M 1840 1243 L 1839 1250 L 1841 1255 L 1844 1259 L 1847 1259 L 1848 1258 L 1847 1254 L 1842 1249 L 1842 1246 Z
M 1830 1227 L 1829 1228 L 1829 1235 L 1833 1237 L 1835 1242 L 1837 1242 L 1836 1237 L 1832 1235 Z
M 1819 1213 L 1819 1219 L 1823 1222 L 1824 1226 L 1826 1227 L 1826 1223 L 1824 1220 L 1821 1219 L 1821 1215 Z
M 1108 1213 L 1109 1216 L 1113 1216 L 1109 1212 Z
M 1942 1201 L 1941 1205 L 1945 1206 L 1946 1203 Z
M 1820 1187 L 1819 1191 L 1821 1190 Z
M 1826 1181 L 1824 1182 L 1824 1187 L 1826 1186 Z
M 1831 1172 L 1829 1174 L 1830 1180 L 1832 1177 Z
M 1072 1160 L 1073 1167 L 1075 1169 L 1078 1169 L 1078 1164 L 1074 1163 Z
M 1848 1151 L 1845 1151 L 1846 1156 Z
M 1858 1135 L 1851 1142 L 1850 1150 L 1852 1149 L 1853 1145 L 1856 1144 L 1858 1140 Z
M 1994 1133 L 1993 1136 L 1989 1139 L 1988 1143 L 1983 1147 L 1982 1151 L 1978 1154 L 1977 1157 L 1978 1159 L 1995 1140 L 1996 1136 Z
M 1046 1123 L 1046 1127 L 1049 1127 Z
M 2022 1099 L 2019 1101 L 2019 1103 L 2016 1105 L 2016 1107 L 2022 1103 Z
M 1471 1099 L 1467 1097 L 1466 1103 L 1468 1103 Z
M 1888 1092 L 1886 1097 L 1881 1099 L 1882 1103 L 1884 1102 L 1886 1098 L 1889 1097 Z
M 1894 1084 L 1892 1084 L 1891 1087 L 1892 1091 L 1894 1089 Z
M 2037 1081 L 2031 1085 L 2030 1090 L 2037 1084 Z
M 1899 1077 L 1897 1078 L 1896 1083 L 1899 1082 L 1900 1079 Z
M 1451 1076 L 1450 1079 L 1452 1079 Z
M 1014 1076 L 1014 1080 L 1016 1080 L 1015 1076 Z
M 1008 1070 L 1009 1075 L 1011 1075 L 1011 1071 Z
M 1005 1066 L 1004 1069 L 1006 1070 Z
M 2046 1065 L 2046 1070 L 2047 1070 L 2048 1067 Z
M 1910 1062 L 1908 1062 L 1906 1067 L 1902 1070 L 1903 1076 L 1905 1073 L 1905 1069 L 1909 1067 Z
M 1441 1061 L 1441 1063 L 1443 1063 L 1445 1066 L 1445 1070 L 1447 1071 L 1447 1064 Z
M 1000 1055 L 998 1057 L 999 1059 L 1000 1059 Z
M 2057 1051 L 2056 1054 L 2058 1055 L 2058 1051 Z
M 1923 1046 L 1918 1047 L 1916 1052 L 1912 1057 L 1913 1061 L 1914 1061 L 1916 1056 L 1920 1053 L 1921 1048 Z
M 2064 1044 L 2062 1044 L 2061 1049 L 2064 1048 Z
M 2073 1034 L 2067 1039 L 2066 1042 L 2067 1044 L 2074 1036 Z
M 983 1034 L 983 1039 L 986 1039 L 988 1041 L 988 1043 L 990 1044 L 989 1039 L 987 1039 L 985 1035 Z
M 1947 1009 L 1944 1010 L 1945 1014 L 1947 1013 Z
M 1951 1004 L 1949 1006 L 1949 1009 L 1951 1008 Z
M 1960 988 L 1960 992 L 1962 993 L 1962 989 Z
M 952 987 L 951 993 L 959 1001 L 958 997 L 954 994 Z
M 1388 982 L 1387 983 L 1388 988 L 1391 988 L 1393 993 L 1394 993 L 1395 991 L 1394 986 L 1390 982 Z
M 941 973 L 940 976 L 941 979 L 948 986 L 948 982 L 943 978 L 943 975 Z
M 1977 967 L 1975 968 L 1975 972 L 1974 973 L 1971 972 L 1970 976 L 1965 980 L 1965 986 L 1967 985 L 1968 980 L 1973 977 L 1973 974 L 1975 972 L 1977 972 L 1978 969 Z
M 935 966 L 935 969 L 937 971 L 938 967 Z
M 931 961 L 931 965 L 933 965 L 933 963 Z
M 1983 957 L 1981 958 L 1981 962 L 1983 961 Z
M 2131 956 L 2129 960 L 2124 964 L 2124 967 L 2114 977 L 2113 981 L 2109 983 L 2108 987 L 2110 988 L 2116 983 L 2116 978 L 2118 976 L 2121 976 L 2122 972 L 2127 968 L 2128 965 L 2132 961 Z
M 2135 950 L 2134 954 L 2136 955 L 2137 953 Z
M 1363 947 L 1368 951 L 1367 947 Z
M 920 945 L 920 950 L 923 950 L 925 952 L 925 955 L 927 955 L 927 951 L 924 950 L 923 947 Z
M 2147 936 L 2146 936 L 2145 940 L 2147 940 Z
M 2153 929 L 2150 930 L 2151 935 L 2153 933 Z
M 2009 920 L 2007 921 L 2007 925 L 2009 925 L 2010 922 Z
M 2163 916 L 2161 917 L 2160 921 L 2156 924 L 2156 928 L 2163 921 Z
M 1340 910 L 1340 914 L 1342 915 L 1343 911 Z
M 2168 908 L 2167 908 L 2166 913 L 2168 913 Z
M 1335 904 L 1335 908 L 1337 910 L 1338 906 L 1337 904 Z
M 2024 899 L 2023 900 L 2024 904 L 2025 902 Z
M 889 898 L 888 899 L 889 906 L 891 906 L 893 908 L 894 912 L 896 913 L 897 911 L 892 906 Z
M 2178 895 L 2176 897 L 2176 901 L 2171 903 L 2172 908 L 2174 903 L 2179 899 Z
M 2183 888 L 2181 891 L 2182 893 L 2184 893 Z
M 878 885 L 878 890 L 882 892 L 883 896 L 885 898 L 886 897 L 885 893 L 881 890 L 880 886 Z
M 2189 882 L 2187 883 L 2186 886 L 2187 888 L 2189 887 Z
M 2038 880 L 2033 882 L 2034 889 Z
M 873 877 L 872 879 L 875 882 L 875 878 Z
M 868 868 L 867 874 L 869 876 L 870 870 Z
M 2204 862 L 2202 867 L 2198 868 L 2197 875 L 2193 876 L 2192 881 L 2194 880 L 2197 875 L 2200 874 L 2201 871 L 2205 867 Z
M 863 861 L 862 865 L 864 866 L 864 861 Z
M 2211 855 L 2208 856 L 2207 861 L 2210 860 Z
M 854 854 L 853 856 L 854 859 L 856 861 L 859 861 L 860 860 L 859 856 L 857 854 Z
M 1300 852 L 1300 855 L 1303 857 L 1304 862 L 1305 862 L 1306 856 Z
M 2215 850 L 2213 852 L 2213 855 L 2215 854 Z
M 2064 842 L 2059 845 L 2060 851 L 2061 851 L 2062 846 L 2065 844 Z
M 2225 835 L 2223 839 L 2224 840 L 2226 839 Z
M 1287 832 L 1288 838 L 1290 840 L 1290 833 Z
M 1283 826 L 1283 831 L 1285 831 L 1285 827 Z
M 2236 822 L 2234 823 L 2234 825 L 2236 825 Z
M 1278 817 L 1277 821 L 1279 824 L 1280 818 Z
M 2241 816 L 2239 817 L 2239 820 L 2241 820 L 2242 818 Z
M 826 810 L 825 814 L 831 823 L 833 824 L 834 823 L 833 818 Z
M 2257 796 L 2255 796 L 2254 800 L 2249 803 L 2249 807 L 2247 809 L 2245 809 L 2244 815 L 2247 813 L 2247 811 L 2249 809 L 2252 808 L 2253 803 L 2257 800 Z
M 816 795 L 815 801 L 819 803 L 822 809 L 823 805 L 818 801 L 818 798 Z
M 1263 794 L 1262 800 L 1264 799 Z
M 2263 789 L 2261 789 L 2259 791 L 2259 794 L 2263 793 Z
M 810 788 L 810 793 L 812 793 L 812 789 Z
M 2103 786 L 2096 792 L 2097 798 L 2099 793 L 2101 792 Z
M 2267 783 L 2265 785 L 2265 788 L 2267 788 Z
M 804 782 L 805 787 L 807 788 L 807 784 L 806 782 Z
M 1251 779 L 1251 783 L 1252 785 L 1254 785 L 1254 780 Z
M 800 773 L 799 778 L 802 781 L 802 776 Z
M 2278 769 L 2276 770 L 2276 773 L 2278 773 Z
M 2284 763 L 2281 764 L 2281 768 L 2283 767 Z
M 790 762 L 790 766 L 794 769 L 795 772 L 797 772 L 796 767 Z
M 2289 756 L 2286 757 L 2286 762 L 2288 762 Z
M 2124 753 L 2122 754 L 2122 758 L 2125 755 Z
M 2293 749 L 2291 750 L 2292 756 L 2294 753 Z
M 2304 736 L 2296 745 L 2297 747 L 2300 747 L 2305 740 Z
M 1221 733 L 1220 737 L 1225 741 L 1225 745 L 1227 748 L 1228 741 Z
M 763 722 L 762 725 L 763 729 L 770 736 L 771 732 L 766 727 L 765 723 Z
M 2320 717 L 2318 717 L 2317 721 L 2312 724 L 2312 729 L 2307 731 L 2307 735 L 2309 735 L 2310 731 L 2315 728 L 2316 725 L 2320 721 Z
M 2152 713 L 2150 713 L 2148 716 L 2149 720 L 2150 720 Z
M 1205 711 L 1205 716 L 1206 716 L 1207 713 Z
M 2325 710 L 2323 711 L 2322 714 L 2323 715 L 2325 715 Z
M 753 707 L 752 708 L 753 714 L 755 714 L 757 716 L 758 720 L 760 720 L 760 715 L 758 715 L 755 712 L 755 709 Z
M 748 699 L 747 703 L 749 704 Z
M 1194 695 L 1194 700 L 1198 702 L 1200 709 L 1202 707 L 1202 703 L 1201 701 L 1198 701 L 1196 696 Z
M 2340 690 L 2338 692 L 2339 695 L 2341 694 Z
M 1189 686 L 1189 690 L 1190 690 L 1191 687 Z
M 737 684 L 736 689 L 742 698 L 744 699 L 745 693 L 740 689 Z
M 1184 679 L 1183 682 L 1185 685 L 1186 680 Z
M 2179 675 L 2176 675 L 2171 682 L 2173 682 L 2176 678 L 2178 678 Z
M 727 672 L 726 674 L 727 678 L 729 678 L 732 683 L 734 683 L 734 679 L 730 677 Z
M 1173 664 L 1173 669 L 1175 670 L 1176 669 L 1179 675 L 1180 670 L 1176 668 L 1175 664 Z
M 2367 659 L 2360 665 L 2359 671 L 2354 673 L 2354 675 L 2349 679 L 2348 683 L 2344 685 L 2343 689 L 2346 689 L 2346 685 L 2348 683 L 2350 684 L 2351 681 L 2354 678 L 2356 678 L 2358 672 L 2361 671 L 2367 664 Z
M 718 658 L 716 659 L 716 662 L 718 662 Z
M 2372 653 L 2369 657 L 2370 658 L 2372 657 Z
M 2378 647 L 2375 648 L 2374 652 L 2377 652 Z
M 2381 641 L 2380 646 L 2382 645 Z
M 2388 634 L 2385 635 L 2386 638 L 2388 637 Z
M 2205 634 L 2202 634 L 2200 636 L 2201 641 L 2202 641 Z
M 2393 628 L 2391 629 L 2391 632 L 2393 631 Z
M 695 627 L 695 633 L 699 637 L 700 641 L 703 642 L 706 647 L 708 647 L 707 642 L 703 639 L 702 634 L 699 633 Z
M 2398 622 L 2396 623 L 2396 626 L 2398 626 Z
M 689 621 L 690 626 L 691 627 L 693 626 L 692 621 Z
M 1142 617 L 1141 618 L 1142 622 L 1146 625 L 1148 632 L 1150 632 L 1152 630 L 1151 627 Z
M 2403 616 L 2401 618 L 2401 621 L 2403 620 Z
M 685 615 L 685 620 L 687 620 L 686 615 Z
M 1132 601 L 1131 606 L 1136 608 L 1136 613 L 1138 617 L 1139 610 L 1134 606 Z
M 675 600 L 674 604 L 676 605 L 676 600 Z
M 2419 596 L 2417 597 L 2416 601 L 2413 605 L 2415 605 L 2419 602 L 2420 599 Z
M 2434 580 L 2428 585 L 2427 590 L 2430 590 L 2435 584 Z
M 1116 580 L 1115 581 L 1116 586 L 1118 586 L 1120 588 L 1120 590 L 1125 594 L 1125 597 L 1128 601 L 1129 598 L 1128 593 L 1124 590 L 1121 585 L 1118 584 L 1118 581 Z
M 658 578 L 658 584 L 663 590 L 666 590 L 665 584 L 663 584 L 661 582 L 661 580 Z
M 2238 571 L 2238 573 L 2241 572 L 2241 571 Z
M 653 571 L 653 576 L 656 577 L 656 573 L 655 571 Z
M 1110 570 L 1110 574 L 1112 575 L 1112 571 Z
M 648 564 L 648 569 L 650 569 L 651 567 Z
M 2450 561 L 2448 562 L 2448 567 L 2443 568 L 2443 571 L 2439 574 L 2445 572 L 2446 569 L 2451 564 Z
M 2456 555 L 2453 556 L 2453 559 L 2456 558 Z
M 2461 549 L 2458 551 L 2459 554 L 2461 553 Z
M 638 549 L 637 555 L 642 559 L 643 563 L 646 563 L 645 558 L 643 557 L 642 558 L 640 556 L 640 551 Z
M 2254 544 L 2252 549 L 2255 546 Z
M 2466 543 L 2463 546 L 2463 548 L 2466 548 Z
M 1084 533 L 1083 536 L 1085 539 L 1087 539 L 1087 535 Z
M 622 529 L 621 531 L 622 536 L 625 537 L 627 542 L 631 543 L 632 547 L 634 548 L 635 547 L 634 543 L 630 541 L 629 537 L 625 535 L 624 530 Z
M 1074 518 L 1074 522 L 1075 522 L 1076 519 Z
M 2265 504 L 2263 507 L 2264 516 L 2267 510 L 2267 505 Z
M 1062 502 L 1063 507 L 1067 509 L 1069 517 L 1071 517 L 1070 509 L 1068 509 L 1066 507 L 1065 502 Z
M 2507 497 L 2505 499 L 2505 501 L 2508 501 Z
M 596 495 L 595 496 L 596 500 L 598 500 Z
M 2512 492 L 2510 494 L 2511 496 L 2513 495 Z
M 2518 487 L 2515 490 L 2517 491 Z
M 1052 486 L 1052 490 L 1057 494 L 1058 501 L 1060 502 L 1061 496 L 1059 493 L 1056 492 L 1055 487 Z
M 2528 476 L 2524 481 L 2521 482 L 2520 486 L 2522 486 L 2524 484 L 2525 480 L 2528 480 L 2529 478 Z
M 2534 470 L 2530 475 L 2534 474 Z
M 1043 467 L 1042 474 L 1047 479 L 1049 486 L 1050 485 L 1050 478 L 1048 473 Z
M 558 452 L 559 459 L 562 463 L 569 466 L 569 469 L 574 476 L 592 494 L 592 490 L 588 488 L 588 484 L 583 480 L 582 476 L 567 461 L 566 458 L 563 457 L 561 453 Z
M 2560 444 L 2554 448 L 2553 452 L 2549 453 L 2548 456 L 2543 459 L 2542 462 L 2539 464 L 2536 469 L 2539 468 L 2540 464 L 2545 464 L 2549 460 L 2549 456 L 2556 449 L 2560 448 Z
M 549 443 L 550 446 L 556 452 L 555 447 L 553 447 Z
M 1031 436 L 1031 446 L 1032 449 L 1034 450 L 1037 446 L 1034 441 L 1034 437 Z
M 2250 436 L 2251 437 L 2260 436 L 2264 441 L 2264 446 L 2267 445 L 2265 435 L 2263 432 L 2259 431 L 2255 436 L 2253 435 Z
M 2575 430 L 2572 432 L 2574 433 Z
M 533 427 L 536 432 L 539 432 L 536 431 L 535 428 Z
M 2586 419 L 2583 421 L 2584 423 L 2586 422 Z
M 2591 415 L 2589 415 L 2587 417 L 2591 417 Z
M 517 415 L 517 418 L 523 423 L 528 422 L 523 416 Z
M 2249 409 L 2253 415 L 2255 416 L 2254 412 Z
M 503 404 L 503 406 L 506 407 L 509 412 L 515 412 L 514 410 L 509 409 L 507 405 Z
M 2237 393 L 2237 397 L 2241 401 L 2244 401 L 2243 395 Z
M 2217 379 L 2223 385 L 2226 385 L 2222 381 L 2222 379 Z
M 460 379 L 462 381 L 465 381 L 467 383 L 467 385 L 469 386 L 475 385 L 467 382 L 463 378 Z
M 446 373 L 449 376 L 453 375 L 450 372 Z
M 2203 371 L 2203 375 L 2210 375 L 2205 371 Z
M 1054 368 L 1049 369 L 1048 372 L 1043 374 L 1042 378 L 1038 380 L 1037 388 L 1035 390 L 1033 390 L 1031 395 L 1031 405 L 1029 410 L 1033 409 L 1034 400 L 1038 393 L 1040 381 L 1043 380 L 1052 370 L 1054 370 Z
M 436 368 L 437 370 L 444 370 L 439 367 Z
M 2192 367 L 2193 370 L 2198 371 L 2201 370 L 2195 366 Z
M 2182 362 L 2183 365 L 2190 365 L 2188 363 Z
M 425 364 L 432 365 L 431 363 L 427 362 Z
M 2170 358 L 2171 360 L 2178 360 L 2179 359 L 2176 357 Z
M 409 357 L 411 360 L 416 359 L 412 356 Z
M 1080 353 L 1076 353 L 1074 356 L 1072 355 L 1065 359 L 1073 360 L 1074 356 L 1078 355 Z
M 2159 353 L 2163 354 L 2161 352 Z
M 2673 347 L 2669 348 L 2666 353 L 2661 355 L 2656 359 L 2657 360 L 2662 359 Z
M 1105 345 L 1104 344 L 1099 347 L 1093 348 L 1094 349 L 1101 349 L 1105 348 Z
M 2118 342 L 2119 344 L 2125 344 L 2130 348 L 2140 349 L 2140 347 L 2138 347 L 2130 342 L 2125 341 Z
M 1116 342 L 1112 341 L 1107 344 L 1115 344 Z
M 358 342 L 358 344 L 364 344 L 369 348 L 373 348 L 373 344 L 361 341 Z
M 2066 334 L 2067 338 L 2075 338 L 2076 339 L 2078 338 L 2074 332 L 2070 332 Z
M 294 332 L 296 334 L 310 334 L 312 333 L 308 331 Z
M 1184 304 L 1183 315 L 1185 317 L 1186 314 L 1185 308 L 1186 307 Z
M 282 304 L 277 306 L 278 311 L 283 311 Z
M 2708 296 L 2053 296 L 2050 298 L 2048 318 L 2052 324 L 2068 325 L 2073 327 L 2088 328 L 2096 330 L 2109 330 L 2121 334 L 2135 336 L 2143 340 L 2152 341 L 2160 345 L 2166 346 L 2175 351 L 2183 353 L 2187 356 L 2194 358 L 2197 361 L 2202 362 L 2210 367 L 2215 368 L 2217 371 L 2222 373 L 2226 377 L 2230 378 L 2233 382 L 2236 383 L 2248 393 L 2265 416 L 2270 427 L 2270 431 L 2275 440 L 2275 447 L 2277 451 L 2277 458 L 2280 470 L 2280 483 L 2277 492 L 2275 511 L 2270 523 L 2268 533 L 2265 538 L 2264 543 L 2260 549 L 2260 552 L 2256 559 L 2256 562 L 2245 580 L 2239 594 L 2235 598 L 2229 611 L 2225 615 L 2218 628 L 2210 638 L 2207 645 L 2204 648 L 2204 650 L 2200 654 L 2197 661 L 2183 680 L 2183 682 L 2178 688 L 2176 693 L 2174 694 L 2166 708 L 2157 719 L 2155 724 L 2147 734 L 2144 740 L 2137 748 L 2130 761 L 2126 764 L 2120 776 L 2116 779 L 2110 789 L 2110 791 L 2106 794 L 2101 801 L 2098 808 L 2095 810 L 2088 822 L 2074 840 L 2073 844 L 2068 848 L 2068 850 L 2065 853 L 2062 860 L 2054 868 L 2051 875 L 2042 885 L 2037 895 L 2032 900 L 2026 911 L 2021 916 L 2014 928 L 2006 937 L 2000 948 L 1996 951 L 1991 959 L 1990 963 L 1981 972 L 1977 980 L 1965 995 L 1963 1001 L 1958 1005 L 1952 1016 L 1949 1018 L 1948 1021 L 1943 1026 L 1942 1031 L 1932 1042 L 1931 1046 L 1918 1062 L 1915 1069 L 1907 1077 L 1900 1090 L 1896 1093 L 1895 1096 L 1891 1100 L 1890 1104 L 1880 1115 L 1878 1121 L 1870 1130 L 1864 1141 L 1860 1144 L 1854 1153 L 1853 1157 L 1844 1166 L 1838 1178 L 1833 1182 L 1832 1185 L 1828 1189 L 1827 1193 L 1825 1195 L 1823 1195 L 1822 1197 L 1822 1209 L 1823 1211 L 1832 1220 L 1834 1227 L 1837 1229 L 1839 1234 L 1843 1237 L 1844 1242 L 1848 1246 L 1849 1249 L 1852 1251 L 1854 1257 L 1859 1262 L 1859 1264 L 1864 1269 L 1865 1274 L 1869 1278 L 1876 1278 L 1882 1273 L 1893 1256 L 1897 1253 L 1909 1235 L 1917 1227 L 1924 1215 L 1929 1211 L 1940 1194 L 1944 1191 L 1950 1183 L 1955 1174 L 1965 1164 L 1972 1153 L 1992 1128 L 1992 1126 L 2002 1116 L 2008 1105 L 2018 1095 L 2024 1085 L 2033 1076 L 2040 1064 L 2055 1047 L 2060 1038 L 2070 1028 L 2071 1025 L 2075 1021 L 2076 1017 L 2080 1014 L 2081 1011 L 2091 1000 L 2092 997 L 2101 986 L 2106 982 L 2107 979 L 2112 974 L 2114 969 L 2122 961 L 2133 944 L 2143 934 L 2149 923 L 2159 913 L 2170 896 L 2179 888 L 2186 876 L 2195 867 L 2196 864 L 2200 861 L 2206 850 L 2211 846 L 2212 843 L 2222 832 L 2222 830 L 2232 820 L 2233 817 L 2237 814 L 2248 797 L 2258 787 L 2264 777 L 2273 768 L 2285 750 L 2289 747 L 2300 734 L 2300 732 L 2305 727 L 2306 724 L 2310 721 L 2311 718 L 2321 708 L 2327 697 L 2330 696 L 2332 692 L 2337 688 L 2347 675 L 2348 672 L 2368 651 L 2374 641 L 2388 627 L 2390 623 L 2400 612 L 2401 609 L 2404 607 L 2405 604 L 2409 601 L 2432 573 L 2436 570 L 2442 561 L 2445 560 L 2447 556 L 2456 548 L 2464 537 L 2473 528 L 2474 525 L 2477 523 L 2478 520 L 2482 518 L 2483 515 L 2493 506 L 2502 495 L 2560 435 L 2568 429 L 2593 404 L 2596 403 L 2605 393 L 2608 392 L 2611 388 L 2631 372 L 2634 368 L 2645 361 L 2647 358 L 2651 356 L 2662 346 L 2664 346 L 2688 326 L 2693 324 L 2708 313 L 2710 309 L 2710 299 Z
M 292 296 L 290 298 L 290 320 L 293 324 L 317 325 L 321 327 L 331 328 L 337 330 L 348 330 L 365 335 L 375 336 L 384 340 L 407 346 L 414 350 L 420 351 L 429 356 L 447 363 L 453 367 L 458 368 L 463 372 L 481 382 L 483 382 L 489 387 L 495 389 L 503 395 L 505 398 L 517 405 L 519 408 L 540 424 L 558 442 L 559 445 L 567 452 L 568 455 L 577 464 L 585 475 L 589 478 L 590 481 L 594 484 L 595 487 L 598 489 L 619 515 L 625 525 L 631 531 L 636 540 L 641 545 L 641 547 L 646 551 L 652 562 L 662 572 L 668 583 L 678 594 L 689 611 L 693 614 L 699 625 L 708 635 L 710 640 L 716 648 L 719 650 L 731 669 L 735 671 L 740 681 L 751 694 L 752 698 L 756 702 L 757 705 L 761 708 L 768 721 L 775 728 L 782 740 L 787 744 L 789 749 L 798 760 L 804 771 L 808 775 L 819 792 L 828 802 L 830 807 L 836 815 L 840 818 L 842 824 L 850 833 L 857 845 L 866 855 L 867 859 L 873 868 L 877 871 L 877 873 L 882 881 L 891 891 L 898 903 L 902 906 L 908 917 L 917 927 L 923 938 L 928 943 L 931 950 L 939 959 L 941 964 L 953 979 L 961 992 L 965 995 L 972 1007 L 979 1015 L 983 1023 L 990 1031 L 994 1039 L 1002 1048 L 1008 1059 L 1012 1063 L 1024 1081 L 1028 1084 L 1038 1100 L 1044 1106 L 1049 1116 L 1054 1121 L 1059 1130 L 1069 1142 L 1076 1154 L 1080 1157 L 1082 1162 L 1105 1193 L 1112 1205 L 1132 1230 L 1154 1264 L 1157 1266 L 1158 1269 L 1162 1273 L 1164 1278 L 1168 1282 L 1174 1293 L 1178 1297 L 1180 1302 L 1182 1303 L 1200 1330 L 1206 1336 L 1212 1346 L 1214 1347 L 1216 1352 L 1236 1379 L 1237 1383 L 1242 1387 L 1242 1389 L 1245 1392 L 1247 1397 L 1252 1402 L 1258 1413 L 1273 1432 L 1274 1436 L 1279 1440 L 1279 1442 L 1284 1448 L 1284 1451 L 1293 1460 L 1295 1466 L 1309 1484 L 1311 1490 L 1315 1493 L 1315 1495 L 1320 1500 L 1321 1504 L 1326 1508 L 1326 1510 L 1330 1514 L 1331 1518 L 1336 1523 L 1336 1525 L 1340 1528 L 1342 1534 L 1346 1538 L 1348 1543 L 1351 1545 L 1353 1550 L 1357 1554 L 1358 1558 L 1362 1561 L 1363 1564 L 1367 1568 L 1368 1572 L 1373 1576 L 1373 1578 L 1377 1582 L 1379 1588 L 1383 1591 L 1384 1595 L 1388 1598 L 1389 1603 L 1398 1612 L 1399 1617 L 1404 1622 L 1405 1626 L 1409 1628 L 1410 1633 L 1414 1636 L 1415 1641 L 1419 1643 L 1420 1647 L 1425 1653 L 1425 1656 L 1430 1659 L 1431 1663 L 1435 1667 L 1435 1670 L 1440 1674 L 1442 1679 L 1445 1681 L 1446 1686 L 1451 1690 L 1452 1694 L 1456 1697 L 1457 1702 L 1461 1705 L 1462 1709 L 1466 1711 L 1467 1716 L 1471 1720 L 1472 1724 L 1477 1727 L 1483 1740 L 1488 1744 L 1488 1746 L 1492 1750 L 1493 1755 L 1495 1757 L 1497 1757 L 1499 1762 L 1503 1765 L 1504 1771 L 1513 1780 L 1514 1786 L 1519 1790 L 1519 1792 L 1524 1797 L 1524 1801 L 1529 1805 L 1530 1808 L 1534 1812 L 1535 1817 L 1540 1821 L 1541 1825 L 1543 1825 L 1545 1827 L 1546 1832 L 1550 1836 L 1551 1840 L 1555 1842 L 1556 1847 L 1560 1851 L 1562 1856 L 1566 1858 L 1567 1863 L 1571 1867 L 1572 1871 L 1576 1873 L 1577 1877 L 1581 1881 L 1582 1886 L 1587 1889 L 1588 1893 L 1592 1897 L 1592 1901 L 1598 1906 L 1603 1917 L 1612 1926 L 1614 1933 L 1623 1942 L 1624 1947 L 1628 1951 L 1629 1954 L 1633 1957 L 1635 1964 L 1639 1967 L 1640 1971 L 1644 1973 L 1645 1979 L 1649 1982 L 1650 1986 L 1655 1990 L 1655 1993 L 1660 1998 L 1661 2002 L 1665 2004 L 1666 2008 L 1670 2012 L 1671 2017 L 1676 2020 L 1677 2024 L 1681 2029 L 1681 2032 L 1686 2035 L 1688 2041 L 1691 2044 L 1692 2048 L 1696 2051 L 1697 2055 L 1701 2059 L 1703 2065 L 1707 2067 L 1712 2075 L 1712 2078 L 1717 2082 L 1718 2085 L 1722 2089 L 1723 2094 L 1728 2098 L 1729 2102 L 1732 2104 L 1734 2111 L 1743 2120 L 1744 2126 L 1754 2136 L 1755 2141 L 1759 2144 L 1760 2148 L 1765 2151 L 1770 2163 L 1775 2167 L 1776 2171 L 1780 2175 L 1781 2179 L 1786 2183 L 1792 2194 L 1796 2197 L 1796 2199 L 1801 2202 L 1806 2201 L 1808 2199 L 1808 2192 L 1807 2191 L 1807 1616 L 1805 1611 L 1800 1606 L 1794 1597 L 1794 1595 L 1785 1584 L 1783 1578 L 1779 1575 L 1777 1570 L 1774 1567 L 1773 1563 L 1769 1560 L 1761 1546 L 1758 1544 L 1752 1535 L 1752 1533 L 1737 1513 L 1736 1509 L 1732 1505 L 1726 1494 L 1722 1491 L 1720 1486 L 1711 1475 L 1710 1471 L 1706 1467 L 1704 1462 L 1701 1460 L 1699 1454 L 1690 1443 L 1689 1439 L 1679 1426 L 1678 1422 L 1674 1418 L 1673 1415 L 1670 1413 L 1668 1407 L 1664 1404 L 1663 1400 L 1659 1397 L 1658 1393 L 1654 1389 L 1652 1384 L 1648 1381 L 1647 1377 L 1642 1372 L 1641 1368 L 1637 1365 L 1637 1363 L 1632 1358 L 1631 1353 L 1627 1350 L 1626 1346 L 1617 1334 L 1615 1328 L 1606 1317 L 1605 1312 L 1601 1309 L 1601 1307 L 1596 1302 L 1595 1297 L 1586 1288 L 1584 1282 L 1580 1278 L 1579 1274 L 1575 1272 L 1574 1268 L 1570 1264 L 1569 1259 L 1565 1257 L 1563 1252 L 1559 1248 L 1558 1244 L 1554 1241 L 1553 1238 L 1549 1234 L 1548 1229 L 1543 1225 L 1542 1221 L 1538 1217 L 1537 1212 L 1533 1210 L 1532 1206 L 1528 1202 L 1527 1196 L 1524 1195 L 1522 1193 L 1521 1189 L 1518 1187 L 1517 1181 L 1512 1178 L 1512 1176 L 1507 1170 L 1506 1166 L 1501 1162 L 1500 1159 L 1496 1155 L 1496 1151 L 1491 1147 L 1490 1144 L 1486 1140 L 1485 1135 L 1480 1131 L 1480 1129 L 1475 1124 L 1474 1119 L 1470 1116 L 1469 1112 L 1465 1109 L 1464 1104 L 1459 1100 L 1458 1096 L 1455 1095 L 1453 1088 L 1449 1085 L 1448 1081 L 1444 1078 L 1443 1073 L 1438 1068 L 1438 1066 L 1434 1063 L 1432 1056 L 1428 1053 L 1427 1049 L 1425 1049 L 1423 1047 L 1422 1043 L 1418 1039 L 1417 1035 L 1412 1031 L 1411 1027 L 1407 1023 L 1407 1020 L 1402 1016 L 1401 1012 L 1397 1008 L 1396 1003 L 1391 1000 L 1390 996 L 1386 992 L 1386 989 L 1381 985 L 1380 981 L 1376 978 L 1375 973 L 1371 970 L 1369 965 L 1365 962 L 1364 957 L 1360 954 L 1359 950 L 1355 947 L 1354 941 L 1345 932 L 1344 926 L 1339 922 L 1339 920 L 1334 915 L 1333 911 L 1329 907 L 1328 904 L 1324 901 L 1323 896 L 1318 891 L 1317 887 L 1315 887 L 1313 885 L 1312 880 L 1308 876 L 1307 873 L 1302 869 L 1301 865 L 1297 861 L 1297 858 L 1292 854 L 1291 850 L 1287 846 L 1286 841 L 1282 839 L 1280 833 L 1278 832 L 1276 826 L 1272 823 L 1270 817 L 1266 813 L 1265 809 L 1261 807 L 1260 802 L 1256 798 L 1254 793 L 1251 792 L 1249 787 L 1246 785 L 1245 780 L 1240 776 L 1239 773 L 1235 769 L 1234 764 L 1229 760 L 1228 756 L 1225 754 L 1223 747 L 1220 746 L 1218 741 L 1214 738 L 1213 734 L 1209 730 L 1207 725 L 1203 722 L 1203 720 L 1198 714 L 1197 710 L 1193 707 L 1192 703 L 1188 699 L 1187 695 L 1183 692 L 1181 686 L 1177 682 L 1176 679 L 1173 677 L 1171 672 L 1167 668 L 1166 664 L 1162 661 L 1156 652 L 1156 649 L 1152 646 L 1151 643 L 1146 638 L 1145 633 L 1136 623 L 1135 618 L 1130 614 L 1129 610 L 1126 608 L 1123 601 L 1120 599 L 1119 596 L 1115 592 L 1109 583 L 1109 581 L 1099 569 L 1098 565 L 1094 562 L 1093 559 L 1089 555 L 1088 551 L 1083 546 L 1072 528 L 1068 524 L 1066 519 L 1057 508 L 1056 504 L 1052 500 L 1050 495 L 1048 494 L 1046 489 L 1037 476 L 1036 471 L 1031 464 L 1030 457 L 1026 452 L 1025 441 L 1023 438 L 1020 427 L 1020 414 L 1022 405 L 1025 400 L 1025 394 L 1027 388 L 1030 386 L 1032 379 L 1035 377 L 1037 373 L 1056 357 L 1060 356 L 1067 351 L 1088 341 L 1126 330 L 1137 330 L 1149 327 L 1156 327 L 1161 325 L 1173 324 L 1177 317 L 1177 302 L 1175 297 L 1173 296 Z
M 2618 288 L 2619 289 L 2628 289 L 2629 288 L 2627 287 L 2619 287 Z
M 2492 288 L 2493 289 L 2513 289 L 2514 288 L 2512 287 L 2494 287 Z
M 2403 288 L 2404 289 L 2424 289 L 2425 288 L 2424 287 L 2405 287 Z
M 2257 288 L 2258 289 L 2309 289 L 2310 288 L 2308 287 L 2259 287 Z
M 2168 288 L 2169 289 L 2189 289 L 2190 288 L 2188 287 L 2170 287 Z
M 2069 288 L 2070 289 L 2100 289 L 2101 288 L 2099 287 L 2071 287 Z
M 1112 288 L 1113 289 L 1128 289 L 1129 288 L 1127 287 L 1114 287 Z
M 903 288 L 904 289 L 924 289 L 925 288 L 924 287 L 905 287 Z
M 642 288 L 643 289 L 652 289 L 653 288 L 651 287 Z
M 538 288 L 539 289 L 553 289 L 554 288 L 552 287 L 539 287 Z
M 475 288 L 476 289 L 532 289 L 533 288 L 531 287 L 476 287 Z
M 339 288 L 340 289 L 370 289 L 371 288 L 370 287 L 341 287 Z" fill="#000000" fill-rule="evenodd"/>
</svg>
