<?xml version="1.0" encoding="UTF-8"?>
<svg xmlns="http://www.w3.org/2000/svg" width="4000px" height="1611px" viewBox="0 0 4000 1611" role="img" aria-labelledby="title">
<title>YongAI logo</title>
<path d="M 3088 976 L 3085 975 L 3085 977 L 3081 980 L 3081 982 L 3084 981 Z
M 717 923 L 716 924 L 716 1262 L 715 1268 L 711 1280 L 710 1291 L 707 1296 L 707 1301 L 696 1320 L 693 1322 L 687 1330 L 671 1342 L 666 1343 L 663 1346 L 658 1348 L 654 1348 L 648 1351 L 640 1352 L 638 1354 L 637 1358 L 638 1368 L 643 1370 L 646 1369 L 662 1369 L 663 1370 L 821 1370 L 822 1369 L 848 1369 L 849 1370 L 900 1370 L 901 1369 L 909 1369 L 910 1370 L 939 1370 L 940 1369 L 1030 1370 L 1031 1369 L 1039 1369 L 1043 1370 L 1050 1368 L 1052 1361 L 1050 1353 L 1045 1351 L 1041 1351 L 1035 1348 L 1027 1347 L 1022 1343 L 1017 1342 L 999 1329 L 984 1314 L 983 1311 L 974 1301 L 970 1295 L 969 1291 L 961 1281 L 960 1277 L 952 1267 L 951 1263 L 946 1258 L 942 1250 L 937 1245 L 932 1235 L 929 1233 L 925 1227 L 924 1223 L 916 1213 L 914 1207 L 911 1206 L 909 1201 L 906 1198 L 905 1194 L 901 1191 L 897 1185 L 896 1181 L 892 1178 L 888 1172 L 887 1168 L 879 1158 L 878 1154 L 874 1151 L 873 1147 L 870 1145 L 869 1141 L 861 1131 L 860 1127 L 856 1124 L 855 1120 L 852 1118 L 851 1114 L 846 1109 L 842 1103 L 841 1099 L 838 1097 L 837 1094 L 833 1090 L 832 1086 L 824 1076 L 823 1072 L 820 1070 L 819 1067 L 814 1062 L 814 1060 L 809 1052 L 806 1050 L 804 1045 L 801 1042 L 801 1040 L 796 1035 L 791 1025 L 787 1021 L 783 1013 L 778 1008 L 773 998 L 769 995 L 764 985 L 759 980 L 755 971 L 750 966 L 750 964 L 742 954 L 740 949 L 737 946 L 737 944 L 733 941 L 727 929 L 722 923 Z
M 2568 891 L 2569 894 L 2571 895 L 2572 893 Z
M 2190 844 L 2227 844 L 2233 848 L 2240 849 L 2245 853 L 2247 853 L 2257 861 L 2266 871 L 2269 878 L 2271 879 L 2276 890 L 2276 894 L 2280 907 L 2281 935 L 2279 945 L 2276 952 L 2275 960 L 2266 977 L 2257 987 L 2246 996 L 2243 996 L 2236 1001 L 2232 1001 L 2220 1005 L 2195 1005 L 2178 1000 L 2175 997 L 2169 995 L 2153 980 L 2147 972 L 2147 969 L 2143 964 L 2142 957 L 2138 949 L 2138 938 L 2136 932 L 2136 918 L 2138 911 L 2138 901 L 2142 892 L 2143 886 L 2152 870 L 2163 858 L 2165 858 L 2169 854 L 2178 849 L 2185 848 Z
M 3724 818 L 3721 821 L 3721 993 L 3720 994 L 3721 1025 L 3723 1029 L 3727 1031 L 3752 1031 L 3757 1027 L 3758 1024 L 3758 824 L 3757 821 L 3753 818 Z
M 3405 819 L 3403 822 L 3403 825 L 3400 829 L 3399 834 L 3395 840 L 3394 847 L 3390 853 L 3390 858 L 3386 862 L 3385 868 L 3376 885 L 3376 889 L 3372 895 L 3372 899 L 3368 903 L 3366 912 L 3362 919 L 3362 922 L 3358 928 L 3357 934 L 3349 949 L 3348 955 L 3344 961 L 3344 965 L 3340 971 L 3339 977 L 3331 992 L 3330 998 L 3319 1022 L 3318 1026 L 3319 1029 L 3322 1031 L 3350 1031 L 3354 1029 L 3358 1018 L 3361 1014 L 3362 1007 L 3365 1003 L 3366 998 L 3374 983 L 3376 975 L 3379 971 L 3380 964 L 3384 959 L 3384 955 L 3388 949 L 3390 940 L 3393 936 L 3394 930 L 3398 923 L 3398 920 L 3402 915 L 3403 909 L 3407 902 L 3407 898 L 3411 892 L 3412 886 L 3415 882 L 3416 876 L 3419 871 L 3419 866 L 3421 864 L 3423 873 L 3425 875 L 3428 886 L 3431 891 L 3431 895 L 3436 902 L 3436 906 L 3439 910 L 3439 914 L 3443 921 L 3446 933 L 3449 937 L 3449 941 L 3453 946 L 3454 953 L 3457 957 L 3458 962 L 3462 969 L 3464 978 L 3468 985 L 3468 988 L 3472 993 L 3472 998 L 3475 1002 L 3476 1008 L 3480 1015 L 3483 1025 L 3488 1030 L 3491 1031 L 3515 1031 L 3518 1030 L 3520 1028 L 3521 1022 L 3516 1014 L 3516 1010 L 3512 1004 L 3511 997 L 3508 994 L 3507 988 L 3503 981 L 3502 975 L 3498 969 L 3497 964 L 3494 960 L 3493 953 L 3491 951 L 3487 939 L 3485 937 L 3484 931 L 3480 926 L 3479 920 L 3476 916 L 3476 912 L 3466 890 L 3466 886 L 3461 879 L 3457 865 L 3452 857 L 3448 843 L 3444 838 L 3443 832 L 3440 828 L 3438 821 L 3434 818 L 3407 818 Z
M 2529 818 L 2527 820 L 2527 1027 L 2528 1029 L 2532 1031 L 2556 1031 L 2562 1026 L 2562 886 L 2563 880 L 2561 874 L 2563 873 L 2569 884 L 2575 889 L 2596 917 L 2597 920 L 2600 922 L 2609 934 L 2615 944 L 2619 947 L 2624 955 L 2636 968 L 2642 978 L 2649 985 L 2679 1025 L 2686 1031 L 2711 1031 L 2713 1030 L 2717 1025 L 2717 843 L 2716 842 L 2717 825 L 2716 820 L 2713 818 L 2685 818 L 2682 821 L 2682 950 L 2681 951 L 2681 967 L 2683 972 L 2681 973 L 2666 952 L 2663 950 L 2661 946 L 2655 940 L 2652 934 L 2640 921 L 2640 919 L 2634 911 L 2627 904 L 2626 901 L 2618 892 L 2616 888 L 2613 886 L 2611 882 L 2609 881 L 2607 877 L 2604 875 L 2598 865 L 2594 862 L 2583 846 L 2577 840 L 2574 834 L 2572 833 L 2562 820 L 2559 818 Z
M 1717 819 L 1716 823 L 1719 829 L 1724 833 L 1728 841 L 1733 846 L 1735 851 L 1751 872 L 1753 877 L 1756 880 L 1756 882 L 1764 891 L 1766 896 L 1769 898 L 1770 901 L 1774 905 L 1775 909 L 1779 913 L 1788 926 L 1793 936 L 1796 939 L 1796 1026 L 1797 1028 L 1801 1031 L 1826 1031 L 1831 1027 L 1832 1024 L 1832 937 L 1839 929 L 1841 924 L 1846 919 L 1861 895 L 1864 893 L 1864 891 L 1868 887 L 1878 872 L 1878 870 L 1887 859 L 1892 850 L 1895 848 L 1903 834 L 1908 830 L 1910 825 L 1910 819 L 1909 818 L 1876 818 L 1870 823 L 1870 826 L 1862 834 L 1860 840 L 1852 850 L 1847 860 L 1844 862 L 1841 869 L 1837 875 L 1835 876 L 1833 881 L 1820 898 L 1820 900 L 1816 904 L 1815 907 L 1812 906 L 1809 898 L 1805 895 L 1800 886 L 1795 881 L 1791 872 L 1783 863 L 1782 859 L 1777 854 L 1773 848 L 1772 844 L 1769 842 L 1767 837 L 1765 836 L 1763 831 L 1761 830 L 1754 819 L 1752 818 L 1719 818 Z
M 3005 818 L 3000 821 L 2997 821 L 2988 824 L 2984 827 L 2979 828 L 2969 836 L 2966 837 L 2948 853 L 2947 856 L 2939 866 L 2938 870 L 2934 875 L 2930 884 L 2929 891 L 2925 902 L 2924 908 L 2925 945 L 2929 956 L 2930 963 L 2943 987 L 2962 1008 L 2965 1009 L 2975 1017 L 2979 1018 L 2984 1022 L 2987 1022 L 2993 1026 L 3002 1027 L 3010 1031 L 3018 1031 L 3019 1032 L 3062 1031 L 3070 1027 L 3078 1026 L 3082 1023 L 3087 1022 L 3091 1019 L 3097 1017 L 3101 1013 L 3110 1008 L 3126 992 L 3128 988 L 3128 917 L 3126 913 L 3122 910 L 3039 910 L 3036 911 L 3032 917 L 3032 939 L 3033 941 L 3038 944 L 3089 944 L 3091 943 L 3093 945 L 3093 978 L 3085 986 L 3077 991 L 3073 992 L 3068 996 L 3063 996 L 3056 1000 L 3042 1002 L 3022 1001 L 3012 999 L 3008 996 L 3004 996 L 2999 992 L 2995 991 L 2993 988 L 2984 982 L 2973 969 L 2972 964 L 2969 960 L 2968 954 L 2964 948 L 2964 941 L 2962 934 L 2962 912 L 2964 905 L 2964 898 L 2973 878 L 2978 871 L 2992 858 L 2996 857 L 2998 854 L 3005 852 L 3009 849 L 3019 848 L 3023 845 L 3028 844 L 3042 844 L 3052 848 L 3062 849 L 3074 854 L 3076 857 L 3080 858 L 3098 876 L 3104 875 L 3117 862 L 3121 861 L 3120 852 L 3097 832 L 3077 822 L 3073 822 L 3065 818 L 3056 818 L 3044 814 L 3028 814 L 3015 818 Z
M 2177 818 L 2172 821 L 2164 823 L 2158 827 L 2155 827 L 2139 837 L 2124 852 L 2109 874 L 2107 882 L 2103 888 L 2103 892 L 2099 904 L 2099 917 L 2098 918 L 2099 945 L 2102 953 L 2104 964 L 2107 967 L 2109 975 L 2111 976 L 2112 980 L 2120 992 L 2135 1008 L 2148 1017 L 2152 1018 L 2155 1021 L 2162 1023 L 2168 1027 L 2174 1027 L 2181 1031 L 2213 1033 L 2214 1032 L 2235 1031 L 2243 1027 L 2251 1026 L 2253 1024 L 2260 1022 L 2265 1018 L 2269 1017 L 2279 1009 L 2282 1008 L 2298 991 L 2311 969 L 2316 954 L 2316 946 L 2318 941 L 2318 930 L 2319 929 L 2318 905 L 2316 900 L 2315 890 L 2312 886 L 2311 880 L 2309 878 L 2306 870 L 2303 867 L 2302 863 L 2298 859 L 2297 856 L 2279 838 L 2263 828 L 2259 827 L 2251 822 L 2248 822 L 2239 818 L 2230 818 L 2217 814 L 2201 814 L 2188 818 Z
M 1388 243 L 1383 242 L 1081 242 L 1077 243 L 1075 245 L 1074 254 L 1077 258 L 1087 260 L 1100 260 L 1116 265 L 1123 265 L 1129 269 L 1136 270 L 1141 274 L 1145 274 L 1150 278 L 1154 279 L 1157 282 L 1162 284 L 1176 299 L 1177 304 L 1181 311 L 1181 319 L 1183 323 L 1183 334 L 1181 339 L 1181 347 L 1177 355 L 1177 360 L 1173 365 L 1167 380 L 1163 383 L 1162 389 L 1149 407 L 1148 411 L 1141 420 L 1139 425 L 1135 429 L 1120 453 L 1117 455 L 1117 457 L 1113 461 L 1113 463 L 1109 467 L 1103 478 L 1099 482 L 1085 504 L 1082 506 L 1080 511 L 1072 520 L 1070 525 L 1063 533 L 1061 538 L 1049 553 L 1048 557 L 1040 566 L 1039 569 L 1035 573 L 1035 575 L 1031 578 L 1030 582 L 1018 597 L 1017 601 L 1009 610 L 1002 622 L 999 624 L 999 626 L 995 629 L 994 633 L 989 640 L 986 642 L 984 647 L 980 653 L 977 655 L 971 666 L 969 668 L 967 668 L 966 677 L 967 679 L 971 681 L 976 691 L 979 693 L 981 698 L 984 701 L 986 707 L 993 710 L 996 709 L 997 705 L 1005 697 L 1006 694 L 1014 685 L 1015 681 L 1019 678 L 1034 657 L 1038 654 L 1039 651 L 1048 639 L 1051 637 L 1057 627 L 1059 626 L 1061 622 L 1070 612 L 1070 610 L 1084 594 L 1088 587 L 1101 572 L 1116 551 L 1119 549 L 1122 543 L 1129 536 L 1130 533 L 1147 513 L 1157 498 L 1164 492 L 1167 486 L 1170 484 L 1171 481 L 1182 469 L 1193 453 L 1201 445 L 1208 434 L 1218 424 L 1229 409 L 1234 405 L 1234 403 L 1243 394 L 1253 380 L 1261 373 L 1289 340 L 1306 324 L 1307 321 L 1330 300 L 1337 292 L 1370 265 L 1372 265 L 1375 261 L 1387 254 L 1389 251 L 1389 244 Z
M 241 244 L 240 253 L 241 256 L 244 258 L 256 260 L 266 260 L 282 265 L 288 265 L 296 269 L 302 270 L 308 274 L 312 274 L 317 278 L 322 279 L 327 283 L 330 283 L 334 287 L 338 288 L 362 307 L 396 346 L 398 351 L 405 358 L 407 363 L 433 396 L 433 398 L 442 408 L 442 410 L 446 414 L 447 417 L 450 419 L 452 424 L 455 426 L 456 429 L 460 433 L 461 437 L 465 440 L 469 446 L 470 450 L 478 458 L 479 462 L 482 464 L 492 480 L 496 484 L 497 487 L 500 489 L 507 501 L 510 503 L 514 509 L 515 514 L 517 514 L 519 516 L 520 519 L 524 523 L 524 525 L 527 527 L 542 550 L 546 554 L 552 565 L 556 568 L 561 577 L 564 579 L 565 582 L 569 586 L 570 590 L 579 601 L 579 603 L 600 630 L 602 635 L 610 644 L 629 673 L 634 678 L 639 687 L 642 689 L 647 696 L 648 700 L 651 702 L 684 751 L 687 753 L 693 764 L 698 769 L 702 777 L 711 788 L 711 791 L 716 795 L 716 797 L 720 801 L 720 803 L 725 808 L 725 810 L 743 834 L 744 838 L 752 847 L 753 851 L 761 860 L 762 864 L 770 873 L 771 877 L 775 881 L 776 884 L 779 886 L 779 888 L 784 894 L 784 896 L 787 898 L 789 903 L 793 907 L 802 922 L 811 933 L 811 935 L 817 944 L 820 946 L 821 950 L 829 960 L 835 971 L 838 973 L 844 984 L 847 986 L 849 991 L 852 994 L 853 998 L 857 1001 L 862 1011 L 865 1013 L 872 1025 L 875 1027 L 877 1032 L 880 1035 L 880 1037 L 884 1041 L 890 1052 L 894 1055 L 898 1064 L 902 1067 L 903 1071 L 907 1075 L 908 1079 L 912 1082 L 912 1084 L 916 1088 L 926 1105 L 935 1116 L 935 1118 L 939 1124 L 944 1129 L 944 1131 L 948 1135 L 950 1140 L 953 1142 L 955 1146 L 961 1146 L 962 1145 L 961 1131 L 962 1130 L 962 1121 L 961 1120 L 961 1029 L 962 1028 L 961 1023 L 961 939 L 962 938 L 961 866 L 947 847 L 946 843 L 943 841 L 936 829 L 929 821 L 928 816 L 925 814 L 924 811 L 919 806 L 919 804 L 911 794 L 910 790 L 902 780 L 896 769 L 893 767 L 891 762 L 883 752 L 881 747 L 874 739 L 872 733 L 865 725 L 864 721 L 855 710 L 854 706 L 837 684 L 837 681 L 830 673 L 827 666 L 824 664 L 822 659 L 819 657 L 819 654 L 811 645 L 809 640 L 787 609 L 787 607 L 769 583 L 768 579 L 761 571 L 755 560 L 752 558 L 749 551 L 747 550 L 745 545 L 742 543 L 739 536 L 723 515 L 718 505 L 714 502 L 713 498 L 705 488 L 704 484 L 696 475 L 694 470 L 691 467 L 691 465 L 687 462 L 686 458 L 682 454 L 682 452 L 679 450 L 677 445 L 673 441 L 672 437 L 669 435 L 665 429 L 664 425 L 661 423 L 655 415 L 654 411 L 637 388 L 631 377 L 628 375 L 623 368 L 622 364 L 618 361 L 614 355 L 613 350 L 609 348 L 604 337 L 600 334 L 596 327 L 596 324 L 591 316 L 590 309 L 591 289 L 603 275 L 608 273 L 611 270 L 616 269 L 621 265 L 627 265 L 633 262 L 642 260 L 658 259 L 664 253 L 663 245 L 661 243 L 657 242 L 253 242 L 252 243 L 248 242 Z" fill="#000000" fill-rule="evenodd"/>
</svg>
