<?xml version="1.0" encoding="UTF-8"?>
<svg xmlns="http://www.w3.org/2000/svg" width="3000px" height="621px" viewBox="0 0 3000 621" role="img" aria-labelledby="title">
<title>YongAI logo</title>
<path d="M 1904 463 L 1904 465 L 1908 465 L 1908 462 Z
M 824 462 L 821 462 L 820 464 L 800 464 L 797 463 L 796 465 L 823 465 Z
M 2322 432 L 2320 434 L 2320 441 L 2322 440 Z
M 2527 426 L 2531 432 L 2531 428 Z
M 1994 424 L 1989 428 L 1987 432 L 1994 427 Z
M 2326 423 L 2324 428 L 2324 432 L 2326 431 Z
M 1479 416 L 1479 437 L 1480 437 L 1481 434 L 1480 433 L 1480 421 L 1481 419 Z
M 2463 415 L 2462 421 L 2464 422 L 2465 419 L 2464 415 Z
M 1781 414 L 1782 418 L 1792 428 L 1794 428 L 1791 426 L 1790 423 L 1788 423 L 1786 421 L 1785 418 L 1782 417 Z
M 697 414 L 696 415 L 697 418 L 712 433 L 714 433 L 711 428 L 708 427 L 707 424 Z
M 838 406 L 839 409 L 846 407 L 846 406 Z
M 765 407 L 773 408 L 773 406 L 766 406 Z
M 1864 406 L 1865 408 L 1879 408 L 1880 409 L 1883 408 L 1884 409 L 1888 408 L 1908 409 L 1920 407 L 1920 406 L 1888 407 L 1887 406 L 1872 406 L 1871 405 Z
M 687 402 L 687 407 L 689 408 L 689 404 Z
M 2335 401 L 2333 406 L 2334 409 L 2336 407 Z
M 862 397 L 859 396 L 856 400 L 851 402 L 851 403 L 856 403 L 856 400 L 861 399 Z
M 867 392 L 865 392 L 864 394 L 866 394 Z
M 1762 391 L 1762 395 L 1765 396 L 1766 399 L 1768 400 L 1768 396 L 1765 395 Z
M 937 388 L 934 395 L 938 393 Z
M 871 387 L 869 388 L 869 390 L 871 389 Z
M 737 383 L 742 389 L 745 390 L 745 392 L 750 396 L 750 398 L 754 399 L 756 401 L 756 403 L 761 403 L 760 401 L 756 400 L 756 396 L 753 393 L 747 391 L 746 387 L 743 383 Z
M 2345 377 L 2343 379 L 2343 385 L 2345 384 Z
M 1961 376 L 1958 376 L 1955 380 L 1955 384 L 1952 388 L 1946 392 L 1943 396 L 1939 397 L 1940 399 L 1945 398 L 1946 395 L 1952 394 L 1955 390 L 1958 389 L 1963 384 L 1963 382 L 1961 380 Z
M 1817 371 L 1817 374 L 1820 377 L 1820 379 L 1823 380 L 1829 388 L 1833 389 L 1834 393 L 1838 394 L 1840 396 L 1840 398 L 1843 399 L 1846 398 L 1841 392 L 1836 391 L 1831 386 L 1830 383 L 1826 380 L 1824 376 L 1824 370 Z
M 2504 369 L 2504 371 L 2506 372 L 2508 371 L 2508 370 Z
M 948 368 L 946 369 L 945 372 L 946 376 L 948 375 Z
M 2349 364 L 2348 365 L 2348 376 L 2350 373 L 2350 365 Z
M 1748 364 L 1748 370 L 1751 372 L 1752 376 L 1754 377 L 1754 373 L 1750 369 Z
M 884 364 L 882 368 L 878 371 L 879 378 L 880 378 L 880 376 L 885 368 Z
M 1351 358 L 1348 360 L 1349 363 L 1352 363 Z
M 952 355 L 950 361 L 950 366 L 952 366 L 953 359 Z
M 889 346 L 887 353 L 888 358 L 890 355 Z
M 1274 345 L 1273 347 L 1274 354 L 1275 353 L 1275 346 Z
M 2359 344 L 2357 346 L 2356 352 L 2353 354 L 2353 359 L 2355 357 L 2355 354 L 2359 352 Z
M 1963 344 L 1962 345 L 1958 344 L 1955 345 L 1954 351 L 1960 357 L 1962 355 L 1961 351 Z
M 1806 342 L 1806 348 L 1808 349 L 1810 347 Z
M 321 337 L 317 337 L 315 342 L 316 347 L 318 349 L 315 356 L 315 442 L 316 444 L 321 440 L 320 437 L 320 355 L 321 354 L 321 345 L 320 344 Z
M 658 335 L 659 354 L 661 362 L 663 366 L 665 367 L 666 365 L 664 357 L 661 356 L 660 336 Z
M 2430 332 L 2429 336 L 2431 339 L 2432 335 Z
M 721 329 L 720 332 L 722 333 L 723 330 Z
M 1394 327 L 1395 332 L 1396 332 L 1397 329 L 1396 327 Z
M 2367 321 L 2367 326 L 2368 326 L 2369 323 Z
M 329 312 L 330 317 L 331 313 Z
M 718 309 L 717 310 L 718 316 L 719 315 Z
M 1879 305 L 1878 307 L 1879 309 L 1878 329 L 1880 330 L 1881 329 L 1881 306 Z
M 957 304 L 957 319 L 960 319 L 961 316 L 958 312 L 961 309 L 961 305 Z
M 655 304 L 654 305 L 654 332 L 656 334 L 657 331 L 656 330 L 656 305 Z
M 239 303 L 238 305 L 240 307 L 241 305 Z
M 2416 298 L 2416 305 L 2417 306 L 2418 302 Z
M 340 298 L 339 298 L 338 304 L 335 307 L 341 303 Z
M 344 293 L 343 295 L 344 297 L 345 296 Z
M 2382 289 L 2380 292 L 2381 296 Z
M 1981 290 L 1982 291 L 2003 291 L 2004 290 L 2003 289 L 1982 289 Z
M 1361 285 L 1363 290 L 1364 286 Z
M 348 284 L 349 289 L 350 285 Z
M 288 280 L 287 284 L 289 285 L 290 281 Z
M 955 277 L 955 291 L 957 293 L 957 278 Z
M 888 277 L 890 282 L 890 287 L 892 290 L 892 298 L 893 299 L 893 327 L 892 328 L 892 335 L 890 338 L 890 344 L 892 346 L 894 344 L 894 336 L 895 335 L 895 323 L 894 322 L 895 289 L 894 288 L 894 280 L 892 278 Z
M 2403 272 L 2403 273 L 2407 274 L 2406 272 Z
M 1811 272 L 1807 273 L 1805 278 L 1806 282 L 1807 282 L 1807 277 Z
M 660 272 L 659 279 L 661 276 Z
M 1744 271 L 1742 274 L 1742 284 L 1738 289 L 1738 337 L 1740 339 L 1741 338 L 1742 339 L 1743 349 L 1745 347 L 1745 344 L 1741 335 L 1740 305 L 1741 304 L 1741 291 L 1745 286 L 1745 272 Z
M 359 270 L 357 272 L 358 275 Z
M 1348 267 L 1347 271 L 1352 274 L 1352 277 L 1359 284 L 1360 282 L 1359 279 L 1356 277 L 1355 274 Z
M 2391 264 L 2390 269 L 2393 270 L 2394 267 Z
M 363 264 L 362 270 L 364 268 Z
M 1344 261 L 1343 264 L 1345 266 Z
M 1275 261 L 1275 273 L 1277 273 L 1281 277 L 1283 277 L 1285 275 L 1285 273 L 1283 271 L 1281 265 Z
M 2460 259 L 2461 266 L 2462 260 Z
M 665 258 L 663 259 L 663 269 L 664 270 L 666 262 Z
M 1749 257 L 1747 259 L 1748 265 L 1749 264 Z
M 732 257 L 729 259 L 732 260 Z
M 946 252 L 945 254 L 950 263 L 951 269 L 952 269 L 952 259 L 948 256 L 948 254 Z
M 268 252 L 268 256 L 271 257 L 274 262 L 275 258 L 271 256 L 270 252 Z
M 1753 247 L 1752 248 L 1753 252 L 1754 251 Z
M 878 247 L 879 256 L 884 261 L 885 257 L 881 253 L 880 247 Z
M 1994 241 L 1993 241 L 1993 244 L 1989 245 L 1989 246 L 1993 245 Z
M 874 241 L 875 246 L 876 243 Z
M 1958 239 L 1958 242 L 1960 242 L 1960 240 Z
M 261 238 L 259 238 L 259 243 L 261 242 Z
M 936 234 L 936 237 L 938 238 L 938 234 Z
M 320 234 L 318 235 L 319 237 L 321 236 Z
M 1947 230 L 1946 232 L 1954 238 L 1955 235 L 1951 231 Z
M 865 230 L 864 232 L 866 233 L 867 232 Z
M 254 230 L 254 235 L 256 237 L 257 233 Z
M 760 222 L 765 227 L 769 225 L 768 221 Z
M 687 220 L 688 224 L 689 221 Z
M 1311 219 L 1310 220 L 1311 225 L 1314 225 L 1315 229 L 1316 229 L 1317 225 L 1314 220 Z
M 246 219 L 245 220 L 246 224 L 248 224 L 250 229 L 252 229 L 251 222 L 248 219 Z
M 178 216 L 178 220 L 180 222 L 181 219 Z
M 1306 214 L 1307 219 L 1308 215 Z
M 698 210 L 696 210 L 696 213 L 698 212 Z
M 1301 207 L 1301 212 L 1303 212 L 1303 208 Z
M 782 207 L 789 206 L 822 206 L 823 207 L 826 206 L 831 207 L 837 211 L 844 211 L 850 216 L 854 216 L 858 220 L 862 221 L 881 240 L 883 246 L 891 257 L 891 260 L 895 266 L 896 274 L 900 280 L 900 292 L 903 303 L 903 323 L 900 333 L 900 344 L 896 350 L 895 360 L 891 365 L 890 371 L 887 374 L 882 384 L 878 387 L 868 399 L 865 400 L 862 404 L 860 404 L 855 409 L 850 410 L 848 413 L 840 414 L 835 418 L 824 418 L 816 421 L 805 422 L 787 418 L 776 418 L 772 414 L 767 414 L 761 409 L 758 409 L 754 405 L 750 404 L 730 383 L 726 377 L 726 374 L 721 367 L 719 360 L 717 358 L 716 349 L 713 343 L 712 328 L 711 327 L 711 302 L 713 294 L 713 286 L 715 282 L 717 270 L 722 258 L 731 243 L 746 226 L 749 225 L 754 220 L 757 220 L 760 216 L 763 216 L 770 211 L 777 211 Z
M 703 205 L 701 205 L 701 208 L 703 207 Z
M 1296 201 L 1297 206 L 1299 206 L 1298 201 Z
M 168 200 L 168 203 L 170 204 L 170 201 Z
M 2361 196 L 2359 196 L 2357 198 L 2360 201 Z
M 1983 197 L 1988 198 L 1987 196 Z
M 1291 196 L 1293 201 L 1294 196 Z
M 164 196 L 164 199 L 166 199 L 166 197 Z
M 2433 195 L 2432 199 L 2434 200 Z
M 410 195 L 409 195 L 408 202 L 405 204 L 407 204 L 411 201 Z
M 1287 191 L 1287 193 L 1289 194 L 1289 191 Z
M 893 192 L 893 193 L 896 193 L 895 191 Z
M 1421 187 L 1420 188 L 1420 214 L 1421 215 L 1420 235 L 1421 237 L 1422 236 L 1422 188 Z
M 2785 182 L 2784 187 L 2782 189 L 2782 193 L 2785 197 L 2785 208 L 2782 212 L 2782 216 L 2785 221 L 2784 228 L 2785 273 L 2782 277 L 2785 282 L 2785 296 L 2782 301 L 2782 305 L 2785 310 L 2784 317 L 2784 339 L 2785 341 L 2784 345 L 2782 347 L 2782 366 L 2785 370 L 2785 385 L 2782 390 L 2782 413 L 2784 415 L 2785 419 L 2784 421 L 2785 430 L 2784 434 L 2782 436 L 2785 443 L 2786 443 L 2787 441 L 2787 387 L 2786 386 L 2786 369 L 2787 368 L 2787 184 Z
M 222 182 L 221 183 L 222 187 L 226 190 L 226 193 L 228 195 L 229 192 L 228 188 Z
M 1278 178 L 1278 182 L 1280 182 L 1279 178 Z
M 2797 175 L 2794 176 L 2792 180 L 2793 186 L 2793 321 L 2792 322 L 2792 368 L 2793 369 L 2792 432 L 2793 437 L 2792 444 L 2793 449 L 2799 451 L 2834 451 L 2837 448 L 2837 177 L 2833 175 Z
M 2377 176 L 2376 181 L 2372 187 L 2372 191 L 2368 196 L 2367 202 L 2363 208 L 2362 216 L 2358 220 L 2358 225 L 2353 233 L 2352 239 L 2348 243 L 2347 250 L 2343 254 L 2343 259 L 2340 262 L 2338 270 L 2334 276 L 2334 280 L 2330 285 L 2330 289 L 2325 298 L 2325 302 L 2321 308 L 2319 316 L 2316 319 L 2315 325 L 2311 330 L 2310 336 L 2306 341 L 2305 348 L 2303 350 L 2301 358 L 2297 364 L 2296 370 L 2288 385 L 2287 391 L 2282 399 L 2282 403 L 2278 409 L 2277 415 L 2273 420 L 2273 424 L 2269 431 L 2269 435 L 2264 443 L 2265 450 L 2268 451 L 2307 451 L 2309 449 L 2310 445 L 2314 440 L 2314 434 L 2319 428 L 2319 422 L 2323 418 L 2323 413 L 2328 405 L 2328 400 L 2332 396 L 2333 388 L 2337 383 L 2338 377 L 2342 373 L 2342 366 L 2346 362 L 2348 352 L 2351 350 L 2351 344 L 2356 337 L 2356 332 L 2361 325 L 2361 320 L 2365 317 L 2365 311 L 2370 303 L 2371 296 L 2375 292 L 2375 286 L 2379 282 L 2380 274 L 2384 270 L 2384 263 L 2388 260 L 2389 251 L 2393 247 L 2394 238 L 2397 234 L 2400 237 L 2400 244 L 2405 250 L 2405 256 L 2408 259 L 2410 268 L 2414 273 L 2414 279 L 2418 283 L 2419 290 L 2423 296 L 2423 301 L 2428 310 L 2428 315 L 2432 319 L 2433 327 L 2437 332 L 2438 340 L 2442 346 L 2442 350 L 2446 356 L 2447 362 L 2451 366 L 2451 372 L 2456 379 L 2456 385 L 2460 389 L 2461 397 L 2465 402 L 2466 410 L 2470 414 L 2470 420 L 2475 427 L 2475 433 L 2479 438 L 2479 442 L 2481 446 L 2487 451 L 2523 451 L 2527 448 L 2527 444 L 2523 432 L 2520 428 L 2519 421 L 2516 418 L 2514 408 L 2511 404 L 2509 396 L 2506 393 L 2506 389 L 2501 381 L 2500 374 L 2497 372 L 2496 364 L 2492 359 L 2491 351 L 2488 348 L 2487 342 L 2483 337 L 2482 330 L 2478 325 L 2477 318 L 2473 313 L 2473 308 L 2468 301 L 2468 295 L 2465 292 L 2464 286 L 2459 279 L 2459 274 L 2458 271 L 2455 269 L 2454 261 L 2450 256 L 2449 248 L 2445 245 L 2445 239 L 2440 232 L 2440 228 L 2436 222 L 2435 215 L 2432 212 L 2431 206 L 2426 199 L 2426 193 L 2422 189 L 2421 182 L 2418 180 L 2417 176 L 2415 175 L 2380 175 Z
M 1226 176 L 1225 179 L 1225 265 L 1224 266 L 1225 271 L 1225 445 L 1226 448 L 1228 450 L 1242 450 L 1243 451 L 1263 451 L 1267 449 L 1267 412 L 1268 411 L 1267 286 L 1268 285 L 1268 258 L 1269 257 L 1268 244 L 1270 243 L 1278 256 L 1282 259 L 1284 263 L 1297 278 L 1298 281 L 1301 283 L 1302 286 L 1307 291 L 1308 294 L 1320 309 L 1320 311 L 1329 320 L 1330 323 L 1339 335 L 1343 338 L 1349 348 L 1358 359 L 1362 362 L 1368 372 L 1381 387 L 1391 402 L 1395 405 L 1405 420 L 1414 429 L 1414 431 L 1419 436 L 1420 439 L 1423 441 L 1424 444 L 1428 447 L 1428 449 L 1431 451 L 1468 451 L 1470 450 L 1473 445 L 1473 210 L 1472 209 L 1472 178 L 1467 175 L 1433 175 L 1430 176 L 1428 179 L 1428 217 L 1427 218 L 1428 220 L 1427 224 L 1428 226 L 1428 315 L 1427 316 L 1428 343 L 1427 346 L 1428 347 L 1428 376 L 1429 377 L 1428 380 L 1424 376 L 1422 371 L 1412 360 L 1413 357 L 1416 357 L 1418 362 L 1422 363 L 1422 304 L 1420 305 L 1420 312 L 1421 313 L 1421 338 L 1420 341 L 1418 343 L 1408 343 L 1406 340 L 1404 341 L 1404 343 L 1408 345 L 1410 350 L 1411 349 L 1413 351 L 1413 356 L 1410 357 L 1402 345 L 1398 342 L 1397 339 L 1390 332 L 1388 327 L 1384 324 L 1383 321 L 1379 319 L 1379 317 L 1375 313 L 1374 309 L 1370 306 L 1369 303 L 1361 295 L 1360 292 L 1356 288 L 1356 286 L 1351 282 L 1346 274 L 1342 271 L 1341 267 L 1332 258 L 1332 256 L 1327 252 L 1324 248 L 1323 244 L 1313 234 L 1313 232 L 1309 229 L 1304 220 L 1295 211 L 1285 195 L 1282 194 L 1280 190 L 1276 187 L 1276 185 L 1273 183 L 1269 176 L 1266 175 L 1229 175 Z
M 163 176 L 162 183 L 170 192 L 170 194 L 180 206 L 184 214 L 189 219 L 194 228 L 203 239 L 213 256 L 223 268 L 226 274 L 231 279 L 245 300 L 245 302 L 254 313 L 255 317 L 259 321 L 261 326 L 265 331 L 265 445 L 266 448 L 271 451 L 305 451 L 309 449 L 309 408 L 310 407 L 310 333 L 313 330 L 314 325 L 318 322 L 318 320 L 320 318 L 322 318 L 323 314 L 327 310 L 328 306 L 332 303 L 333 300 L 337 296 L 337 293 L 341 290 L 342 286 L 346 283 L 347 278 L 355 270 L 356 265 L 360 262 L 361 258 L 365 255 L 366 250 L 374 242 L 375 237 L 379 233 L 379 231 L 383 229 L 384 225 L 388 221 L 389 217 L 398 208 L 398 204 L 402 201 L 402 199 L 407 194 L 407 192 L 412 184 L 416 181 L 415 176 L 412 175 L 370 175 L 363 181 L 362 186 L 358 190 L 357 193 L 353 196 L 353 199 L 349 203 L 348 207 L 344 210 L 338 221 L 335 223 L 333 229 L 329 235 L 325 238 L 324 243 L 320 249 L 317 251 L 316 255 L 306 267 L 306 269 L 302 273 L 302 275 L 296 281 L 296 284 L 290 292 L 286 291 L 286 286 L 277 277 L 275 271 L 272 269 L 271 265 L 267 262 L 262 254 L 262 252 L 258 249 L 257 245 L 253 241 L 252 237 L 248 234 L 244 228 L 243 224 L 239 221 L 234 210 L 229 206 L 225 197 L 216 187 L 215 182 L 211 179 L 211 177 L 209 175 L 165 175 Z
M 1880 170 L 1869 172 L 1862 175 L 1849 176 L 1843 180 L 1836 180 L 1830 185 L 1825 185 L 1821 189 L 1815 190 L 1813 193 L 1809 194 L 1804 199 L 1802 199 L 1798 203 L 1795 204 L 1787 213 L 1784 214 L 1782 218 L 1780 218 L 1779 221 L 1774 225 L 1770 234 L 1765 238 L 1764 244 L 1760 248 L 1760 252 L 1755 258 L 1755 265 L 1751 271 L 1750 286 L 1746 298 L 1746 325 L 1748 335 L 1750 338 L 1751 354 L 1754 356 L 1756 368 L 1760 372 L 1760 377 L 1765 382 L 1765 387 L 1769 390 L 1770 393 L 1774 397 L 1775 401 L 1779 404 L 1780 407 L 1801 426 L 1803 426 L 1807 430 L 1812 432 L 1813 434 L 1819 436 L 1824 440 L 1829 441 L 1835 445 L 1843 446 L 1848 449 L 1878 455 L 1911 454 L 1920 451 L 1937 449 L 1940 447 L 1951 444 L 1968 435 L 1970 435 L 1990 421 L 2010 401 L 2011 303 L 2009 298 L 2007 297 L 1892 297 L 1888 300 L 1887 304 L 1888 310 L 1887 331 L 1890 336 L 1898 338 L 1968 337 L 1970 339 L 1970 341 L 1969 342 L 1969 383 L 1963 390 L 1944 404 L 1940 404 L 1933 409 L 1927 409 L 1922 413 L 1908 414 L 1900 417 L 1888 417 L 1877 414 L 1866 414 L 1860 412 L 1857 409 L 1849 408 L 1847 405 L 1842 404 L 1838 400 L 1834 399 L 1818 383 L 1810 373 L 1801 354 L 1795 331 L 1795 321 L 1794 320 L 1795 291 L 1800 272 L 1802 270 L 1809 253 L 1818 240 L 1833 226 L 1837 225 L 1843 220 L 1846 220 L 1850 216 L 1856 215 L 1861 211 L 1873 211 L 1882 207 L 1902 207 L 1909 211 L 1921 211 L 1927 215 L 1935 216 L 1939 220 L 1942 220 L 1948 225 L 1950 225 L 1970 244 L 1972 248 L 1980 248 L 1998 230 L 2003 229 L 2004 225 L 2001 219 L 1980 199 L 1978 199 L 1975 195 L 1969 193 L 1967 190 L 1961 189 L 1957 185 L 1950 184 L 1946 180 L 1939 180 L 1933 176 L 1921 175 L 1915 172 L 1905 170 Z
M 795 170 L 784 172 L 777 175 L 763 176 L 758 180 L 751 180 L 745 185 L 740 185 L 737 189 L 731 190 L 727 194 L 724 194 L 721 198 L 717 199 L 700 215 L 688 232 L 686 232 L 684 239 L 677 248 L 676 254 L 671 261 L 671 269 L 668 272 L 666 278 L 666 296 L 662 306 L 662 324 L 666 336 L 667 353 L 671 357 L 671 365 L 672 368 L 676 371 L 676 378 L 680 380 L 681 387 L 685 390 L 689 396 L 690 400 L 716 427 L 720 428 L 721 430 L 725 431 L 728 435 L 733 436 L 738 440 L 762 449 L 792 455 L 819 455 L 833 453 L 846 449 L 851 449 L 856 446 L 864 445 L 870 441 L 875 440 L 897 426 L 909 416 L 921 403 L 926 394 L 929 392 L 940 372 L 940 369 L 944 362 L 945 352 L 949 341 L 949 323 L 950 322 L 949 283 L 945 274 L 944 265 L 940 259 L 940 256 L 936 249 L 935 244 L 931 240 L 930 236 L 913 214 L 902 204 L 899 203 L 896 199 L 892 198 L 889 194 L 884 193 L 882 190 L 876 189 L 872 185 L 866 184 L 862 180 L 855 180 L 850 176 L 837 175 L 825 171 Z
M 2803 168 L 2804 169 L 2829 169 L 2831 168 L 2828 164 L 2805 164 L 2805 166 Z
M 2387 168 L 2389 169 L 2409 169 L 2411 168 L 2408 166 L 2408 164 L 2390 164 Z
M 1861 168 L 1863 168 L 1867 164 L 1862 164 Z
M 1439 168 L 1458 168 L 1459 169 L 1462 168 L 1459 164 L 1441 164 L 1441 166 Z
M 1233 168 L 1238 169 L 1260 169 L 1262 168 L 1259 166 L 1259 164 L 1236 164 L 1236 166 Z
M 829 164 L 831 166 L 833 165 L 833 164 Z
M 772 168 L 777 168 L 783 164 L 774 164 Z
M 373 168 L 405 168 L 403 164 L 377 164 Z
M 178 168 L 188 170 L 194 168 L 204 168 L 203 164 L 191 164 L 190 165 L 180 164 L 180 166 Z
M 1893 164 L 1894 165 L 1904 165 L 1905 164 L 1903 163 Z
M 1875 164 L 1875 165 L 1881 165 L 1880 163 Z" fill="#000000" fill-rule="evenodd"/>
</svg>
