<?xml version="1.0" encoding="UTF-8"?>
<svg xmlns="http://www.w3.org/2000/svg" width="4000px" height="4208px" viewBox="0 0 4000 4208" role="img" aria-labelledby="title">
<title>YongAI logo</title>
<path d="M 2501 3866 L 2500 3871 L 2504 3871 L 2505 3867 Z
M 1164 3867 L 1162 3866 L 1159 3869 L 1130 3868 L 1130 3871 L 1148 3871 L 1149 3870 L 1163 3871 Z
M 3017 3830 L 3015 3831 L 3014 3834 L 3014 3841 L 3017 3840 Z
M 3271 3822 L 3271 3824 L 3275 3830 L 3276 3824 Z
M 2611 3820 L 2604 3825 L 2603 3830 L 2611 3824 Z
M 3022 3819 L 3020 3822 L 3019 3829 L 3022 3829 Z
M 2351 3812 L 2351 3814 L 2354 3818 L 2363 3825 L 2360 3822 L 2360 3819 L 2356 3818 L 2354 3816 L 2354 3813 Z
M 2950 3810 L 2948 3811 L 2949 3814 Z
M 1975 3809 L 1974 3810 L 1974 3836 L 1975 3837 L 1976 3836 L 1976 3810 Z
M 3191 3808 L 3190 3816 L 3192 3818 L 3193 3817 L 3193 3810 Z
M 2348 3807 L 2347 3809 L 2349 3812 Z
M 1007 3807 L 1006 3812 L 1019 3825 L 1021 3825 L 1027 3831 L 1028 3830 L 1025 3826 L 1019 3821 L 1018 3818 L 1016 3818 L 1013 3815 L 1012 3812 L 1010 3812 L 1008 3810 Z
M 1162 3804 L 1162 3805 L 1167 3805 L 1166 3803 Z
M 2450 3798 L 2452 3800 L 2458 3801 L 2464 3800 L 2466 3801 L 2467 3800 L 2469 3801 L 2478 3801 L 2479 3800 L 2481 3801 L 2507 3801 L 2520 3799 L 2518 3797 L 2501 3797 L 2500 3798 L 2451 3797 Z
M 1180 3799 L 1182 3801 L 1186 3801 L 1191 3799 L 1190 3797 L 1182 3797 Z
M 1091 3798 L 1093 3800 L 1101 3800 L 1102 3799 L 1100 3797 L 1092 3797 Z
M 995 3792 L 994 3798 L 997 3800 L 997 3795 Z
M 3033 3791 L 3031 3794 L 3032 3801 L 3034 3799 L 3034 3792 Z
M 1204 3791 L 1203 3790 L 1197 3793 L 1203 3794 Z
M 1211 3786 L 1208 3785 L 1205 3788 L 1210 3789 Z
M 1214 3780 L 1213 3782 L 1216 3783 L 1217 3780 Z
M 2324 3779 L 2324 3784 L 2328 3785 L 2330 3790 L 2332 3789 L 2331 3785 Z
M 1304 3775 L 1301 3782 L 1300 3781 L 1300 3784 L 1305 3781 Z
M 1222 3774 L 1220 3774 L 1219 3776 L 1220 3778 L 1222 3777 Z
M 1056 3769 L 1060 3773 L 1061 3776 L 1066 3778 L 1067 3782 L 1069 3782 L 1073 3788 L 1076 3788 L 1079 3790 L 1080 3794 L 1086 3794 L 1086 3792 L 1080 3790 L 1080 3786 L 1076 3781 L 1073 3780 L 1072 3781 L 1068 3778 L 1067 3773 L 1064 3769 Z
M 978 3767 L 977 3773 L 979 3773 Z
M 3046 3762 L 3043 3763 L 3043 3771 L 3044 3772 L 3046 3769 Z
M 2569 3760 L 2567 3760 L 2563 3765 L 2563 3770 L 2559 3774 L 2558 3777 L 2553 3779 L 2549 3785 L 2543 3786 L 2543 3788 L 2550 3788 L 2552 3784 L 2560 3782 L 2564 3777 L 2566 3777 L 2573 3770 Z
M 2394 3753 L 2392 3755 L 2392 3758 L 2396 3764 L 2399 3765 L 2402 3770 L 2406 3772 L 2408 3776 L 2412 3777 L 2414 3782 L 2418 3783 L 2421 3788 L 2427 3788 L 2428 3786 L 2424 3781 L 2416 3779 L 2414 3775 L 2404 3766 L 2401 3760 L 2401 3754 Z
M 1049 3752 L 1048 3754 L 1050 3756 L 1051 3753 Z
M 3242 3751 L 3242 3755 L 3244 3754 L 3247 3755 L 3247 3753 L 3244 3753 Z
M 1318 3750 L 1316 3750 L 1314 3754 L 1315 3760 L 1317 3759 Z
M 3051 3746 L 3049 3746 L 3049 3759 L 3050 3760 L 3052 3752 Z
M 1239 3746 L 1237 3746 L 1236 3750 L 1231 3754 L 1230 3758 L 1232 3763 L 1234 3762 L 1234 3759 L 1240 3749 Z
M 2307 3745 L 2306 3752 L 2307 3754 L 2309 3754 L 2311 3756 L 2311 3759 L 2314 3762 L 2315 3758 L 2313 3754 L 2309 3751 Z
M 2979 3741 L 2977 3742 L 2977 3744 L 2979 3744 Z
M 3162 3739 L 3162 3743 L 3164 3743 L 3164 3741 Z
M 1817 3739 L 1813 3740 L 1812 3743 L 1817 3744 L 1818 3743 Z
M 1322 3734 L 1319 3745 L 1320 3749 L 1322 3748 L 1323 3745 Z
M 3157 3727 L 3156 3731 L 3158 3732 Z
M 1721 3722 L 1719 3726 L 1719 3730 L 1721 3734 L 1722 3732 Z
M 2573 3721 L 2563 3722 L 2562 3730 L 2568 3736 L 2571 3735 L 2570 3730 L 2571 3723 Z
M 3062 3720 L 3059 3730 L 3055 3734 L 3055 3739 L 3057 3739 L 3058 3733 L 3063 3730 L 3063 3721 Z
M 2378 3718 L 2379 3727 L 2382 3727 L 2384 3724 Z
M 541 3712 L 537 3712 L 535 3715 L 535 3723 L 538 3727 L 535 3733 L 535 3755 L 534 3756 L 534 3791 L 535 3792 L 535 3833 L 534 3840 L 536 3845 L 541 3840 L 540 3826 L 541 3825 L 541 3721 L 542 3720 L 542 3713 Z
M 959 3709 L 959 3731 L 962 3742 L 965 3748 L 967 3749 L 968 3742 L 967 3738 L 962 3735 L 962 3713 L 961 3710 Z
M 3152 3706 L 3150 3706 L 3151 3715 L 3153 3711 Z
M 1036 3702 L 1035 3705 L 1036 3707 L 1038 3707 L 1039 3703 Z
M 1870 3699 L 1869 3702 L 1870 3705 L 1872 3706 L 1873 3705 L 1872 3700 Z
M 3074 3692 L 3072 3694 L 3072 3698 L 3074 3698 L 3075 3696 Z
M 554 3681 L 552 3681 L 553 3687 Z
M 1032 3677 L 1031 3683 L 1033 3686 L 1034 3679 Z
M 2469 3672 L 2468 3673 L 2468 3702 L 2470 3703 L 2471 3702 L 2471 3673 Z
M 1332 3672 L 1328 3672 L 1328 3691 L 1333 3689 L 1332 3683 L 1330 3682 L 1334 3675 Z
M 955 3671 L 954 3672 L 954 3707 L 957 3708 L 956 3673 Z
M 440 3670 L 441 3675 L 443 3673 Z
M 3134 3664 L 3133 3665 L 3133 3673 L 3135 3674 L 3136 3670 Z
M 564 3663 L 563 3670 L 561 3673 L 560 3672 L 559 3673 L 559 3675 L 566 3671 L 566 3665 Z
M 570 3657 L 569 3659 L 570 3663 L 571 3662 Z
M 1835 3654 L 1836 3660 L 1837 3655 Z
M 2595 3653 L 2596 3655 L 2622 3655 L 2623 3653 Z
M 3091 3652 L 3089 3655 L 3089 3661 L 3092 3659 Z
M 1830 3647 L 1828 3648 L 1829 3653 L 1831 3654 L 1832 3649 Z
M 577 3646 L 575 3647 L 575 3652 L 577 3652 L 578 3650 Z
M 500 3642 L 500 3648 L 502 3648 L 503 3642 Z
M 1326 3638 L 1325 3640 L 1326 3642 L 1326 3656 L 1328 3658 L 1329 3648 L 1328 3647 L 1328 3639 Z
M 1245 3637 L 1243 3638 L 1243 3640 L 1245 3643 L 1245 3650 L 1248 3654 L 1248 3664 L 1250 3671 L 1250 3692 L 1248 3700 L 1248 3709 L 1245 3713 L 1246 3723 L 1243 3726 L 1242 3735 L 1244 3739 L 1245 3737 L 1245 3724 L 1249 3723 L 1251 3720 L 1251 3709 L 1252 3708 L 1252 3700 L 1251 3699 L 1251 3665 L 1252 3664 L 1251 3643 Z
M 2384 3632 L 2380 3633 L 2378 3638 L 2378 3644 L 2380 3644 L 2380 3638 Z
M 961 3632 L 959 3634 L 960 3641 L 962 3639 Z
M 3117 3632 L 3121 3635 L 3122 3634 L 3121 3631 Z
M 2303 3631 L 2300 3632 L 2300 3645 L 2296 3649 L 2294 3657 L 2294 3704 L 2295 3705 L 2295 3713 L 2300 3716 L 2300 3726 L 2301 3727 L 2303 3725 L 2303 3719 L 2298 3706 L 2298 3655 L 2303 3650 L 2303 3637 L 2304 3636 Z
M 494 3631 L 495 3636 L 496 3632 Z
M 587 3629 L 586 3634 L 589 3635 L 589 3629 Z
M 1812 3625 L 1811 3631 L 1817 3634 L 1817 3638 L 1819 3640 L 1821 3640 L 1824 3647 L 1826 3647 L 1827 3645 L 1826 3640 L 1822 3637 L 1821 3634 Z
M 3102 3622 L 3101 3628 L 3105 3629 L 3106 3625 Z
M 595 3622 L 592 3623 L 592 3629 L 595 3627 Z
M 1806 3618 L 1806 3623 L 1808 3624 L 1809 3620 Z
M 1722 3618 L 1721 3620 L 1722 3633 L 1724 3632 L 1730 3638 L 1733 3637 L 1734 3633 L 1732 3631 L 1730 3624 L 1724 3618 Z
M 600 3617 L 599 3617 L 598 3621 L 600 3620 Z
M 3188 3615 L 3187 3619 L 3189 3624 L 3190 3617 Z
M 967 3614 L 965 3615 L 965 3622 L 964 3623 L 965 3629 L 967 3629 L 968 3626 L 968 3615 Z
M 2307 3613 L 2306 3622 L 2308 3623 L 2309 3614 Z
M 1050 3613 L 1047 3614 L 1047 3616 L 1049 3617 L 1051 3615 Z
M 400 3612 L 399 3615 L 402 3616 L 402 3614 Z
M 1315 3607 L 1314 3610 L 1320 3621 L 1320 3626 L 1322 3628 L 1323 3627 L 1323 3618 L 1322 3615 L 1318 3613 L 1317 3608 Z
M 476 3607 L 476 3612 L 480 3613 L 482 3615 L 482 3618 L 484 3619 L 485 3617 L 484 3613 L 480 3612 L 478 3606 Z
M 2314 3601 L 2312 3602 L 2313 3607 L 2315 3604 Z
M 1232 3600 L 1231 3601 L 1231 3609 L 1233 3614 L 1238 3618 L 1239 3612 L 1238 3610 L 1236 3610 L 1234 3608 L 1234 3603 Z
M 2612 3594 L 2610 3593 L 2610 3596 L 2608 3598 L 2606 3598 L 2605 3600 L 2609 3599 Z
M 1226 3593 L 1225 3596 L 1226 3599 L 1228 3599 L 1228 3594 Z
M 2566 3591 L 2566 3594 L 2568 3595 L 2569 3592 Z
M 467 3589 L 465 3590 L 465 3596 L 468 3594 Z
M 1220 3585 L 1219 3588 L 1222 3589 L 1222 3586 Z
M 538 3586 L 538 3588 L 542 3587 L 542 3585 Z
M 1303 3584 L 1302 3587 L 1305 3589 L 1306 3586 L 1305 3584 Z
M 623 3582 L 621 3584 L 621 3587 L 623 3585 Z
M 2552 3580 L 2552 3582 L 2560 3589 L 2564 3588 L 2563 3586 L 2559 3584 L 2557 3580 Z
M 1214 3580 L 1213 3582 L 1216 3583 L 1217 3582 L 1216 3580 Z
M 459 3579 L 459 3586 L 460 3588 L 462 3588 L 462 3581 Z
M 2439 3571 L 2442 3571 L 2443 3569 L 2440 3569 Z
M 1192 3569 L 1193 3571 L 1196 3571 L 1195 3569 Z
M 1096 3573 L 1095 3568 L 1085 3570 L 1090 3575 L 1094 3575 Z
M 995 3567 L 994 3571 L 996 3573 L 996 3567 Z
M 1766 3566 L 1765 3567 L 1766 3573 L 1769 3573 L 1773 3579 L 1773 3571 L 1770 3567 Z
M 449 3565 L 448 3566 L 449 3572 L 452 3573 L 454 3579 L 457 3579 L 456 3571 Z
M 365 3562 L 364 3567 L 365 3569 L 368 3570 L 369 3566 Z
M 1760 3560 L 1760 3564 L 1762 3566 L 1763 3562 L 1762 3560 Z
M 1008 3555 L 1006 3555 L 1005 3557 L 1007 3558 Z
M 1754 3551 L 1753 3555 L 1756 3558 L 1757 3553 Z
M 1112 3551 L 1126 3551 L 1127 3550 L 1173 3551 L 1179 3556 L 1188 3556 L 1192 3558 L 1194 3561 L 1200 3562 L 1205 3567 L 1210 3568 L 1235 3593 L 1236 3598 L 1245 3610 L 1247 3618 L 1252 3625 L 1253 3634 L 1256 3637 L 1258 3643 L 1258 3657 L 1262 3674 L 1262 3691 L 1258 3706 L 1258 3720 L 1253 3728 L 1252 3739 L 1247 3746 L 1246 3752 L 1242 3757 L 1235 3771 L 1211 3795 L 1207 3796 L 1202 3801 L 1198 3801 L 1193 3806 L 1185 3807 L 1178 3812 L 1159 3813 L 1154 3816 L 1146 3816 L 1145 3817 L 1132 3816 L 1124 3813 L 1105 3812 L 1099 3807 L 1093 3807 L 1086 3801 L 1082 3801 L 1077 3796 L 1073 3795 L 1069 3790 L 1066 3789 L 1054 3775 L 1048 3770 L 1047 3766 L 1043 3761 L 1042 3756 L 1039 3754 L 1037 3750 L 1037 3746 L 1032 3738 L 1031 3729 L 1027 3721 L 1026 3704 L 1024 3698 L 1024 3671 L 1026 3664 L 1027 3648 L 1029 3645 L 1032 3628 L 1036 3621 L 1038 3614 L 1044 3603 L 1047 3601 L 1049 3596 L 1055 3588 L 1069 3574 L 1072 3573 L 1075 3569 L 1081 3567 L 1084 3563 L 1090 3562 L 1095 3557 L 1106 3556 Z
M 2355 3549 L 2353 3549 L 2352 3551 L 2354 3552 Z
M 1014 3549 L 1012 3549 L 1011 3551 L 1013 3552 Z
M 1749 3543 L 1748 3549 L 1751 3550 L 1752 3549 L 1751 3545 Z
M 2605 3542 L 2606 3545 L 2610 3546 L 2609 3544 Z
M 568 3539 L 568 3541 L 569 3540 L 571 3541 L 571 3539 Z
M 3154 3537 L 3153 3542 L 3155 3543 L 3156 3539 Z
M 3063 3537 L 3060 3540 L 3064 3544 L 3066 3539 Z
M 2598 3537 L 2598 3540 L 2603 3540 L 2602 3537 Z
M 1742 3537 L 1742 3541 L 1744 3544 L 1745 3537 Z
M 347 3537 L 347 3541 L 348 3542 L 350 3541 L 354 3548 L 355 3547 L 354 3542 L 352 3542 L 349 3537 Z
M 652 3536 L 650 3538 L 649 3545 L 646 3546 L 646 3548 L 652 3545 L 653 3543 Z
M 2594 3532 L 2592 3531 L 2590 3533 L 2593 3534 Z
M 1737 3531 L 1736 3533 L 1739 3536 L 1740 3533 L 1739 3531 Z
M 1253 3532 L 1251 3531 L 1249 3533 L 1252 3534 Z
M 1035 3531 L 1034 3534 L 1037 3534 L 1037 3532 Z
M 1902 3526 L 1901 3530 L 1902 3532 L 1902 3582 L 1901 3584 L 1902 3588 L 1904 3587 L 1904 3528 Z
M 1731 3521 L 1731 3526 L 1733 3527 L 1733 3524 Z
M 3590 3520 L 3589 3525 L 3585 3531 L 3589 3538 L 3589 3554 L 3585 3560 L 3589 3567 L 3589 3634 L 3586 3638 L 3589 3643 L 3589 3663 L 3585 3670 L 3589 3677 L 3589 3721 L 3586 3725 L 3586 3748 L 3590 3755 L 3589 3758 L 3590 3769 L 3589 3773 L 3586 3777 L 3586 3806 L 3589 3811 L 3589 3830 L 3586 3835 L 3589 3842 L 3591 3843 L 3592 3842 L 3592 3522 Z
M 419 3520 L 418 3522 L 419 3527 L 421 3527 L 424 3530 L 424 3533 L 427 3536 L 427 3529 L 426 3527 L 424 3527 L 422 3525 L 421 3521 Z
M 1726 3515 L 1725 3516 L 1726 3521 L 1728 3521 Z
M 3601 3512 L 3599 3514 L 3599 3849 L 3600 3851 L 3605 3853 L 3641 3853 L 3646 3854 L 3650 3853 L 3654 3850 L 3655 3843 L 3654 3837 L 3654 3792 L 3655 3791 L 3655 3618 L 3654 3617 L 3655 3549 L 3654 3548 L 3654 3514 L 3652 3512 Z
M 3086 3512 L 3084 3514 L 3083 3520 L 3079 3526 L 3077 3535 L 3073 3539 L 3072 3547 L 3068 3552 L 3066 3563 L 3062 3567 L 3061 3575 L 3056 3581 L 3055 3588 L 3049 3596 L 3048 3603 L 3043 3608 L 3042 3617 L 3039 3620 L 3037 3628 L 3032 3635 L 3031 3643 L 3027 3648 L 3026 3655 L 3020 3665 L 3020 3670 L 3015 3677 L 3013 3686 L 3011 3687 L 3009 3691 L 3008 3698 L 3003 3704 L 3002 3710 L 2997 3717 L 2996 3725 L 2992 3731 L 2991 3738 L 2986 3745 L 2985 3752 L 2981 3757 L 2979 3767 L 2975 3771 L 2973 3780 L 2968 3787 L 2968 3791 L 2963 3800 L 2961 3809 L 2956 3816 L 2956 3821 L 2952 3827 L 2951 3834 L 2945 3843 L 2946 3851 L 2949 3853 L 2999 3853 L 3001 3851 L 3002 3846 L 3007 3840 L 3008 3830 L 3013 3825 L 3013 3817 L 3018 3813 L 3019 3804 L 3024 3797 L 3025 3789 L 3030 3784 L 3030 3777 L 3036 3768 L 3036 3764 L 3038 3760 L 3042 3756 L 3042 3747 L 3047 3743 L 3048 3734 L 3050 3730 L 3053 3728 L 3053 3720 L 3059 3712 L 3059 3706 L 3065 3698 L 3066 3690 L 3070 3687 L 3071 3677 L 3076 3671 L 3078 3661 L 3082 3658 L 3083 3649 L 3087 3645 L 3089 3633 L 3094 3629 L 3094 3620 L 3099 3616 L 3100 3606 L 3105 3600 L 3106 3590 L 3108 3586 L 3111 3584 L 3113 3587 L 3114 3598 L 3119 3602 L 3119 3611 L 3124 3616 L 3125 3625 L 3130 3631 L 3131 3641 L 3136 3646 L 3136 3652 L 3141 3660 L 3142 3669 L 3147 3676 L 3149 3687 L 3153 3691 L 3154 3700 L 3159 3706 L 3160 3715 L 3164 3720 L 3165 3727 L 3167 3732 L 3170 3735 L 3172 3744 L 3176 3747 L 3177 3757 L 3182 3763 L 3183 3773 L 3188 3777 L 3189 3787 L 3194 3793 L 3194 3801 L 3200 3808 L 3201 3817 L 3206 3823 L 3206 3831 L 3211 3837 L 3211 3841 L 3213 3846 L 3220 3853 L 3266 3853 L 3270 3851 L 3270 3843 L 3267 3833 L 3262 3824 L 3261 3816 L 3257 3812 L 3255 3801 L 3250 3793 L 3250 3788 L 3245 3782 L 3244 3774 L 3239 3768 L 3238 3760 L 3233 3753 L 3233 3748 L 3227 3738 L 3226 3730 L 3222 3726 L 3221 3718 L 3216 3711 L 3214 3701 L 3210 3697 L 3209 3689 L 3205 3685 L 3204 3677 L 3198 3668 L 3198 3661 L 3193 3655 L 3192 3647 L 3187 3641 L 3186 3632 L 3181 3626 L 3180 3618 L 3175 3611 L 3174 3602 L 3170 3599 L 3169 3590 L 3165 3586 L 3163 3581 L 3163 3577 L 3158 3570 L 3157 3561 L 3153 3558 L 3152 3550 L 3146 3541 L 3145 3533 L 3140 3527 L 3140 3521 L 3135 3516 L 3135 3514 L 3133 3512 Z
M 1964 3513 L 1962 3512 L 1946 3512 L 1945 3511 L 1927 3511 L 1926 3512 L 1915 3512 L 1911 3516 L 1911 3561 L 1910 3562 L 1910 3575 L 1911 3576 L 1910 3726 L 1911 3727 L 1911 3760 L 1912 3761 L 1911 3765 L 1906 3760 L 1903 3753 L 1892 3742 L 1891 3739 L 1892 3736 L 1897 3737 L 1898 3742 L 1902 3745 L 1904 3744 L 1904 3672 L 1902 3671 L 1901 3675 L 1902 3676 L 1902 3715 L 1899 3719 L 1887 3719 L 1884 3716 L 1881 3716 L 1881 3719 L 1886 3722 L 1888 3728 L 1892 3729 L 1892 3736 L 1890 3737 L 1887 3735 L 1885 3730 L 1880 3726 L 1879 3722 L 1868 3711 L 1861 3699 L 1856 3695 L 1856 3693 L 1854 3691 L 1851 3690 L 1850 3686 L 1846 3683 L 1844 3677 L 1833 3666 L 1833 3664 L 1828 3660 L 1827 3657 L 1823 3653 L 1822 3649 L 1811 3638 L 1798 3618 L 1794 3616 L 1792 3611 L 1787 3608 L 1787 3606 L 1782 3601 L 1781 3597 L 1776 3592 L 1775 3589 L 1773 3587 L 1771 3587 L 1769 3583 L 1765 3580 L 1757 3566 L 1747 3556 L 1746 3553 L 1741 3548 L 1740 3544 L 1736 3541 L 1734 3536 L 1729 3533 L 1728 3530 L 1724 3527 L 1723 3524 L 1718 3519 L 1718 3517 L 1713 3512 L 1663 3512 L 1661 3513 L 1660 3515 L 1659 3652 L 1660 3653 L 1660 3847 L 1662 3851 L 1667 3853 L 1708 3853 L 1712 3851 L 1713 3845 L 1713 3627 L 1714 3626 L 1713 3597 L 1714 3596 L 1718 3599 L 1721 3606 L 1724 3608 L 1726 3612 L 1730 3615 L 1732 3619 L 1743 3631 L 1745 3636 L 1748 3638 L 1749 3641 L 1753 3644 L 1755 3649 L 1761 3655 L 1766 3664 L 1771 3668 L 1773 3673 L 1777 3677 L 1777 3680 L 1789 3692 L 1790 3695 L 1795 3700 L 1797 3705 L 1807 3715 L 1807 3717 L 1819 3731 L 1820 3734 L 1823 3736 L 1824 3739 L 1829 3743 L 1830 3746 L 1835 3751 L 1842 3762 L 1846 3765 L 1847 3768 L 1853 3774 L 1854 3778 L 1859 3782 L 1860 3786 L 1870 3796 L 1872 3801 L 1875 3803 L 1878 3809 L 1882 3812 L 1888 3821 L 1893 3825 L 1894 3829 L 1900 3835 L 1901 3838 L 1905 3841 L 1912 3852 L 1914 3853 L 1953 3853 L 1955 3854 L 1962 3853 L 1965 3850 L 1967 3837 L 1966 3836 L 1966 3516 Z
M 345 3513 L 346 3523 L 354 3531 L 355 3535 L 367 3550 L 374 3562 L 384 3574 L 384 3576 L 391 3586 L 396 3591 L 397 3595 L 407 3608 L 409 3613 L 419 3625 L 425 3635 L 430 3640 L 432 3645 L 441 3656 L 443 3661 L 447 3665 L 448 3669 L 453 3674 L 455 3679 L 459 3683 L 460 3687 L 464 3691 L 472 3705 L 473 3709 L 472 3713 L 472 3733 L 473 3734 L 473 3745 L 472 3746 L 472 3844 L 474 3850 L 479 3853 L 523 3853 L 526 3852 L 528 3845 L 528 3709 L 529 3706 L 532 3703 L 533 3698 L 538 3694 L 539 3690 L 544 3687 L 545 3682 L 550 3677 L 551 3673 L 555 3671 L 556 3667 L 561 3662 L 562 3657 L 567 3653 L 568 3649 L 573 3645 L 574 3639 L 579 3635 L 579 3633 L 585 3627 L 585 3623 L 590 3619 L 591 3615 L 596 3611 L 598 3604 L 602 3601 L 603 3597 L 608 3594 L 609 3587 L 613 3584 L 614 3580 L 619 3577 L 620 3573 L 625 3568 L 626 3563 L 629 3562 L 632 3556 L 637 3552 L 638 3546 L 642 3543 L 643 3539 L 648 3535 L 649 3530 L 653 3527 L 654 3523 L 659 3519 L 659 3514 L 651 3511 L 601 3512 L 593 3520 L 592 3525 L 588 3529 L 586 3534 L 581 3538 L 581 3541 L 577 3545 L 575 3551 L 570 3555 L 569 3559 L 565 3563 L 563 3568 L 558 3572 L 557 3577 L 553 3581 L 552 3585 L 546 3590 L 546 3595 L 536 3607 L 535 3611 L 530 3616 L 528 3621 L 524 3624 L 523 3628 L 518 3633 L 517 3637 L 511 3642 L 511 3646 L 506 3651 L 505 3656 L 501 3657 L 498 3653 L 498 3649 L 493 3645 L 492 3641 L 487 3637 L 486 3632 L 481 3627 L 480 3623 L 476 3621 L 474 3615 L 470 3611 L 469 3607 L 464 3604 L 463 3599 L 458 3593 L 457 3589 L 452 3586 L 446 3573 L 440 3568 L 434 3555 L 429 3551 L 428 3547 L 423 3541 L 423 3538 L 417 3533 L 416 3530 L 412 3526 L 411 3521 L 406 3517 L 404 3512 L 402 3511 L 360 3511 L 359 3512 L 347 3512 Z
M 2473 3505 L 2459 3507 L 2450 3511 L 2434 3512 L 2426 3517 L 2415 3518 L 2410 3523 L 2402 3524 L 2397 3529 L 2390 3530 L 2387 3534 L 2382 3535 L 2378 3540 L 2372 3542 L 2362 3552 L 2359 3553 L 2355 3558 L 2352 3559 L 2349 3564 L 2346 3565 L 2345 3568 L 2339 3573 L 2339 3576 L 2334 3582 L 2333 3586 L 2328 3589 L 2327 3596 L 2322 3601 L 2320 3610 L 2316 3613 L 2315 3624 L 2310 3632 L 2309 3650 L 2305 3660 L 2304 3693 L 2306 3707 L 2310 3718 L 2310 3731 L 2315 3738 L 2316 3749 L 2321 3754 L 2322 3762 L 2327 3766 L 2328 3774 L 2333 3778 L 2334 3781 L 2338 3785 L 2340 3791 L 2364 3816 L 2367 3817 L 2372 3822 L 2376 3823 L 2381 3828 L 2386 3830 L 2389 3833 L 2395 3835 L 2398 3838 L 2408 3841 L 2413 3845 L 2426 3848 L 2428 3850 L 2440 3853 L 2447 3853 L 2454 3856 L 2466 3858 L 2496 3858 L 2497 3857 L 2514 3856 L 2522 3853 L 2529 3853 L 2542 3850 L 2571 3839 L 2574 3836 L 2582 3833 L 2585 3830 L 2590 3828 L 2595 3823 L 2600 3821 L 2631 3792 L 2632 3787 L 2632 3724 L 2631 3723 L 2632 3720 L 2632 3669 L 2631 3665 L 2629 3663 L 2625 3662 L 2488 3662 L 2481 3665 L 2479 3670 L 2479 3687 L 2480 3688 L 2479 3706 L 2485 3712 L 2491 3713 L 2579 3712 L 2581 3714 L 2580 3719 L 2580 3769 L 2579 3771 L 2567 3783 L 2563 3784 L 2560 3788 L 2554 3790 L 2548 3795 L 2542 3796 L 2536 3801 L 2529 3801 L 2524 3805 L 2519 3807 L 2506 3807 L 2493 3811 L 2474 3810 L 2465 3807 L 2452 3807 L 2446 3805 L 2441 3801 L 2434 3801 L 2427 3795 L 2423 3795 L 2419 3790 L 2414 3789 L 2410 3784 L 2408 3784 L 2395 3771 L 2384 3757 L 2375 3739 L 2373 3730 L 2368 3718 L 2365 3703 L 2365 3689 L 2364 3688 L 2365 3655 L 2367 3651 L 2368 3643 L 2370 3640 L 2371 3632 L 2374 3628 L 2383 3607 L 2393 3593 L 2407 3579 L 2409 3579 L 2413 3574 L 2417 3573 L 2422 3568 L 2426 3568 L 2434 3562 L 2439 3562 L 2447 3556 L 2461 3556 L 2475 3551 L 2495 3551 L 2500 3552 L 2506 3556 L 2520 3556 L 2524 3557 L 2531 3562 L 2538 3562 L 2543 3567 L 2549 3568 L 2553 3573 L 2557 3574 L 2562 3579 L 2566 3581 L 2578 3595 L 2582 3598 L 2584 3602 L 2594 3602 L 2600 3596 L 2602 3592 L 2605 3591 L 2616 3580 L 2623 3578 L 2623 3572 L 2620 3566 L 2601 3547 L 2598 3546 L 2594 3541 L 2590 3540 L 2587 3536 L 2581 3534 L 2575 3529 L 2571 3529 L 2566 3524 L 2559 3523 L 2553 3518 L 2542 3517 L 2534 3512 L 2520 3511 L 2511 3507 L 2505 3507 L 2498 3505 L 2495 3506 L 2490 3505 L 2489 3506 L 2476 3506 Z
M 1132 3505 L 1124 3507 L 1117 3507 L 1107 3511 L 1090 3512 L 1084 3517 L 1073 3518 L 1068 3523 L 1060 3524 L 1056 3529 L 1048 3530 L 1044 3535 L 1040 3535 L 1036 3540 L 1032 3541 L 1021 3552 L 1018 3553 L 1011 3560 L 1009 3564 L 1004 3568 L 1004 3570 L 999 3576 L 998 3580 L 992 3584 L 991 3590 L 982 3602 L 980 3611 L 975 3618 L 974 3628 L 969 3636 L 969 3655 L 968 3662 L 964 3671 L 964 3699 L 969 3714 L 969 3730 L 971 3734 L 974 3736 L 975 3749 L 980 3753 L 981 3763 L 985 3765 L 987 3774 L 992 3778 L 996 3784 L 999 3792 L 1002 3793 L 1004 3797 L 1009 3801 L 1010 3804 L 1022 3816 L 1025 3817 L 1030 3823 L 1034 3824 L 1038 3828 L 1042 3829 L 1046 3834 L 1051 3835 L 1058 3840 L 1064 3841 L 1070 3845 L 1073 3845 L 1088 3851 L 1123 3858 L 1158 3858 L 1159 3857 L 1174 3856 L 1182 3853 L 1200 3850 L 1204 3847 L 1213 3846 L 1221 3841 L 1226 3840 L 1230 3837 L 1238 3834 L 1243 3829 L 1247 3828 L 1252 3823 L 1256 3821 L 1265 3812 L 1269 3810 L 1282 3796 L 1290 3783 L 1294 3780 L 1297 3773 L 1301 3768 L 1313 3740 L 1314 3729 L 1316 3727 L 1319 3713 L 1319 3647 L 1313 3632 L 1313 3624 L 1307 3614 L 1306 3607 L 1303 3604 L 1301 3597 L 1297 3593 L 1294 3585 L 1274 3560 L 1260 3547 L 1257 3546 L 1253 3541 L 1250 3541 L 1244 3535 L 1239 3534 L 1236 3530 L 1229 3529 L 1224 3524 L 1217 3523 L 1212 3518 L 1201 3517 L 1195 3512 L 1179 3511 L 1171 3508 L 1160 3506 L 1134 3506 Z
M 2522 3498 L 2522 3503 L 2525 3503 L 2523 3501 L 2523 3498 Z
M 606 3503 L 645 3503 L 643 3498 L 610 3498 L 609 3501 Z
M 365 3503 L 371 3505 L 379 3505 L 384 3503 L 397 3503 L 395 3498 L 381 3498 L 380 3499 L 368 3498 Z
M 3611 3503 L 3613 3504 L 3645 3504 L 3646 3502 L 3643 3498 L 3619 3498 L 3616 3497 L 3614 3499 L 3614 3501 Z
M 3097 3503 L 3099 3504 L 3125 3504 L 3128 3503 L 3125 3502 L 3123 3498 L 3105 3498 L 3104 3497 L 3101 3498 L 3100 3501 Z
M 2486 3498 L 2487 3499 L 2500 3499 L 2501 3498 L 2500 3497 L 2487 3497 Z
M 2463 3498 L 2469 3500 L 2472 3498 L 2471 3497 L 2464 3497 Z
M 2454 3498 L 2449 3497 L 2448 3503 L 2452 3501 Z
M 1924 3503 L 1946 3503 L 1947 3504 L 1954 3503 L 1949 3498 L 1932 3498 L 1931 3497 L 1927 3498 L 1927 3500 Z
M 1706 3503 L 1702 3500 L 1702 3498 L 1699 3497 L 1697 3498 L 1674 3498 L 1669 3503 L 1672 3504 L 1703 3504 Z
M 1169 3498 L 1171 3500 L 1176 3499 L 1174 3497 Z
M 1113 3498 L 1111 3497 L 1110 3498 L 1102 3498 L 1099 3503 L 1105 3503 L 1108 3500 L 1111 3500 Z
M 1609 2991 L 1609 2993 L 1628 2993 L 1629 2994 L 1636 2993 L 1785 2993 L 1786 2994 L 1792 2993 L 2513 2993 L 2514 2994 L 2548 2993 L 2554 2994 L 2558 2992 L 2558 2991 L 2554 2990 L 2548 2991 L 2521 2991 L 2520 2990 L 2513 2991 L 1636 2991 L 1635 2990 Z
M 2575 2961 L 2574 2966 L 2576 2968 L 2577 2963 Z
M 2531 2931 L 2535 2934 L 2540 2934 L 2544 2936 L 2547 2935 L 2547 2932 L 2543 2930 Z
M 1621 2936 L 1639 2933 L 1640 2931 L 1637 2930 L 1623 2931 L 1621 2932 Z
M 1654 2925 L 1654 2927 L 1658 2926 L 1658 2925 Z
M 2495 2919 L 2500 2922 L 2505 2921 L 2504 2919 L 2498 2918 Z
M 1692 2908 L 1690 2907 L 1685 2908 L 1684 2912 L 1676 2913 L 1670 2918 L 1666 2919 L 1665 2921 L 1666 2922 L 1674 2921 L 1679 2916 L 1683 2915 L 1686 2911 L 1692 2909 Z
M 2474 2903 L 2476 2908 L 2483 2911 L 2483 2908 L 2479 2906 L 2478 2903 L 2476 2902 Z
M 2447 2885 L 2452 2890 L 2458 2892 L 2460 2894 L 2461 2898 L 2465 2898 L 2465 2896 L 2462 2895 L 2451 2884 Z
M 2425 2861 L 2424 2863 L 2431 2872 L 2439 2880 L 2444 2882 L 2444 2879 L 2440 2878 L 2438 2876 L 2438 2873 L 2435 2873 L 2433 2871 L 2432 2867 L 2428 2867 L 2427 2863 Z
M 1745 2846 L 1741 2846 L 1741 2854 L 1744 2851 L 1746 2851 Z
M 1760 2812 L 1758 2812 L 1757 2814 L 1758 2818 L 1760 2816 L 1761 2813 Z
M 2383 2805 L 2383 2807 L 2386 2808 L 2386 2806 Z
M 2361 2770 L 2360 2772 L 2366 2778 L 2368 2778 Z
M 1773 2754 L 1770 2754 L 1770 2761 L 1769 2762 L 1770 2765 L 1774 2764 L 1774 2755 Z
M 2351 2753 L 2349 2753 L 2350 2756 Z
M 2337 2734 L 2336 2735 L 2337 2739 L 2341 2740 L 2340 2735 Z
M 2306 2689 L 2307 2692 L 2310 2693 L 2311 2692 L 2310 2689 Z
M 2279 2648 L 2279 2651 L 2282 2652 L 2282 2649 Z
M 2256 2609 L 2255 2612 L 2258 2616 L 2259 2612 L 2258 2609 Z
M 2222 2561 L 2221 2563 L 2225 2567 L 2225 2564 Z
M 2324 2440 L 2323 2446 L 2324 2448 L 2326 2448 L 2329 2451 L 2329 2453 L 2331 2455 L 2332 2450 L 2327 2447 L 2326 2442 Z
M 2141 2435 L 2138 2433 L 2136 2434 L 2136 2439 L 2140 2438 Z
M 2318 2432 L 2317 2436 L 2318 2438 L 2320 2438 L 2320 2432 Z
M 2312 2423 L 2312 2430 L 2315 2431 L 2315 2425 Z
M 2306 2415 L 2306 2420 L 2308 2421 L 2309 2416 Z
M 2295 2398 L 2294 2404 L 2303 2414 L 2303 2410 L 2298 2405 L 2297 2400 Z
M 2284 2380 L 2283 2381 L 2284 2387 L 2285 2386 Z
M 2278 2373 L 2276 2375 L 2277 2379 L 2279 2380 L 2280 2375 Z
M 2267 2357 L 2265 2363 L 2269 2367 L 2270 2370 L 2272 2372 L 2274 2372 L 2274 2365 L 2273 2363 L 2269 2362 L 2268 2357 Z
M 2255 2340 L 2254 2344 L 2256 2345 L 2256 2340 Z
M 2237 2313 L 2236 2315 L 2237 2321 L 2242 2324 L 2243 2328 L 2245 2328 L 2245 2322 L 2243 2322 L 2240 2319 L 2239 2314 Z
M 2232 2305 L 2231 2310 L 2233 2311 L 2233 2305 Z
M 2226 2295 L 2225 2302 L 2227 2304 L 2228 2298 Z
M 2208 2271 L 2207 2274 L 2208 2278 L 2212 2282 L 2213 2285 L 2219 2289 L 2219 2292 L 2221 2294 L 2222 2288 L 2217 2286 L 2216 2278 L 2211 2275 L 2210 2270 Z
M 2015 2255 L 2014 2256 L 2015 2260 L 2016 2259 Z
M 2195 2253 L 2196 2258 L 2199 2259 L 2199 2253 Z
M 2009 2249 L 2008 2250 L 2010 2254 L 2011 2250 Z
M 2180 2229 L 2179 2236 L 2183 2242 L 2188 2245 L 2190 2250 L 2193 2251 L 2192 2243 L 2188 2241 L 2187 2235 L 2184 2236 Z
M 2175 2218 L 2173 2219 L 2174 2225 L 2176 2223 Z
M 2151 2191 L 2156 2197 L 2156 2199 L 2158 2200 L 2158 2195 Z
M 2139 2166 L 2138 2171 L 2141 2172 L 2141 2169 Z
M 2127 2149 L 2126 2155 L 2128 2158 L 2131 2159 L 2132 2163 L 2135 2165 L 2136 2160 L 2134 2158 L 2130 2157 L 2129 2150 Z
M 1933 2134 L 1934 2139 L 1935 2139 L 1935 2134 Z
M 2117 2132 L 2115 2132 L 2115 2140 L 2117 2145 L 2115 2147 L 2114 2146 L 2111 2148 L 2112 2151 L 2111 2157 L 2112 2158 L 2114 2158 L 2120 2150 L 2124 2149 L 2124 2143 L 2120 2142 L 2118 2140 Z
M 2110 2126 L 2109 2130 L 2110 2132 L 2112 2132 L 2112 2126 Z
M 1922 2121 L 1922 2124 L 1927 2126 L 1928 2133 L 1929 2133 L 1930 2126 L 1926 2122 Z
M 2104 2115 L 2103 2119 L 2104 2121 L 2106 2121 L 2106 2116 Z
M 2100 2108 L 2098 2109 L 2099 2115 L 2101 2114 Z
M 1899 2081 L 1898 2086 L 1900 2088 L 1901 2082 Z
M 2070 2064 L 2069 2071 L 2071 2072 L 2072 2067 Z
M 1864 2030 L 1864 2034 L 1866 2037 L 1869 2038 L 1870 2046 L 1872 2046 L 1872 2038 Z
M 1859 2023 L 1858 2027 L 1860 2029 L 1861 2025 Z
M 2041 2022 L 2040 2027 L 2042 2028 L 2043 2026 L 2042 2022 Z
M 1852 2012 L 1852 2016 L 1854 2018 L 1855 2014 L 1854 2012 Z
M 2024 1996 L 2023 2003 L 2027 2011 L 2033 2016 L 2035 2021 L 2036 2021 L 2037 2014 L 2032 2012 L 2030 2004 L 2028 2005 L 2026 2004 L 2025 2002 L 2026 1997 Z
M 1840 1995 L 1840 2001 L 1843 2005 L 1846 2006 L 1847 2012 L 1849 2011 L 1849 2004 L 1845 2001 L 1843 1996 Z
M 1836 1988 L 1835 1993 L 1837 1994 Z
M 2019 1987 L 2017 1988 L 2017 1993 L 2020 1992 Z
M 2012 1981 L 2012 1986 L 2014 1986 L 2014 1982 Z
M 2006 1971 L 2005 1974 L 2007 1976 L 2008 1973 Z
M 1824 1971 L 1823 1974 L 1825 1977 L 1826 1972 Z
M 2001 1964 L 2000 1969 L 2002 1970 L 2002 1964 Z
M 1818 1961 L 1819 1966 L 1820 1962 Z
M 1813 1953 L 1812 1954 L 1813 1960 L 1814 1959 Z
M 1791 1943 L 1788 1949 L 1788 1958 L 1789 1959 L 1789 1986 L 1788 1987 L 1788 2185 L 1789 2186 L 1789 2241 L 1788 2242 L 1788 2721 L 1785 2733 L 1782 2770 L 1778 2779 L 1777 2791 L 1772 2802 L 1771 2812 L 1766 2820 L 1765 2829 L 1761 2834 L 1760 2840 L 1755 2845 L 1754 2851 L 1750 2855 L 1749 2859 L 1744 2864 L 1743 2868 L 1739 2871 L 1738 2875 L 1734 2877 L 1732 2881 L 1719 2895 L 1708 2905 L 1705 2906 L 1702 2910 L 1698 2911 L 1694 2915 L 1689 2917 L 1686 2921 L 1679 2923 L 1674 2928 L 1667 2929 L 1660 2934 L 1652 2935 L 1645 2940 L 1633 2941 L 1625 2945 L 1612 2946 L 1606 2950 L 1603 2958 L 1603 2978 L 1604 2981 L 1607 2983 L 1613 2984 L 1619 2983 L 1688 2983 L 1689 2984 L 1709 2984 L 1710 2983 L 1746 2983 L 1747 2984 L 1784 2984 L 1785 2983 L 1827 2983 L 1828 2984 L 1870 2984 L 1871 2983 L 2417 2983 L 2418 2984 L 2495 2984 L 2496 2983 L 2559 2983 L 2562 2982 L 2566 2975 L 2566 2964 L 2564 2952 L 2561 2947 L 2546 2945 L 2538 2941 L 2527 2940 L 2518 2935 L 2510 2934 L 2504 2930 L 2497 2928 L 2492 2924 L 2484 2921 L 2480 2917 L 2475 2916 L 2471 2911 L 2459 2904 L 2456 2900 L 2453 2899 L 2439 2887 L 2420 2868 L 2389 2831 L 2387 2826 L 2378 2815 L 2376 2810 L 2373 2807 L 2372 2803 L 2368 2799 L 2359 2783 L 2356 2780 L 2355 2775 L 2350 2771 L 2347 2764 L 2344 2761 L 2343 2757 L 2339 2754 L 2336 2747 L 2333 2744 L 2332 2740 L 2326 2734 L 2319 2721 L 2313 2714 L 2313 2712 L 2303 2700 L 2301 2695 L 2297 2691 L 2296 2687 L 2292 2684 L 2290 2679 L 2286 2675 L 2285 2671 L 2280 2667 L 2273 2652 L 2268 2648 L 2267 2644 L 2263 2640 L 2261 2634 L 2257 2631 L 2254 2624 L 2251 2621 L 2251 2619 L 2246 2614 L 2244 2607 L 2234 2597 L 2232 2591 L 2228 2587 L 2227 2583 L 2222 2579 L 2221 2575 L 2217 2571 L 2216 2566 L 2211 2563 L 2209 2558 L 2205 2554 L 2204 2549 L 2199 2545 L 2197 2540 L 2193 2537 L 2191 2531 L 2187 2528 L 2186 2524 L 2182 2520 L 2181 2515 L 2176 2511 L 2174 2506 L 2170 2502 L 2169 2497 L 2164 2493 L 2163 2489 L 2158 2484 L 2157 2480 L 2153 2477 L 2150 2469 L 2147 2467 L 2146 2462 L 2140 2457 L 2140 2454 L 2135 2448 L 2134 2444 L 2130 2441 L 2128 2436 L 2124 2432 L 2123 2428 L 2118 2424 L 2117 2420 L 2112 2415 L 2112 2411 L 2106 2406 L 2105 2402 L 2100 2397 L 2099 2393 L 2095 2390 L 2094 2386 L 2089 2381 L 2087 2375 L 2082 2371 L 2082 2369 L 2077 2364 L 2076 2358 L 2071 2355 L 2070 2351 L 2065 2346 L 2065 2342 L 2060 2338 L 2058 2333 L 2054 2329 L 2053 2324 L 2048 2320 L 2046 2315 L 2042 2311 L 2041 2306 L 2037 2303 L 2035 2298 L 2032 2296 L 2031 2290 L 2026 2287 L 2024 2282 L 2019 2278 L 2018 2273 L 2008 2261 L 2006 2256 L 2002 2252 L 2001 2248 L 1996 2244 L 1995 2239 L 1990 2234 L 1989 2230 L 1984 2227 L 1983 2221 L 1979 2218 L 1977 2212 L 1975 2212 L 1973 2210 L 1972 2205 L 1967 2200 L 1966 2196 L 1961 2192 L 1960 2187 L 1955 2182 L 1954 2178 L 1950 2175 L 1949 2169 L 1944 2165 L 1943 2161 L 1938 2157 L 1937 2151 L 1933 2148 L 1931 2143 L 1926 2139 L 1925 2134 L 1921 2131 L 1920 2127 L 1915 2122 L 1913 2117 L 1909 2114 L 1908 2109 L 1903 2105 L 1902 2100 L 1897 2095 L 1896 2091 L 1892 2089 L 1891 2085 L 1886 2079 L 1885 2075 L 1880 2071 L 1879 2066 L 1874 2061 L 1873 2056 L 1871 2056 L 1869 2054 L 1868 2048 L 1863 2044 L 1862 2040 L 1857 2036 L 1856 2031 L 1851 2026 L 1850 2022 L 1845 2018 L 1845 2015 L 1840 2010 L 1838 2004 L 1834 2002 L 1833 1997 L 1828 1992 L 1827 1988 L 1823 1985 L 1822 1981 L 1817 1975 L 1816 1971 L 1811 1967 L 1810 1962 L 1805 1957 L 1804 1953 L 1800 1950 L 1799 1944 L 1797 1942 Z
M 1973 1921 L 1971 1921 L 1968 1927 L 1969 1929 L 1973 1928 L 1974 1926 Z
M 1942 1877 L 1939 1881 L 1942 1886 L 1945 1887 L 1945 1882 L 1943 1877 Z
M 1914 1837 L 1913 1844 L 1920 1850 L 1921 1845 L 1919 1843 L 1918 1844 L 1916 1843 L 1915 1837 Z
M 2367 1816 L 2366 1817 L 2366 1837 L 2365 1838 L 2366 1844 L 2366 2264 L 2365 2265 L 2366 2272 L 2366 2293 L 2365 2294 L 2366 2301 L 2366 2323 L 2365 2324 L 2366 2432 L 2365 2439 L 2366 2440 L 2366 2450 L 2367 2454 L 2369 2453 L 2369 1817 Z
M 2338 1770 L 2337 1772 L 2339 1773 L 2339 1770 Z
M 1845 1739 L 1844 1740 L 1845 1744 L 1846 1743 Z
M 2303 1719 L 2306 1727 L 2310 1733 L 2311 1726 L 2309 1724 L 2307 1724 L 2305 1720 Z
M 2298 1712 L 2297 1714 L 2298 1717 L 2300 1718 L 2300 1715 Z
M 1811 1695 L 1817 1702 L 1815 1695 L 1813 1696 Z
M 2274 1678 L 2275 1682 L 2281 1687 L 2282 1684 L 2279 1683 Z
M 1782 1655 L 1789 1662 L 1787 1657 L 1785 1655 Z
M 2219 1597 L 2220 1599 L 2224 1600 L 2223 1596 Z
M 2196 1562 L 2196 1565 L 2200 1564 L 2200 1563 Z
M 1719 1562 L 1720 1564 L 1722 1565 L 1723 1564 L 1722 1561 Z
M 1683 1510 L 1683 1517 L 1686 1517 L 1688 1515 L 1688 1512 L 1685 1512 Z
M 2136 1469 L 2135 1470 L 2136 1474 L 2142 1478 L 2142 1476 L 2138 1473 Z
M 1643 1458 L 1643 1460 L 1645 1460 L 1648 1465 L 1653 1468 L 1653 1470 L 1655 1472 L 1656 1470 L 1654 1466 L 1649 1463 L 1646 1459 Z
M 2409 1431 L 2410 1435 L 2412 1437 L 2412 1432 Z
M 2405 1421 L 2404 1428 L 2407 1430 L 2407 1424 Z
M 2468 1410 L 2466 1410 L 2461 1420 L 2464 1420 L 2468 1417 L 2470 1414 L 2470 1412 Z
M 2393 1404 L 2393 1413 L 2395 1418 L 2398 1421 L 2401 1421 L 2402 1420 L 2401 1415 L 2396 1411 L 2395 1404 Z
M 2478 1398 L 2477 1398 L 2476 1402 L 2478 1401 Z
M 2382 1386 L 2381 1394 L 2383 1396 L 2385 1396 L 2387 1402 L 2390 1403 L 2390 1399 L 2388 1396 L 2385 1395 L 2384 1389 Z
M 2370 1371 L 2370 1377 L 2373 1378 L 2376 1385 L 2378 1385 L 2377 1379 L 2373 1377 L 2372 1371 Z
M 1585 1369 L 1584 1370 L 1585 1374 L 1589 1374 L 1589 1372 Z
M 2506 1357 L 2505 1361 L 2506 1363 L 2509 1363 L 2511 1360 Z
M 2372 1342 L 2370 1343 L 2370 1346 L 2372 1345 Z
M 2378 1335 L 2376 1335 L 2375 1337 L 2375 1341 L 2377 1342 L 2379 1337 Z
M 2383 1325 L 2381 1327 L 2381 1333 L 2383 1333 L 2384 1331 Z
M 1544 1312 L 1544 1318 L 1548 1322 L 1551 1322 L 1551 1317 L 1548 1316 Z
M 2401 1301 L 2399 1302 L 2400 1307 L 2402 1303 Z
M 2414 1284 L 2412 1284 L 2404 1295 L 2405 1301 L 2406 1301 L 2408 1295 L 2412 1293 Z
M 2564 1282 L 2563 1285 L 2558 1289 L 2557 1293 L 2555 1295 L 2553 1295 L 2551 1301 L 2546 1305 L 2545 1310 L 2547 1310 L 2554 1303 L 2556 1299 L 2565 1289 L 2566 1285 Z
M 1515 1271 L 1515 1275 L 1517 1276 L 1518 1274 Z
M 2594 1244 L 2592 1245 L 2592 1248 L 2588 1251 L 2588 1253 L 2590 1253 L 2591 1251 L 2594 1250 L 2595 1248 Z
M 1982 1242 L 1980 1243 L 1980 1249 L 1982 1249 L 1985 1246 L 1984 1243 Z
M 2447 1237 L 2445 1238 L 2442 1243 L 2439 1244 L 2440 1249 L 2442 1248 L 2445 1243 L 2447 1243 L 2448 1239 Z
M 2454 1227 L 2451 1228 L 2450 1230 L 2451 1235 L 2454 1232 Z
M 2611 1224 L 2608 1228 L 2606 1228 L 2604 1230 L 2603 1233 L 2604 1235 L 2611 1228 Z
M 2459 1220 L 2457 1220 L 2456 1226 L 2459 1225 Z
M 1964 1219 L 1962 1220 L 1962 1222 L 1964 1222 Z
M 1480 1219 L 1480 1223 L 1482 1224 L 1482 1221 Z
M 1469 1208 L 1469 1211 L 1473 1213 L 1474 1217 L 1478 1218 L 1476 1213 Z
M 2621 1207 L 2621 1212 L 2623 1212 L 2623 1208 Z
M 2471 1203 L 2469 1203 L 2467 1208 L 2462 1212 L 2463 1218 L 2465 1216 L 2465 1212 L 2470 1209 Z
M 1953 1202 L 1952 1203 L 1956 1206 L 1956 1210 L 1958 1214 L 1959 1206 Z
M 1463 1196 L 1464 1201 L 1465 1197 Z
M 2635 1191 L 2632 1194 L 2634 1196 Z
M 2484 1186 L 2481 1186 L 2477 1193 L 2475 1194 L 2474 1196 L 2475 1203 L 2477 1197 L 2481 1195 Z
M 2642 1184 L 2639 1183 L 2638 1189 L 2640 1189 Z
M 2651 1172 L 2645 1177 L 2644 1183 L 2646 1182 L 2648 1178 L 2652 1176 Z
M 1446 1172 L 1445 1177 L 1447 1178 L 1449 1177 L 1451 1180 L 1451 1183 L 1453 1183 L 1453 1179 L 1450 1178 Z
M 2516 1139 L 2514 1141 L 2513 1145 L 2509 1145 L 2508 1148 L 2510 1151 L 2512 1146 L 2514 1144 L 2516 1144 Z
M 2526 1122 L 2526 1126 L 2528 1127 L 2528 1122 Z
M 1410 1121 L 1411 1129 L 1413 1129 L 1417 1136 L 1419 1137 L 1418 1132 L 1414 1129 L 1413 1124 Z
M 1893 1115 L 1893 1121 L 1894 1122 L 1896 1121 L 1900 1127 L 1901 1121 L 1896 1115 Z
M 1399 1105 L 1398 1109 L 1400 1113 L 1402 1113 L 1404 1115 L 1405 1119 L 1407 1120 L 1407 1115 L 1402 1111 L 1402 1108 Z
M 2540 1104 L 2537 1106 L 2536 1110 L 2532 1112 L 2531 1114 L 2532 1119 L 2534 1118 L 2535 1113 L 2540 1110 L 2541 1106 Z
M 2545 1098 L 2543 1099 L 2543 1104 L 2546 1101 Z
M 1393 1097 L 1392 1098 L 1393 1102 L 1395 1103 L 1396 1100 L 1395 1097 Z
M 1388 1091 L 1388 1096 L 1390 1096 Z
M 2551 1087 L 2549 1089 L 2550 1093 L 2552 1091 Z
M 2715 1086 L 2713 1091 L 2708 1094 L 2707 1099 L 2702 1102 L 2701 1107 L 2697 1109 L 2696 1112 L 2691 1116 L 2690 1118 L 2691 1121 L 2694 1121 L 2699 1115 L 2699 1110 L 2703 1109 L 2706 1103 L 2709 1102 L 2712 1096 L 2716 1093 Z
M 2719 1080 L 2719 1085 L 2721 1085 L 2722 1082 L 2721 1080 Z
M 1866 1076 L 1871 1081 L 1871 1077 Z
M 1376 1074 L 1375 1078 L 1377 1080 L 1380 1080 L 1382 1085 L 1384 1085 L 1384 1081 L 1379 1077 L 1378 1074 Z
M 2733 1063 L 2731 1065 L 2732 1069 Z
M 2739 1056 L 2737 1056 L 2736 1058 L 2737 1063 L 2739 1062 L 2740 1059 Z
M 2580 1046 L 2578 1047 L 2579 1052 L 2581 1050 Z
M 2750 1041 L 2748 1043 L 2747 1047 L 2743 1050 L 2743 1055 L 2751 1047 Z
M 1840 1035 L 1840 1038 L 1842 1041 L 1843 1036 Z
M 2756 1033 L 2755 1033 L 2754 1039 L 2756 1039 L 2757 1035 Z
M 1836 1028 L 1835 1034 L 1837 1035 L 1838 1030 Z
M 2596 1024 L 2595 1026 L 2597 1028 L 2598 1025 Z
M 1341 1023 L 1341 1029 L 1345 1032 L 1349 1039 L 1351 1038 L 1350 1035 L 1344 1030 L 1343 1024 Z
M 2768 1019 L 2765 1021 L 2765 1025 L 2763 1027 L 2760 1027 L 2760 1033 L 2761 1033 L 2763 1028 L 2768 1024 Z
M 2603 1013 L 2601 1015 L 2602 1017 L 2603 1017 Z
M 2773 1011 L 2771 1014 L 2772 1017 L 2774 1016 Z
M 1330 1007 L 1329 1008 L 1330 1014 L 1334 1016 L 1336 1021 L 1338 1021 L 1337 1016 L 1333 1014 L 1332 1009 Z
M 2779 1004 L 2777 1005 L 2778 1011 L 2780 1009 Z
M 2612 1002 L 2607 1004 L 2607 1012 L 2609 1011 Z
M 1324 998 L 1323 1001 L 1324 1004 L 1326 1004 L 1326 999 Z
M 1318 989 L 1317 994 L 1319 997 L 1321 997 L 1320 990 Z
M 2796 982 L 2794 987 L 2788 991 L 2788 997 L 2783 998 L 2783 1003 L 2785 1002 L 2789 996 L 2792 995 L 2793 992 L 2797 988 Z
M 1313 981 L 1312 986 L 1314 987 L 1315 984 Z
M 1302 973 L 1303 979 L 1305 981 L 1309 981 L 1308 975 L 1306 973 L 1304 974 Z
M 1796 971 L 1796 975 L 1799 976 L 1801 983 L 1803 980 L 1803 976 Z
M 2808 969 L 2804 975 L 2800 976 L 2799 981 L 2801 982 L 2803 980 L 2803 977 L 2805 975 L 2807 975 Z
M 2641 960 L 2636 963 L 2637 970 L 2638 970 L 2639 965 L 2642 962 Z
M 2818 953 L 2817 957 L 2819 958 L 2820 954 Z
M 1782 949 L 1783 956 L 1785 958 L 1786 952 L 1784 949 Z
M 1778 942 L 1777 947 L 1779 949 L 1780 944 Z
M 2832 938 L 2829 939 L 2830 942 L 2832 941 Z
M 1772 932 L 1771 938 L 1773 940 L 1774 934 Z
M 2837 931 L 2835 932 L 2835 936 L 2838 934 Z
M 1272 924 L 1271 930 L 1276 937 L 1280 940 L 1280 933 L 1275 929 L 1273 924 Z
M 2855 909 L 2852 910 L 2852 913 L 2850 915 L 2846 916 L 2846 921 L 2841 924 L 2840 927 L 2841 930 L 2843 929 L 2844 925 L 2849 922 L 2851 917 L 2855 913 Z
M 1261 908 L 1260 915 L 1265 919 L 1266 923 L 1269 923 L 1268 918 L 1263 915 L 1263 911 Z
M 1755 907 L 1754 908 L 1755 914 L 1757 911 L 1757 909 Z
M 2861 901 L 2858 902 L 2857 907 L 2861 906 Z
M 1254 900 L 1254 905 L 1257 906 L 1257 903 Z
M 2684 897 L 2679 904 L 2677 904 L 2676 906 L 2676 910 L 2678 912 L 2679 907 L 2684 901 Z
M 1749 897 L 1748 899 L 1750 902 Z
M 2866 895 L 2864 895 L 2863 899 L 2865 901 Z
M 1742 890 L 1742 895 L 1743 897 L 1745 897 L 1745 891 Z
M 1243 884 L 1242 889 L 1248 895 L 1249 899 L 1251 900 L 1251 896 L 1250 894 L 1246 893 L 1246 889 L 1244 884 Z
M 2696 880 L 2694 881 L 2694 884 L 2695 884 Z
M 2878 879 L 2875 881 L 2876 884 L 2878 883 Z
M 2884 872 L 2882 872 L 2881 878 L 2883 878 Z
M 1232 872 L 1232 876 L 1237 880 L 1238 883 L 1240 883 L 1239 877 Z
M 2890 865 L 2887 866 L 2886 870 L 2887 872 L 2889 871 Z
M 2708 862 L 2706 862 L 2705 864 L 2706 867 L 2709 864 Z
M 2894 857 L 2892 859 L 2893 865 L 2896 861 L 2896 859 Z
M 2907 843 L 2905 843 L 2903 847 L 2899 850 L 2898 852 L 2899 855 L 2902 855 L 2906 851 Z
M 1708 839 L 1708 844 L 1713 848 L 1713 852 L 1715 856 L 1716 855 L 1716 847 Z
M 1202 827 L 1202 835 L 1206 837 L 1208 842 L 1210 843 L 1211 838 L 1206 834 L 1205 829 Z
M 2924 822 L 2922 822 L 2921 826 L 2915 830 L 2915 835 L 2910 837 L 2910 842 L 2913 840 L 2914 836 L 2917 835 L 2921 829 L 2924 827 L 2925 824 Z
M 1697 821 L 1696 825 L 1698 827 Z
M 2739 817 L 2735 818 L 2734 820 L 2735 826 L 2737 821 L 2739 820 Z
M 1691 815 L 1691 821 L 1692 821 L 1693 816 Z
M 2929 814 L 2928 814 L 2927 820 L 2930 819 Z
M 1191 810 L 1190 817 L 1196 821 L 1196 824 L 1198 826 L 1199 820 L 1194 818 L 1193 812 Z
M 1184 803 L 1185 807 L 1187 808 L 1187 803 Z
M 1680 797 L 1679 803 L 1683 805 L 1684 811 L 1686 813 L 1688 810 L 1688 807 L 1686 804 L 1684 804 L 1682 802 Z
M 2946 792 L 2944 795 L 2945 797 L 2947 797 L 2948 795 Z
M 1673 787 L 1673 790 L 1675 792 L 1675 788 Z
M 2951 786 L 2950 791 L 2953 791 L 2954 786 Z
M 1173 786 L 1174 794 L 1177 796 L 1180 801 L 1182 801 L 1182 795 L 1177 791 L 1175 786 Z
M 1668 780 L 1667 785 L 1669 786 L 1670 781 Z
M 2768 776 L 2765 775 L 2759 783 L 2762 783 Z
M 1162 773 L 1162 778 L 1166 779 L 1167 783 L 1169 785 L 1170 779 L 1166 778 L 1165 775 Z
M 2966 772 L 2963 772 L 2961 777 L 2957 779 L 2955 784 L 2956 785 L 2958 785 L 2959 781 L 2965 777 Z
M 1656 763 L 1655 764 L 1656 769 L 1659 769 L 1663 775 L 1664 770 L 1660 769 L 1658 763 Z
M 2976 758 L 2968 765 L 2967 767 L 2968 771 L 2977 762 Z
M 1152 756 L 1150 759 L 1151 761 L 1153 760 Z
M 2982 751 L 2980 752 L 2979 756 L 2982 756 Z
M 2988 744 L 2986 744 L 2984 750 L 2988 749 Z
M 2992 738 L 2991 743 L 2993 742 Z
M 2997 730 L 2996 732 L 2997 734 L 2999 734 L 3000 731 Z
M 2797 730 L 2794 730 L 2792 732 L 2793 738 Z
M 3005 723 L 3002 725 L 3003 728 L 3005 727 Z
M 1127 723 L 1127 729 L 1131 732 L 1132 737 L 1134 739 L 1136 739 L 1140 745 L 1142 743 L 1140 738 L 1136 735 L 1136 732 Z
M 3010 716 L 3008 719 L 3009 722 L 3011 721 Z
M 1121 715 L 1120 716 L 1121 721 L 1123 722 L 1125 721 L 1124 716 Z
M 1622 711 L 1621 716 L 1622 718 L 1624 718 L 1626 720 L 1628 728 L 1630 728 L 1632 726 L 1632 723 L 1628 718 L 1625 717 L 1624 713 Z
M 3017 710 L 3015 710 L 3014 715 L 3016 715 Z
M 1116 709 L 1116 714 L 1118 715 L 1118 711 Z
M 3020 704 L 3020 709 L 3021 709 L 3022 705 Z
M 1110 700 L 1110 704 L 1112 704 L 1112 701 Z
M 1609 694 L 1609 699 L 1615 703 L 1615 708 L 1617 711 L 1618 710 L 1618 703 L 1613 699 L 1612 695 Z
M 1105 693 L 1104 697 L 1106 698 L 1106 693 Z
M 3033 688 L 3031 690 L 3030 694 L 3027 696 L 3028 699 L 3034 695 L 3035 691 Z
M 3051 670 L 3047 674 L 3044 675 L 3042 679 L 3044 682 L 3051 676 Z
M 1592 670 L 1593 677 L 1595 677 L 1597 679 L 1597 681 L 1603 686 L 1603 690 L 1605 694 L 1607 691 L 1606 685 L 1602 682 L 1600 677 L 1595 674 L 1594 670 Z
M 2833 661 L 2834 663 L 2838 662 L 2838 660 Z
M 1586 660 L 1586 664 L 1588 665 L 1588 660 Z
M 1081 660 L 1080 662 L 1081 667 L 1085 668 L 1087 676 L 1091 681 L 1094 682 L 1095 681 L 1094 675 L 1092 675 L 1089 672 L 1089 670 L 1084 667 L 1084 663 Z
M 3064 656 L 3062 656 L 3060 658 L 3060 660 L 3056 663 L 3061 663 Z
M 1075 652 L 1075 658 L 1078 658 L 1078 655 Z
M 3068 649 L 3066 650 L 3066 655 L 3069 654 Z
M 1068 645 L 1069 651 L 1072 652 L 1072 647 Z
M 3074 642 L 3071 645 L 3072 647 L 3075 646 Z
M 1571 637 L 1569 637 L 1570 642 Z
M 1063 637 L 1063 643 L 1065 645 L 1066 638 Z
M 3080 636 L 3077 638 L 3077 641 L 3080 641 L 3081 639 Z
M 2852 631 L 2850 632 L 2850 636 L 2852 634 Z
M 3086 630 L 3083 632 L 3083 635 L 3086 634 Z
M 3091 625 L 3089 627 L 3090 629 Z
M 1556 619 L 1557 624 L 1561 625 L 1559 618 Z
M 1046 614 L 1046 621 L 1051 625 L 1053 629 L 1056 629 L 1058 635 L 1060 635 L 1059 629 L 1056 628 L 1055 624 L 1049 619 L 1049 616 Z
M 1548 602 L 1546 602 L 1547 607 Z
M 2864 586 L 2862 587 L 2862 594 L 2861 595 L 2862 599 L 2864 598 L 2866 587 Z
M 3132 579 L 3129 581 L 3129 583 L 3132 583 Z
M 1017 577 L 1018 582 L 1020 581 L 1019 578 Z
M 3137 573 L 3135 575 L 3135 577 L 3138 576 Z
M 3143 567 L 3140 570 L 3142 572 L 3144 570 Z
M 1522 567 L 1523 573 L 1526 574 L 1528 577 L 1529 584 L 1533 585 L 1534 589 L 1539 593 L 1539 597 L 1542 601 L 1543 600 L 1542 592 L 1538 591 L 1536 584 L 1532 583 L 1531 575 L 1526 572 L 1525 567 Z
M 3161 549 L 3145 564 L 3145 566 L 3149 566 L 3150 561 L 3155 559 L 3155 555 L 3161 553 Z
M 1511 546 L 1511 554 L 1516 558 L 1517 564 L 1519 566 L 1520 565 L 1519 555 L 1514 547 Z
M 3190 520 L 3188 520 L 3183 525 L 3182 529 L 3177 530 L 3177 533 L 3175 535 L 3171 536 L 3170 540 L 3163 547 L 3164 548 L 3166 548 L 3166 545 L 3168 542 L 3171 543 L 3177 539 L 3178 533 L 3185 526 L 3189 525 Z
M 966 518 L 967 523 L 976 531 L 977 537 L 982 543 L 987 544 L 988 549 L 992 554 L 1004 565 L 1006 569 L 1011 572 L 1013 576 L 1014 575 L 1013 570 L 1009 569 L 1009 564 L 1003 559 L 1003 557 L 991 545 L 990 542 L 977 529 L 974 528 L 973 524 L 968 522 Z
M 3201 511 L 3199 511 L 3197 513 L 3200 513 Z
M 1500 510 L 1498 515 L 1499 516 L 1499 523 L 1501 527 L 1505 524 L 1505 521 L 1502 517 L 1502 512 Z
M 2846 511 L 2846 512 L 2858 511 L 2861 514 L 2862 522 L 2864 523 L 2865 521 L 2864 512 L 2860 506 L 2857 505 L 2852 511 L 2850 510 Z
M 3207 505 L 3206 504 L 3203 507 L 3205 508 Z
M 948 501 L 950 506 L 954 507 Z
M 3219 492 L 3215 494 L 3215 496 L 3218 496 Z
M 3224 487 L 3220 490 L 3224 490 Z
M 931 487 L 930 490 L 935 496 L 942 496 L 943 495 L 940 494 L 937 489 Z
M 2846 481 L 2846 483 L 2849 485 L 2850 488 L 2853 489 L 2851 484 Z
M 914 476 L 914 478 L 918 479 L 921 484 L 923 485 L 928 484 L 927 482 L 922 481 L 920 479 L 920 477 Z
M 2833 463 L 2832 468 L 2836 472 L 2840 472 L 2839 466 Z
M 875 452 L 875 455 L 877 456 L 883 455 L 881 453 Z
M 2810 448 L 2811 450 L 2815 451 L 2817 455 L 2820 455 L 2815 448 Z
M 867 448 L 868 450 L 873 451 L 874 450 L 870 447 Z
M 852 440 L 853 444 L 861 443 L 858 441 Z
M 1524 435 L 1518 437 L 1517 441 L 1513 442 L 1511 447 L 1506 449 L 1505 458 L 1503 460 L 1501 460 L 1499 464 L 1498 470 L 1499 478 L 1497 479 L 1496 483 L 1501 481 L 1502 471 L 1506 465 L 1508 452 L 1522 438 L 1525 437 Z
M 841 435 L 841 438 L 850 438 L 845 435 Z
M 2783 435 L 2783 437 L 2786 439 L 2793 439 L 2796 444 L 2803 443 L 2797 439 L 2794 440 L 2792 437 L 2787 434 Z
M 828 431 L 832 433 L 837 432 L 834 430 Z
M 2771 430 L 2774 433 L 2777 432 L 2781 433 L 2775 429 Z
M 2758 425 L 2760 427 L 2768 427 L 2767 425 L 2760 423 Z
M 811 424 L 813 427 L 819 426 L 816 423 Z
M 2746 419 L 2748 421 L 2751 420 Z
M 1553 419 L 1549 419 L 1547 422 L 1543 422 L 1538 424 L 1537 426 L 1538 427 L 1545 427 L 1547 425 L 1547 423 L 1552 421 Z
M 3315 413 L 3310 414 L 3310 417 L 3308 419 L 3301 421 L 3296 426 L 3297 427 L 3303 426 L 3303 424 L 3310 417 L 3313 416 Z
M 1581 410 L 1568 413 L 1569 415 L 1579 414 Z
M 2701 407 L 2701 409 L 2710 410 L 2715 414 L 2722 414 L 2723 415 L 2726 414 L 2713 407 L 2708 406 Z
M 1593 408 L 1591 406 L 1588 406 L 1583 409 L 1588 410 Z
M 753 408 L 760 409 L 767 414 L 770 414 L 772 410 L 765 407 L 758 407 L 757 406 Z
M 2643 398 L 2643 402 L 2645 403 L 2648 402 L 2657 403 L 2657 401 L 2652 396 L 2647 396 Z
M 684 396 L 685 398 L 703 398 L 704 397 L 700 395 Z
M 666 366 L 665 368 L 666 373 L 671 374 L 671 366 Z
M 1668 365 L 1667 377 L 1669 379 L 1670 368 Z
M 3354 357 L 3352 356 L 2630 356 L 2625 359 L 2624 362 L 2624 382 L 2626 386 L 2630 388 L 2648 389 L 2677 394 L 2691 394 L 2707 399 L 2721 401 L 2729 405 L 2741 407 L 2746 410 L 2755 412 L 2759 415 L 2769 418 L 2778 423 L 2781 423 L 2791 429 L 2796 430 L 2803 435 L 2807 435 L 2813 441 L 2815 441 L 2821 446 L 2825 447 L 2829 452 L 2832 453 L 2845 464 L 2853 474 L 2853 476 L 2858 481 L 2860 486 L 2863 488 L 2865 495 L 2868 499 L 2869 506 L 2874 514 L 2875 525 L 2877 530 L 2877 538 L 2880 549 L 2880 562 L 2877 572 L 2877 579 L 2875 585 L 2874 596 L 2870 605 L 2867 617 L 2863 625 L 2863 628 L 2858 636 L 2858 639 L 2854 646 L 2852 653 L 2841 671 L 2841 674 L 2837 679 L 2835 685 L 2830 691 L 2828 697 L 2814 717 L 2811 724 L 2807 728 L 2806 732 L 2803 734 L 2800 741 L 2791 753 L 2788 760 L 2784 764 L 2784 766 L 2779 772 L 2777 777 L 2773 781 L 2766 794 L 2761 799 L 2754 812 L 2751 814 L 2738 835 L 2727 849 L 2726 853 L 2721 857 L 2719 862 L 2715 867 L 2715 869 L 2711 872 L 2703 887 L 2698 891 L 2691 905 L 2687 908 L 2681 916 L 2679 922 L 2676 924 L 2669 934 L 2667 939 L 2664 941 L 2663 944 L 2654 955 L 2651 962 L 2646 966 L 2639 980 L 2630 989 L 2627 996 L 2623 1000 L 2622 1003 L 2618 1006 L 2611 1019 L 2601 1031 L 2599 1037 L 2594 1041 L 2593 1044 L 2589 1048 L 2586 1055 L 2583 1057 L 2582 1060 L 2577 1065 L 2576 1069 L 2570 1078 L 2565 1082 L 2560 1090 L 2559 1094 L 2550 1103 L 2542 1117 L 2537 1121 L 2535 1126 L 2531 1130 L 2530 1135 L 2524 1140 L 2524 1142 L 2520 1146 L 2517 1153 L 2514 1155 L 2512 1159 L 2507 1164 L 2506 1170 L 2496 1180 L 2495 1184 L 2489 1193 L 2485 1196 L 2480 1203 L 2477 1210 L 2468 1219 L 2460 1234 L 2455 1238 L 2454 1241 L 2450 1245 L 2448 1251 L 2438 1261 L 2436 1268 L 2433 1270 L 2431 1275 L 2426 1279 L 2422 1285 L 2420 1291 L 2415 1295 L 2414 1298 L 2410 1302 L 2408 1308 L 2398 1318 L 2395 1325 L 2392 1328 L 2391 1332 L 2386 1335 L 2385 1339 L 2380 1344 L 2379 1348 L 2374 1351 L 2373 1354 L 2374 1367 L 2379 1372 L 2380 1375 L 2385 1379 L 2387 1386 L 2391 1390 L 2392 1393 L 2396 1396 L 2398 1402 L 2402 1406 L 2404 1411 L 2407 1413 L 2409 1419 L 2414 1424 L 2415 1428 L 2419 1431 L 2421 1438 L 2425 1442 L 2431 1443 L 2439 1438 L 2441 1433 L 2452 1420 L 2452 1418 L 2457 1414 L 2469 1396 L 2474 1392 L 2475 1389 L 2480 1384 L 2481 1380 L 2486 1375 L 2487 1372 L 2492 1368 L 2493 1365 L 2498 1360 L 2504 1349 L 2508 1347 L 2521 1327 L 2526 1323 L 2527 1320 L 2533 1314 L 2540 1303 L 2543 1301 L 2544 1298 L 2554 1287 L 2562 1274 L 2567 1270 L 2568 1267 L 2573 1262 L 2579 1251 L 2583 1249 L 2585 1245 L 2589 1242 L 2591 1237 L 2601 1225 L 2602 1222 L 2608 1217 L 2615 1205 L 2624 1196 L 2625 1193 L 2631 1187 L 2637 1177 L 2641 1174 L 2642 1171 L 2646 1168 L 2653 1158 L 2655 1153 L 2659 1150 L 2660 1147 L 2670 1136 L 2677 1125 L 2688 1114 L 2700 1096 L 2705 1092 L 2706 1089 L 2711 1084 L 2718 1072 L 2722 1070 L 2723 1067 L 2729 1061 L 2735 1050 L 2746 1039 L 2753 1027 L 2763 1017 L 2764 1014 L 2769 1010 L 2776 998 L 2780 995 L 2781 992 L 2786 988 L 2787 985 L 2793 979 L 2793 977 L 2798 971 L 2798 969 L 2804 964 L 2805 961 L 2808 959 L 2822 939 L 2826 937 L 2827 934 L 2832 930 L 2845 910 L 2856 899 L 2863 887 L 2867 884 L 2869 880 L 2872 879 L 2886 858 L 2891 854 L 2902 841 L 2903 837 L 2908 832 L 2909 829 L 2913 827 L 2914 824 L 2919 820 L 2920 817 L 2926 811 L 2926 809 L 2932 800 L 2936 798 L 2937 795 L 2942 791 L 2944 787 L 2947 785 L 2949 781 L 2954 776 L 2961 765 L 2965 763 L 2966 760 L 2977 749 L 2984 738 L 2988 735 L 2989 732 L 2994 728 L 2996 724 L 2999 723 L 3001 719 L 3007 713 L 3008 710 L 3017 700 L 3018 697 L 3024 692 L 3048 663 L 3052 660 L 3053 657 L 3058 653 L 3058 651 L 3063 648 L 3064 645 L 3070 640 L 3094 612 L 3101 602 L 3103 602 L 3106 597 L 3109 596 L 3110 593 L 3116 588 L 3126 576 L 3190 510 L 3202 500 L 3226 476 L 3229 475 L 3239 464 L 3242 463 L 3246 458 L 3255 452 L 3273 435 L 3276 434 L 3302 412 L 3313 405 L 3324 395 L 3327 394 L 3332 389 L 3336 388 L 3354 374 L 3356 368 L 3356 362 Z
M 680 357 L 679 359 L 679 382 L 682 387 L 685 388 L 704 388 L 733 394 L 743 394 L 764 400 L 772 400 L 783 405 L 791 406 L 794 408 L 812 413 L 816 416 L 823 417 L 847 429 L 854 431 L 860 435 L 865 436 L 870 440 L 895 453 L 899 457 L 904 458 L 918 470 L 921 471 L 925 475 L 929 476 L 947 492 L 950 493 L 975 517 L 976 520 L 981 524 L 982 527 L 986 530 L 1039 593 L 1039 595 L 1043 598 L 1045 603 L 1056 616 L 1063 628 L 1067 631 L 1069 636 L 1073 638 L 1074 642 L 1078 646 L 1080 651 L 1084 654 L 1086 659 L 1090 661 L 1097 673 L 1102 678 L 1103 681 L 1108 685 L 1108 687 L 1114 696 L 1119 701 L 1120 704 L 1125 708 L 1126 712 L 1142 732 L 1149 744 L 1154 748 L 1160 759 L 1165 764 L 1166 767 L 1171 771 L 1179 785 L 1182 787 L 1188 795 L 1190 801 L 1196 809 L 1201 813 L 1201 815 L 1207 825 L 1212 829 L 1224 848 L 1229 852 L 1236 865 L 1241 870 L 1242 873 L 1245 875 L 1248 882 L 1258 894 L 1265 906 L 1269 909 L 1270 912 L 1275 917 L 1276 921 L 1281 926 L 1282 929 L 1287 933 L 1288 937 L 1293 945 L 1299 951 L 1311 970 L 1316 974 L 1317 978 L 1322 986 L 1327 990 L 1334 1003 L 1339 1008 L 1340 1011 L 1343 1013 L 1347 1021 L 1352 1028 L 1356 1031 L 1363 1043 L 1373 1055 L 1375 1060 L 1384 1071 L 1390 1082 L 1396 1088 L 1403 1101 L 1409 1107 L 1417 1120 L 1426 1130 L 1433 1142 L 1442 1153 L 1444 1158 L 1454 1170 L 1462 1184 L 1466 1187 L 1473 1200 L 1481 1209 L 1490 1223 L 1500 1234 L 1507 1246 L 1512 1250 L 1518 1262 L 1524 1268 L 1530 1279 L 1540 1291 L 1547 1303 L 1553 1309 L 1557 1317 L 1569 1332 L 1576 1344 L 1581 1349 L 1581 1351 L 1587 1360 L 1593 1366 L 1605 1384 L 1611 1390 L 1617 1401 L 1622 1406 L 1622 1408 L 1634 1424 L 1634 1426 L 1638 1429 L 1646 1443 L 1650 1446 L 1651 1450 L 1661 1463 L 1663 1468 L 1667 1472 L 1671 1479 L 1674 1481 L 1675 1485 L 1678 1487 L 1686 1500 L 1692 1506 L 1693 1509 L 1696 1511 L 1698 1516 L 1702 1520 L 1703 1524 L 1714 1537 L 1715 1541 L 1726 1555 L 1727 1559 L 1732 1563 L 1732 1565 L 1737 1571 L 1738 1575 L 1743 1579 L 1744 1583 L 1748 1587 L 1750 1592 L 1755 1597 L 1761 1607 L 1766 1612 L 1767 1616 L 1772 1620 L 1774 1625 L 1778 1629 L 1779 1634 L 1784 1638 L 1784 1640 L 1789 1645 L 1791 1651 L 1795 1654 L 1796 1658 L 1800 1661 L 1802 1666 L 1806 1670 L 1808 1676 L 1812 1679 L 1813 1682 L 1817 1686 L 1819 1692 L 1829 1702 L 1831 1709 L 1836 1713 L 1837 1717 L 1841 1720 L 1842 1725 L 1847 1730 L 1849 1735 L 1853 1738 L 1854 1742 L 1859 1747 L 1860 1751 L 1865 1755 L 1865 1757 L 1869 1761 L 1871 1767 L 1876 1771 L 1877 1774 L 1881 1778 L 1883 1784 L 1888 1788 L 1889 1792 L 1892 1794 L 1894 1798 L 1894 1801 L 1899 1805 L 1901 1810 L 1904 1811 L 1906 1818 L 1910 1821 L 1911 1825 L 1917 1830 L 1918 1834 L 1922 1838 L 1923 1843 L 1928 1846 L 1929 1850 L 1934 1856 L 1935 1861 L 1940 1864 L 1941 1868 L 1945 1871 L 1947 1878 L 1957 1888 L 1958 1894 L 1963 1898 L 1964 1902 L 1968 1905 L 1969 1910 L 1975 1916 L 1975 1918 L 1980 1922 L 1981 1926 L 1986 1932 L 1987 1936 L 1992 1939 L 1999 1954 L 2004 1957 L 2005 1961 L 2009 1965 L 2010 1970 L 2015 1973 L 2016 1977 L 2021 1982 L 2021 1986 L 2027 1991 L 2028 1995 L 2032 1998 L 2033 2004 L 2038 2008 L 2039 2011 L 2044 2016 L 2045 2022 L 2055 2032 L 2056 2038 L 2061 2042 L 2062 2046 L 2067 2049 L 2068 2054 L 2072 2058 L 2074 2064 L 2079 2067 L 2080 2073 L 2084 2076 L 2085 2080 L 2090 2083 L 2092 2090 L 2096 2094 L 2097 2098 L 2102 2101 L 2103 2105 L 2107 2109 L 2109 2116 L 2114 2119 L 2115 2123 L 2119 2127 L 2119 2131 L 2125 2136 L 2127 2141 L 2130 2144 L 2131 2149 L 2136 2152 L 2138 2157 L 2142 2160 L 2143 2166 L 2154 2177 L 2155 2183 L 2159 2186 L 2160 2190 L 2165 2194 L 2166 2200 L 2171 2204 L 2172 2208 L 2176 2210 L 2178 2218 L 2183 2222 L 2184 2226 L 2188 2228 L 2189 2233 L 2194 2238 L 2195 2242 L 2200 2245 L 2207 2260 L 2212 2263 L 2213 2267 L 2217 2271 L 2218 2276 L 2224 2281 L 2226 2287 L 2229 2290 L 2229 2293 L 2234 2297 L 2236 2302 L 2239 2305 L 2241 2311 L 2246 2314 L 2247 2318 L 2251 2322 L 2253 2329 L 2258 2332 L 2264 2341 L 2264 2345 L 2270 2350 L 2270 2352 L 2275 2357 L 2276 2363 L 2281 2367 L 2282 2370 L 2286 2374 L 2287 2380 L 2298 2391 L 2299 2396 L 2304 2400 L 2305 2404 L 2310 2407 L 2312 2413 L 2315 2416 L 2316 2421 L 2322 2426 L 2322 2428 L 2327 2434 L 2328 2438 L 2333 2442 L 2347 2463 L 2356 2463 L 2358 2461 L 2358 2453 L 2357 2452 L 2357 2369 L 2356 2368 L 2357 2362 L 2357 1816 L 2355 1811 L 2350 1806 L 2344 1797 L 2343 1793 L 2337 1787 L 2335 1782 L 2332 1779 L 2331 1775 L 2327 1772 L 2325 1767 L 2320 1761 L 2319 1757 L 2315 1754 L 2307 1740 L 2297 1728 L 2295 1722 L 2291 1719 L 2291 1717 L 2285 1710 L 2283 1705 L 2280 1703 L 2278 1697 L 2274 1693 L 2267 1681 L 2262 1676 L 2261 1672 L 2251 1660 L 2249 1654 L 2245 1651 L 2244 1647 L 2240 1644 L 2238 1638 L 2234 1634 L 2233 1630 L 2227 1624 L 2225 1618 L 2222 1616 L 2221 1612 L 2217 1608 L 2214 1601 L 2211 1599 L 2209 1594 L 2205 1591 L 2203 1585 L 2199 1581 L 2197 1576 L 2193 1573 L 2192 1569 L 2187 1564 L 2186 1560 L 2181 1556 L 2180 1552 L 2175 1547 L 2174 1543 L 2170 1540 L 2168 1535 L 2164 1531 L 2162 1525 L 2158 1522 L 2156 1516 L 2152 1513 L 2151 1508 L 2147 1505 L 2146 1500 L 2141 1494 L 2140 1490 L 2136 1487 L 2134 1481 L 2124 1469 L 2122 1463 L 2118 1460 L 2116 1455 L 2112 1452 L 2110 1446 L 2106 1443 L 2105 1439 L 2100 1435 L 2099 1431 L 2095 1427 L 2094 1422 L 2088 1417 L 2088 1415 L 2083 1409 L 2081 1403 L 2078 1402 L 2075 1396 L 2072 1394 L 2070 1387 L 2065 1384 L 2064 1379 L 2059 1374 L 2058 1369 L 2054 1367 L 2053 1363 L 2049 1359 L 2048 1353 L 2042 1348 L 2041 1344 L 2037 1341 L 2036 1335 L 2031 1332 L 2030 1328 L 2025 1323 L 2024 1318 L 2019 1315 L 2018 1311 L 2013 1306 L 2012 1300 L 2009 1299 L 2007 1297 L 2006 1293 L 2002 1290 L 2001 1284 L 1991 1274 L 1989 1267 L 1984 1263 L 1983 1259 L 1978 1255 L 1978 1251 L 1972 1245 L 1971 1241 L 1967 1238 L 1966 1233 L 1961 1229 L 1960 1224 L 1955 1220 L 1955 1216 L 1949 1210 L 1948 1206 L 1946 1206 L 1944 1204 L 1943 1198 L 1938 1194 L 1937 1190 L 1932 1186 L 1931 1182 L 1926 1177 L 1925 1172 L 1920 1169 L 1919 1165 L 1915 1161 L 1914 1156 L 1909 1153 L 1907 1147 L 1903 1143 L 1902 1138 L 1897 1135 L 1896 1131 L 1891 1125 L 1891 1122 L 1886 1118 L 1885 1115 L 1880 1110 L 1879 1104 L 1869 1094 L 1868 1089 L 1863 1084 L 1862 1080 L 1857 1076 L 1856 1070 L 1851 1066 L 1850 1062 L 1846 1059 L 1845 1053 L 1839 1048 L 1838 1044 L 1834 1041 L 1833 1036 L 1828 1032 L 1827 1028 L 1823 1025 L 1822 1020 L 1816 1014 L 1815 1010 L 1811 1008 L 1810 1003 L 1805 998 L 1804 994 L 1799 991 L 1798 987 L 1793 981 L 1793 978 L 1787 973 L 1786 969 L 1782 965 L 1781 959 L 1776 956 L 1774 950 L 1770 946 L 1769 941 L 1765 939 L 1764 935 L 1759 929 L 1757 923 L 1755 923 L 1753 921 L 1752 916 L 1747 911 L 1746 907 L 1741 903 L 1740 900 L 1736 896 L 1735 891 L 1729 886 L 1729 884 L 1724 879 L 1723 873 L 1718 870 L 1717 866 L 1712 860 L 1711 855 L 1708 854 L 1705 848 L 1701 845 L 1700 841 L 1695 836 L 1694 832 L 1690 829 L 1688 823 L 1684 819 L 1682 814 L 1678 811 L 1677 807 L 1672 801 L 1671 797 L 1666 793 L 1666 791 L 1660 783 L 1659 779 L 1655 776 L 1653 771 L 1649 767 L 1648 763 L 1643 759 L 1643 757 L 1637 750 L 1637 747 L 1626 734 L 1625 729 L 1620 724 L 1619 721 L 1615 718 L 1614 713 L 1603 700 L 1600 693 L 1597 691 L 1595 686 L 1592 684 L 1589 678 L 1585 674 L 1584 670 L 1580 667 L 1579 664 L 1575 660 L 1573 654 L 1568 649 L 1567 646 L 1564 644 L 1561 637 L 1551 625 L 1543 611 L 1540 609 L 1538 604 L 1528 591 L 1527 587 L 1521 580 L 1515 569 L 1510 564 L 1510 562 L 1498 540 L 1497 533 L 1493 528 L 1492 517 L 1487 503 L 1487 484 L 1490 474 L 1492 472 L 1493 461 L 1498 455 L 1500 448 L 1503 446 L 1505 442 L 1526 424 L 1530 423 L 1544 414 L 1553 411 L 1562 406 L 1571 404 L 1579 400 L 1584 400 L 1603 394 L 1615 394 L 1627 391 L 1634 391 L 1640 389 L 1648 389 L 1656 387 L 1660 381 L 1660 362 L 1659 359 L 1655 356 L 682 356 Z
M 3254 347 L 3256 349 L 3265 348 L 3263 346 Z
M 3115 347 L 3117 349 L 3136 349 L 3138 348 L 3135 346 Z
M 3017 347 L 3019 349 L 3038 349 L 3040 348 L 3037 346 Z
M 2855 347 L 2857 349 L 2911 349 L 2913 348 L 2910 346 L 2858 346 Z
M 2757 347 L 2759 349 L 2778 349 L 2780 348 L 2778 346 L 2759 346 Z
M 2647 347 L 2649 349 L 2679 349 L 2682 348 L 2679 346 L 2650 346 Z
M 1589 347 L 1591 349 L 1604 349 L 1606 348 L 1604 346 Z
M 1358 347 L 1360 349 L 1379 349 L 1381 348 L 1378 346 Z
M 1069 347 L 1071 349 L 1080 348 L 1077 346 Z
M 954 347 L 956 349 L 971 348 L 968 346 L 956 346 Z
M 884 347 L 886 349 L 945 349 L 947 348 L 945 346 L 886 346 Z
M 734 347 L 736 349 L 766 349 L 768 348 L 766 346 L 737 346 Z" fill="#000000" fill-rule="evenodd"/>
</svg>
