<?xml version="1.0" encoding="UTF-8"?>
<svg xmlns="http://www.w3.org/2000/svg" width="2400px" height="600px" viewBox="0 0 2400 600" role="img" aria-labelledby="title">
<title>YongAI logo</title>
<rect width="2400" height="600" fill="#FFFFFF"/>
<path d="M 774 326 L 774 439 L 771 452 L 768 457 L 760 465 L 754 468 L 748 469 L 748 474 L 884 474 L 884 469 L 878 468 L 869 463 L 858 451 L 809 376 L 781 336 L 777 328 Z
M 1269 299 L 1276 300 L 1284 304 L 1289 310 L 1293 320 L 1293 333 L 1289 343 L 1284 349 L 1273 354 L 1265 354 L 1256 351 L 1249 344 L 1245 335 L 1245 328 L 1244 327 L 1245 318 L 1250 308 L 1259 301 Z
M 1772 292 L 1771 293 L 1771 360 L 1773 362 L 1781 362 L 1783 360 L 1783 293 L 1782 292 Z
M 1666 292 L 1648 334 L 1645 344 L 1642 348 L 1638 361 L 1639 362 L 1648 362 L 1671 308 L 1677 319 L 1680 330 L 1683 335 L 1692 360 L 1695 362 L 1703 362 L 1704 358 L 1701 353 L 1700 348 L 1676 292 Z
M 1375 292 L 1375 361 L 1384 362 L 1386 360 L 1386 311 L 1387 310 L 1425 360 L 1428 362 L 1437 361 L 1437 292 L 1427 292 L 1426 293 L 1426 341 L 1425 342 L 1386 292 Z
M 1106 292 L 1106 294 L 1132 331 L 1132 360 L 1134 362 L 1142 362 L 1143 361 L 1143 347 L 1144 346 L 1143 340 L 1144 333 L 1143 332 L 1165 301 L 1170 292 L 1158 292 L 1138 321 L 1118 292 Z
M 1541 290 L 1536 292 L 1532 292 L 1523 296 L 1513 305 L 1507 319 L 1507 334 L 1513 348 L 1523 357 L 1535 362 L 1552 362 L 1566 356 L 1574 348 L 1574 324 L 1572 322 L 1544 322 L 1543 323 L 1543 332 L 1544 333 L 1562 333 L 1563 334 L 1563 344 L 1558 349 L 1551 352 L 1541 353 L 1533 351 L 1524 344 L 1519 334 L 1519 318 L 1523 310 L 1529 304 L 1539 300 L 1548 300 L 1558 304 L 1564 310 L 1566 310 L 1571 306 L 1571 303 L 1564 296 L 1558 293 L 1546 290 Z
M 1257 292 L 1246 298 L 1240 304 L 1234 314 L 1233 318 L 1234 339 L 1242 352 L 1250 358 L 1260 362 L 1278 362 L 1291 356 L 1301 345 L 1305 333 L 1304 315 L 1298 304 L 1292 298 L 1283 293 L 1271 290 Z
M 997 101 L 994 100 L 897 100 L 893 101 L 893 105 L 908 107 L 922 114 L 921 116 L 923 115 L 928 122 L 929 131 L 927 139 L 925 141 L 922 149 L 898 185 L 857 242 L 857 245 L 864 255 L 866 255 L 913 193 L 951 146 L 981 115 L 996 104 Z
M 616 101 L 616 105 L 631 107 L 645 113 L 652 118 L 668 135 L 775 285 L 778 291 L 795 314 L 853 400 L 855 400 L 854 397 L 855 395 L 854 390 L 854 382 L 855 381 L 854 376 L 854 366 L 855 365 L 855 358 L 854 357 L 855 354 L 855 340 L 854 339 L 855 337 L 854 335 L 855 318 L 854 311 L 855 310 L 854 307 L 794 217 L 784 204 L 765 174 L 763 173 L 750 152 L 734 130 L 731 123 L 731 117 L 738 109 L 746 106 L 753 106 L 756 104 L 756 102 L 753 100 L 621 100 Z" fill="#000000" fill-rule="evenodd"/>
</svg>
